<?xml version="1.0" encoding="UTF-8" standalone="no"?>
<svg width="187.678mm" height="150.283mm"
 xmlns="http://www.w3.org/2000/svg" xmlns:xlink="http://www.w3.org/1999/xlink"  version="1.2" baseProfile="tiny">
<title>Qt SVG Document</title>
<desc>Generated with Qt</desc>
<defs>
</defs>
<g fill="none" stroke="black" stroke-width="1" fill-rule="evenodd" stroke-linecap="square" stroke-linejoin="bevel" >

<g fill="none" stroke="#000000" stroke-opacity="1" stroke-width="1" stroke-linecap="square" stroke-linejoin="bevel" transform="matrix(1,0,0,1,0,0)"
font-family="Ubuntu" font-size="11" font-weight="400" font-style="normal" 
>
</g>

<g fill="none" stroke="#000000" stroke-opacity="1" stroke-width="1" stroke-linecap="square" stroke-linejoin="bevel" transform="matrix(1,0,0,1,0,0)"
font-family="Ubuntu" font-size="11" font-weight="400" font-style="normal" 
>
</g>

<g fill="none" stroke="#000000" stroke-opacity="1" stroke-width="1" stroke-linecap="square" stroke-linejoin="bevel" transform="matrix(2,0,0,2,-15,441)"
font-family="Ubuntu" font-size="11" font-weight="400" font-style="normal" 
>
</g>

<g fill="#ffffff" fill-opacity="1" stroke="none" transform="matrix(2,0,0,2,-15,441)"
font-family="Ubuntu" font-size="11" font-weight="400" font-style="normal" 
>
<rect x="7.5" y="-220.5" width="265.784" height="213"/>
</g>

<g fill="none" stroke="#000000" stroke-opacity="1" stroke-width="1" stroke-linecap="square" stroke-linejoin="bevel" transform="matrix(2,0,0,2,-15,441)"
font-family="Ubuntu" font-size="11" font-weight="400" font-style="normal" 
>
</g>

<g fill="none" stroke="#000000" stroke-opacity="1" stroke-width="1" stroke-linecap="square" stroke-linejoin="bevel" transform="matrix(2,0,0,2,-15,441)"
font-family="Ubuntu" font-size="11" font-weight="400" font-style="normal" 
>
</g>

<g fill="none" stroke="#000000" stroke-opacity="1" stroke-width="1" stroke-linecap="square" stroke-linejoin="bevel" transform="matrix(2,0,0,2,-15,441)"
font-family="Ubuntu" font-size="11" font-weight="400" font-style="normal" 
>
</g>

<g fill="none" stroke="#000000" stroke-opacity="1" stroke-width="1" stroke-linecap="square" stroke-linejoin="bevel" transform="matrix(2,0,0,2,-15,441)"
font-family="Ubuntu" font-size="11" font-weight="400" font-style="normal" 
>
</g>

<g fill="none" stroke="#000000" stroke-opacity="1" stroke-width="1" stroke-linecap="square" stroke-linejoin="round" transform="matrix(2,0,0,2,-15,441)"
font-family="Ubuntu" font-size="11" font-weight="400" font-style="normal" 
>
<rect x="8" y="-220" width="139" height="129"/>
</g>

<g fill="none" stroke="#000000" stroke-opacity="1" stroke-width="1" stroke-linecap="square" stroke-linejoin="bevel" transform="matrix(2,0,0,2,-15,441)"
font-family="Ubuntu" font-size="11" font-weight="400" font-style="normal" 
>
</g>

<g fill="none" stroke="#000000" stroke-opacity="1" stroke-width="1" stroke-linecap="square" stroke-linejoin="bevel" transform="matrix(2,0,0,2,114.547,10)"
font-family="Ubuntu" font-size="11" font-weight="400" font-style="normal" 
>
</g>

<g fill="none" stroke="#000000" stroke-opacity="1" stroke-width="1" stroke-linecap="square" stroke-linejoin="bevel" transform="matrix(2,0,0,2,114.547,10)"
font-family="sans" font-size="11" font-weight="100" font-style="normal" 
>
</g>

<g fill="#000000" fill-opacity="1" stroke="#000000" stroke-opacity="1" stroke-width="1" stroke-linecap="square" stroke-linejoin="round" transform="matrix(2,0,0,2,114.547,10)"
font-family="sans" font-size="11" font-weight="100" font-style="normal" 
>
<path vector-effect="none" fill-rule="nonzero" d="M2.96875,2.98438 L3.53125,2.98438 L0.734375,12.0156 L0.171875,12.0156 L2.96875,2.98438 M7.35938,7.60938 C6.55729,7.60938 5.98177,7.75 5.63281,8.03125 C5.28385,8.3125 5.10938,8.72396 5.10938,9.26563 C5.10938,9.79688 5.25521,10.1745 5.54688,10.3984 C5.83854,10.6224 6.18229,10.7344 6.57813,10.7344 C7.32813,10.7344 7.86979,10.4167 8.20313,9.78125 C8.53646,9.13542 8.70313,8.53125 8.70313,7.96875 L8.70313,7.60938 L7.35938,7.60938 M9.20313,7.5625 L9.20313,11 L8.70313,11 L8.70313,9.35938 C8.43229,10.1615 8.06771,10.6719 7.60938,10.8906 C7.25521,11.0677 6.89583,11.1563 6.53125,11.1563 C5.9375,11.1563 5.46875,10.9948 5.125,10.6719 C4.78125,10.349 4.60938,9.8776 4.60938,9.25781 C4.60938,8.63802 4.83333,8.14063 5.28125,7.76563 C5.72917,7.39063 6.45833,7.20313 7.46875,7.20313 L8.70313,7.20313 L8.70313,7.10938 C8.70313,6.57813 8.54688,6.14063 8.23438,5.79688 C7.94271,5.45313 7.44792,5.28125 6.75,5.28125 C6.40625,5.28125 6.05729,5.34375 5.70313,5.46875 C5.47396,5.55208 5.17188,5.71875 4.79688,5.96875 L4.79688,5.4375 C5.11979,5.23958 5.42188,5.09896 5.70313,5.01563 C6.09896,4.90104 6.47917,4.84375 6.84375,4.84375 C7.5625,4.84375 8.15104,5.05729 8.60938,5.48438 C9.00521,5.84896 9.20313,6.54167 9.20313,7.5625 M14.9531,5.40625 C14.8698,5.36458 14.7604,5.33333 14.625,5.3125 C14.5,5.29167 14.349,5.28125 14.1719,5.28125 C13.5573,5.28125 13.0521,5.50521 12.6563,5.95313 C12.3333,6.31771 12.1719,6.94271 12.1719,7.82813 L12.1719,11 L11.6875,11 L11.6875,4.98438 L12.1719,4.98438 L12.1719,6.10938 C12.3385,5.78646 12.5677,5.51563 12.8594,5.29688 C13.2552,4.99479 13.724,4.84375 14.2656,4.84375 C14.4115,4.84375 14.5365,4.84896 14.6406,4.85938 C14.7448,4.85938 14.849,4.86979 14.9531,4.89063 L14.9531,5.40625 M20.3281,6.29688 C20.5156,5.80729 20.8073,5.44271 21.2031,5.20313 C21.5885,4.96354 22.0417,4.84375 22.5625,4.84375 C23.0833,4.84375 23.5,5.02604 23.8125,5.39063 C24.1354,5.75521 24.2969,6.41667 24.2969,7.375 L24.2969,11 L23.8125,11 L23.8125,7.40625 C23.8125,6.57292 23.6979,6.01042 23.4688,5.71875 C23.2396,5.42708 22.9323,5.28125 22.5469,5.28125 C21.9948,5.28125 21.5104,5.44792 21.0938,5.78125 C20.625,6.15625 20.3906,6.76042 20.3906,7.59375 L20.3906,11 L19.9063,11 L19.9063,7.40625 C19.9063,6.60417 19.7943,6.04948 19.5703,5.74219 C19.3464,5.4349 19.0365,5.28125 18.6406,5.28125 C18.0885,5.28125 17.6042,5.45313 17.1875,5.79688 C16.7188,6.16146 16.4844,6.76042 16.4844,7.59375 L16.4844,11 L16,11 L16,4.98438 L16.4844,4.98438 L16.4844,6.10938 C16.6615,5.71354 16.9375,5.40104 17.3125,5.17188 C17.6771,4.95313 18.1302,4.84375 18.6719,4.84375 C19.026,4.84375 19.3646,4.95833 19.6875,5.1875 C19.9375,5.375 20.151,5.74479 20.3281,6.29688 "/>
</g>

<g fill="none" stroke="#000000" stroke-opacity="1" stroke-width="1" stroke-linecap="square" stroke-linejoin="bevel" transform="matrix(2,0,0,2,114.547,10)"
font-family="sans" font-size="11" font-weight="100" font-style="normal" 
>
</g>

<g fill="none" stroke="#000000" stroke-opacity="1" stroke-width="1" stroke-linecap="square" stroke-linejoin="bevel" transform="matrix(2,0,0,2,114.547,10)"
font-family="Ubuntu" font-size="11" font-weight="400" font-style="normal" 
>
</g>

<g fill="none" stroke="#000000" stroke-opacity="1" stroke-width="1" stroke-linecap="square" stroke-linejoin="bevel" transform="matrix(2,0,0,2,-15,441)"
font-family="Ubuntu" font-size="11" font-weight="400" font-style="normal" 
>
</g>

<g fill="none" stroke="#000000" stroke-opacity="1" stroke-width="1" stroke-linecap="square" stroke-linejoin="bevel" transform="matrix(2,0,0,2,-15,441)"
font-family="Ubuntu" font-size="11" font-weight="400" font-style="normal" 
>
</g>

<g fill="none" stroke="#000000" stroke-opacity="1" stroke-width="1" stroke-linecap="square" stroke-linejoin="bevel" transform="matrix(2,0,0,2,-15,441)"
font-family="Ubuntu" font-size="11" font-weight="400" font-style="normal" 
>
</g>

<g fill="none" stroke="#000000" stroke-opacity="1" stroke-width="1" stroke-linecap="square" stroke-linejoin="round" transform="matrix(2,0,0,2,-15,441)"
font-family="Ubuntu" font-size="11" font-weight="400" font-style="normal" 
>
<rect x="16.5012" y="-188.5" width="121.998" height="35"/>
</g>

<g fill="none" stroke="#000000" stroke-opacity="1" stroke-width="1" stroke-linecap="square" stroke-linejoin="bevel" transform="matrix(2,0,0,2,-15,441)"
font-family="Ubuntu" font-size="11" font-weight="400" font-style="normal" 
>
</g>

<g fill="none" stroke="#000000" stroke-opacity="1" stroke-width="1" stroke-linecap="square" stroke-linejoin="bevel" transform="matrix(2,0,0,2,56,85)"
font-family="Ubuntu" font-size="11" font-weight="400" font-style="normal" 
>
</g>

<g fill="none" stroke="#000000" stroke-opacity="1" stroke-width="1" stroke-linecap="square" stroke-linejoin="bevel" transform="matrix(2,0,0,2,56,85)"
font-family="sans" font-size="11" font-weight="100" font-style="normal" 
>
</g>

<g fill="#000000" fill-opacity="1" stroke="#000000" stroke-opacity="1" stroke-width="1" stroke-linecap="square" stroke-linejoin="round" transform="matrix(2,0,0,2,56,85)"
font-family="sans" font-size="11" font-weight="100" font-style="normal" 
>
<path vector-effect="none" fill-rule="nonzero" d="M2.96875,2.98438 L3.53125,2.98438 L0.734375,12.0156 L0.171875,12.0156 L2.96875,2.98438 M7.35938,7.60938 C6.55729,7.60938 5.98177,7.75 5.63281,8.03125 C5.28385,8.3125 5.10938,8.72396 5.10938,9.26563 C5.10938,9.79688 5.25521,10.1745 5.54688,10.3984 C5.83854,10.6224 6.18229,10.7344 6.57813,10.7344 C7.32813,10.7344 7.86979,10.4167 8.20313,9.78125 C8.53646,9.13542 8.70313,8.53125 8.70313,7.96875 L8.70313,7.60938 L7.35938,7.60938 M9.20313,7.5625 L9.20313,11 L8.70313,11 L8.70313,9.35938 C8.43229,10.1615 8.06771,10.6719 7.60938,10.8906 C7.25521,11.0677 6.89583,11.1563 6.53125,11.1563 C5.9375,11.1563 5.46875,10.9948 5.125,10.6719 C4.78125,10.349 4.60938,9.8776 4.60938,9.25781 C4.60938,8.63802 4.83333,8.14063 5.28125,7.76563 C5.72917,7.39063 6.45833,7.20313 7.46875,7.20313 L8.70313,7.20313 L8.70313,7.10938 C8.70313,6.57813 8.54688,6.14063 8.23438,5.79688 C7.94271,5.45313 7.44792,5.28125 6.75,5.28125 C6.40625,5.28125 6.05729,5.34375 5.70313,5.46875 C5.47396,5.55208 5.17188,5.71875 4.79688,5.96875 L4.79688,5.4375 C5.11979,5.23958 5.42188,5.09896 5.70313,5.01563 C6.09896,4.90104 6.47917,4.84375 6.84375,4.84375 C7.5625,4.84375 8.15104,5.05729 8.60938,5.48438 C9.00521,5.84896 9.20313,6.54167 9.20313,7.5625 M14.9531,5.40625 C14.8698,5.36458 14.7604,5.33333 14.625,5.3125 C14.5,5.29167 14.349,5.28125 14.1719,5.28125 C13.5573,5.28125 13.0521,5.50521 12.6563,5.95313 C12.3333,6.31771 12.1719,6.94271 12.1719,7.82813 L12.1719,11 L11.6875,11 L11.6875,4.98438 L12.1719,4.98438 L12.1719,6.10938 C12.3385,5.78646 12.5677,5.51563 12.8594,5.29688 C13.2552,4.99479 13.724,4.84375 14.2656,4.84375 C14.4115,4.84375 14.5365,4.84896 14.6406,4.85938 C14.7448,4.85938 14.849,4.86979 14.9531,4.89063 L14.9531,5.40625 M20.3281,6.29688 C20.5156,5.80729 20.8073,5.44271 21.2031,5.20313 C21.5885,4.96354 22.0417,4.84375 22.5625,4.84375 C23.0833,4.84375 23.5,5.02604 23.8125,5.39063 C24.1354,5.75521 24.2969,6.41667 24.2969,7.375 L24.2969,11 L23.8125,11 L23.8125,7.40625 C23.8125,6.57292 23.6979,6.01042 23.4688,5.71875 C23.2396,5.42708 22.9323,5.28125 22.5469,5.28125 C21.9948,5.28125 21.5104,5.44792 21.0938,5.78125 C20.625,6.15625 20.3906,6.76042 20.3906,7.59375 L20.3906,11 L19.9063,11 L19.9063,7.40625 C19.9063,6.60417 19.7943,6.04948 19.5703,5.74219 C19.3464,5.4349 19.0365,5.28125 18.6406,5.28125 C18.0885,5.28125 17.6042,5.45313 17.1875,5.79688 C16.7188,6.16146 16.4844,6.76042 16.4844,7.59375 L16.4844,11 L16,11 L16,4.98438 L16.4844,4.98438 L16.4844,6.10938 C16.6615,5.71354 16.9375,5.40104 17.3125,5.17188 C17.6771,4.95313 18.1302,4.84375 18.6719,4.84375 C19.026,4.84375 19.3646,4.95833 19.6875,5.1875 C19.9375,5.375 20.151,5.74479 20.3281,6.29688 M28.4219,2.98438 L28.9844,2.98438 L26.1875,12.0156 L25.625,12.0156 L28.4219,2.98438 M34.5156,5.28125 L34.5156,5.79688 C34.224,5.61979 33.9792,5.5 33.7813,5.4375 C33.4479,5.33333 33.1302,5.28125 32.8281,5.28125 C31.9635,5.28125 31.3438,5.5026 30.9688,5.94531 C30.5938,6.38802 30.4063,7.07292 30.4063,8 C30.4063,8.9375 30.5938,9.6276 30.9688,10.0703 C31.3438,10.513 31.9635,10.7344 32.8281,10.7344 C33.1198,10.7344 33.401,10.6927 33.6719,10.6094 C33.9635,10.5365 34.2448,10.4219 34.5156,10.2656 L34.5156,10.7656 C34.2448,10.901 33.9635,11 33.6719,11.0625 C33.3698,11.125 33.0729,11.1563 32.7813,11.1563 C31.9063,11.1563 31.2083,10.9167 30.6875,10.4375 C30.1667,9.95833 29.9063,9.14323 29.9063,7.99219 C29.9063,6.84115 30.1667,6.02604 30.6875,5.54688 C31.2083,5.07813 31.9063,4.84375 32.7813,4.84375 C33.0729,4.84375 33.3802,4.88542 33.7031,4.96875 C34.026,5.04167 34.2969,5.14583 34.5156,5.28125 M40.0313,6.01563 C39.6771,5.52604 39.1927,5.28125 38.5781,5.28125 C37.9635,5.28125 37.4792,5.52604 37.125,6.01563 C36.7708,6.49479 36.5938,7.15104 36.5938,7.98438 C36.5938,8.83854 36.7708,9.51042 37.125,10 C37.4792,10.4896 37.9635,10.7344 38.5781,10.7344 C39.1927,10.7344 39.6771,10.4896 40.0313,10 C40.3854,9.5 40.5625,8.82813 40.5625,7.98438 C40.5625,7.16146 40.3854,6.50521 40.0313,6.01563 M38.5781,4.84375 C39.3385,4.84375 39.9427,5.13021 40.3906,5.70313 C40.8385,6.27604 41.0625,7.03646 41.0625,7.98438 C41.0625,8.97396 40.8385,9.75521 40.3906,10.3281 C39.9427,10.901 39.3385,11.1875 38.5781,11.1875 C37.7969,11.1875 37.1823,10.901 36.7344,10.3281 C36.2969,9.75521 36.0781,8.97396 36.0781,7.98438 C36.0781,7.02604 36.3021,6.26302 36.75,5.69531 C37.1979,5.1276 37.8073,4.84375 38.5781,4.84375 M47.5,6.29688 C47.6875,5.80729 47.9792,5.44271 48.375,5.20313 C48.7604,4.96354 49.2135,4.84375 49.7344,4.84375 C50.2552,4.84375 50.6719,5.02604 50.9844,5.39063 C51.3073,5.75521 51.4688,6.41667 51.4688,7.375 L51.4688,11 L50.9844,11 L50.9844,7.40625 C50.9844,6.57292 50.8698,6.01042 50.6406,5.71875 C50.4115,5.42708 50.1042,5.28125 49.7188,5.28125 C49.1667,5.28125 48.6823,5.44792 48.2656,5.78125 C47.7969,6.15625 47.5625,6.76042 47.5625,7.59375 L47.5625,11 L47.0781,11 L47.0781,7.40625 C47.0781,6.60417 46.9661,6.04948 46.7422,5.74219 C46.5182,5.4349 46.2083,5.28125 45.8125,5.28125 C45.2604,5.28125 44.776,5.45313 44.3594,5.79688 C43.8906,6.16146 43.6563,6.76042 43.6563,7.59375 L43.6563,11 L43.1719,11 L43.1719,4.98438 L43.6563,4.98438 L43.6563,6.10938 C43.8333,5.71354 44.1094,5.40104 44.4844,5.17188 C44.849,4.95313 45.3021,4.84375 45.8438,4.84375 C46.1979,4.84375 46.5365,4.95833 46.8594,5.1875 C47.1094,5.375 47.3229,5.74479 47.5,6.29688 M58.2031,6.29688 C58.3906,5.80729 58.6823,5.44271 59.0781,5.20313 C59.4635,4.96354 59.9167,4.84375 60.4375,4.84375 C60.9583,4.84375 61.375,5.02604 61.6875,5.39063 C62.0104,5.75521 62.1719,6.41667 62.1719,7.375 L62.1719,11 L61.6875,11 L61.6875,7.40625 C61.6875,6.57292 61.5729,6.01042 61.3438,5.71875 C61.1146,5.42708 60.8073,5.28125 60.4219,5.28125 C59.8698,5.28125 59.3854,5.44792 58.9688,5.78125 C58.5,6.15625 58.2656,6.76042 58.2656,7.59375 L58.2656,11 L57.7813,11 L57.7813,7.40625 C57.7813,6.60417 57.6693,6.04948 57.4453,5.74219 C57.2214,5.4349 56.9115,5.28125 56.5156,5.28125 C55.9635,5.28125 55.4792,5.45313 55.0625,5.79688 C54.5938,6.16146 54.3594,6.76042 54.3594,7.59375 L54.3594,11 L53.875,11 L53.875,4.98438 L54.3594,4.98438 L54.3594,6.10938 C54.5365,5.71354 54.8125,5.40104 55.1875,5.17188 C55.5521,4.95313 56.0052,4.84375 56.5469,4.84375 C56.901,4.84375 57.2396,4.95833 57.5625,5.1875 C57.8125,5.375 58.026,5.74479 58.2031,6.29688 M66.9844,7.60938 C66.1823,7.60938 65.6068,7.75 65.2578,8.03125 C64.9089,8.3125 64.7344,8.72396 64.7344,9.26563 C64.7344,9.79688 64.8802,10.1745 65.1719,10.3984 C65.4635,10.6224 65.8073,10.7344 66.2031,10.7344 C66.9531,10.7344 67.4948,10.4167 67.8281,9.78125 C68.1615,9.13542 68.3281,8.53125 68.3281,7.96875 L68.3281,7.60938 L66.9844,7.60938 M68.8281,7.5625 L68.8281,11 L68.3281,11 L68.3281,9.35938 C68.0573,10.1615 67.6927,10.6719 67.2344,10.8906 C66.8802,11.0677 66.5208,11.1563 66.1563,11.1563 C65.5625,11.1563 65.0938,10.9948 64.75,10.6719 C64.4063,10.349 64.2344,9.8776 64.2344,9.25781 C64.2344,8.63802 64.4583,8.14063 64.9063,7.76563 C65.3542,7.39063 66.0833,7.20313 67.0938,7.20313 L68.3281,7.20313 L68.3281,7.10938 C68.3281,6.57813 68.1719,6.14063 67.8594,5.79688 C67.5677,5.45313 67.0729,5.28125 66.375,5.28125 C66.0313,5.28125 65.6823,5.34375 65.3281,5.46875 C65.099,5.55208 64.7969,5.71875 64.4219,5.96875 L64.4219,5.4375 C64.7448,5.23958 65.0469,5.09896 65.3281,5.01563 C65.724,4.90104 66.1042,4.84375 66.4688,4.84375 C67.1875,4.84375 67.776,5.05729 68.2344,5.48438 C68.6302,5.84896 68.8281,6.54167 68.8281,7.5625 M75.8594,7.375 L75.8594,11 L75.3594,11 L75.3594,7.40625 C75.3594,6.625 75.2344,6.07552 74.9844,5.75781 C74.7344,5.4401 74.3646,5.28125 73.875,5.28125 C73.3021,5.28125 72.8177,5.45313 72.4219,5.79688 C72.0052,6.14063 71.7969,6.73958 71.7969,7.59375 L71.7969,11 L71.3125,11 L71.3125,4.98438 L71.7969,4.98438 L71.7969,6.10938 C71.974,5.74479 72.2083,5.46875 72.5,5.28125 C72.9167,4.98958 73.3802,4.84375 73.8906,4.84375 C74.4948,4.84375 74.974,5.04688 75.3281,5.45313 C75.6823,5.84896 75.8594,6.48958 75.8594,7.375 M82.2813,6.35938 L82.2813,2.64063 L82.75,2.64063 L82.75,11 L82.2813,11 L82.2813,9.64063 C82.0521,10.1615 81.8021,10.5156 81.5313,10.7031 C81.1354,11.0052 80.7552,11.1563 80.3906,11.1563 C79.6823,11.1563 79.0911,10.8672 78.6172,10.2891 C78.1432,9.71094 77.9063,8.94792 77.9063,8 C77.9063,7.05208 78.1432,6.28906 78.6172,5.71094 C79.0911,5.13281 79.6823,4.84375 80.3906,4.84375 C80.7552,4.84375 81.1354,4.98958 81.5313,5.28125 C81.8021,5.47917 82.0521,5.83854 82.2813,6.35938 M79.0469,5.90625 C78.6302,6.32292 78.4219,7.02083 78.4219,8 C78.4219,8.97917 78.6302,9.67708 79.0469,10.0938 C79.4635,10.5104 79.901,10.7188 80.3594,10.7188 C80.8073,10.7188 81.2396,10.5104 81.6563,10.0938 C82.0625,9.67708 82.2656,8.97917 82.2656,8 C82.2656,7.02083 82.0625,6.32292 81.6563,5.90625 C81.2396,5.48958 80.8073,5.28125 80.3594,5.28125 C79.901,5.28125 79.4635,5.48958 79.0469,5.90625 "/>
</g>

<g fill="none" stroke="#000000" stroke-opacity="1" stroke-width="1" stroke-linecap="square" stroke-linejoin="bevel" transform="matrix(2,0,0,2,56,85)"
font-family="sans" font-size="11" font-weight="100" font-style="normal" 
>
</g>

<g fill="none" stroke="#000000" stroke-opacity="1" stroke-width="1" stroke-linecap="square" stroke-linejoin="bevel" transform="matrix(2,0,0,2,56,85)"
font-family="Ubuntu" font-size="11" font-weight="400" font-style="normal" 
>
</g>

<g fill="none" stroke="#000000" stroke-opacity="1" stroke-width="1" stroke-linecap="square" stroke-linejoin="bevel" transform="matrix(2,0,0,2,-15,441)"
font-family="Ubuntu" font-size="11" font-weight="400" font-style="normal" 
>
</g>

<g fill="none" stroke="#000000" stroke-opacity="1" stroke-width="1" stroke-linecap="square" stroke-linejoin="bevel" transform="matrix(2,0,0,2,-15,441)"
font-family="Ubuntu" font-size="11" font-weight="400" font-style="normal" 
>
</g>

<g fill="none" stroke="#000000" stroke-opacity="1" stroke-width="1" stroke-linecap="square" stroke-linejoin="bevel" transform="matrix(2,0,0,2,-15,441)"
font-family="Ubuntu" font-size="11" font-weight="400" font-style="normal" 
>
</g>

<g fill="none" stroke="#000000" stroke-opacity="1" stroke-width="1" stroke-linecap="square" stroke-linejoin="round" transform="matrix(2,0,0,2,-15,441)"
font-family="Ubuntu" font-size="11" font-weight="400" font-style="normal" 
>
<rect x="29.0004" y="-134.5" width="96.9992" height="35"/>
</g>

<g fill="none" stroke="#000000" stroke-opacity="1" stroke-width="1" stroke-linecap="square" stroke-linejoin="bevel" transform="matrix(2,0,0,2,-15,441)"
font-family="Ubuntu" font-size="11" font-weight="400" font-style="normal" 
>
</g>

<g fill="none" stroke="#000000" stroke-opacity="1" stroke-width="1" stroke-linecap="square" stroke-linejoin="bevel" transform="matrix(2,0,0,2,77.0781,193)"
font-family="Ubuntu" font-size="11" font-weight="400" font-style="normal" 
>
</g>

<g fill="none" stroke="#000000" stroke-opacity="1" stroke-width="1" stroke-linecap="square" stroke-linejoin="bevel" transform="matrix(2,0,0,2,77.0781,193)"
font-family="sans" font-size="11" font-weight="100" font-style="normal" 
>
</g>

<g fill="#000000" fill-opacity="1" stroke="#000000" stroke-opacity="1" stroke-width="1" stroke-linecap="square" stroke-linejoin="round" transform="matrix(2,0,0,2,77.0781,193)"
font-family="sans" font-size="11" font-weight="100" font-style="normal" 
>
<path vector-effect="none" fill-rule="nonzero" d="M2.96875,2.98438 L3.53125,2.98438 L0.734375,12.0156 L0.171875,12.0156 L2.96875,2.98438 M7.35938,7.60938 C6.55729,7.60938 5.98177,7.75 5.63281,8.03125 C5.28385,8.3125 5.10938,8.72396 5.10938,9.26563 C5.10938,9.79688 5.25521,10.1745 5.54688,10.3984 C5.83854,10.6224 6.18229,10.7344 6.57813,10.7344 C7.32813,10.7344 7.86979,10.4167 8.20313,9.78125 C8.53646,9.13542 8.70313,8.53125 8.70313,7.96875 L8.70313,7.60938 L7.35938,7.60938 M9.20313,7.5625 L9.20313,11 L8.70313,11 L8.70313,9.35938 C8.43229,10.1615 8.06771,10.6719 7.60938,10.8906 C7.25521,11.0677 6.89583,11.1563 6.53125,11.1563 C5.9375,11.1563 5.46875,10.9948 5.125,10.6719 C4.78125,10.349 4.60938,9.8776 4.60938,9.25781 C4.60938,8.63802 4.83333,8.14063 5.28125,7.76563 C5.72917,7.39063 6.45833,7.20313 7.46875,7.20313 L8.70313,7.20313 L8.70313,7.10938 C8.70313,6.57813 8.54688,6.14063 8.23438,5.79688 C7.94271,5.45313 7.44792,5.28125 6.75,5.28125 C6.40625,5.28125 6.05729,5.34375 5.70313,5.46875 C5.47396,5.55208 5.17188,5.71875 4.79688,5.96875 L4.79688,5.4375 C5.11979,5.23958 5.42188,5.09896 5.70313,5.01563 C6.09896,4.90104 6.47917,4.84375 6.84375,4.84375 C7.5625,4.84375 8.15104,5.05729 8.60938,5.48438 C9.00521,5.84896 9.20313,6.54167 9.20313,7.5625 M14.9531,5.40625 C14.8698,5.36458 14.7604,5.33333 14.625,5.3125 C14.5,5.29167 14.349,5.28125 14.1719,5.28125 C13.5573,5.28125 13.0521,5.50521 12.6563,5.95313 C12.3333,6.31771 12.1719,6.94271 12.1719,7.82813 L12.1719,11 L11.6875,11 L11.6875,4.98438 L12.1719,4.98438 L12.1719,6.10938 C12.3385,5.78646 12.5677,5.51563 12.8594,5.29688 C13.2552,4.99479 13.724,4.84375 14.2656,4.84375 C14.4115,4.84375 14.5365,4.84896 14.6406,4.85938 C14.7448,4.85938 14.849,4.86979 14.9531,4.89063 L14.9531,5.40625 M20.3281,6.29688 C20.5156,5.80729 20.8073,5.44271 21.2031,5.20313 C21.5885,4.96354 22.0417,4.84375 22.5625,4.84375 C23.0833,4.84375 23.5,5.02604 23.8125,5.39063 C24.1354,5.75521 24.2969,6.41667 24.2969,7.375 L24.2969,11 L23.8125,11 L23.8125,7.40625 C23.8125,6.57292 23.6979,6.01042 23.4688,5.71875 C23.2396,5.42708 22.9323,5.28125 22.5469,5.28125 C21.9948,5.28125 21.5104,5.44792 21.0938,5.78125 C20.625,6.15625 20.3906,6.76042 20.3906,7.59375 L20.3906,11 L19.9063,11 L19.9063,7.40625 C19.9063,6.60417 19.7943,6.04948 19.5703,5.74219 C19.3464,5.4349 19.0365,5.28125 18.6406,5.28125 C18.0885,5.28125 17.6042,5.45313 17.1875,5.79688 C16.7188,6.16146 16.4844,6.76042 16.4844,7.59375 L16.4844,11 L16,11 L16,4.98438 L16.4844,4.98438 L16.4844,6.10938 C16.6615,5.71354 16.9375,5.40104 17.3125,5.17188 C17.6771,4.95313 18.1302,4.84375 18.6719,4.84375 C19.026,4.84375 19.3646,4.95833 19.6875,5.1875 C19.9375,5.375 20.151,5.74479 20.3281,6.29688 M28.4219,2.98438 L28.9844,2.98438 L26.1875,12.0156 L25.625,12.0156 L28.4219,2.98438 M33.8125,5.15625 L33.8125,5.70313 C33.4583,5.50521 33.2396,5.39583 33.1563,5.375 C32.9063,5.32292 32.5938,5.29167 32.2188,5.28125 C31.6563,5.28125 31.2135,5.39063 30.8906,5.60938 C30.6406,5.79688 30.5156,6.11458 30.5156,6.5625 C30.5156,6.875 30.6354,7.11458 30.875,7.28125 C31.1146,7.46875 31.4635,7.61458 31.9219,7.71875 L32.2656,7.78125 C32.8385,7.90625 33.2708,8.08333 33.5625,8.3125 C33.9063,8.58333 34.0833,8.92708 34.0938,9.34375 C34.0938,9.90625 33.9271,10.349 33.5938,10.6719 C33.2396,10.9948 32.6615,11.1563 31.8594,11.1563 C31.4219,11.1563 31.0885,11.125 30.8594,11.0625 C30.5781,10.9896 30.2865,10.8958 29.9844,10.7813 L29.9844,10.1563 C30.4219,10.4063 30.7031,10.5521 30.8281,10.5938 C31.1823,10.6875 31.5365,10.7344 31.8906,10.7344 C32.4635,10.7344 32.8906,10.6146 33.1719,10.375 C33.4531,10.125 33.5938,9.80729 33.5938,9.42188 C33.5938,9.08854 33.5,8.84896 33.3125,8.70313 C33.0417,8.48438 32.6146,8.30729 32.0313,8.17188 L31.6875,8.09375 C31.1771,7.96875 30.7917,7.80208 30.5313,7.59375 C30.1979,7.32292 30.0313,6.99479 30.0313,6.60938 C30.0313,5.98438 30.2318,5.53385 30.6328,5.25781 C31.0339,4.98177 31.526,4.84375 32.1094,4.84375 C32.6094,4.84375 32.9531,4.86979 33.1406,4.92188 C33.3698,4.98438 33.5938,5.0625 33.8125,5.15625 M36.6406,3.28125 L36.6406,4.98438 L38.6719,4.98438 L38.6719,5.40625 L36.6406,5.40625 L36.6406,9.01563 C36.6406,9.47396 36.6979,9.79688 36.8125,9.98438 C37.0625,10.3802 37.4219,10.5781 37.8906,10.5781 L38.6719,10.5781 L38.6719,11 L37.9063,11 C37.4167,11 37,10.8568 36.6563,10.5703 C36.3125,10.2839 36.1406,9.76563 36.1406,9.01563 L36.1406,5.40625 L35.4219,5.40625 L35.4219,4.98438 L36.1406,4.98438 L36.1406,3.28125 L36.6406,3.28125 M42.8438,7.60938 C42.0417,7.60938 41.4661,7.75 41.1172,8.03125 C40.7682,8.3125 40.5938,8.72396 40.5938,9.26563 C40.5938,9.79688 40.7396,10.1745 41.0313,10.3984 C41.3229,10.6224 41.6667,10.7344 42.0625,10.7344 C42.8125,10.7344 43.3542,10.4167 43.6875,9.78125 C44.0208,9.13542 44.1875,8.53125 44.1875,7.96875 L44.1875,7.60938 L42.8438,7.60938 M44.6875,7.5625 L44.6875,11 L44.1875,11 L44.1875,9.35938 C43.9167,10.1615 43.5521,10.6719 43.0938,10.8906 C42.7396,11.0677 42.3802,11.1563 42.0156,11.1563 C41.4219,11.1563 40.9531,10.9948 40.6094,10.6719 C40.2656,10.349 40.0938,9.8776 40.0938,9.25781 C40.0938,8.63802 40.3177,8.14063 40.7656,7.76563 C41.2135,7.39063 41.9427,7.20313 42.9531,7.20313 L44.1875,7.20313 L44.1875,7.10938 C44.1875,6.57813 44.0313,6.14063 43.7188,5.79688 C43.4271,5.45313 42.9323,5.28125 42.2344,5.28125 C41.8906,5.28125 41.5417,5.34375 41.1875,5.46875 C40.9583,5.55208 40.6563,5.71875 40.2813,5.96875 L40.2813,5.4375 C40.6042,5.23958 40.9063,5.09896 41.1875,5.01563 C41.5833,4.90104 41.9635,4.84375 42.3281,4.84375 C43.0469,4.84375 43.6354,5.05729 44.0938,5.48438 C44.4896,5.84896 44.6875,6.54167 44.6875,7.5625 M47.6875,3.28125 L47.6875,4.98438 L49.7188,4.98438 L49.7188,5.40625 L47.6875,5.40625 L47.6875,9.01563 C47.6875,9.47396 47.7448,9.79688 47.8594,9.98438 C48.1094,10.3802 48.4688,10.5781 48.9375,10.5781 L49.7188,10.5781 L49.7188,11 L48.9531,11 C48.4635,11 48.0469,10.8568 47.7031,10.5703 C47.3594,10.2839 47.1875,9.76563 47.1875,9.01563 L47.1875,5.40625 L46.4688,5.40625 L46.4688,4.98438 L47.1875,4.98438 L47.1875,3.28125 L47.6875,3.28125 M51.4219,8.60938 L51.4219,4.98438 L51.9063,4.98438 L51.9063,8.57813 C51.9063,9.35938 52.0313,9.90885 52.2813,10.2266 C52.5313,10.5443 52.901,10.7031 53.3906,10.7031 C53.9635,10.7031 54.4531,10.5313 54.8594,10.1875 C55.2656,9.84375 55.4688,9.24479 55.4688,8.39063 L55.4688,4.98438 L55.9531,4.98438 L55.9531,11 L55.4688,11 L55.4688,9.875 C55.2917,10.2396 55.0573,10.5156 54.7656,10.7031 C54.349,10.9948 53.8854,11.1406 53.375,11.1406 C52.7813,11.1406 52.3073,10.9375 51.9531,10.5313 C51.599,10.1354 51.4219,9.49479 51.4219,8.60938 M61.8594,5.15625 L61.8594,5.70313 C61.5052,5.50521 61.2865,5.39583 61.2031,5.375 C60.9531,5.32292 60.6406,5.29167 60.2656,5.28125 C59.7031,5.28125 59.2604,5.39063 58.9375,5.60938 C58.6875,5.79688 58.5625,6.11458 58.5625,6.5625 C58.5625,6.875 58.6823,7.11458 58.9219,7.28125 C59.1615,7.46875 59.5104,7.61458 59.9688,7.71875 L60.3125,7.78125 C60.8854,7.90625 61.3177,8.08333 61.6094,8.3125 C61.9531,8.58333 62.1302,8.92708 62.1406,9.34375 C62.1406,9.90625 61.974,10.349 61.6406,10.6719 C61.2865,10.9948 60.7083,11.1563 59.9063,11.1563 C59.4688,11.1563 59.1354,11.125 58.9063,11.0625 C58.625,10.9896 58.3333,10.8958 58.0313,10.7813 L58.0313,10.1563 C58.4688,10.4063 58.75,10.5521 58.875,10.5938 C59.2292,10.6875 59.5833,10.7344 59.9375,10.7344 C60.5104,10.7344 60.9375,10.6146 61.2188,10.375 C61.5,10.125 61.6406,9.80729 61.6406,9.42188 C61.6406,9.08854 61.5469,8.84896 61.3594,8.70313 C61.0885,8.48438 60.6615,8.30729 60.0781,8.17188 L59.7344,8.09375 C59.224,7.96875 58.8385,7.80208 58.5781,7.59375 C58.2448,7.32292 58.0781,6.99479 58.0781,6.60938 C58.0781,5.98438 58.2786,5.53385 58.6797,5.25781 C59.0807,4.98177 59.5729,4.84375 60.1563,4.84375 C60.6563,4.84375 61,4.86979 61.1875,4.92188 C61.4167,4.98438 61.6406,5.0625 61.8594,5.15625 "/>
</g>

<g fill="none" stroke="#000000" stroke-opacity="1" stroke-width="1" stroke-linecap="square" stroke-linejoin="bevel" transform="matrix(2,0,0,2,77.0781,193)"
font-family="sans" font-size="11" font-weight="100" font-style="normal" 
>
</g>

<g fill="none" stroke="#000000" stroke-opacity="1" stroke-width="1" stroke-linecap="square" stroke-linejoin="bevel" transform="matrix(2,0,0,2,77.0781,193)"
font-family="Ubuntu" font-size="11" font-weight="400" font-style="normal" 
>
</g>

<g fill="none" stroke="#000000" stroke-opacity="1" stroke-width="1" stroke-linecap="square" stroke-linejoin="bevel" transform="matrix(2,0,0,2,-15,441)"
font-family="Ubuntu" font-size="11" font-weight="400" font-style="normal" 
>
</g>

<g fill="none" stroke="#000000" stroke-opacity="1" stroke-width="1" stroke-linecap="square" stroke-linejoin="bevel" transform="matrix(2,0,0,2,-15,441)"
font-family="Ubuntu" font-size="11" font-weight="400" font-style="normal" 
>
</g>

<g fill="none" stroke="#000000" stroke-opacity="1" stroke-width="1" stroke-linecap="square" stroke-linejoin="bevel" transform="matrix(2,0,0,2,-15,441)"
font-family="Ubuntu" font-size="11" font-weight="400" font-style="normal" 
>
</g>

<g fill="none" stroke="#000000" stroke-opacity="1" stroke-width="1" stroke-linecap="square" stroke-linejoin="round" transform="matrix(2,0,0,2,-15,441)"
font-family="Ubuntu" font-size="11" font-weight="400" font-style="normal" 
>
<rect x="16.5012" y="-188.5" width="121.998" height="35"/>
</g>

<g fill="none" stroke="#000000" stroke-opacity="1" stroke-width="1" stroke-linecap="square" stroke-linejoin="bevel" transform="matrix(2,0,0,2,-15,441)"
font-family="Ubuntu" font-size="11" font-weight="400" font-style="normal" 
>
</g>

<g fill="none" stroke="#000000" stroke-opacity="1" stroke-width="1" stroke-linecap="square" stroke-linejoin="bevel" transform="matrix(2,0,0,2,56,85)"
font-family="Ubuntu" font-size="11" font-weight="400" font-style="normal" 
>
</g>

<g fill="none" stroke="#000000" stroke-opacity="1" stroke-width="1" stroke-linecap="square" stroke-linejoin="bevel" transform="matrix(2,0,0,2,56,85)"
font-family="sans" font-size="11" font-weight="100" font-style="normal" 
>
</g>

<g fill="#000000" fill-opacity="1" stroke="#000000" stroke-opacity="1" stroke-width="1" stroke-linecap="square" stroke-linejoin="round" transform="matrix(2,0,0,2,56,85)"
font-family="sans" font-size="11" font-weight="100" font-style="normal" 
>
<path vector-effect="none" fill-rule="nonzero" d="M2.96875,2.98438 L3.53125,2.98438 L0.734375,12.0156 L0.171875,12.0156 L2.96875,2.98438 M7.35938,7.60938 C6.55729,7.60938 5.98177,7.75 5.63281,8.03125 C5.28385,8.3125 5.10938,8.72396 5.10938,9.26563 C5.10938,9.79688 5.25521,10.1745 5.54688,10.3984 C5.83854,10.6224 6.18229,10.7344 6.57813,10.7344 C7.32813,10.7344 7.86979,10.4167 8.20313,9.78125 C8.53646,9.13542 8.70313,8.53125 8.70313,7.96875 L8.70313,7.60938 L7.35938,7.60938 M9.20313,7.5625 L9.20313,11 L8.70313,11 L8.70313,9.35938 C8.43229,10.1615 8.06771,10.6719 7.60938,10.8906 C7.25521,11.0677 6.89583,11.1563 6.53125,11.1563 C5.9375,11.1563 5.46875,10.9948 5.125,10.6719 C4.78125,10.349 4.60938,9.8776 4.60938,9.25781 C4.60938,8.63802 4.83333,8.14063 5.28125,7.76563 C5.72917,7.39063 6.45833,7.20313 7.46875,7.20313 L8.70313,7.20313 L8.70313,7.10938 C8.70313,6.57813 8.54688,6.14063 8.23438,5.79688 C7.94271,5.45313 7.44792,5.28125 6.75,5.28125 C6.40625,5.28125 6.05729,5.34375 5.70313,5.46875 C5.47396,5.55208 5.17188,5.71875 4.79688,5.96875 L4.79688,5.4375 C5.11979,5.23958 5.42188,5.09896 5.70313,5.01563 C6.09896,4.90104 6.47917,4.84375 6.84375,4.84375 C7.5625,4.84375 8.15104,5.05729 8.60938,5.48438 C9.00521,5.84896 9.20313,6.54167 9.20313,7.5625 M14.9531,5.40625 C14.8698,5.36458 14.7604,5.33333 14.625,5.3125 C14.5,5.29167 14.349,5.28125 14.1719,5.28125 C13.5573,5.28125 13.0521,5.50521 12.6563,5.95313 C12.3333,6.31771 12.1719,6.94271 12.1719,7.82813 L12.1719,11 L11.6875,11 L11.6875,4.98438 L12.1719,4.98438 L12.1719,6.10938 C12.3385,5.78646 12.5677,5.51563 12.8594,5.29688 C13.2552,4.99479 13.724,4.84375 14.2656,4.84375 C14.4115,4.84375 14.5365,4.84896 14.6406,4.85938 C14.7448,4.85938 14.849,4.86979 14.9531,4.89063 L14.9531,5.40625 M20.3281,6.29688 C20.5156,5.80729 20.8073,5.44271 21.2031,5.20313 C21.5885,4.96354 22.0417,4.84375 22.5625,4.84375 C23.0833,4.84375 23.5,5.02604 23.8125,5.39063 C24.1354,5.75521 24.2969,6.41667 24.2969,7.375 L24.2969,11 L23.8125,11 L23.8125,7.40625 C23.8125,6.57292 23.6979,6.01042 23.4688,5.71875 C23.2396,5.42708 22.9323,5.28125 22.5469,5.28125 C21.9948,5.28125 21.5104,5.44792 21.0938,5.78125 C20.625,6.15625 20.3906,6.76042 20.3906,7.59375 L20.3906,11 L19.9063,11 L19.9063,7.40625 C19.9063,6.60417 19.7943,6.04948 19.5703,5.74219 C19.3464,5.4349 19.0365,5.28125 18.6406,5.28125 C18.0885,5.28125 17.6042,5.45313 17.1875,5.79688 C16.7188,6.16146 16.4844,6.76042 16.4844,7.59375 L16.4844,11 L16,11 L16,4.98438 L16.4844,4.98438 L16.4844,6.10938 C16.6615,5.71354 16.9375,5.40104 17.3125,5.17188 C17.6771,4.95313 18.1302,4.84375 18.6719,4.84375 C19.026,4.84375 19.3646,4.95833 19.6875,5.1875 C19.9375,5.375 20.151,5.74479 20.3281,6.29688 M28.4219,2.98438 L28.9844,2.98438 L26.1875,12.0156 L25.625,12.0156 L28.4219,2.98438 M34.5156,5.28125 L34.5156,5.79688 C34.224,5.61979 33.9792,5.5 33.7813,5.4375 C33.4479,5.33333 33.1302,5.28125 32.8281,5.28125 C31.9635,5.28125 31.3438,5.5026 30.9688,5.94531 C30.5938,6.38802 30.4063,7.07292 30.4063,8 C30.4063,8.9375 30.5938,9.6276 30.9688,10.0703 C31.3438,10.513 31.9635,10.7344 32.8281,10.7344 C33.1198,10.7344 33.401,10.6927 33.6719,10.6094 C33.9635,10.5365 34.2448,10.4219 34.5156,10.2656 L34.5156,10.7656 C34.2448,10.901 33.9635,11 33.6719,11.0625 C33.3698,11.125 33.0729,11.1563 32.7813,11.1563 C31.9063,11.1563 31.2083,10.9167 30.6875,10.4375 C30.1667,9.95833 29.9063,9.14323 29.9063,7.99219 C29.9063,6.84115 30.1667,6.02604 30.6875,5.54688 C31.2083,5.07813 31.9063,4.84375 32.7813,4.84375 C33.0729,4.84375 33.3802,4.88542 33.7031,4.96875 C34.026,5.04167 34.2969,5.14583 34.5156,5.28125 M40.0313,6.01563 C39.6771,5.52604 39.1927,5.28125 38.5781,5.28125 C37.9635,5.28125 37.4792,5.52604 37.125,6.01563 C36.7708,6.49479 36.5938,7.15104 36.5938,7.98438 C36.5938,8.83854 36.7708,9.51042 37.125,10 C37.4792,10.4896 37.9635,10.7344 38.5781,10.7344 C39.1927,10.7344 39.6771,10.4896 40.0313,10 C40.3854,9.5 40.5625,8.82813 40.5625,7.98438 C40.5625,7.16146 40.3854,6.50521 40.0313,6.01563 M38.5781,4.84375 C39.3385,4.84375 39.9427,5.13021 40.3906,5.70313 C40.8385,6.27604 41.0625,7.03646 41.0625,7.98438 C41.0625,8.97396 40.8385,9.75521 40.3906,10.3281 C39.9427,10.901 39.3385,11.1875 38.5781,11.1875 C37.7969,11.1875 37.1823,10.901 36.7344,10.3281 C36.2969,9.75521 36.0781,8.97396 36.0781,7.98438 C36.0781,7.02604 36.3021,6.26302 36.75,5.69531 C37.1979,5.1276 37.8073,4.84375 38.5781,4.84375 M47.5,6.29688 C47.6875,5.80729 47.9792,5.44271 48.375,5.20313 C48.7604,4.96354 49.2135,4.84375 49.7344,4.84375 C50.2552,4.84375 50.6719,5.02604 50.9844,5.39063 C51.3073,5.75521 51.4688,6.41667 51.4688,7.375 L51.4688,11 L50.9844,11 L50.9844,7.40625 C50.9844,6.57292 50.8698,6.01042 50.6406,5.71875 C50.4115,5.42708 50.1042,5.28125 49.7188,5.28125 C49.1667,5.28125 48.6823,5.44792 48.2656,5.78125 C47.7969,6.15625 47.5625,6.76042 47.5625,7.59375 L47.5625,11 L47.0781,11 L47.0781,7.40625 C47.0781,6.60417 46.9661,6.04948 46.7422,5.74219 C46.5182,5.4349 46.2083,5.28125 45.8125,5.28125 C45.2604,5.28125 44.776,5.45313 44.3594,5.79688 C43.8906,6.16146 43.6563,6.76042 43.6563,7.59375 L43.6563,11 L43.1719,11 L43.1719,4.98438 L43.6563,4.98438 L43.6563,6.10938 C43.8333,5.71354 44.1094,5.40104 44.4844,5.17188 C44.849,4.95313 45.3021,4.84375 45.8438,4.84375 C46.1979,4.84375 46.5365,4.95833 46.8594,5.1875 C47.1094,5.375 47.3229,5.74479 47.5,6.29688 M58.2031,6.29688 C58.3906,5.80729 58.6823,5.44271 59.0781,5.20313 C59.4635,4.96354 59.9167,4.84375 60.4375,4.84375 C60.9583,4.84375 61.375,5.02604 61.6875,5.39063 C62.0104,5.75521 62.1719,6.41667 62.1719,7.375 L62.1719,11 L61.6875,11 L61.6875,7.40625 C61.6875,6.57292 61.5729,6.01042 61.3438,5.71875 C61.1146,5.42708 60.8073,5.28125 60.4219,5.28125 C59.8698,5.28125 59.3854,5.44792 58.9688,5.78125 C58.5,6.15625 58.2656,6.76042 58.2656,7.59375 L58.2656,11 L57.7813,11 L57.7813,7.40625 C57.7813,6.60417 57.6693,6.04948 57.4453,5.74219 C57.2214,5.4349 56.9115,5.28125 56.5156,5.28125 C55.9635,5.28125 55.4792,5.45313 55.0625,5.79688 C54.5938,6.16146 54.3594,6.76042 54.3594,7.59375 L54.3594,11 L53.875,11 L53.875,4.98438 L54.3594,4.98438 L54.3594,6.10938 C54.5365,5.71354 54.8125,5.40104 55.1875,5.17188 C55.5521,4.95313 56.0052,4.84375 56.5469,4.84375 C56.901,4.84375 57.2396,4.95833 57.5625,5.1875 C57.8125,5.375 58.026,5.74479 58.2031,6.29688 M66.9844,7.60938 C66.1823,7.60938 65.6068,7.75 65.2578,8.03125 C64.9089,8.3125 64.7344,8.72396 64.7344,9.26563 C64.7344,9.79688 64.8802,10.1745 65.1719,10.3984 C65.4635,10.6224 65.8073,10.7344 66.2031,10.7344 C66.9531,10.7344 67.4948,10.4167 67.8281,9.78125 C68.1615,9.13542 68.3281,8.53125 68.3281,7.96875 L68.3281,7.60938 L66.9844,7.60938 M68.8281,7.5625 L68.8281,11 L68.3281,11 L68.3281,9.35938 C68.0573,10.1615 67.6927,10.6719 67.2344,10.8906 C66.8802,11.0677 66.5208,11.1563 66.1563,11.1563 C65.5625,11.1563 65.0938,10.9948 64.75,10.6719 C64.4063,10.349 64.2344,9.8776 64.2344,9.25781 C64.2344,8.63802 64.4583,8.14063 64.9063,7.76563 C65.3542,7.39063 66.0833,7.20313 67.0938,7.20313 L68.3281,7.20313 L68.3281,7.10938 C68.3281,6.57813 68.1719,6.14063 67.8594,5.79688 C67.5677,5.45313 67.0729,5.28125 66.375,5.28125 C66.0313,5.28125 65.6823,5.34375 65.3281,5.46875 C65.099,5.55208 64.7969,5.71875 64.4219,5.96875 L64.4219,5.4375 C64.7448,5.23958 65.0469,5.09896 65.3281,5.01563 C65.724,4.90104 66.1042,4.84375 66.4688,4.84375 C67.1875,4.84375 67.776,5.05729 68.2344,5.48438 C68.6302,5.84896 68.8281,6.54167 68.8281,7.5625 M75.8594,7.375 L75.8594,11 L75.3594,11 L75.3594,7.40625 C75.3594,6.625 75.2344,6.07552 74.9844,5.75781 C74.7344,5.4401 74.3646,5.28125 73.875,5.28125 C73.3021,5.28125 72.8177,5.45313 72.4219,5.79688 C72.0052,6.14063 71.7969,6.73958 71.7969,7.59375 L71.7969,11 L71.3125,11 L71.3125,4.98438 L71.7969,4.98438 L71.7969,6.10938 C71.974,5.74479 72.2083,5.46875 72.5,5.28125 C72.9167,4.98958 73.3802,4.84375 73.8906,4.84375 C74.4948,4.84375 74.974,5.04688 75.3281,5.45313 C75.6823,5.84896 75.8594,6.48958 75.8594,7.375 M82.2813,6.35938 L82.2813,2.64063 L82.75,2.64063 L82.75,11 L82.2813,11 L82.2813,9.64063 C82.0521,10.1615 81.8021,10.5156 81.5313,10.7031 C81.1354,11.0052 80.7552,11.1563 80.3906,11.1563 C79.6823,11.1563 79.0911,10.8672 78.6172,10.2891 C78.1432,9.71094 77.9063,8.94792 77.9063,8 C77.9063,7.05208 78.1432,6.28906 78.6172,5.71094 C79.0911,5.13281 79.6823,4.84375 80.3906,4.84375 C80.7552,4.84375 81.1354,4.98958 81.5313,5.28125 C81.8021,5.47917 82.0521,5.83854 82.2813,6.35938 M79.0469,5.90625 C78.6302,6.32292 78.4219,7.02083 78.4219,8 C78.4219,8.97917 78.6302,9.67708 79.0469,10.0938 C79.4635,10.5104 79.901,10.7188 80.3594,10.7188 C80.8073,10.7188 81.2396,10.5104 81.6563,10.0938 C82.0625,9.67708 82.2656,8.97917 82.2656,8 C82.2656,7.02083 82.0625,6.32292 81.6563,5.90625 C81.2396,5.48958 80.8073,5.28125 80.3594,5.28125 C79.901,5.28125 79.4635,5.48958 79.0469,5.90625 "/>
</g>

<g fill="none" stroke="#000000" stroke-opacity="1" stroke-width="1" stroke-linecap="square" stroke-linejoin="bevel" transform="matrix(2,0,0,2,56,85)"
font-family="sans" font-size="11" font-weight="100" font-style="normal" 
>
</g>

<g fill="none" stroke="#000000" stroke-opacity="1" stroke-width="1" stroke-linecap="square" stroke-linejoin="bevel" transform="matrix(2,0,0,2,56,85)"
font-family="Ubuntu" font-size="11" font-weight="400" font-style="normal" 
>
</g>

<g fill="none" stroke="#000000" stroke-opacity="1" stroke-width="1" stroke-linecap="square" stroke-linejoin="bevel" transform="matrix(2,0,0,2,-15,441)"
font-family="Ubuntu" font-size="11" font-weight="400" font-style="normal" 
>
</g>

<g fill="none" stroke="#000000" stroke-opacity="1" stroke-width="1" stroke-linecap="square" stroke-linejoin="bevel" transform="matrix(2,0,0,2,-15,441)"
font-family="Ubuntu" font-size="11" font-weight="400" font-style="normal" 
>
</g>

<g fill="none" stroke="#000000" stroke-opacity="1" stroke-width="1" stroke-linecap="square" stroke-linejoin="bevel" transform="matrix(2,0,0,2,-15,441)"
font-family="Ubuntu" font-size="11" font-weight="400" font-style="normal" 
>
</g>

<g fill="none" stroke="#000000" stroke-opacity="1" stroke-width="1" stroke-linecap="square" stroke-linejoin="round" transform="matrix(2,0,0,2,-15,441)"
font-family="Ubuntu" font-size="11" font-weight="400" font-style="normal" 
>
<rect x="29.0004" y="-134.5" width="96.9992" height="35"/>
</g>

<g fill="none" stroke="#000000" stroke-opacity="1" stroke-width="1" stroke-linecap="square" stroke-linejoin="bevel" transform="matrix(2,0,0,2,-15,441)"
font-family="Ubuntu" font-size="11" font-weight="400" font-style="normal" 
>
</g>

<g fill="none" stroke="#000000" stroke-opacity="1" stroke-width="1" stroke-linecap="square" stroke-linejoin="bevel" transform="matrix(2,0,0,2,77.0781,193)"
font-family="Ubuntu" font-size="11" font-weight="400" font-style="normal" 
>
</g>

<g fill="none" stroke="#000000" stroke-opacity="1" stroke-width="1" stroke-linecap="square" stroke-linejoin="bevel" transform="matrix(2,0,0,2,77.0781,193)"
font-family="sans" font-size="11" font-weight="100" font-style="normal" 
>
</g>

<g fill="#000000" fill-opacity="1" stroke="#000000" stroke-opacity="1" stroke-width="1" stroke-linecap="square" stroke-linejoin="round" transform="matrix(2,0,0,2,77.0781,193)"
font-family="sans" font-size="11" font-weight="100" font-style="normal" 
>
<path vector-effect="none" fill-rule="nonzero" d="M2.96875,2.98438 L3.53125,2.98438 L0.734375,12.0156 L0.171875,12.0156 L2.96875,2.98438 M7.35938,7.60938 C6.55729,7.60938 5.98177,7.75 5.63281,8.03125 C5.28385,8.3125 5.10938,8.72396 5.10938,9.26563 C5.10938,9.79688 5.25521,10.1745 5.54688,10.3984 C5.83854,10.6224 6.18229,10.7344 6.57813,10.7344 C7.32813,10.7344 7.86979,10.4167 8.20313,9.78125 C8.53646,9.13542 8.70313,8.53125 8.70313,7.96875 L8.70313,7.60938 L7.35938,7.60938 M9.20313,7.5625 L9.20313,11 L8.70313,11 L8.70313,9.35938 C8.43229,10.1615 8.06771,10.6719 7.60938,10.8906 C7.25521,11.0677 6.89583,11.1563 6.53125,11.1563 C5.9375,11.1563 5.46875,10.9948 5.125,10.6719 C4.78125,10.349 4.60938,9.8776 4.60938,9.25781 C4.60938,8.63802 4.83333,8.14063 5.28125,7.76563 C5.72917,7.39063 6.45833,7.20313 7.46875,7.20313 L8.70313,7.20313 L8.70313,7.10938 C8.70313,6.57813 8.54688,6.14063 8.23438,5.79688 C7.94271,5.45313 7.44792,5.28125 6.75,5.28125 C6.40625,5.28125 6.05729,5.34375 5.70313,5.46875 C5.47396,5.55208 5.17188,5.71875 4.79688,5.96875 L4.79688,5.4375 C5.11979,5.23958 5.42188,5.09896 5.70313,5.01563 C6.09896,4.90104 6.47917,4.84375 6.84375,4.84375 C7.5625,4.84375 8.15104,5.05729 8.60938,5.48438 C9.00521,5.84896 9.20313,6.54167 9.20313,7.5625 M14.9531,5.40625 C14.8698,5.36458 14.7604,5.33333 14.625,5.3125 C14.5,5.29167 14.349,5.28125 14.1719,5.28125 C13.5573,5.28125 13.0521,5.50521 12.6563,5.95313 C12.3333,6.31771 12.1719,6.94271 12.1719,7.82813 L12.1719,11 L11.6875,11 L11.6875,4.98438 L12.1719,4.98438 L12.1719,6.10938 C12.3385,5.78646 12.5677,5.51563 12.8594,5.29688 C13.2552,4.99479 13.724,4.84375 14.2656,4.84375 C14.4115,4.84375 14.5365,4.84896 14.6406,4.85938 C14.7448,4.85938 14.849,4.86979 14.9531,4.89063 L14.9531,5.40625 M20.3281,6.29688 C20.5156,5.80729 20.8073,5.44271 21.2031,5.20313 C21.5885,4.96354 22.0417,4.84375 22.5625,4.84375 C23.0833,4.84375 23.5,5.02604 23.8125,5.39063 C24.1354,5.75521 24.2969,6.41667 24.2969,7.375 L24.2969,11 L23.8125,11 L23.8125,7.40625 C23.8125,6.57292 23.6979,6.01042 23.4688,5.71875 C23.2396,5.42708 22.9323,5.28125 22.5469,5.28125 C21.9948,5.28125 21.5104,5.44792 21.0938,5.78125 C20.625,6.15625 20.3906,6.76042 20.3906,7.59375 L20.3906,11 L19.9063,11 L19.9063,7.40625 C19.9063,6.60417 19.7943,6.04948 19.5703,5.74219 C19.3464,5.4349 19.0365,5.28125 18.6406,5.28125 C18.0885,5.28125 17.6042,5.45313 17.1875,5.79688 C16.7188,6.16146 16.4844,6.76042 16.4844,7.59375 L16.4844,11 L16,11 L16,4.98438 L16.4844,4.98438 L16.4844,6.10938 C16.6615,5.71354 16.9375,5.40104 17.3125,5.17188 C17.6771,4.95313 18.1302,4.84375 18.6719,4.84375 C19.026,4.84375 19.3646,4.95833 19.6875,5.1875 C19.9375,5.375 20.151,5.74479 20.3281,6.29688 M28.4219,2.98438 L28.9844,2.98438 L26.1875,12.0156 L25.625,12.0156 L28.4219,2.98438 M33.8125,5.15625 L33.8125,5.70313 C33.4583,5.50521 33.2396,5.39583 33.1563,5.375 C32.9063,5.32292 32.5938,5.29167 32.2188,5.28125 C31.6563,5.28125 31.2135,5.39063 30.8906,5.60938 C30.6406,5.79688 30.5156,6.11458 30.5156,6.5625 C30.5156,6.875 30.6354,7.11458 30.875,7.28125 C31.1146,7.46875 31.4635,7.61458 31.9219,7.71875 L32.2656,7.78125 C32.8385,7.90625 33.2708,8.08333 33.5625,8.3125 C33.9063,8.58333 34.0833,8.92708 34.0938,9.34375 C34.0938,9.90625 33.9271,10.349 33.5938,10.6719 C33.2396,10.9948 32.6615,11.1563 31.8594,11.1563 C31.4219,11.1563 31.0885,11.125 30.8594,11.0625 C30.5781,10.9896 30.2865,10.8958 29.9844,10.7813 L29.9844,10.1563 C30.4219,10.4063 30.7031,10.5521 30.8281,10.5938 C31.1823,10.6875 31.5365,10.7344 31.8906,10.7344 C32.4635,10.7344 32.8906,10.6146 33.1719,10.375 C33.4531,10.125 33.5938,9.80729 33.5938,9.42188 C33.5938,9.08854 33.5,8.84896 33.3125,8.70313 C33.0417,8.48438 32.6146,8.30729 32.0313,8.17188 L31.6875,8.09375 C31.1771,7.96875 30.7917,7.80208 30.5313,7.59375 C30.1979,7.32292 30.0313,6.99479 30.0313,6.60938 C30.0313,5.98438 30.2318,5.53385 30.6328,5.25781 C31.0339,4.98177 31.526,4.84375 32.1094,4.84375 C32.6094,4.84375 32.9531,4.86979 33.1406,4.92188 C33.3698,4.98438 33.5938,5.0625 33.8125,5.15625 M36.6406,3.28125 L36.6406,4.98438 L38.6719,4.98438 L38.6719,5.40625 L36.6406,5.40625 L36.6406,9.01563 C36.6406,9.47396 36.6979,9.79688 36.8125,9.98438 C37.0625,10.3802 37.4219,10.5781 37.8906,10.5781 L38.6719,10.5781 L38.6719,11 L37.9063,11 C37.4167,11 37,10.8568 36.6563,10.5703 C36.3125,10.2839 36.1406,9.76563 36.1406,9.01563 L36.1406,5.40625 L35.4219,5.40625 L35.4219,4.98438 L36.1406,4.98438 L36.1406,3.28125 L36.6406,3.28125 M42.8438,7.60938 C42.0417,7.60938 41.4661,7.75 41.1172,8.03125 C40.7682,8.3125 40.5938,8.72396 40.5938,9.26563 C40.5938,9.79688 40.7396,10.1745 41.0313,10.3984 C41.3229,10.6224 41.6667,10.7344 42.0625,10.7344 C42.8125,10.7344 43.3542,10.4167 43.6875,9.78125 C44.0208,9.13542 44.1875,8.53125 44.1875,7.96875 L44.1875,7.60938 L42.8438,7.60938 M44.6875,7.5625 L44.6875,11 L44.1875,11 L44.1875,9.35938 C43.9167,10.1615 43.5521,10.6719 43.0938,10.8906 C42.7396,11.0677 42.3802,11.1563 42.0156,11.1563 C41.4219,11.1563 40.9531,10.9948 40.6094,10.6719 C40.2656,10.349 40.0938,9.8776 40.0938,9.25781 C40.0938,8.63802 40.3177,8.14063 40.7656,7.76563 C41.2135,7.39063 41.9427,7.20313 42.9531,7.20313 L44.1875,7.20313 L44.1875,7.10938 C44.1875,6.57813 44.0313,6.14063 43.7188,5.79688 C43.4271,5.45313 42.9323,5.28125 42.2344,5.28125 C41.8906,5.28125 41.5417,5.34375 41.1875,5.46875 C40.9583,5.55208 40.6563,5.71875 40.2813,5.96875 L40.2813,5.4375 C40.6042,5.23958 40.9063,5.09896 41.1875,5.01563 C41.5833,4.90104 41.9635,4.84375 42.3281,4.84375 C43.0469,4.84375 43.6354,5.05729 44.0938,5.48438 C44.4896,5.84896 44.6875,6.54167 44.6875,7.5625 M47.6875,3.28125 L47.6875,4.98438 L49.7188,4.98438 L49.7188,5.40625 L47.6875,5.40625 L47.6875,9.01563 C47.6875,9.47396 47.7448,9.79688 47.8594,9.98438 C48.1094,10.3802 48.4688,10.5781 48.9375,10.5781 L49.7188,10.5781 L49.7188,11 L48.9531,11 C48.4635,11 48.0469,10.8568 47.7031,10.5703 C47.3594,10.2839 47.1875,9.76563 47.1875,9.01563 L47.1875,5.40625 L46.4688,5.40625 L46.4688,4.98438 L47.1875,4.98438 L47.1875,3.28125 L47.6875,3.28125 M51.4219,8.60938 L51.4219,4.98438 L51.9063,4.98438 L51.9063,8.57813 C51.9063,9.35938 52.0313,9.90885 52.2813,10.2266 C52.5313,10.5443 52.901,10.7031 53.3906,10.7031 C53.9635,10.7031 54.4531,10.5313 54.8594,10.1875 C55.2656,9.84375 55.4688,9.24479 55.4688,8.39063 L55.4688,4.98438 L55.9531,4.98438 L55.9531,11 L55.4688,11 L55.4688,9.875 C55.2917,10.2396 55.0573,10.5156 54.7656,10.7031 C54.349,10.9948 53.8854,11.1406 53.375,11.1406 C52.7813,11.1406 52.3073,10.9375 51.9531,10.5313 C51.599,10.1354 51.4219,9.49479 51.4219,8.60938 M61.8594,5.15625 L61.8594,5.70313 C61.5052,5.50521 61.2865,5.39583 61.2031,5.375 C60.9531,5.32292 60.6406,5.29167 60.2656,5.28125 C59.7031,5.28125 59.2604,5.39063 58.9375,5.60938 C58.6875,5.79688 58.5625,6.11458 58.5625,6.5625 C58.5625,6.875 58.6823,7.11458 58.9219,7.28125 C59.1615,7.46875 59.5104,7.61458 59.9688,7.71875 L60.3125,7.78125 C60.8854,7.90625 61.3177,8.08333 61.6094,8.3125 C61.9531,8.58333 62.1302,8.92708 62.1406,9.34375 C62.1406,9.90625 61.974,10.349 61.6406,10.6719 C61.2865,10.9948 60.7083,11.1563 59.9063,11.1563 C59.4688,11.1563 59.1354,11.125 58.9063,11.0625 C58.625,10.9896 58.3333,10.8958 58.0313,10.7813 L58.0313,10.1563 C58.4688,10.4063 58.75,10.5521 58.875,10.5938 C59.2292,10.6875 59.5833,10.7344 59.9375,10.7344 C60.5104,10.7344 60.9375,10.6146 61.2188,10.375 C61.5,10.125 61.6406,9.80729 61.6406,9.42188 C61.6406,9.08854 61.5469,8.84896 61.3594,8.70313 C61.0885,8.48438 60.6615,8.30729 60.0781,8.17188 L59.7344,8.09375 C59.224,7.96875 58.8385,7.80208 58.5781,7.59375 C58.2448,7.32292 58.0781,6.99479 58.0781,6.60938 C58.0781,5.98438 58.2786,5.53385 58.6797,5.25781 C59.0807,4.98177 59.5729,4.84375 60.1563,4.84375 C60.6563,4.84375 61,4.86979 61.1875,4.92188 C61.4167,4.98438 61.6406,5.0625 61.8594,5.15625 "/>
</g>

<g fill="none" stroke="#000000" stroke-opacity="1" stroke-width="1" stroke-linecap="square" stroke-linejoin="bevel" transform="matrix(2,0,0,2,77.0781,193)"
font-family="sans" font-size="11" font-weight="100" font-style="normal" 
>
</g>

<g fill="none" stroke="#000000" stroke-opacity="1" stroke-width="1" stroke-linecap="square" stroke-linejoin="bevel" transform="matrix(2,0,0,2,77.0781,193)"
font-family="Ubuntu" font-size="11" font-weight="400" font-style="normal" 
>
</g>

<g fill="none" stroke="#000000" stroke-opacity="1" stroke-width="1" stroke-linecap="square" stroke-linejoin="bevel" transform="matrix(2,0,0,2,-15,441)"
font-family="Ubuntu" font-size="11" font-weight="400" font-style="normal" 
>
</g>

<g fill="none" stroke="#000000" stroke-opacity="1" stroke-width="1" stroke-linecap="square" stroke-linejoin="bevel" transform="matrix(2,0,0,2,-15,441)"
font-family="Ubuntu" font-size="11" font-weight="400" font-style="normal" 
>
</g>

<g fill="none" stroke="#000000" stroke-opacity="1" stroke-width="1" stroke-linecap="square" stroke-linejoin="bevel" transform="matrix(2,0,0,2,-15,441)"
font-family="Ubuntu" font-size="11" font-weight="400" font-style="normal" 
>
</g>

<g fill="none" stroke="#000000" stroke-opacity="1" stroke-width="1" stroke-linecap="square" stroke-linejoin="round" transform="matrix(2,0,0,2,-15,441)"
font-family="Ubuntu" font-size="11" font-weight="400" font-style="normal" 
>
<rect x="26.5" y="-83" width="102" height="75"/>
</g>

<g fill="none" stroke="#000000" stroke-opacity="1" stroke-width="1" stroke-linecap="square" stroke-linejoin="bevel" transform="matrix(2,0,0,2,-15,441)"
font-family="Ubuntu" font-size="11" font-weight="400" font-style="normal" 
>
</g>

<g fill="none" stroke="#000000" stroke-opacity="1" stroke-width="1" stroke-linecap="square" stroke-linejoin="bevel" transform="matrix(2,0,0,2,112.172,284)"
font-family="Ubuntu" font-size="11" font-weight="400" font-style="normal" 
>
</g>

<g fill="none" stroke="#000000" stroke-opacity="1" stroke-width="1" stroke-linecap="square" stroke-linejoin="bevel" transform="matrix(2,0,0,2,112.172,284)"
font-family="sans" font-size="11" font-weight="100" font-style="normal" 
>
</g>

<g fill="#000000" fill-opacity="1" stroke="#000000" stroke-opacity="1" stroke-width="1" stroke-linecap="square" stroke-linejoin="round" transform="matrix(2,0,0,2,112.172,284)"
font-family="sans" font-size="11" font-weight="100" font-style="normal" 
>
<path vector-effect="none" fill-rule="nonzero" d="M2.96875,2.98438 L3.53125,2.98438 L0.734375,12.0156 L0.171875,12.0156 L2.96875,2.98438 M5.46875,3.28125 L5.46875,4.98438 L7.5,4.98438 L7.5,5.40625 L5.46875,5.40625 L5.46875,9.01563 C5.46875,9.47396 5.52604,9.79688 5.64063,9.98438 C5.89063,10.3802 6.25,10.5781 6.71875,10.5781 L7.5,10.5781 L7.5,11 L6.73438,11 C6.24479,11 5.82813,10.8568 5.48438,10.5703 C5.14063,10.2839 4.96875,9.76563 4.96875,9.01563 L4.96875,5.40625 L4.25,5.40625 L4.25,4.98438 L4.96875,4.98438 L4.96875,3.28125 L5.46875,3.28125 M11.6719,7.60938 C10.8698,7.60938 10.2943,7.75 9.94531,8.03125 C9.59635,8.3125 9.42188,8.72396 9.42188,9.26563 C9.42188,9.79688 9.56771,10.1745 9.85938,10.3984 C10.151,10.6224 10.4948,10.7344 10.8906,10.7344 C11.6406,10.7344 12.1823,10.4167 12.5156,9.78125 C12.849,9.13542 13.0156,8.53125 13.0156,7.96875 L13.0156,7.60938 L11.6719,7.60938 M13.5156,7.5625 L13.5156,11 L13.0156,11 L13.0156,9.35938 C12.7448,10.1615 12.3802,10.6719 11.9219,10.8906 C11.5677,11.0677 11.2083,11.1563 10.8438,11.1563 C10.25,11.1563 9.78125,10.9948 9.4375,10.6719 C9.09375,10.349 8.92188,9.8776 8.92188,9.25781 C8.92188,8.63802 9.14583,8.14063 9.59375,7.76563 C10.0417,7.39063 10.7708,7.20313 11.7813,7.20313 L13.0156,7.20313 L13.0156,7.10938 C13.0156,6.57813 12.8594,6.14063 12.5469,5.79688 C12.2552,5.45313 11.7604,5.28125 11.0625,5.28125 C10.7188,5.28125 10.3698,5.34375 10.0156,5.46875 C9.78646,5.55208 9.48438,5.71875 9.10938,5.96875 L9.10938,5.4375 C9.43229,5.23958 9.73438,5.09896 10.0156,5.01563 C10.4115,4.90104 10.7917,4.84375 11.1563,4.84375 C11.875,4.84375 12.4635,5.05729 12.9219,5.48438 C13.3177,5.84896 13.5156,6.54167 13.5156,7.5625 M19.4063,5.15625 L19.4063,5.70313 C19.0521,5.50521 18.8333,5.39583 18.75,5.375 C18.5,5.32292 18.1875,5.29167 17.8125,5.28125 C17.25,5.28125 16.8073,5.39063 16.4844,5.60938 C16.2344,5.79688 16.1094,6.11458 16.1094,6.5625 C16.1094,6.875 16.2292,7.11458 16.4688,7.28125 C16.7083,7.46875 17.0573,7.61458 17.5156,7.71875 L17.8594,7.78125 C18.4323,7.90625 18.8646,8.08333 19.1563,8.3125 C19.5,8.58333 19.6771,8.92708 19.6875,9.34375 C19.6875,9.90625 19.5208,10.349 19.1875,10.6719 C18.8333,10.9948 18.2552,11.1563 17.4531,11.1563 C17.0156,11.1563 16.6823,11.125 16.4531,11.0625 C16.1719,10.9896 15.8802,10.8958 15.5781,10.7813 L15.5781,10.1563 C16.0156,10.4063 16.2969,10.5521 16.4219,10.5938 C16.776,10.6875 17.1302,10.7344 17.4844,10.7344 C18.0573,10.7344 18.4844,10.6146 18.7656,10.375 C19.0469,10.125 19.1875,9.80729 19.1875,9.42188 C19.1875,9.08854 19.0938,8.84896 18.9063,8.70313 C18.6354,8.48438 18.2083,8.30729 17.625,8.17188 L17.2813,8.09375 C16.7708,7.96875 16.3854,7.80208 16.125,7.59375 C15.7917,7.32292 15.625,6.99479 15.625,6.60938 C15.625,5.98438 15.8255,5.53385 16.2266,5.25781 C16.6276,4.98177 17.1198,4.84375 17.7031,4.84375 C18.2031,4.84375 18.5469,4.86979 18.7344,4.92188 C18.9635,4.98438 19.1875,5.0625 19.4063,5.15625 M22.2188,2.64063 L22.7188,2.64063 L22.7188,7.71875 L25.7031,4.98438 L26.375,4.98438 L23.2656,7.82813 L26.4844,11 L25.8438,11 L22.7188,7.92188 L22.7188,11 L22.2188,11 L22.2188,2.64063"/>
</g>

<g fill="none" stroke="#000000" stroke-opacity="1" stroke-width="1" stroke-linecap="square" stroke-linejoin="bevel" transform="matrix(2,0,0,2,112.172,284)"
font-family="sans" font-size="11" font-weight="100" font-style="normal" 
>
</g>

<g fill="none" stroke="#000000" stroke-opacity="1" stroke-width="1" stroke-linecap="square" stroke-linejoin="bevel" transform="matrix(2,0,0,2,112.172,284)"
font-family="Ubuntu" font-size="11" font-weight="400" font-style="normal" 
>
</g>

<g fill="none" stroke="#000000" stroke-opacity="1" stroke-width="1" stroke-linecap="square" stroke-linejoin="bevel" transform="matrix(2,0,0,2,-15,441)"
font-family="Ubuntu" font-size="11" font-weight="400" font-style="normal" 
>
</g>

<g fill="none" stroke="#000000" stroke-opacity="1" stroke-width="1" stroke-linecap="square" stroke-linejoin="bevel" transform="matrix(2,0,0,2,-15,441)"
font-family="Ubuntu" font-size="11" font-weight="400" font-style="normal" 
>
</g>

<g fill="none" stroke="#000000" stroke-opacity="1" stroke-width="1" stroke-linecap="square" stroke-linejoin="bevel" transform="matrix(2,0,0,2,-15,441)"
font-family="Ubuntu" font-size="11" font-weight="400" font-style="normal" 
>
</g>

<g fill="none" stroke="#000000" stroke-opacity="1" stroke-width="1" stroke-linecap="square" stroke-linejoin="round" transform="matrix(2,0,0,2,-15,441)"
font-family="Ubuntu" font-size="11" font-weight="400" font-style="normal" 
>
<rect x="35.0016" y="-51.5" width="84.9968" height="35"/>
</g>

<g fill="none" stroke="#000000" stroke-opacity="1" stroke-width="1" stroke-linecap="square" stroke-linejoin="bevel" transform="matrix(2,0,0,2,-15,441)"
font-family="Ubuntu" font-size="11" font-weight="400" font-style="normal" 
>
</g>

<g fill="none" stroke="#000000" stroke-opacity="1" stroke-width="1" stroke-linecap="square" stroke-linejoin="bevel" transform="matrix(2,0,0,2,86.375,359)"
font-family="Ubuntu" font-size="11" font-weight="400" font-style="normal" 
>
</g>

<g fill="none" stroke="#000000" stroke-opacity="1" stroke-width="1" stroke-linecap="square" stroke-linejoin="bevel" transform="matrix(2,0,0,2,86.375,359)"
font-family="sans" font-size="11" font-weight="100" font-style="normal" 
>
</g>

<g fill="#000000" fill-opacity="1" stroke="#000000" stroke-opacity="1" stroke-width="1" stroke-linecap="square" stroke-linejoin="round" transform="matrix(2,0,0,2,86.375,359)"
font-family="sans" font-size="11" font-weight="100" font-style="normal" 
>
<path vector-effect="none" fill-rule="nonzero" d="M2.96875,2.98438 L3.53125,2.98438 L0.734375,12.0156 L0.171875,12.0156 L2.96875,2.98438 M5.46875,3.28125 L5.46875,4.98438 L7.5,4.98438 L7.5,5.40625 L5.46875,5.40625 L5.46875,9.01563 C5.46875,9.47396 5.52604,9.79688 5.64063,9.98438 C5.89063,10.3802 6.25,10.5781 6.71875,10.5781 L7.5,10.5781 L7.5,11 L6.73438,11 C6.24479,11 5.82813,10.8568 5.48438,10.5703 C5.14063,10.2839 4.96875,9.76563 4.96875,9.01563 L4.96875,5.40625 L4.25,5.40625 L4.25,4.98438 L4.96875,4.98438 L4.96875,3.28125 L5.46875,3.28125 M11.6719,7.60938 C10.8698,7.60938 10.2943,7.75 9.94531,8.03125 C9.59635,8.3125 9.42188,8.72396 9.42188,9.26563 C9.42188,9.79688 9.56771,10.1745 9.85938,10.3984 C10.151,10.6224 10.4948,10.7344 10.8906,10.7344 C11.6406,10.7344 12.1823,10.4167 12.5156,9.78125 C12.849,9.13542 13.0156,8.53125 13.0156,7.96875 L13.0156,7.60938 L11.6719,7.60938 M13.5156,7.5625 L13.5156,11 L13.0156,11 L13.0156,9.35938 C12.7448,10.1615 12.3802,10.6719 11.9219,10.8906 C11.5677,11.0677 11.2083,11.1563 10.8438,11.1563 C10.25,11.1563 9.78125,10.9948 9.4375,10.6719 C9.09375,10.349 8.92188,9.8776 8.92188,9.25781 C8.92188,8.63802 9.14583,8.14063 9.59375,7.76563 C10.0417,7.39063 10.7708,7.20313 11.7813,7.20313 L13.0156,7.20313 L13.0156,7.10938 C13.0156,6.57813 12.8594,6.14063 12.5469,5.79688 C12.2552,5.45313 11.7604,5.28125 11.0625,5.28125 C10.7188,5.28125 10.3698,5.34375 10.0156,5.46875 C9.78646,5.55208 9.48438,5.71875 9.10938,5.96875 L9.10938,5.4375 C9.43229,5.23958 9.73438,5.09896 10.0156,5.01563 C10.4115,4.90104 10.7917,4.84375 11.1563,4.84375 C11.875,4.84375 12.4635,5.05729 12.9219,5.48438 C13.3177,5.84896 13.5156,6.54167 13.5156,7.5625 M19.4063,5.15625 L19.4063,5.70313 C19.0521,5.50521 18.8333,5.39583 18.75,5.375 C18.5,5.32292 18.1875,5.29167 17.8125,5.28125 C17.25,5.28125 16.8073,5.39063 16.4844,5.60938 C16.2344,5.79688 16.1094,6.11458 16.1094,6.5625 C16.1094,6.875 16.2292,7.11458 16.4688,7.28125 C16.7083,7.46875 17.0573,7.61458 17.5156,7.71875 L17.8594,7.78125 C18.4323,7.90625 18.8646,8.08333 19.1563,8.3125 C19.5,8.58333 19.6771,8.92708 19.6875,9.34375 C19.6875,9.90625 19.5208,10.349 19.1875,10.6719 C18.8333,10.9948 18.2552,11.1563 17.4531,11.1563 C17.0156,11.1563 16.6823,11.125 16.4531,11.0625 C16.1719,10.9896 15.8802,10.8958 15.5781,10.7813 L15.5781,10.1563 C16.0156,10.4063 16.2969,10.5521 16.4219,10.5938 C16.776,10.6875 17.1302,10.7344 17.4844,10.7344 C18.0573,10.7344 18.4844,10.6146 18.7656,10.375 C19.0469,10.125 19.1875,9.80729 19.1875,9.42188 C19.1875,9.08854 19.0938,8.84896 18.9063,8.70313 C18.6354,8.48438 18.2083,8.30729 17.625,8.17188 L17.2813,8.09375 C16.7708,7.96875 16.3854,7.80208 16.125,7.59375 C15.7917,7.32292 15.625,6.99479 15.625,6.60938 C15.625,5.98438 15.8255,5.53385 16.2266,5.25781 C16.6276,4.98177 17.1198,4.84375 17.7031,4.84375 C18.2031,4.84375 18.5469,4.86979 18.7344,4.92188 C18.9635,4.98438 19.1875,5.0625 19.4063,5.15625 M22.2188,2.64063 L22.7188,2.64063 L22.7188,7.71875 L25.7031,4.98438 L26.375,4.98438 L23.2656,7.82813 L26.4844,11 L25.8438,11 L22.7188,7.92188 L22.7188,11 L22.2188,11 L22.2188,2.64063 M29.7969,2.98438 L30.3594,2.98438 L27.5625,12.0156 L27,12.0156 L29.7969,2.98438 M35.7813,7.92188 C35.7813,7.08854 35.612,6.44271 35.2734,5.98438 C34.9349,5.52604 34.4583,5.29688 33.8438,5.29688 C33.2396,5.29688 32.7682,5.52604 32.4297,5.98438 C32.0911,6.44271 31.9219,7.08854 31.9219,7.92188 C31.9219,8.75521 32.0911,9.40104 32.4297,9.85938 C32.7682,10.3177 33.2396,10.5469 33.8438,10.5469 C34.4583,10.5469 34.9349,10.3177 35.2734,9.85938 C35.612,9.40104 35.7813,8.75521 35.7813,7.92188 M36.2656,10.25 C36.2656,11.5 36.0286,12.3177 35.5547,12.7031 C35.0807,13.0885 34.4792,13.2813 33.75,13.2813 C33.3958,13.2813 33.0677,13.2604 32.7656,13.2188 C32.4531,13.1563 32.151,13.0729 31.8594,12.9688 L31.8594,12.4063 C32.151,12.5625 32.4375,12.6797 32.7188,12.7578 C33,12.8359 33.2917,12.875 33.5938,12.875 C34.1875,12.875 34.7005,12.7474 35.1328,12.4922 C35.5651,12.237 35.7813,11.5521 35.7813,10.4375 L35.7813,9.48438 C35.625,9.90104 35.4219,10.2292 35.1719,10.4688 C34.776,10.8229 34.3333,11 33.8438,11 C33.0833,11 32.4896,10.7318 32.0625,10.1953 C31.6354,9.65885 31.4219,8.90104 31.4219,7.92188 C31.4219,6.94271 31.6354,6.1849 32.0625,5.64844 C32.4896,5.11198 33.0833,4.84375 33.8438,4.84375 C34.3333,4.84375 34.75,4.99479 35.0938,5.29688 C35.3646,5.53646 35.5938,5.85938 35.7813,6.26563 L35.7813,4.98438 L36.2656,4.98438 L36.2656,10.25 M41.9531,6.01563 C41.599,5.52604 41.1146,5.28125 40.5,5.28125 C39.8854,5.28125 39.401,5.52604 39.0469,6.01563 C38.6927,6.49479 38.5156,7.15104 38.5156,7.98438 C38.5156,8.83854 38.6927,9.51042 39.0469,10 C39.401,10.4896 39.8854,10.7344 40.5,10.7344 C41.1146,10.7344 41.599,10.4896 41.9531,10 C42.3073,9.5 42.4844,8.82813 42.4844,7.98438 C42.4844,7.16146 42.3073,6.50521 41.9531,6.01563 M40.5,4.84375 C41.2604,4.84375 41.8646,5.13021 42.3125,5.70313 C42.7604,6.27604 42.9844,7.03646 42.9844,7.98438 C42.9844,8.97396 42.7604,9.75521 42.3125,10.3281 C41.8646,10.901 41.2604,11.1875 40.5,11.1875 C39.7188,11.1875 39.1042,10.901 38.6563,10.3281 C38.2188,9.75521 38,8.97396 38,7.98438 C38,7.02604 38.224,6.26302 38.6719,5.69531 C39.1198,5.1276 39.7292,4.84375 40.5,4.84375 M47.5,7.60938 C46.6979,7.60938 46.1224,7.75 45.7734,8.03125 C45.4245,8.3125 45.25,8.72396 45.25,9.26563 C45.25,9.79688 45.3958,10.1745 45.6875,10.3984 C45.9792,10.6224 46.3229,10.7344 46.7188,10.7344 C47.4688,10.7344 48.0104,10.4167 48.3438,9.78125 C48.6771,9.13542 48.8438,8.53125 48.8438,7.96875 L48.8438,7.60938 L47.5,7.60938 M49.3438,7.5625 L49.3438,11 L48.8438,11 L48.8438,9.35938 C48.5729,10.1615 48.2083,10.6719 47.75,10.8906 C47.3958,11.0677 47.0365,11.1563 46.6719,11.1563 C46.0781,11.1563 45.6094,10.9948 45.2656,10.6719 C44.9219,10.349 44.75,9.8776 44.75,9.25781 C44.75,8.63802 44.974,8.14063 45.4219,7.76563 C45.8698,7.39063 46.599,7.20313 47.6094,7.20313 L48.8438,7.20313 L48.8438,7.10938 C48.8438,6.57813 48.6875,6.14063 48.375,5.79688 C48.0833,5.45313 47.5885,5.28125 46.8906,5.28125 C46.5469,5.28125 46.1979,5.34375 45.8438,5.46875 C45.6146,5.55208 45.3125,5.71875 44.9375,5.96875 L44.9375,5.4375 C45.2604,5.23958 45.5625,5.09896 45.8438,5.01563 C46.2396,4.90104 46.6198,4.84375 46.9844,4.84375 C47.7031,4.84375 48.2917,5.05729 48.75,5.48438 C49.1458,5.84896 49.3438,6.54167 49.3438,7.5625 M51.8281,2.64063 L52.3125,2.64063 L52.3125,11 L51.8281,11 L51.8281,2.64063"/>
</g>

<g fill="none" stroke="#000000" stroke-opacity="1" stroke-width="1" stroke-linecap="square" stroke-linejoin="bevel" transform="matrix(2,0,0,2,86.375,359)"
font-family="sans" font-size="11" font-weight="100" font-style="normal" 
>
</g>

<g fill="none" stroke="#000000" stroke-opacity="1" stroke-width="1" stroke-linecap="square" stroke-linejoin="bevel" transform="matrix(2,0,0,2,86.375,359)"
font-family="Ubuntu" font-size="11" font-weight="400" font-style="normal" 
>
</g>

<g fill="none" stroke="#000000" stroke-opacity="1" stroke-width="1" stroke-linecap="square" stroke-linejoin="bevel" transform="matrix(2,0,0,2,-15,441)"
font-family="Ubuntu" font-size="11" font-weight="400" font-style="normal" 
>
</g>

<g fill="none" stroke="#000000" stroke-opacity="1" stroke-width="1" stroke-linecap="square" stroke-linejoin="bevel" transform="matrix(2,0,0,2,-15,441)"
font-family="Ubuntu" font-size="11" font-weight="400" font-style="normal" 
>
</g>

<g fill="none" stroke="#000000" stroke-opacity="1" stroke-width="1" stroke-linecap="square" stroke-linejoin="bevel" transform="matrix(2,0,0,2,-15,441)"
font-family="Ubuntu" font-size="11" font-weight="400" font-style="normal" 
>
</g>

<g fill="none" stroke="#000000" stroke-opacity="1" stroke-width="1" stroke-linecap="square" stroke-linejoin="round" transform="matrix(2,0,0,2,-15,441)"
font-family="Ubuntu" font-size="11" font-weight="400" font-style="normal" 
>
<rect x="35.0016" y="-51.5" width="84.9968" height="35"/>
</g>

<g fill="none" stroke="#000000" stroke-opacity="1" stroke-width="1" stroke-linecap="square" stroke-linejoin="bevel" transform="matrix(2,0,0,2,-15,441)"
font-family="Ubuntu" font-size="11" font-weight="400" font-style="normal" 
>
</g>

<g fill="none" stroke="#000000" stroke-opacity="1" stroke-width="1" stroke-linecap="square" stroke-linejoin="bevel" transform="matrix(2,0,0,2,86.375,359)"
font-family="Ubuntu" font-size="11" font-weight="400" font-style="normal" 
>
</g>

<g fill="none" stroke="#000000" stroke-opacity="1" stroke-width="1" stroke-linecap="square" stroke-linejoin="bevel" transform="matrix(2,0,0,2,86.375,359)"
font-family="sans" font-size="11" font-weight="100" font-style="normal" 
>
</g>

<g fill="#000000" fill-opacity="1" stroke="#000000" stroke-opacity="1" stroke-width="1" stroke-linecap="square" stroke-linejoin="round" transform="matrix(2,0,0,2,86.375,359)"
font-family="sans" font-size="11" font-weight="100" font-style="normal" 
>
<path vector-effect="none" fill-rule="nonzero" d="M2.96875,2.98438 L3.53125,2.98438 L0.734375,12.0156 L0.171875,12.0156 L2.96875,2.98438 M5.46875,3.28125 L5.46875,4.98438 L7.5,4.98438 L7.5,5.40625 L5.46875,5.40625 L5.46875,9.01563 C5.46875,9.47396 5.52604,9.79688 5.64063,9.98438 C5.89063,10.3802 6.25,10.5781 6.71875,10.5781 L7.5,10.5781 L7.5,11 L6.73438,11 C6.24479,11 5.82813,10.8568 5.48438,10.5703 C5.14063,10.2839 4.96875,9.76563 4.96875,9.01563 L4.96875,5.40625 L4.25,5.40625 L4.25,4.98438 L4.96875,4.98438 L4.96875,3.28125 L5.46875,3.28125 M11.6719,7.60938 C10.8698,7.60938 10.2943,7.75 9.94531,8.03125 C9.59635,8.3125 9.42188,8.72396 9.42188,9.26563 C9.42188,9.79688 9.56771,10.1745 9.85938,10.3984 C10.151,10.6224 10.4948,10.7344 10.8906,10.7344 C11.6406,10.7344 12.1823,10.4167 12.5156,9.78125 C12.849,9.13542 13.0156,8.53125 13.0156,7.96875 L13.0156,7.60938 L11.6719,7.60938 M13.5156,7.5625 L13.5156,11 L13.0156,11 L13.0156,9.35938 C12.7448,10.1615 12.3802,10.6719 11.9219,10.8906 C11.5677,11.0677 11.2083,11.1563 10.8438,11.1563 C10.25,11.1563 9.78125,10.9948 9.4375,10.6719 C9.09375,10.349 8.92188,9.8776 8.92188,9.25781 C8.92188,8.63802 9.14583,8.14063 9.59375,7.76563 C10.0417,7.39063 10.7708,7.20313 11.7813,7.20313 L13.0156,7.20313 L13.0156,7.10938 C13.0156,6.57813 12.8594,6.14063 12.5469,5.79688 C12.2552,5.45313 11.7604,5.28125 11.0625,5.28125 C10.7188,5.28125 10.3698,5.34375 10.0156,5.46875 C9.78646,5.55208 9.48438,5.71875 9.10938,5.96875 L9.10938,5.4375 C9.43229,5.23958 9.73438,5.09896 10.0156,5.01563 C10.4115,4.90104 10.7917,4.84375 11.1563,4.84375 C11.875,4.84375 12.4635,5.05729 12.9219,5.48438 C13.3177,5.84896 13.5156,6.54167 13.5156,7.5625 M19.4063,5.15625 L19.4063,5.70313 C19.0521,5.50521 18.8333,5.39583 18.75,5.375 C18.5,5.32292 18.1875,5.29167 17.8125,5.28125 C17.25,5.28125 16.8073,5.39063 16.4844,5.60938 C16.2344,5.79688 16.1094,6.11458 16.1094,6.5625 C16.1094,6.875 16.2292,7.11458 16.4688,7.28125 C16.7083,7.46875 17.0573,7.61458 17.5156,7.71875 L17.8594,7.78125 C18.4323,7.90625 18.8646,8.08333 19.1563,8.3125 C19.5,8.58333 19.6771,8.92708 19.6875,9.34375 C19.6875,9.90625 19.5208,10.349 19.1875,10.6719 C18.8333,10.9948 18.2552,11.1563 17.4531,11.1563 C17.0156,11.1563 16.6823,11.125 16.4531,11.0625 C16.1719,10.9896 15.8802,10.8958 15.5781,10.7813 L15.5781,10.1563 C16.0156,10.4063 16.2969,10.5521 16.4219,10.5938 C16.776,10.6875 17.1302,10.7344 17.4844,10.7344 C18.0573,10.7344 18.4844,10.6146 18.7656,10.375 C19.0469,10.125 19.1875,9.80729 19.1875,9.42188 C19.1875,9.08854 19.0938,8.84896 18.9063,8.70313 C18.6354,8.48438 18.2083,8.30729 17.625,8.17188 L17.2813,8.09375 C16.7708,7.96875 16.3854,7.80208 16.125,7.59375 C15.7917,7.32292 15.625,6.99479 15.625,6.60938 C15.625,5.98438 15.8255,5.53385 16.2266,5.25781 C16.6276,4.98177 17.1198,4.84375 17.7031,4.84375 C18.2031,4.84375 18.5469,4.86979 18.7344,4.92188 C18.9635,4.98438 19.1875,5.0625 19.4063,5.15625 M22.2188,2.64063 L22.7188,2.64063 L22.7188,7.71875 L25.7031,4.98438 L26.375,4.98438 L23.2656,7.82813 L26.4844,11 L25.8438,11 L22.7188,7.92188 L22.7188,11 L22.2188,11 L22.2188,2.64063 M29.7969,2.98438 L30.3594,2.98438 L27.5625,12.0156 L27,12.0156 L29.7969,2.98438 M35.7813,7.92188 C35.7813,7.08854 35.612,6.44271 35.2734,5.98438 C34.9349,5.52604 34.4583,5.29688 33.8438,5.29688 C33.2396,5.29688 32.7682,5.52604 32.4297,5.98438 C32.0911,6.44271 31.9219,7.08854 31.9219,7.92188 C31.9219,8.75521 32.0911,9.40104 32.4297,9.85938 C32.7682,10.3177 33.2396,10.5469 33.8438,10.5469 C34.4583,10.5469 34.9349,10.3177 35.2734,9.85938 C35.612,9.40104 35.7813,8.75521 35.7813,7.92188 M36.2656,10.25 C36.2656,11.5 36.0286,12.3177 35.5547,12.7031 C35.0807,13.0885 34.4792,13.2813 33.75,13.2813 C33.3958,13.2813 33.0677,13.2604 32.7656,13.2188 C32.4531,13.1563 32.151,13.0729 31.8594,12.9688 L31.8594,12.4063 C32.151,12.5625 32.4375,12.6797 32.7188,12.7578 C33,12.8359 33.2917,12.875 33.5938,12.875 C34.1875,12.875 34.7005,12.7474 35.1328,12.4922 C35.5651,12.237 35.7813,11.5521 35.7813,10.4375 L35.7813,9.48438 C35.625,9.90104 35.4219,10.2292 35.1719,10.4688 C34.776,10.8229 34.3333,11 33.8438,11 C33.0833,11 32.4896,10.7318 32.0625,10.1953 C31.6354,9.65885 31.4219,8.90104 31.4219,7.92188 C31.4219,6.94271 31.6354,6.1849 32.0625,5.64844 C32.4896,5.11198 33.0833,4.84375 33.8438,4.84375 C34.3333,4.84375 34.75,4.99479 35.0938,5.29688 C35.3646,5.53646 35.5938,5.85938 35.7813,6.26563 L35.7813,4.98438 L36.2656,4.98438 L36.2656,10.25 M41.9531,6.01563 C41.599,5.52604 41.1146,5.28125 40.5,5.28125 C39.8854,5.28125 39.401,5.52604 39.0469,6.01563 C38.6927,6.49479 38.5156,7.15104 38.5156,7.98438 C38.5156,8.83854 38.6927,9.51042 39.0469,10 C39.401,10.4896 39.8854,10.7344 40.5,10.7344 C41.1146,10.7344 41.599,10.4896 41.9531,10 C42.3073,9.5 42.4844,8.82813 42.4844,7.98438 C42.4844,7.16146 42.3073,6.50521 41.9531,6.01563 M40.5,4.84375 C41.2604,4.84375 41.8646,5.13021 42.3125,5.70313 C42.7604,6.27604 42.9844,7.03646 42.9844,7.98438 C42.9844,8.97396 42.7604,9.75521 42.3125,10.3281 C41.8646,10.901 41.2604,11.1875 40.5,11.1875 C39.7188,11.1875 39.1042,10.901 38.6563,10.3281 C38.2188,9.75521 38,8.97396 38,7.98438 C38,7.02604 38.224,6.26302 38.6719,5.69531 C39.1198,5.1276 39.7292,4.84375 40.5,4.84375 M47.5,7.60938 C46.6979,7.60938 46.1224,7.75 45.7734,8.03125 C45.4245,8.3125 45.25,8.72396 45.25,9.26563 C45.25,9.79688 45.3958,10.1745 45.6875,10.3984 C45.9792,10.6224 46.3229,10.7344 46.7188,10.7344 C47.4688,10.7344 48.0104,10.4167 48.3438,9.78125 C48.6771,9.13542 48.8438,8.53125 48.8438,7.96875 L48.8438,7.60938 L47.5,7.60938 M49.3438,7.5625 L49.3438,11 L48.8438,11 L48.8438,9.35938 C48.5729,10.1615 48.2083,10.6719 47.75,10.8906 C47.3958,11.0677 47.0365,11.1563 46.6719,11.1563 C46.0781,11.1563 45.6094,10.9948 45.2656,10.6719 C44.9219,10.349 44.75,9.8776 44.75,9.25781 C44.75,8.63802 44.974,8.14063 45.4219,7.76563 C45.8698,7.39063 46.599,7.20313 47.6094,7.20313 L48.8438,7.20313 L48.8438,7.10938 C48.8438,6.57813 48.6875,6.14063 48.375,5.79688 C48.0833,5.45313 47.5885,5.28125 46.8906,5.28125 C46.5469,5.28125 46.1979,5.34375 45.8438,5.46875 C45.6146,5.55208 45.3125,5.71875 44.9375,5.96875 L44.9375,5.4375 C45.2604,5.23958 45.5625,5.09896 45.8438,5.01563 C46.2396,4.90104 46.6198,4.84375 46.9844,4.84375 C47.7031,4.84375 48.2917,5.05729 48.75,5.48438 C49.1458,5.84896 49.3438,6.54167 49.3438,7.5625 M51.8281,2.64063 L52.3125,2.64063 L52.3125,11 L51.8281,11 L51.8281,2.64063"/>
</g>

<g fill="none" stroke="#000000" stroke-opacity="1" stroke-width="1" stroke-linecap="square" stroke-linejoin="bevel" transform="matrix(2,0,0,2,86.375,359)"
font-family="sans" font-size="11" font-weight="100" font-style="normal" 
>
</g>

<g fill="none" stroke="#000000" stroke-opacity="1" stroke-width="1" stroke-linecap="square" stroke-linejoin="bevel" transform="matrix(2,0,0,2,86.375,359)"
font-family="Ubuntu" font-size="11" font-weight="400" font-style="normal" 
>
</g>

<g fill="none" stroke="#000000" stroke-opacity="1" stroke-width="1" stroke-linecap="square" stroke-linejoin="bevel" transform="matrix(2,0,0,2,-15,441)"
font-family="Ubuntu" font-size="11" font-weight="400" font-style="normal" 
>
</g>

<g fill="none" stroke="#000000" stroke-opacity="1" stroke-width="1" stroke-linecap="square" stroke-linejoin="bevel" transform="matrix(2,0,0,2,-15,441)"
font-family="Ubuntu" font-size="11" font-weight="400" font-style="normal" 
>
</g>

<g fill="none" stroke="#000000" stroke-opacity="1" stroke-width="1" stroke-linecap="square" stroke-linejoin="bevel" transform="matrix(2,0,0,2,-15,441)"
font-family="Ubuntu" font-size="11" font-weight="400" font-style="normal" 
>
</g>

<g fill="none" stroke="#000000" stroke-opacity="1" stroke-width="1" stroke-linecap="square" stroke-linejoin="round" transform="matrix(2,0,0,2,-15,441)"
font-family="Ubuntu" font-size="11" font-weight="400" font-style="normal" 
>
<ellipse cx="214.14" cy="-117" rx="58.6444" ry="17.5"/>
</g>

<g fill="none" stroke="#000000" stroke-opacity="1" stroke-width="1" stroke-linecap="square" stroke-linejoin="bevel" transform="matrix(2,0,0,2,-15,441)"
font-family="Ubuntu" font-size="11" font-weight="400" font-style="normal" 
>
</g>

<g fill="none" stroke="#000000" stroke-opacity="1" stroke-width="1" stroke-linecap="square" stroke-linejoin="bevel" transform="matrix(2,0,0,2,354.905,193)"
font-family="Ubuntu" font-size="11" font-weight="400" font-style="normal" 
>
</g>

<g fill="none" stroke="#000000" stroke-opacity="1" stroke-width="1" stroke-linecap="square" stroke-linejoin="bevel" transform="matrix(2,0,0,2,354.905,193)"
font-family="sans" font-size="11" font-weight="100" font-style="normal" 
>
</g>

<g fill="#000000" fill-opacity="1" stroke="#000000" stroke-opacity="1" stroke-width="1" stroke-linecap="square" stroke-linejoin="round" transform="matrix(2,0,0,2,354.905,193)"
font-family="sans" font-size="11" font-weight="100" font-style="normal" 
>
<path vector-effect="none" fill-rule="nonzero" d="M2.96875,2.98438 L3.53125,2.98438 L0.734375,12.0156 L0.171875,12.0156 L2.96875,2.98438 M7.35938,7.60938 C6.55729,7.60938 5.98177,7.75 5.63281,8.03125 C5.28385,8.3125 5.10938,8.72396 5.10938,9.26563 C5.10938,9.79688 5.25521,10.1745 5.54688,10.3984 C5.83854,10.6224 6.18229,10.7344 6.57813,10.7344 C7.32813,10.7344 7.86979,10.4167 8.20313,9.78125 C8.53646,9.13542 8.70313,8.53125 8.70313,7.96875 L8.70313,7.60938 L7.35938,7.60938 M9.20313,7.5625 L9.20313,11 L8.70313,11 L8.70313,9.35938 C8.43229,10.1615 8.06771,10.6719 7.60938,10.8906 C7.25521,11.0677 6.89583,11.1563 6.53125,11.1563 C5.9375,11.1563 5.46875,10.9948 5.125,10.6719 C4.78125,10.349 4.60938,9.8776 4.60938,9.25781 C4.60938,8.63802 4.83333,8.14063 5.28125,7.76563 C5.72917,7.39063 6.45833,7.20313 7.46875,7.20313 L8.70313,7.20313 L8.70313,7.10938 C8.70313,6.57813 8.54688,6.14063 8.23438,5.79688 C7.94271,5.45313 7.44792,5.28125 6.75,5.28125 C6.40625,5.28125 6.05729,5.34375 5.70313,5.46875 C5.47396,5.55208 5.17188,5.71875 4.79688,5.96875 L4.79688,5.4375 C5.11979,5.23958 5.42188,5.09896 5.70313,5.01563 C6.09896,4.90104 6.47917,4.84375 6.84375,4.84375 C7.5625,4.84375 8.15104,5.05729 8.60938,5.48438 C9.00521,5.84896 9.20313,6.54167 9.20313,7.5625 M14.9531,5.40625 C14.8698,5.36458 14.7604,5.33333 14.625,5.3125 C14.5,5.29167 14.349,5.28125 14.1719,5.28125 C13.5573,5.28125 13.0521,5.50521 12.6563,5.95313 C12.3333,6.31771 12.1719,6.94271 12.1719,7.82813 L12.1719,11 L11.6875,11 L11.6875,4.98438 L12.1719,4.98438 L12.1719,6.10938 C12.3385,5.78646 12.5677,5.51563 12.8594,5.29688 C13.2552,4.99479 13.724,4.84375 14.2656,4.84375 C14.4115,4.84375 14.5365,4.84896 14.6406,4.85938 C14.7448,4.85938 14.849,4.86979 14.9531,4.89063 L14.9531,5.40625 M20.3281,6.29688 C20.5156,5.80729 20.8073,5.44271 21.2031,5.20313 C21.5885,4.96354 22.0417,4.84375 22.5625,4.84375 C23.0833,4.84375 23.5,5.02604 23.8125,5.39063 C24.1354,5.75521 24.2969,6.41667 24.2969,7.375 L24.2969,11 L23.8125,11 L23.8125,7.40625 C23.8125,6.57292 23.6979,6.01042 23.4688,5.71875 C23.2396,5.42708 22.9323,5.28125 22.5469,5.28125 C21.9948,5.28125 21.5104,5.44792 21.0938,5.78125 C20.625,6.15625 20.3906,6.76042 20.3906,7.59375 L20.3906,11 L19.9063,11 L19.9063,7.40625 C19.9063,6.60417 19.7943,6.04948 19.5703,5.74219 C19.3464,5.4349 19.0365,5.28125 18.6406,5.28125 C18.0885,5.28125 17.6042,5.45313 17.1875,5.79688 C16.7188,6.16146 16.4844,6.76042 16.4844,7.59375 L16.4844,11 L16,11 L16,4.98438 L16.4844,4.98438 L16.4844,6.10938 C16.6615,5.71354 16.9375,5.40104 17.3125,5.17188 C17.6771,4.95313 18.1302,4.84375 18.6719,4.84375 C19.026,4.84375 19.3646,4.95833 19.6875,5.1875 C19.9375,5.375 20.151,5.74479 20.3281,6.29688 M31.0625,13.1719 L31.0625,13.5938 L25.3438,13.5938 L25.3438,13.1719 L31.0625,13.1719 M36.75,7.375 L36.75,11 L36.25,11 L36.25,7.40625 C36.25,6.625 36.125,6.07552 35.875,5.75781 C35.625,5.4401 35.2552,5.28125 34.7656,5.28125 C34.1927,5.28125 33.7083,5.45313 33.3125,5.79688 C32.8958,6.14063 32.6875,6.73958 32.6875,7.59375 L32.6875,11 L32.2031,11 L32.2031,4.98438 L32.6875,4.98438 L32.6875,6.10938 C32.8646,5.74479 33.099,5.46875 33.3906,5.28125 C33.8073,4.98958 34.2708,4.84375 34.7813,4.84375 C35.3854,4.84375 35.8646,5.04688 36.2188,5.45313 C36.5729,5.84896 36.75,6.48958 36.75,7.375 M42.75,6.01563 C42.3958,5.52604 41.9115,5.28125 41.2969,5.28125 C40.6823,5.28125 40.1979,5.52604 39.8438,6.01563 C39.4896,6.49479 39.3125,7.15104 39.3125,7.98438 C39.3125,8.83854 39.4896,9.51042 39.8438,10 C40.1979,10.4896 40.6823,10.7344 41.2969,10.7344 C41.9115,10.7344 42.3958,10.4896 42.75,10 C43.1042,9.5 43.2813,8.82813 43.2813,7.98438 C43.2813,7.16146 43.1042,6.50521 42.75,6.01563 M41.2969,4.84375 C42.0573,4.84375 42.6615,5.13021 43.1094,5.70313 C43.5573,6.27604 43.7813,7.03646 43.7813,7.98438 C43.7813,8.97396 43.5573,9.75521 43.1094,10.3281 C42.6615,10.901 42.0573,11.1875 41.2969,11.1875 C40.5156,11.1875 39.901,10.901 39.4531,10.3281 C39.0156,9.75521 38.7969,8.97396 38.7969,7.98438 C38.7969,7.02604 39.0208,6.26302 39.4688,5.69531 C39.9167,5.1276 40.526,4.84375 41.2969,4.84375 M49.8906,6.35938 L49.8906,2.64063 L50.3594,2.64063 L50.3594,11 L49.8906,11 L49.8906,9.64063 C49.6615,10.1615 49.4115,10.5156 49.1406,10.7031 C48.7448,11.0052 48.3646,11.1563 48,11.1563 C47.2917,11.1563 46.7005,10.8672 46.2266,10.2891 C45.7526,9.71094 45.5156,8.94792 45.5156,8 C45.5156,7.05208 45.7526,6.28906 46.2266,5.71094 C46.7005,5.13281 47.2917,4.84375 48,4.84375 C48.3646,4.84375 48.7448,4.98958 49.1406,5.28125 C49.4115,5.47917 49.6615,5.83854 49.8906,6.35938 M46.6563,5.90625 C46.2396,6.32292 46.0313,7.02083 46.0313,8 C46.0313,8.97917 46.2396,9.67708 46.6563,10.0938 C47.0729,10.5104 47.5104,10.7188 47.9688,10.7188 C48.4167,10.7188 48.849,10.5104 49.2656,10.0938 C49.6719,9.67708 49.875,8.97917 49.875,8 C49.875,7.02083 49.6719,6.32292 49.2656,5.90625 C48.849,5.48958 48.4167,5.28125 47.9688,5.28125 C47.5104,5.28125 47.0729,5.48958 46.6563,5.90625 M57.5469,7.75 L57.5469,8.0625 L52.9844,8.0625 C52.9844,9.02083 53.1719,9.69792 53.5469,10.0938 C53.9635,10.5208 54.5781,10.7344 55.3906,10.7344 C55.6094,10.7344 55.8958,10.6875 56.25,10.5938 C56.6042,10.5 56.9583,10.3594 57.3125,10.1719 L57.3125,10.6875 C56.9583,10.8438 56.5964,10.9609 56.2266,11.0391 C55.8568,11.1172 55.5625,11.1563 55.3438,11.1563 C54.4167,11.1563 53.7188,10.9063 53.25,10.4063 C52.7396,9.875 52.4844,9.09375 52.4844,8.0625 C52.4844,6.98958 52.7135,6.1875 53.1719,5.65625 C53.651,5.11458 54.3177,4.84375 55.1719,4.84375 C55.9531,4.84375 56.5469,5.10417 56.9531,5.625 C57.349,6.16667 57.5469,6.875 57.5469,7.75 M57.0469,7.64063 C57.0469,6.79688 56.8542,6.18229 56.4688,5.79688 C56.1563,5.45313 55.724,5.28125 55.1719,5.28125 C54.5781,5.28125 54.0781,5.45833 53.6719,5.8125 C53.2969,6.14583 53.0729,6.75521 53,7.64063 L57.0469,7.64063"/>
</g>

<g fill="none" stroke="#000000" stroke-opacity="1" stroke-width="1" stroke-linecap="square" stroke-linejoin="bevel" transform="matrix(2,0,0,2,354.905,193)"
font-family="sans" font-size="11" font-weight="100" font-style="normal" 
>
</g>

<g fill="none" stroke="#000000" stroke-opacity="1" stroke-width="1" stroke-linecap="square" stroke-linejoin="bevel" transform="matrix(2,0,0,2,354.905,193)"
font-family="Ubuntu" font-size="11" font-weight="400" font-style="normal" 
>
</g>

<g fill="none" stroke="#000000" stroke-opacity="1" stroke-width="1" stroke-linecap="square" stroke-linejoin="bevel" transform="matrix(2,0,0,2,-15,441)"
font-family="Ubuntu" font-size="11" font-weight="400" font-style="normal" 
>
</g>

<g fill="none" stroke="#000000" stroke-opacity="1" stroke-width="1" stroke-linecap="square" stroke-linejoin="bevel" transform="matrix(2,0,0,2,-15,441)"
font-family="Ubuntu" font-size="11" font-weight="400" font-style="normal" 
>
</g>

<g fill="none" stroke="#000000" stroke-opacity="1" stroke-width="1" stroke-linecap="square" stroke-linejoin="bevel" transform="matrix(2,0,0,2,-15,441)"
font-family="Ubuntu" font-size="11" font-weight="400" font-style="normal" 
>
</g>

<g fill="none" stroke="#000000" stroke-opacity="1" stroke-width="1" stroke-linecap="square" stroke-linejoin="round" transform="matrix(2,0,0,2,-15,441)"
font-family="Ubuntu" font-size="11" font-weight="400" font-style="normal" 
>
<path vector-effect="none" fill-rule="evenodd" d="M124.59,-152.92 C132.09,-149.96 139.76,-146.9 147,-144 C153.96,-141.21 161.33,-138.22 168.52,-135.3 "/>
</g>

<g fill="none" stroke="#000000" stroke-opacity="1" stroke-width="1" stroke-linecap="square" stroke-linejoin="bevel" transform="matrix(2,0,0,2,-15,441)"
font-family="Ubuntu" font-size="11" font-weight="400" font-style="normal" 
>
</g>

<g fill="none" stroke="#000000" stroke-opacity="1" stroke-width="1" stroke-linecap="square" stroke-linejoin="bevel" transform="matrix(2,0,0,2,-15,441)"
font-family="Ubuntu" font-size="11" font-weight="400" font-style="normal" 
>
</g>

<g fill="#000000" fill-opacity="1" stroke="#000000" stroke-opacity="1" stroke-width="1" stroke-linecap="square" stroke-linejoin="round" transform="matrix(2,0,0,2,-15,441)"
font-family="Ubuntu" font-size="11" font-weight="400" font-style="normal" 
>
<path vector-effect="none" fill-rule="evenodd" d="M168.52,-135.3 L167.144,-131.926 L178.16,-131.37 L169.896,-138.674 L168.52,-135.3"/>
</g>

<g fill="none" stroke="#000000" stroke-opacity="1" stroke-width="1" stroke-linecap="square" stroke-linejoin="bevel" transform="matrix(2,0,0,2,-15,441)"
font-family="Ubuntu" font-size="11" font-weight="400" font-style="normal" 
>
</g>

<g fill="none" stroke="#000000" stroke-opacity="1" stroke-width="1" stroke-linecap="square" stroke-linejoin="bevel" transform="matrix(2,0,0,2,-15,441)"
font-family="Ubuntu" font-size="11" font-weight="400" font-style="normal" 
>
</g>

<g fill="none" stroke="#000000" stroke-opacity="1" stroke-width="1" stroke-linecap="square" stroke-linejoin="bevel" transform="matrix(2,0,0,2,-15,441)"
font-family="Ubuntu" font-size="11" font-weight="400" font-style="normal" 
>
</g>

<g fill="none" stroke="#000000" stroke-opacity="1" stroke-width="1" stroke-linecap="square" stroke-linejoin="bevel" transform="matrix(2,0,0,2,-15,441)"
font-family="Ubuntu" font-size="11" font-weight="400" font-style="normal" 
>
</g>

<g fill="none" stroke="#000000" stroke-opacity="1" stroke-width="1" stroke-linecap="square" stroke-linejoin="round" transform="matrix(2,0,0,2,-15,441)"
font-family="Ubuntu" font-size="11" font-weight="400" font-style="normal" 
>
<path vector-effect="none" fill-rule="evenodd" d="M107.72,-52.01 C128.38,-64.749 156.19,-81.891 178.06,-95.371 "/>
</g>

<g fill="none" stroke="#000000" stroke-opacity="1" stroke-width="1" stroke-linecap="square" stroke-linejoin="bevel" transform="matrix(2,0,0,2,-15,441)"
font-family="Ubuntu" font-size="11" font-weight="400" font-style="normal" 
>
</g>

<g fill="none" stroke="#000000" stroke-opacity="1" stroke-width="1" stroke-linecap="square" stroke-linejoin="bevel" transform="matrix(2,0,0,2,-15,441)"
font-family="Ubuntu" font-size="11" font-weight="400" font-style="normal" 
>
</g>

<g fill="#000000" fill-opacity="1" stroke="#000000" stroke-opacity="1" stroke-width="1" stroke-linecap="square" stroke-linejoin="round" transform="matrix(2,0,0,2,-15,441)"
font-family="Ubuntu" font-size="11" font-weight="400" font-style="normal" 
>
<path vector-effect="none" fill-rule="evenodd" d="M178.06,-95.371 L179.929,-92.34 L186.72,-100.71 L176.191,-98.402 L178.06,-95.371"/>
</g>

<g fill="none" stroke="#000000" stroke-opacity="1" stroke-width="1" stroke-linecap="square" stroke-linejoin="bevel" transform="matrix(2,0,0,2,-15,441)"
font-family="Ubuntu" font-size="11" font-weight="400" font-style="normal" 
>
</g>

<g fill="none" stroke="#000000" stroke-opacity="1" stroke-width="1" stroke-linecap="square" stroke-linejoin="bevel" transform="matrix(2,0,0,2,-15,441)"
font-family="Ubuntu" font-size="11" font-weight="400" font-style="normal" 
>
</g>

<g fill="none" stroke="#000000" stroke-opacity="1" stroke-width="1" stroke-linecap="square" stroke-linejoin="bevel" transform="matrix(2,0,0,2,-15,441)"
font-family="Ubuntu" font-size="11" font-weight="400" font-style="normal" 
>
</g>

<g fill="none" stroke="#000000" stroke-opacity="1" stroke-width="1" stroke-linecap="square" stroke-linejoin="bevel" transform="matrix(2,0,0,2,-15,441)"
font-family="Ubuntu" font-size="11" font-weight="400" font-style="normal" 
>
</g>

<g fill="none" stroke="#000000" stroke-opacity="1" stroke-width="1" stroke-linecap="square" stroke-linejoin="round" transform="matrix(2,0,0,2,-15,441)"
font-family="Ubuntu" font-size="11" font-weight="400" font-style="normal" 
>
<path vector-effect="none" fill-rule="evenodd" d="M154.67,-117 C148.84,-117 142.92,-117 137.09,-117 "/>
</g>

<g fill="none" stroke="#000000" stroke-opacity="1" stroke-width="1" stroke-linecap="square" stroke-linejoin="bevel" transform="matrix(2,0,0,2,-15,441)"
font-family="Ubuntu" font-size="11" font-weight="400" font-style="normal" 
>
</g>

<g fill="none" stroke="#000000" stroke-opacity="1" stroke-width="1" stroke-linecap="square" stroke-linejoin="bevel" transform="matrix(2,0,0,2,-15,441)"
font-family="Ubuntu" font-size="11" font-weight="400" font-style="normal" 
>
</g>

<g fill="#000000" fill-opacity="1" stroke="#000000" stroke-opacity="1" stroke-width="1" stroke-linecap="square" stroke-linejoin="round" transform="matrix(2,0,0,2,-15,441)"
font-family="Ubuntu" font-size="11" font-weight="400" font-style="normal" 
>
<path vector-effect="none" fill-rule="evenodd" d="M137.09,-117 L137.09,-120.626 L126.73,-117 L137.09,-113.374 L137.09,-117"/>
</g>

<g fill="none" stroke="#000000" stroke-opacity="1" stroke-width="1" stroke-linecap="square" stroke-linejoin="bevel" transform="matrix(2,0,0,2,-15,441)"
font-family="Ubuntu" font-size="11" font-weight="400" font-style="normal" 
>
</g>

<g fill="none" stroke="#000000" stroke-opacity="1" stroke-width="1" stroke-linecap="square" stroke-linejoin="bevel" transform="matrix(1,0,0,1,0,0)"
font-family="Ubuntu" font-size="11" font-weight="400" font-style="normal" 
>
</g>
</g>
</svg>
