<?xml version="1.0" encoding="UTF-8" standalone="no"?>
<svg width="262.467mm" height="91.7222mm"
 xmlns="http://www.w3.org/2000/svg" xmlns:xlink="http://www.w3.org/1999/xlink"  version="1.2" baseProfile="tiny">
<title>Qt SVG Document</title>
<desc>Generated with Qt</desc>
<defs>
</defs>
<g fill="none" stroke="black" stroke-width="1" fill-rule="evenodd" stroke-linecap="square" stroke-linejoin="bevel" >

<g fill="none" stroke="#000000" stroke-opacity="1" stroke-width="1" stroke-linecap="square" stroke-linejoin="bevel" transform="matrix(1,0,0,1,0,0)"
font-family="Ubuntu" font-size="11" font-weight="400" font-style="normal" 
>
</g>

<g fill="none" stroke="#000000" stroke-opacity="1" stroke-width="1" stroke-linecap="square" stroke-linejoin="bevel" transform="matrix(1,0,0,1,0,0)"
font-family="Ubuntu" font-size="11" font-weight="400" font-style="normal" 
>
</g>

<g fill="none" stroke="#000000" stroke-opacity="1" stroke-width="1" stroke-linecap="square" stroke-linejoin="bevel" transform="matrix(2,0,0,2,0.0004,275)"
font-family="Ubuntu" font-size="11" font-weight="400" font-style="normal" 
>
</g>

<g fill="#ffffff" fill-opacity="1" stroke="none" transform="matrix(2,0,0,2,0.0004,275)"
font-family="Ubuntu" font-size="11" font-weight="400" font-style="normal" 
>
<rect x="-0.0002" y="-137.5" width="371.99" height="130"/>
</g>

<g fill="none" stroke="#000000" stroke-opacity="1" stroke-width="1" stroke-linecap="square" stroke-linejoin="bevel" transform="matrix(2,0,0,2,0.0004,275)"
font-family="Ubuntu" font-size="11" font-weight="400" font-style="normal" 
>
</g>

<g fill="none" stroke="#000000" stroke-opacity="1" stroke-width="1" stroke-linecap="square" stroke-linejoin="bevel" transform="matrix(2,0,0,2,0.0004,275)"
font-family="Ubuntu" font-size="11" font-weight="400" font-style="normal" 
>
</g>

<g fill="none" stroke="#000000" stroke-opacity="1" stroke-width="1" stroke-linecap="square" stroke-linejoin="bevel" transform="matrix(2,0,0,2,0.0004,275)"
font-family="Ubuntu" font-size="11" font-weight="400" font-style="normal" 
>
</g>

<g fill="none" stroke="#000000" stroke-opacity="1" stroke-width="1" stroke-linecap="square" stroke-linejoin="bevel" transform="matrix(2,0,0,2,0.0004,275)"
font-family="Ubuntu" font-size="11" font-weight="400" font-style="normal" 
>
</g>

<g fill="none" stroke="#000000" stroke-opacity="1" stroke-width="1" stroke-linecap="square" stroke-linejoin="round" transform="matrix(2,0,0,2,0.0004,275)"
font-family="Ubuntu" font-size="11" font-weight="400" font-style="normal" 
>
<rect x="157.49" y="-137" width="214" height="129"/>
</g>

<g fill="none" stroke="#000000" stroke-opacity="1" stroke-width="1" stroke-linecap="square" stroke-linejoin="bevel" transform="matrix(2,0,0,2,0.0004,275)"
font-family="Ubuntu" font-size="11" font-weight="400" font-style="normal" 
>
</g>

<g fill="none" stroke="#000000" stroke-opacity="1" stroke-width="1" stroke-linecap="square" stroke-linejoin="bevel" transform="matrix(2,0,0,2,483.777,10)"
font-family="Ubuntu" font-size="11" font-weight="400" font-style="normal" 
>
</g>

<g fill="none" stroke="#000000" stroke-opacity="1" stroke-width="1" stroke-linecap="square" stroke-linejoin="bevel" transform="matrix(2,0,0,2,483.777,10)"
font-family="sans" font-size="11" font-weight="100" font-style="normal" 
>
</g>

<g fill="#000000" fill-opacity="1" stroke="#000000" stroke-opacity="1" stroke-width="1" stroke-linecap="square" stroke-linejoin="round" transform="matrix(2,0,0,2,483.777,10)"
font-family="sans" font-size="11" font-weight="100" font-style="normal" 
>
<path vector-effect="none" fill-rule="nonzero" d="M2.96875,2.98438 L3.53125,2.98438 L0.734375,12.0156 L0.171875,12.0156 L2.96875,2.98438 M9.0625,5.28125 L9.0625,5.79688 C8.77083,5.61979 8.52604,5.5 8.32813,5.4375 C7.99479,5.33333 7.67708,5.28125 7.375,5.28125 C6.51042,5.28125 5.89063,5.5026 5.51563,5.94531 C5.14063,6.38802 4.95313,7.07292 4.95313,8 C4.95313,8.9375 5.14063,9.6276 5.51563,10.0703 C5.89063,10.513 6.51042,10.7344 7.375,10.7344 C7.66667,10.7344 7.94792,10.6927 8.21875,10.6094 C8.51042,10.5365 8.79167,10.4219 9.0625,10.2656 L9.0625,10.7656 C8.79167,10.901 8.51042,11 8.21875,11.0625 C7.91667,11.125 7.61979,11.1563 7.32813,11.1563 C6.45313,11.1563 5.75521,10.9167 5.23438,10.4375 C4.71354,9.95833 4.45313,9.14323 4.45313,7.99219 C4.45313,6.84115 4.71354,6.02604 5.23438,5.54688 C5.75521,5.07813 6.45313,4.84375 7.32813,4.84375 C7.61979,4.84375 7.92708,4.88542 8.25,4.96875 C8.57292,5.04167 8.84375,5.14583 9.0625,5.28125 M13.4063,7.60938 C12.6042,7.60938 12.0286,7.75 11.6797,8.03125 C11.3307,8.3125 11.1563,8.72396 11.1563,9.26563 C11.1563,9.79688 11.3021,10.1745 11.5938,10.3984 C11.8854,10.6224 12.2292,10.7344 12.625,10.7344 C13.375,10.7344 13.9167,10.4167 14.25,9.78125 C14.5833,9.13542 14.75,8.53125 14.75,7.96875 L14.75,7.60938 L13.4063,7.60938 M15.25,7.5625 L15.25,11 L14.75,11 L14.75,9.35938 C14.4792,10.1615 14.1146,10.6719 13.6563,10.8906 C13.3021,11.0677 12.9427,11.1563 12.5781,11.1563 C11.9844,11.1563 11.5156,10.9948 11.1719,10.6719 C10.8281,10.349 10.6563,9.8776 10.6563,9.25781 C10.6563,8.63802 10.8802,8.14063 11.3281,7.76563 C11.776,7.39063 12.5052,7.20313 13.5156,7.20313 L14.75,7.20313 L14.75,7.10938 C14.75,6.57813 14.5938,6.14063 14.2813,5.79688 C13.9896,5.45313 13.4948,5.28125 12.7969,5.28125 C12.4531,5.28125 12.1042,5.34375 11.75,5.46875 C11.5208,5.55208 11.2188,5.71875 10.8438,5.96875 L10.8438,5.4375 C11.1667,5.23958 11.4688,5.09896 11.75,5.01563 C12.1458,4.90104 12.526,4.84375 12.8906,4.84375 C13.6094,4.84375 14.1979,5.05729 14.6563,5.48438 C15.0521,5.84896 15.25,6.54167 15.25,7.5625 M22.0625,6.29688 C22.25,5.80729 22.5417,5.44271 22.9375,5.20313 C23.3229,4.96354 23.776,4.84375 24.2969,4.84375 C24.8177,4.84375 25.2344,5.02604 25.5469,5.39063 C25.8698,5.75521 26.0313,6.41667 26.0313,7.375 L26.0313,11 L25.5469,11 L25.5469,7.40625 C25.5469,6.57292 25.4323,6.01042 25.2031,5.71875 C24.974,5.42708 24.6667,5.28125 24.2813,5.28125 C23.7292,5.28125 23.2448,5.44792 22.8281,5.78125 C22.3594,6.15625 22.125,6.76042 22.125,7.59375 L22.125,11 L21.6406,11 L21.6406,7.40625 C21.6406,6.60417 21.5286,6.04948 21.3047,5.74219 C21.0807,5.4349 20.7708,5.28125 20.375,5.28125 C19.8229,5.28125 19.3385,5.45313 18.9219,5.79688 C18.4531,6.16146 18.2188,6.76042 18.2188,7.59375 L18.2188,11 L17.7344,11 L17.7344,4.98438 L18.2188,4.98438 L18.2188,6.10938 C18.3958,5.71354 18.6719,5.40104 19.0469,5.17188 C19.4115,4.95313 19.8646,4.84375 20.4063,4.84375 C20.7604,4.84375 21.099,4.95833 21.4219,5.1875 C21.6719,5.375 21.8854,5.74479 22.0625,6.29688 M33.125,7.75 L33.125,8.0625 L28.5625,8.0625 C28.5625,9.02083 28.75,9.69792 29.125,10.0938 C29.5417,10.5208 30.1563,10.7344 30.9688,10.7344 C31.1875,10.7344 31.474,10.6875 31.8281,10.5938 C32.1823,10.5 32.5365,10.3594 32.8906,10.1719 L32.8906,10.6875 C32.5365,10.8438 32.1745,10.9609 31.8047,11.0391 C31.4349,11.1172 31.1406,11.1563 30.9219,11.1563 C29.9948,11.1563 29.2969,10.9063 28.8281,10.4063 C28.3177,9.875 28.0625,9.09375 28.0625,8.0625 C28.0625,6.98958 28.2917,6.1875 28.75,5.65625 C29.2292,5.11458 29.8958,4.84375 30.75,4.84375 C31.5313,4.84375 32.125,5.10417 32.5313,5.625 C32.9271,6.16667 33.125,6.875 33.125,7.75 M32.625,7.64063 C32.625,6.79688 32.4323,6.18229 32.0469,5.79688 C31.7344,5.45313 31.3021,5.28125 30.75,5.28125 C30.1563,5.28125 29.6563,5.45833 29.25,5.8125 C28.875,6.14583 28.651,6.75521 28.5781,7.64063 L32.625,7.64063 M38.4688,5.40625 C38.3854,5.36458 38.276,5.33333 38.1406,5.3125 C38.0156,5.29167 37.8646,5.28125 37.6875,5.28125 C37.0729,5.28125 36.5677,5.50521 36.1719,5.95313 C35.849,6.31771 35.6875,6.94271 35.6875,7.82813 L35.6875,11 L35.2031,11 L35.2031,4.98438 L35.6875,4.98438 L35.6875,6.10938 C35.8542,5.78646 36.0833,5.51563 36.375,5.29688 C36.7708,4.99479 37.2396,4.84375 37.7813,4.84375 C37.9271,4.84375 38.0521,4.84896 38.1563,4.85938 C38.2604,4.85938 38.3646,4.86979 38.4688,4.89063 L38.4688,5.40625 M42.125,7.60938 C41.3229,7.60938 40.7474,7.75 40.3984,8.03125 C40.0495,8.3125 39.875,8.72396 39.875,9.26563 C39.875,9.79688 40.0208,10.1745 40.3125,10.3984 C40.6042,10.6224 40.9479,10.7344 41.3438,10.7344 C42.0938,10.7344 42.6354,10.4167 42.9688,9.78125 C43.3021,9.13542 43.4688,8.53125 43.4688,7.96875 L43.4688,7.60938 L42.125,7.60938 M43.9688,7.5625 L43.9688,11 L43.4688,11 L43.4688,9.35938 C43.1979,10.1615 42.8333,10.6719 42.375,10.8906 C42.0208,11.0677 41.6615,11.1563 41.2969,11.1563 C40.7031,11.1563 40.2344,10.9948 39.8906,10.6719 C39.5469,10.349 39.375,9.8776 39.375,9.25781 C39.375,8.63802 39.599,8.14063 40.0469,7.76563 C40.4948,7.39063 41.224,7.20313 42.2344,7.20313 L43.4688,7.20313 L43.4688,7.10938 C43.4688,6.57813 43.3125,6.14063 43,5.79688 C42.7083,5.45313 42.2135,5.28125 41.5156,5.28125 C41.1719,5.28125 40.8229,5.34375 40.4688,5.46875 C40.2396,5.55208 39.9375,5.71875 39.5625,5.96875 L39.5625,5.4375 C39.8854,5.23958 40.1875,5.09896 40.4688,5.01563 C40.8646,4.90104 41.2448,4.84375 41.6094,4.84375 C42.3281,4.84375 42.9167,5.05729 43.375,5.48438 C43.7708,5.84896 43.9688,6.54167 43.9688,7.5625 "/>
</g>

<g fill="none" stroke="#000000" stroke-opacity="1" stroke-width="1" stroke-linecap="square" stroke-linejoin="bevel" transform="matrix(2,0,0,2,483.777,10)"
font-family="sans" font-size="11" font-weight="100" font-style="normal" 
>
</g>

<g fill="none" stroke="#000000" stroke-opacity="1" stroke-width="1" stroke-linecap="square" stroke-linejoin="bevel" transform="matrix(2,0,0,2,483.777,10)"
font-family="Ubuntu" font-size="11" font-weight="400" font-style="normal" 
>
</g>

<g fill="none" stroke="#000000" stroke-opacity="1" stroke-width="1" stroke-linecap="square" stroke-linejoin="bevel" transform="matrix(2,0,0,2,0.0004,275)"
font-family="Ubuntu" font-size="11" font-weight="400" font-style="normal" 
>
</g>

<g fill="none" stroke="#000000" stroke-opacity="1" stroke-width="1" stroke-linecap="square" stroke-linejoin="bevel" transform="matrix(2,0,0,2,0.0004,275)"
font-family="Ubuntu" font-size="11" font-weight="400" font-style="normal" 
>
</g>

<g fill="none" stroke="#000000" stroke-opacity="1" stroke-width="1" stroke-linecap="square" stroke-linejoin="bevel" transform="matrix(2,0,0,2,0.0004,275)"
font-family="Ubuntu" font-size="11" font-weight="400" font-style="normal" 
>
</g>

<g fill="none" stroke="#000000" stroke-opacity="1" stroke-width="1" stroke-linecap="square" stroke-linejoin="round" transform="matrix(2,0,0,2,0.0004,275)"
font-family="Ubuntu" font-size="11" font-weight="400" font-style="normal" 
>
<rect x="187.489" y="-105.5" width="154.002" height="35"/>
</g>

<g fill="none" stroke="#000000" stroke-opacity="1" stroke-width="1" stroke-linecap="square" stroke-linejoin="bevel" transform="matrix(2,0,0,2,0.0004,275)"
font-family="Ubuntu" font-size="11" font-weight="400" font-style="normal" 
>
</g>

<g fill="none" stroke="#000000" stroke-opacity="1" stroke-width="1" stroke-linecap="square" stroke-linejoin="bevel" transform="matrix(2,0,0,2,420.496,85)"
font-family="Ubuntu" font-size="11" font-weight="400" font-style="normal" 
>
</g>

<g fill="none" stroke="#000000" stroke-opacity="1" stroke-width="1" stroke-linecap="square" stroke-linejoin="bevel" transform="matrix(2,0,0,2,420.496,85)"
font-family="sans" font-size="11" font-weight="100" font-style="normal" 
>
</g>

<g fill="#000000" fill-opacity="1" stroke="#000000" stroke-opacity="1" stroke-width="1" stroke-linecap="square" stroke-linejoin="round" transform="matrix(2,0,0,2,420.496,85)"
font-family="sans" font-size="11" font-weight="100" font-style="normal" 
>
<path vector-effect="none" fill-rule="nonzero" d="M2.96875,2.98438 L3.53125,2.98438 L0.734375,12.0156 L0.171875,12.0156 L2.96875,2.98438 M9.0625,5.28125 L9.0625,5.79688 C8.77083,5.61979 8.52604,5.5 8.32813,5.4375 C7.99479,5.33333 7.67708,5.28125 7.375,5.28125 C6.51042,5.28125 5.89063,5.5026 5.51563,5.94531 C5.14063,6.38802 4.95313,7.07292 4.95313,8 C4.95313,8.9375 5.14063,9.6276 5.51563,10.0703 C5.89063,10.513 6.51042,10.7344 7.375,10.7344 C7.66667,10.7344 7.94792,10.6927 8.21875,10.6094 C8.51042,10.5365 8.79167,10.4219 9.0625,10.2656 L9.0625,10.7656 C8.79167,10.901 8.51042,11 8.21875,11.0625 C7.91667,11.125 7.61979,11.1563 7.32813,11.1563 C6.45313,11.1563 5.75521,10.9167 5.23438,10.4375 C4.71354,9.95833 4.45313,9.14323 4.45313,7.99219 C4.45313,6.84115 4.71354,6.02604 5.23438,5.54688 C5.75521,5.07813 6.45313,4.84375 7.32813,4.84375 C7.61979,4.84375 7.92708,4.88542 8.25,4.96875 C8.57292,5.04167 8.84375,5.14583 9.0625,5.28125 M13.4063,7.60938 C12.6042,7.60938 12.0286,7.75 11.6797,8.03125 C11.3307,8.3125 11.1563,8.72396 11.1563,9.26563 C11.1563,9.79688 11.3021,10.1745 11.5938,10.3984 C11.8854,10.6224 12.2292,10.7344 12.625,10.7344 C13.375,10.7344 13.9167,10.4167 14.25,9.78125 C14.5833,9.13542 14.75,8.53125 14.75,7.96875 L14.75,7.60938 L13.4063,7.60938 M15.25,7.5625 L15.25,11 L14.75,11 L14.75,9.35938 C14.4792,10.1615 14.1146,10.6719 13.6563,10.8906 C13.3021,11.0677 12.9427,11.1563 12.5781,11.1563 C11.9844,11.1563 11.5156,10.9948 11.1719,10.6719 C10.8281,10.349 10.6563,9.8776 10.6563,9.25781 C10.6563,8.63802 10.8802,8.14063 11.3281,7.76563 C11.776,7.39063 12.5052,7.20313 13.5156,7.20313 L14.75,7.20313 L14.75,7.10938 C14.75,6.57813 14.5938,6.14063 14.2813,5.79688 C13.9896,5.45313 13.4948,5.28125 12.7969,5.28125 C12.4531,5.28125 12.1042,5.34375 11.75,5.46875 C11.5208,5.55208 11.2188,5.71875 10.8438,5.96875 L10.8438,5.4375 C11.1667,5.23958 11.4688,5.09896 11.75,5.01563 C12.1458,4.90104 12.526,4.84375 12.8906,4.84375 C13.6094,4.84375 14.1979,5.05729 14.6563,5.48438 C15.0521,5.84896 15.25,6.54167 15.25,7.5625 M22.0625,6.29688 C22.25,5.80729 22.5417,5.44271 22.9375,5.20313 C23.3229,4.96354 23.776,4.84375 24.2969,4.84375 C24.8177,4.84375 25.2344,5.02604 25.5469,5.39063 C25.8698,5.75521 26.0313,6.41667 26.0313,7.375 L26.0313,11 L25.5469,11 L25.5469,7.40625 C25.5469,6.57292 25.4323,6.01042 25.2031,5.71875 C24.974,5.42708 24.6667,5.28125 24.2813,5.28125 C23.7292,5.28125 23.2448,5.44792 22.8281,5.78125 C22.3594,6.15625 22.125,6.76042 22.125,7.59375 L22.125,11 L21.6406,11 L21.6406,7.40625 C21.6406,6.60417 21.5286,6.04948 21.3047,5.74219 C21.0807,5.4349 20.7708,5.28125 20.375,5.28125 C19.8229,5.28125 19.3385,5.45313 18.9219,5.79688 C18.4531,6.16146 18.2188,6.76042 18.2188,7.59375 L18.2188,11 L17.7344,11 L17.7344,4.98438 L18.2188,4.98438 L18.2188,6.10938 C18.3958,5.71354 18.6719,5.40104 19.0469,5.17188 C19.4115,4.95313 19.8646,4.84375 20.4063,4.84375 C20.7604,4.84375 21.099,4.95833 21.4219,5.1875 C21.6719,5.375 21.8854,5.74479 22.0625,6.29688 M33.125,7.75 L33.125,8.0625 L28.5625,8.0625 C28.5625,9.02083 28.75,9.69792 29.125,10.0938 C29.5417,10.5208 30.1563,10.7344 30.9688,10.7344 C31.1875,10.7344 31.474,10.6875 31.8281,10.5938 C32.1823,10.5 32.5365,10.3594 32.8906,10.1719 L32.8906,10.6875 C32.5365,10.8438 32.1745,10.9609 31.8047,11.0391 C31.4349,11.1172 31.1406,11.1563 30.9219,11.1563 C29.9948,11.1563 29.2969,10.9063 28.8281,10.4063 C28.3177,9.875 28.0625,9.09375 28.0625,8.0625 C28.0625,6.98958 28.2917,6.1875 28.75,5.65625 C29.2292,5.11458 29.8958,4.84375 30.75,4.84375 C31.5313,4.84375 32.125,5.10417 32.5313,5.625 C32.9271,6.16667 33.125,6.875 33.125,7.75 M32.625,7.64063 C32.625,6.79688 32.4323,6.18229 32.0469,5.79688 C31.7344,5.45313 31.3021,5.28125 30.75,5.28125 C30.1563,5.28125 29.6563,5.45833 29.25,5.8125 C28.875,6.14583 28.651,6.75521 28.5781,7.64063 L32.625,7.64063 M38.4688,5.40625 C38.3854,5.36458 38.276,5.33333 38.1406,5.3125 C38.0156,5.29167 37.8646,5.28125 37.6875,5.28125 C37.0729,5.28125 36.5677,5.50521 36.1719,5.95313 C35.849,6.31771 35.6875,6.94271 35.6875,7.82813 L35.6875,11 L35.2031,11 L35.2031,4.98438 L35.6875,4.98438 L35.6875,6.10938 C35.8542,5.78646 36.0833,5.51563 36.375,5.29688 C36.7708,4.99479 37.2396,4.84375 37.7813,4.84375 C37.9271,4.84375 38.0521,4.84896 38.1563,4.85938 C38.2604,4.85938 38.3646,4.86979 38.4688,4.89063 L38.4688,5.40625 M42.125,7.60938 C41.3229,7.60938 40.7474,7.75 40.3984,8.03125 C40.0495,8.3125 39.875,8.72396 39.875,9.26563 C39.875,9.79688 40.0208,10.1745 40.3125,10.3984 C40.6042,10.6224 40.9479,10.7344 41.3438,10.7344 C42.0938,10.7344 42.6354,10.4167 42.9688,9.78125 C43.3021,9.13542 43.4688,8.53125 43.4688,7.96875 L43.4688,7.60938 L42.125,7.60938 M43.9688,7.5625 L43.9688,11 L43.4688,11 L43.4688,9.35938 C43.1979,10.1615 42.8333,10.6719 42.375,10.8906 C42.0208,11.0677 41.6615,11.1563 41.2969,11.1563 C40.7031,11.1563 40.2344,10.9948 39.8906,10.6719 C39.5469,10.349 39.375,9.8776 39.375,9.25781 C39.375,8.63802 39.599,8.14063 40.0469,7.76563 C40.4948,7.39063 41.224,7.20313 42.2344,7.20313 L43.4688,7.20313 L43.4688,7.10938 C43.4688,6.57813 43.3125,6.14063 43,5.79688 C42.7083,5.45313 42.2135,5.28125 41.5156,5.28125 C41.1719,5.28125 40.8229,5.34375 40.4688,5.46875 C40.2396,5.55208 39.9375,5.71875 39.5625,5.96875 L39.5625,5.4375 C39.8854,5.23958 40.1875,5.09896 40.4688,5.01563 C40.8646,4.90104 41.2448,4.84375 41.6094,4.84375 C42.3281,4.84375 42.9167,5.05729 43.375,5.48438 C43.7708,5.84896 43.9688,6.54167 43.9688,7.5625 M48.1719,2.98438 L48.7344,2.98438 L45.9375,12.0156 L45.375,12.0156 L48.1719,2.98438 M50.1406,4.98438 L50.6406,4.98438 L50.6406,11 L50.1406,11 L50.1406,4.98438 M50.1406,2.64063 L50.6406,2.64063 L50.6406,3.3125 L50.1406,3.3125 L50.1406,2.64063 M57.5313,6.29688 C57.7188,5.80729 58.0104,5.44271 58.4063,5.20313 C58.7917,4.96354 59.2448,4.84375 59.7656,4.84375 C60.2865,4.84375 60.7031,5.02604 61.0156,5.39063 C61.3385,5.75521 61.5,6.41667 61.5,7.375 L61.5,11 L61.0156,11 L61.0156,7.40625 C61.0156,6.57292 60.901,6.01042 60.6719,5.71875 C60.4427,5.42708 60.1354,5.28125 59.75,5.28125 C59.1979,5.28125 58.7135,5.44792 58.2969,5.78125 C57.8281,6.15625 57.5938,6.76042 57.5938,7.59375 L57.5938,11 L57.1094,11 L57.1094,7.40625 C57.1094,6.60417 56.9974,6.04948 56.7734,5.74219 C56.5495,5.4349 56.2396,5.28125 55.8438,5.28125 C55.2917,5.28125 54.8073,5.45313 54.3906,5.79688 C53.9219,6.16146 53.6875,6.76042 53.6875,7.59375 L53.6875,11 L53.2031,11 L53.2031,4.98438 L53.6875,4.98438 L53.6875,6.10938 C53.8646,5.71354 54.1406,5.40104 54.5156,5.17188 C54.8802,4.95313 55.3333,4.84375 55.875,4.84375 C56.2292,4.84375 56.5677,4.95833 56.8906,5.1875 C57.1406,5.375 57.3542,5.74479 57.5313,6.29688 M66.3125,7.60938 C65.5104,7.60938 64.9349,7.75 64.5859,8.03125 C64.237,8.3125 64.0625,8.72396 64.0625,9.26563 C64.0625,9.79688 64.2083,10.1745 64.5,10.3984 C64.7917,10.6224 65.1354,10.7344 65.5313,10.7344 C66.2813,10.7344 66.8229,10.4167 67.1563,9.78125 C67.4896,9.13542 67.6563,8.53125 67.6563,7.96875 L67.6563,7.60938 L66.3125,7.60938 M68.1563,7.5625 L68.1563,11 L67.6563,11 L67.6563,9.35938 C67.3854,10.1615 67.0208,10.6719 66.5625,10.8906 C66.2083,11.0677 65.849,11.1563 65.4844,11.1563 C64.8906,11.1563 64.4219,10.9948 64.0781,10.6719 C63.7344,10.349 63.5625,9.8776 63.5625,9.25781 C63.5625,8.63802 63.7865,8.14063 64.2344,7.76563 C64.6823,7.39063 65.4115,7.20313 66.4219,7.20313 L67.6563,7.20313 L67.6563,7.10938 C67.6563,6.57813 67.5,6.14063 67.1875,5.79688 C66.8958,5.45313 66.401,5.28125 65.7031,5.28125 C65.3594,5.28125 65.0104,5.34375 64.6563,5.46875 C64.4271,5.55208 64.125,5.71875 63.75,5.96875 L63.75,5.4375 C64.0729,5.23958 64.375,5.09896 64.6563,5.01563 C65.0521,4.90104 65.4323,4.84375 65.7969,4.84375 C66.5156,4.84375 67.1042,5.05729 67.5625,5.48438 C67.9583,5.84896 68.1563,6.54167 68.1563,7.5625 M74.6406,7.92188 C74.6406,7.08854 74.4714,6.44271 74.1328,5.98438 C73.7943,5.52604 73.3177,5.29688 72.7031,5.29688 C72.099,5.29688 71.6276,5.52604 71.2891,5.98438 C70.9505,6.44271 70.7813,7.08854 70.7813,7.92188 C70.7813,8.75521 70.9505,9.40104 71.2891,9.85938 C71.6276,10.3177 72.099,10.5469 72.7031,10.5469 C73.3177,10.5469 73.7943,10.3177 74.1328,9.85938 C74.4714,9.40104 74.6406,8.75521 74.6406,7.92188 M75.125,10.25 C75.125,11.5 74.888,12.3177 74.4141,12.7031 C73.9401,13.0885 73.3385,13.2813 72.6094,13.2813 C72.2552,13.2813 71.9271,13.2604 71.625,13.2188 C71.3125,13.1563 71.0104,13.0729 70.7188,12.9688 L70.7188,12.4063 C71.0104,12.5625 71.2969,12.6797 71.5781,12.7578 C71.8594,12.8359 72.151,12.875 72.4531,12.875 C73.0469,12.875 73.5599,12.7474 73.9922,12.4922 C74.4245,12.237 74.6406,11.5521 74.6406,10.4375 L74.6406,9.48438 C74.4844,9.90104 74.2813,10.2292 74.0313,10.4688 C73.6354,10.8229 73.1927,11 72.7031,11 C71.9427,11 71.349,10.7318 70.9219,10.1953 C70.4948,9.65885 70.2813,8.90104 70.2813,7.92188 C70.2813,6.94271 70.4948,6.1849 70.9219,5.64844 C71.349,5.11198 71.9427,4.84375 72.7031,4.84375 C73.1927,4.84375 73.6094,4.99479 73.9531,5.29688 C74.224,5.53646 74.4531,5.85938 74.6406,6.26563 L74.6406,4.98438 L75.125,4.98438 L75.125,10.25 M81.9219,7.75 L81.9219,8.0625 L77.3594,8.0625 C77.3594,9.02083 77.5469,9.69792 77.9219,10.0938 C78.3385,10.5208 78.9531,10.7344 79.7656,10.7344 C79.9844,10.7344 80.2708,10.6875 80.625,10.5938 C80.9792,10.5 81.3333,10.3594 81.6875,10.1719 L81.6875,10.6875 C81.3333,10.8438 80.9714,10.9609 80.6016,11.0391 C80.2318,11.1172 79.9375,11.1563 79.7188,11.1563 C78.7917,11.1563 78.0938,10.9063 77.625,10.4063 C77.1146,9.875 76.8594,9.09375 76.8594,8.0625 C76.8594,6.98958 77.0885,6.1875 77.5469,5.65625 C78.026,5.11458 78.6927,4.84375 79.5469,4.84375 C80.3281,4.84375 80.9219,5.10417 81.3281,5.625 C81.724,6.16667 81.9219,6.875 81.9219,7.75 M81.4219,7.64063 C81.4219,6.79688 81.2292,6.18229 80.8438,5.79688 C80.5313,5.45313 80.099,5.28125 79.5469,5.28125 C78.9531,5.28125 78.4531,5.45833 78.0469,5.8125 C77.6719,6.14583 77.4479,6.75521 77.375,7.64063 L81.4219,7.64063 M88.3594,13.1719 L88.3594,13.5938 L82.6406,13.5938 L82.6406,13.1719 L88.3594,13.1719 M92.7656,5.40625 C92.6823,5.36458 92.5729,5.33333 92.4375,5.3125 C92.3125,5.29167 92.1615,5.28125 91.9844,5.28125 C91.3698,5.28125 90.8646,5.50521 90.4688,5.95313 C90.1458,6.31771 89.9844,6.94271 89.9844,7.82813 L89.9844,11 L89.5,11 L89.5,4.98438 L89.9844,4.98438 L89.9844,6.10938 C90.151,5.78646 90.3802,5.51563 90.6719,5.29688 C91.0677,4.99479 91.5365,4.84375 92.0781,4.84375 C92.224,4.84375 92.349,4.84896 92.4531,4.85938 C92.5573,4.85938 92.6615,4.86979 92.7656,4.89063 L92.7656,5.40625 M96.4219,7.60938 C95.6198,7.60938 95.0443,7.75 94.6953,8.03125 C94.3464,8.3125 94.1719,8.72396 94.1719,9.26563 C94.1719,9.79688 94.3177,10.1745 94.6094,10.3984 C94.901,10.6224 95.2448,10.7344 95.6406,10.7344 C96.3906,10.7344 96.9323,10.4167 97.2656,9.78125 C97.599,9.13542 97.7656,8.53125 97.7656,7.96875 L97.7656,7.60938 L96.4219,7.60938 M98.2656,7.5625 L98.2656,11 L97.7656,11 L97.7656,9.35938 C97.4948,10.1615 97.1302,10.6719 96.6719,10.8906 C96.3177,11.0677 95.9583,11.1563 95.5938,11.1563 C95,11.1563 94.5313,10.9948 94.1875,10.6719 C93.8438,10.349 93.6719,9.8776 93.6719,9.25781 C93.6719,8.63802 93.8958,8.14063 94.3438,7.76563 C94.7917,7.39063 95.5208,7.20313 96.5313,7.20313 L97.7656,7.20313 L97.7656,7.10938 C97.7656,6.57813 97.6094,6.14063 97.2969,5.79688 C97.0052,5.45313 96.5104,5.28125 95.8125,5.28125 C95.4688,5.28125 95.1198,5.34375 94.7656,5.46875 C94.5365,5.55208 94.2344,5.71875 93.8594,5.96875 L93.8594,5.4375 C94.1823,5.23958 94.4844,5.09896 94.7656,5.01563 C95.1615,4.90104 95.5417,4.84375 95.9063,4.84375 C96.625,4.84375 97.2135,5.05729 97.6719,5.48438 C98.0677,5.84896 98.2656,6.54167 98.2656,7.5625 M100.203,4.98438 L100.703,4.98438 L102.125,10.3438 L103.516,4.98438 L104.156,4.98438 L105.563,10.375 L106.969,4.98438 L107.484,4.98438 L105.906,11 L105.219,11 L103.828,5.71875 L102.453,11 L101.781,11 L100.203,4.98438"/>
</g>

<g fill="none" stroke="#000000" stroke-opacity="1" stroke-width="1" stroke-linecap="square" stroke-linejoin="bevel" transform="matrix(2,0,0,2,420.496,85)"
font-family="sans" font-size="11" font-weight="100" font-style="normal" 
>
</g>

<g fill="none" stroke="#000000" stroke-opacity="1" stroke-width="1" stroke-linecap="square" stroke-linejoin="bevel" transform="matrix(2,0,0,2,420.496,85)"
font-family="Ubuntu" font-size="11" font-weight="400" font-style="normal" 
>
</g>

<g fill="none" stroke="#000000" stroke-opacity="1" stroke-width="1" stroke-linecap="square" stroke-linejoin="bevel" transform="matrix(2,0,0,2,0.0004,275)"
font-family="Ubuntu" font-size="11" font-weight="400" font-style="normal" 
>
</g>

<g fill="none" stroke="#000000" stroke-opacity="1" stroke-width="1" stroke-linecap="square" stroke-linejoin="bevel" transform="matrix(2,0,0,2,0.0004,275)"
font-family="Ubuntu" font-size="11" font-weight="400" font-style="normal" 
>
</g>

<g fill="none" stroke="#000000" stroke-opacity="1" stroke-width="1" stroke-linecap="square" stroke-linejoin="bevel" transform="matrix(2,0,0,2,0.0004,275)"
font-family="Ubuntu" font-size="11" font-weight="400" font-style="normal" 
>
</g>

<g fill="none" stroke="#000000" stroke-opacity="1" stroke-width="1" stroke-linecap="square" stroke-linejoin="round" transform="matrix(2,0,0,2,0.0004,275)"
font-family="Ubuntu" font-size="11" font-weight="400" font-style="normal" 
>
<rect x="165.99" y="-51.5" width="197" height="35"/>
</g>

<g fill="none" stroke="#000000" stroke-opacity="1" stroke-width="1" stroke-linecap="square" stroke-linejoin="bevel" transform="matrix(2,0,0,2,0.0004,275)"
font-family="Ubuntu" font-size="11" font-weight="400" font-style="normal" 
>
</g>

<g fill="none" stroke="#000000" stroke-opacity="1" stroke-width="1" stroke-linecap="square" stroke-linejoin="bevel" transform="matrix(2,0,0,2,386.09,193)"
font-family="Ubuntu" font-size="11" font-weight="400" font-style="normal" 
>
</g>

<g fill="none" stroke="#000000" stroke-opacity="1" stroke-width="1" stroke-linecap="square" stroke-linejoin="bevel" transform="matrix(2,0,0,2,386.09,193)"
font-family="sans" font-size="11" font-weight="100" font-style="normal" 
>
</g>

<g fill="#000000" fill-opacity="1" stroke="#000000" stroke-opacity="1" stroke-width="1" stroke-linecap="square" stroke-linejoin="round" transform="matrix(2,0,0,2,386.09,193)"
font-family="sans" font-size="11" font-weight="100" font-style="normal" 
>
<path vector-effect="none" fill-rule="nonzero" d="M2.96875,2.98438 L3.53125,2.98438 L0.734375,12.0156 L0.171875,12.0156 L2.96875,2.98438 M9.0625,5.28125 L9.0625,5.79688 C8.77083,5.61979 8.52604,5.5 8.32813,5.4375 C7.99479,5.33333 7.67708,5.28125 7.375,5.28125 C6.51042,5.28125 5.89063,5.5026 5.51563,5.94531 C5.14063,6.38802 4.95313,7.07292 4.95313,8 C4.95313,8.9375 5.14063,9.6276 5.51563,10.0703 C5.89063,10.513 6.51042,10.7344 7.375,10.7344 C7.66667,10.7344 7.94792,10.6927 8.21875,10.6094 C8.51042,10.5365 8.79167,10.4219 9.0625,10.2656 L9.0625,10.7656 C8.79167,10.901 8.51042,11 8.21875,11.0625 C7.91667,11.125 7.61979,11.1563 7.32813,11.1563 C6.45313,11.1563 5.75521,10.9167 5.23438,10.4375 C4.71354,9.95833 4.45313,9.14323 4.45313,7.99219 C4.45313,6.84115 4.71354,6.02604 5.23438,5.54688 C5.75521,5.07813 6.45313,4.84375 7.32813,4.84375 C7.61979,4.84375 7.92708,4.88542 8.25,4.96875 C8.57292,5.04167 8.84375,5.14583 9.0625,5.28125 M13.4063,7.60938 C12.6042,7.60938 12.0286,7.75 11.6797,8.03125 C11.3307,8.3125 11.1563,8.72396 11.1563,9.26563 C11.1563,9.79688 11.3021,10.1745 11.5938,10.3984 C11.8854,10.6224 12.2292,10.7344 12.625,10.7344 C13.375,10.7344 13.9167,10.4167 14.25,9.78125 C14.5833,9.13542 14.75,8.53125 14.75,7.96875 L14.75,7.60938 L13.4063,7.60938 M15.25,7.5625 L15.25,11 L14.75,11 L14.75,9.35938 C14.4792,10.1615 14.1146,10.6719 13.6563,10.8906 C13.3021,11.0677 12.9427,11.1563 12.5781,11.1563 C11.9844,11.1563 11.5156,10.9948 11.1719,10.6719 C10.8281,10.349 10.6563,9.8776 10.6563,9.25781 C10.6563,8.63802 10.8802,8.14063 11.3281,7.76563 C11.776,7.39063 12.5052,7.20313 13.5156,7.20313 L14.75,7.20313 L14.75,7.10938 C14.75,6.57813 14.5938,6.14063 14.2813,5.79688 C13.9896,5.45313 13.4948,5.28125 12.7969,5.28125 C12.4531,5.28125 12.1042,5.34375 11.75,5.46875 C11.5208,5.55208 11.2188,5.71875 10.8438,5.96875 L10.8438,5.4375 C11.1667,5.23958 11.4688,5.09896 11.75,5.01563 C12.1458,4.90104 12.526,4.84375 12.8906,4.84375 C13.6094,4.84375 14.1979,5.05729 14.6563,5.48438 C15.0521,5.84896 15.25,6.54167 15.25,7.5625 M22.0625,6.29688 C22.25,5.80729 22.5417,5.44271 22.9375,5.20313 C23.3229,4.96354 23.776,4.84375 24.2969,4.84375 C24.8177,4.84375 25.2344,5.02604 25.5469,5.39063 C25.8698,5.75521 26.0313,6.41667 26.0313,7.375 L26.0313,11 L25.5469,11 L25.5469,7.40625 C25.5469,6.57292 25.4323,6.01042 25.2031,5.71875 C24.974,5.42708 24.6667,5.28125 24.2813,5.28125 C23.7292,5.28125 23.2448,5.44792 22.8281,5.78125 C22.3594,6.15625 22.125,6.76042 22.125,7.59375 L22.125,11 L21.6406,11 L21.6406,7.40625 C21.6406,6.60417 21.5286,6.04948 21.3047,5.74219 C21.0807,5.4349 20.7708,5.28125 20.375,5.28125 C19.8229,5.28125 19.3385,5.45313 18.9219,5.79688 C18.4531,6.16146 18.2188,6.76042 18.2188,7.59375 L18.2188,11 L17.7344,11 L17.7344,4.98438 L18.2188,4.98438 L18.2188,6.10938 C18.3958,5.71354 18.6719,5.40104 19.0469,5.17188 C19.4115,4.95313 19.8646,4.84375 20.4063,4.84375 C20.7604,4.84375 21.099,4.95833 21.4219,5.1875 C21.6719,5.375 21.8854,5.74479 22.0625,6.29688 M33.125,7.75 L33.125,8.0625 L28.5625,8.0625 C28.5625,9.02083 28.75,9.69792 29.125,10.0938 C29.5417,10.5208 30.1563,10.7344 30.9688,10.7344 C31.1875,10.7344 31.474,10.6875 31.8281,10.5938 C32.1823,10.5 32.5365,10.3594 32.8906,10.1719 L32.8906,10.6875 C32.5365,10.8438 32.1745,10.9609 31.8047,11.0391 C31.4349,11.1172 31.1406,11.1563 30.9219,11.1563 C29.9948,11.1563 29.2969,10.9063 28.8281,10.4063 C28.3177,9.875 28.0625,9.09375 28.0625,8.0625 C28.0625,6.98958 28.2917,6.1875 28.75,5.65625 C29.2292,5.11458 29.8958,4.84375 30.75,4.84375 C31.5313,4.84375 32.125,5.10417 32.5313,5.625 C32.9271,6.16667 33.125,6.875 33.125,7.75 M32.625,7.64063 C32.625,6.79688 32.4323,6.18229 32.0469,5.79688 C31.7344,5.45313 31.3021,5.28125 30.75,5.28125 C30.1563,5.28125 29.6563,5.45833 29.25,5.8125 C28.875,6.14583 28.651,6.75521 28.5781,7.64063 L32.625,7.64063 M38.4688,5.40625 C38.3854,5.36458 38.276,5.33333 38.1406,5.3125 C38.0156,5.29167 37.8646,5.28125 37.6875,5.28125 C37.0729,5.28125 36.5677,5.50521 36.1719,5.95313 C35.849,6.31771 35.6875,6.94271 35.6875,7.82813 L35.6875,11 L35.2031,11 L35.2031,4.98438 L35.6875,4.98438 L35.6875,6.10938 C35.8542,5.78646 36.0833,5.51563 36.375,5.29688 C36.7708,4.99479 37.2396,4.84375 37.7813,4.84375 C37.9271,4.84375 38.0521,4.84896 38.1563,4.85938 C38.2604,4.85938 38.3646,4.86979 38.4688,4.89063 L38.4688,5.40625 M42.125,7.60938 C41.3229,7.60938 40.7474,7.75 40.3984,8.03125 C40.0495,8.3125 39.875,8.72396 39.875,9.26563 C39.875,9.79688 40.0208,10.1745 40.3125,10.3984 C40.6042,10.6224 40.9479,10.7344 41.3438,10.7344 C42.0938,10.7344 42.6354,10.4167 42.9688,9.78125 C43.3021,9.13542 43.4688,8.53125 43.4688,7.96875 L43.4688,7.60938 L42.125,7.60938 M43.9688,7.5625 L43.9688,11 L43.4688,11 L43.4688,9.35938 C43.1979,10.1615 42.8333,10.6719 42.375,10.8906 C42.0208,11.0677 41.6615,11.1563 41.2969,11.1563 C40.7031,11.1563 40.2344,10.9948 39.8906,10.6719 C39.5469,10.349 39.375,9.8776 39.375,9.25781 C39.375,8.63802 39.599,8.14063 40.0469,7.76563 C40.4948,7.39063 41.224,7.20313 42.2344,7.20313 L43.4688,7.20313 L43.4688,7.10938 C43.4688,6.57813 43.3125,6.14063 43,5.79688 C42.7083,5.45313 42.2135,5.28125 41.5156,5.28125 C41.1719,5.28125 40.8229,5.34375 40.4688,5.46875 C40.2396,5.55208 39.9375,5.71875 39.5625,5.96875 L39.5625,5.4375 C39.8854,5.23958 40.1875,5.09896 40.4688,5.01563 C40.8646,4.90104 41.2448,4.84375 41.6094,4.84375 C42.3281,4.84375 42.9167,5.05729 43.375,5.48438 C43.7708,5.84896 43.9688,6.54167 43.9688,7.5625 M48.1719,2.98438 L48.7344,2.98438 L45.9375,12.0156 L45.375,12.0156 L48.1719,2.98438 M54.1563,6.35938 L54.1563,2.64063 L54.625,2.64063 L54.625,11 L54.1563,11 L54.1563,9.64063 C53.9271,10.1615 53.6771,10.5156 53.4063,10.7031 C53.0104,11.0052 52.6302,11.1563 52.2656,11.1563 C51.5573,11.1563 50.9661,10.8672 50.4922,10.2891 C50.0182,9.71094 49.7813,8.94792 49.7813,8 C49.7813,7.05208 50.0182,6.28906 50.4922,5.71094 C50.9661,5.13281 51.5573,4.84375 52.2656,4.84375 C52.6302,4.84375 53.0104,4.98958 53.4063,5.28125 C53.6771,5.47917 53.9271,5.83854 54.1563,6.35938 M50.9219,5.90625 C50.5052,6.32292 50.2969,7.02083 50.2969,8 C50.2969,8.97917 50.5052,9.67708 50.9219,10.0938 C51.3385,10.5104 51.776,10.7188 52.2344,10.7188 C52.6823,10.7188 53.1146,10.5104 53.5313,10.0938 C53.9375,9.67708 54.1406,8.97917 54.1406,8 C54.1406,7.02083 53.9375,6.32292 53.5313,5.90625 C53.1146,5.48958 52.6823,5.28125 52.2344,5.28125 C51.776,5.28125 51.3385,5.48958 50.9219,5.90625 M61.8125,7.75 L61.8125,8.0625 L57.25,8.0625 C57.25,9.02083 57.4375,9.69792 57.8125,10.0938 C58.2292,10.5208 58.8438,10.7344 59.6563,10.7344 C59.875,10.7344 60.1615,10.6875 60.5156,10.5938 C60.8698,10.5 61.224,10.3594 61.5781,10.1719 L61.5781,10.6875 C61.224,10.8438 60.862,10.9609 60.4922,11.0391 C60.1224,11.1172 59.8281,11.1563 59.6094,11.1563 C58.6823,11.1563 57.9844,10.9063 57.5156,10.4063 C57.0052,9.875 56.75,9.09375 56.75,8.0625 C56.75,6.98958 56.9792,6.1875 57.4375,5.65625 C57.9167,5.11458 58.5833,4.84375 59.4375,4.84375 C60.2188,4.84375 60.8125,5.10417 61.2188,5.625 C61.6146,6.16667 61.8125,6.875 61.8125,7.75 M61.3125,7.64063 C61.3125,6.79688 61.1198,6.18229 60.7344,5.79688 C60.4219,5.45313 59.9896,5.28125 59.4375,5.28125 C58.8438,5.28125 58.3438,5.45833 57.9375,5.8125 C57.5625,6.14583 57.3385,6.75521 57.2656,7.64063 L61.3125,7.64063 M64.4063,3.28125 L64.4063,4.98438 L66.4375,4.98438 L66.4375,5.40625 L64.4063,5.40625 L64.4063,9.01563 C64.4063,9.47396 64.4635,9.79688 64.5781,9.98438 C64.8281,10.3802 65.1875,10.5781 65.6563,10.5781 L66.4375,10.5781 L66.4375,11 L65.6719,11 C65.1823,11 64.7656,10.8568 64.4219,10.5703 C64.0781,10.2839 63.9063,9.76563 63.9063,9.01563 L63.9063,5.40625 L63.1875,5.40625 L63.1875,4.98438 L63.9063,4.98438 L63.9063,3.28125 L64.4063,3.28125 M72.8906,7.75 L72.8906,8.0625 L68.3281,8.0625 C68.3281,9.02083 68.5156,9.69792 68.8906,10.0938 C69.3073,10.5208 69.9219,10.7344 70.7344,10.7344 C70.9531,10.7344 71.2396,10.6875 71.5938,10.5938 C71.9479,10.5 72.3021,10.3594 72.6563,10.1719 L72.6563,10.6875 C72.3021,10.8438 71.9401,10.9609 71.5703,11.0391 C71.2005,11.1172 70.9063,11.1563 70.6875,11.1563 C69.7604,11.1563 69.0625,10.9063 68.5938,10.4063 C68.0833,9.875 67.8281,9.09375 67.8281,8.0625 C67.8281,6.98958 68.0573,6.1875 68.5156,5.65625 C68.9948,5.11458 69.6615,4.84375 70.5156,4.84375 C71.2969,4.84375 71.8906,5.10417 72.2969,5.625 C72.6927,6.16667 72.8906,6.875 72.8906,7.75 M72.3906,7.64063 C72.3906,6.79688 72.1979,6.18229 71.8125,5.79688 C71.5,5.45313 71.0677,5.28125 70.5156,5.28125 C69.9219,5.28125 69.4219,5.45833 69.0156,5.8125 C68.6406,6.14583 68.4167,6.75521 68.3438,7.64063 L72.3906,7.64063 M79.0781,5.28125 L79.0781,5.79688 C78.7865,5.61979 78.5417,5.5 78.3438,5.4375 C78.0104,5.33333 77.6927,5.28125 77.3906,5.28125 C76.526,5.28125 75.9063,5.5026 75.5313,5.94531 C75.1563,6.38802 74.9688,7.07292 74.9688,8 C74.9688,8.9375 75.1563,9.6276 75.5313,10.0703 C75.9063,10.513 76.526,10.7344 77.3906,10.7344 C77.6823,10.7344 77.9635,10.6927 78.2344,10.6094 C78.526,10.5365 78.8073,10.4219 79.0781,10.2656 L79.0781,10.7656 C78.8073,10.901 78.526,11 78.2344,11.0625 C77.9323,11.125 77.6354,11.1563 77.3438,11.1563 C76.4688,11.1563 75.7708,10.9167 75.25,10.4375 C74.7292,9.95833 74.4688,9.14323 74.4688,7.99219 C74.4688,6.84115 74.7292,6.02604 75.25,5.54688 C75.7708,5.07813 76.4688,4.84375 77.3438,4.84375 C77.6354,4.84375 77.9427,4.88542 78.2656,4.96875 C78.5885,5.04167 78.8594,5.14583 79.0781,5.28125 M81.5313,3.28125 L81.5313,4.98438 L83.5625,4.98438 L83.5625,5.40625 L81.5313,5.40625 L81.5313,9.01563 C81.5313,9.47396 81.5885,9.79688 81.7031,9.98438 C81.9531,10.3802 82.3125,10.5781 82.7813,10.5781 L83.5625,10.5781 L83.5625,11 L82.7969,11 C82.3073,11 81.8906,10.8568 81.5469,10.5703 C81.2031,10.2839 81.0313,9.76563 81.0313,9.01563 L81.0313,5.40625 L80.3125,5.40625 L80.3125,4.98438 L81.0313,4.98438 L81.0313,3.28125 L81.5313,3.28125 M90.0156,7.75 L90.0156,8.0625 L85.4531,8.0625 C85.4531,9.02083 85.6406,9.69792 86.0156,10.0938 C86.4323,10.5208 87.0469,10.7344 87.8594,10.7344 C88.0781,10.7344 88.3646,10.6875 88.7188,10.5938 C89.0729,10.5 89.4271,10.3594 89.7813,10.1719 L89.7813,10.6875 C89.4271,10.8438 89.0651,10.9609 88.6953,11.0391 C88.3255,11.1172 88.0313,11.1563 87.8125,11.1563 C86.8854,11.1563 86.1875,10.9063 85.7188,10.4063 C85.2083,9.875 84.9531,9.09375 84.9531,8.0625 C84.9531,6.98958 85.1823,6.1875 85.6406,5.65625 C86.1198,5.11458 86.7865,4.84375 87.6406,4.84375 C88.4219,4.84375 89.0156,5.10417 89.4219,5.625 C89.8177,6.16667 90.0156,6.875 90.0156,7.75 M89.5156,7.64063 C89.5156,6.79688 89.3229,6.18229 88.9375,5.79688 C88.625,5.45313 88.1927,5.28125 87.6406,5.28125 C87.0469,5.28125 86.5469,5.45833 86.1406,5.8125 C85.7656,6.14583 85.5417,6.75521 85.4688,7.64063 L89.5156,7.64063 M96.0938,6.35938 L96.0938,2.64063 L96.5625,2.64063 L96.5625,11 L96.0938,11 L96.0938,9.64063 C95.8646,10.1615 95.6146,10.5156 95.3438,10.7031 C94.9479,11.0052 94.5677,11.1563 94.2031,11.1563 C93.4948,11.1563 92.9036,10.8672 92.4297,10.2891 C91.9557,9.71094 91.7188,8.94792 91.7188,8 C91.7188,7.05208 91.9557,6.28906 92.4297,5.71094 C92.9036,5.13281 93.4948,4.84375 94.2031,4.84375 C94.5677,4.84375 94.9479,4.98958 95.3438,5.28125 C95.6146,5.47917 95.8646,5.83854 96.0938,6.35938 M92.8594,5.90625 C92.4427,6.32292 92.2344,7.02083 92.2344,8 C92.2344,8.97917 92.4427,9.67708 92.8594,10.0938 C93.276,10.5104 93.7135,10.7188 94.1719,10.7188 C94.6198,10.7188 95.0521,10.5104 95.4688,10.0938 C95.875,9.67708 96.0781,8.97917 96.0781,8 C96.0781,7.02083 95.875,6.32292 95.4688,5.90625 C95.0521,5.48958 94.6198,5.28125 94.1719,5.28125 C93.7135,5.28125 93.276,5.48958 92.8594,5.90625 M103.422,13.1719 L103.422,13.5938 L97.7031,13.5938 L97.7031,13.1719 L103.422,13.1719 M108.141,6.01563 C107.786,5.52604 107.302,5.28125 106.688,5.28125 C106.073,5.28125 105.589,5.52604 105.234,6.01563 C104.88,6.49479 104.703,7.15104 104.703,7.98438 C104.703,8.83854 104.88,9.51042 105.234,10 C105.589,10.4896 106.073,10.7344 106.688,10.7344 C107.302,10.7344 107.786,10.4896 108.141,10 C108.495,9.5 108.672,8.82813 108.672,7.98438 C108.672,7.16146 108.495,6.50521 108.141,6.01563 M106.688,4.84375 C107.448,4.84375 108.052,5.13021 108.5,5.70313 C108.948,6.27604 109.172,7.03646 109.172,7.98438 C109.172,8.97396 108.948,9.75521 108.5,10.3281 C108.052,10.901 107.448,11.1875 106.688,11.1875 C105.906,11.1875 105.292,10.901 104.844,10.3281 C104.406,9.75521 104.188,8.97396 104.188,7.98438 C104.188,7.02604 104.411,6.26302 104.859,5.69531 C105.307,5.1276 105.917,4.84375 106.688,4.84375 M115,10.0938 C115.417,9.67708 115.625,8.97917 115.625,8 C115.625,7.02083 115.417,6.32292 115,5.90625 C114.583,5.48958 114.146,5.28125 113.688,5.28125 C113.24,5.28125 112.807,5.48958 112.391,5.90625 C111.984,6.32292 111.781,7.02083 111.781,8 C111.781,8.97917 111.984,9.67708 112.391,10.0938 C112.807,10.5104 113.24,10.7188 113.688,10.7188 C114.146,10.7188 114.583,10.5104 115,10.0938 M111.766,6.35938 C111.995,5.83854 112.24,5.47917 112.5,5.28125 C112.906,4.98958 113.292,4.84375 113.656,4.84375 C114.365,4.84375 114.956,5.13281 115.43,5.71094 C115.904,6.28906 116.141,7.05208 116.141,8 C116.141,8.94792 115.904,9.71094 115.43,10.2891 C114.956,10.8672 114.365,11.1563 113.656,11.1563 C113.292,11.1563 112.906,11.0052 112.5,10.7031 C112.24,10.5156 111.995,10.1615 111.766,9.64063 L111.766,11 L111.281,11 L111.281,2.64063 L111.766,2.64063 L111.766,6.35938 M118.281,4.98438 L118.781,4.98438 L118.781,11.1094 C118.781,11.9219 118.656,12.4896 118.406,12.8125 C118.156,13.125 117.745,13.2813 117.172,13.2813 L116.797,13.2813 L116.797,12.875 L117.063,12.875 C117.469,12.875 117.776,12.7813 117.984,12.5938 C118.182,12.4167 118.281,11.9219 118.281,11.1094 L118.281,4.98438 M118.281,2.64063 L118.781,2.64063 L118.781,3.3125 L118.281,3.3125 L118.281,2.64063 M125.984,7.75 L125.984,8.0625 L121.422,8.0625 C121.422,9.02083 121.609,9.69792 121.984,10.0938 C122.401,10.5208 123.016,10.7344 123.828,10.7344 C124.047,10.7344 124.333,10.6875 124.688,10.5938 C125.042,10.5 125.396,10.3594 125.75,10.1719 L125.75,10.6875 C125.396,10.8438 125.034,10.9609 124.664,11.0391 C124.294,11.1172 124,11.1563 123.781,11.1563 C122.854,11.1563 122.156,10.9063 121.688,10.4063 C121.177,9.875 120.922,9.09375 120.922,8.0625 C120.922,6.98958 121.151,6.1875 121.609,5.65625 C122.089,5.11458 122.755,4.84375 123.609,4.84375 C124.391,4.84375 124.984,5.10417 125.391,5.625 C125.786,6.16667 125.984,6.875 125.984,7.75 M125.484,7.64063 C125.484,6.79688 125.292,6.18229 124.906,5.79688 C124.594,5.45313 124.161,5.28125 123.609,5.28125 C123.016,5.28125 122.516,5.45833 122.109,5.8125 C121.734,6.14583 121.51,6.75521 121.438,7.64063 L125.484,7.64063 M132.172,5.28125 L132.172,5.79688 C131.88,5.61979 131.635,5.5 131.438,5.4375 C131.104,5.33333 130.786,5.28125 130.484,5.28125 C129.62,5.28125 129,5.5026 128.625,5.94531 C128.25,6.38802 128.063,7.07292 128.063,8 C128.063,8.9375 128.25,9.6276 128.625,10.0703 C129,10.513 129.62,10.7344 130.484,10.7344 C130.776,10.7344 131.057,10.6927 131.328,10.6094 C131.62,10.5365 131.901,10.4219 132.172,10.2656 L132.172,10.7656 C131.901,10.901 131.62,11 131.328,11.0625 C131.026,11.125 130.729,11.1563 130.438,11.1563 C129.563,11.1563 128.865,10.9167 128.344,10.4375 C127.823,9.95833 127.563,9.14323 127.563,7.99219 C127.563,6.84115 127.823,6.02604 128.344,5.54688 C128.865,5.07813 129.563,4.84375 130.438,4.84375 C130.729,4.84375 131.036,4.88542 131.359,4.96875 C131.682,5.04167 131.953,5.14583 132.172,5.28125 M134.625,3.28125 L134.625,4.98438 L136.656,4.98438 L136.656,5.40625 L134.625,5.40625 L134.625,9.01563 C134.625,9.47396 134.682,9.79688 134.797,9.98438 C135.047,10.3802 135.406,10.5781 135.875,10.5781 L136.656,10.5781 L136.656,11 L135.891,11 C135.401,11 134.984,10.8568 134.641,10.5703 C134.297,10.2839 134.125,9.76563 134.125,9.01563 L134.125,5.40625 L133.406,5.40625 L133.406,4.98438 L134.125,4.98438 L134.125,3.28125 L134.625,3.28125 M141.828,5.15625 L141.828,5.70313 C141.474,5.50521 141.255,5.39583 141.172,5.375 C140.922,5.32292 140.609,5.29167 140.234,5.28125 C139.672,5.28125 139.229,5.39063 138.906,5.60938 C138.656,5.79688 138.531,6.11458 138.531,6.5625 C138.531,6.875 138.651,7.11458 138.891,7.28125 C139.13,7.46875 139.479,7.61458 139.938,7.71875 L140.281,7.78125 C140.854,7.90625 141.286,8.08333 141.578,8.3125 C141.922,8.58333 142.099,8.92708 142.109,9.34375 C142.109,9.90625 141.943,10.349 141.609,10.6719 C141.255,10.9948 140.677,11.1563 139.875,11.1563 C139.438,11.1563 139.104,11.125 138.875,11.0625 C138.594,10.9896 138.302,10.8958 138,10.7813 L138,10.1563 C138.438,10.4063 138.719,10.5521 138.844,10.5938 C139.198,10.6875 139.552,10.7344 139.906,10.7344 C140.479,10.7344 140.906,10.6146 141.188,10.375 C141.469,10.125 141.609,9.80729 141.609,9.42188 C141.609,9.08854 141.516,8.84896 141.328,8.70313 C141.057,8.48438 140.63,8.30729 140.047,8.17188 L139.703,8.09375 C139.193,7.96875 138.807,7.80208 138.547,7.59375 C138.214,7.32292 138.047,6.99479 138.047,6.60938 C138.047,5.98438 138.247,5.53385 138.648,5.25781 C139.049,4.98177 139.542,4.84375 140.125,4.84375 C140.625,4.84375 140.969,4.86979 141.156,4.92188 C141.385,4.98438 141.609,5.0625 141.828,5.15625 "/>
</g>

<g fill="none" stroke="#000000" stroke-opacity="1" stroke-width="1" stroke-linecap="square" stroke-linejoin="bevel" transform="matrix(2,0,0,2,386.09,193)"
font-family="sans" font-size="11" font-weight="100" font-style="normal" 
>
</g>

<g fill="none" stroke="#000000" stroke-opacity="1" stroke-width="1" stroke-linecap="square" stroke-linejoin="bevel" transform="matrix(2,0,0,2,386.09,193)"
font-family="Ubuntu" font-size="11" font-weight="400" font-style="normal" 
>
</g>

<g fill="none" stroke="#000000" stroke-opacity="1" stroke-width="1" stroke-linecap="square" stroke-linejoin="bevel" transform="matrix(2,0,0,2,0.0004,275)"
font-family="Ubuntu" font-size="11" font-weight="400" font-style="normal" 
>
</g>

<g fill="none" stroke="#000000" stroke-opacity="1" stroke-width="1" stroke-linecap="square" stroke-linejoin="bevel" transform="matrix(2,0,0,2,0.0004,275)"
font-family="Ubuntu" font-size="11" font-weight="400" font-style="normal" 
>
</g>

<g fill="none" stroke="#000000" stroke-opacity="1" stroke-width="1" stroke-linecap="square" stroke-linejoin="bevel" transform="matrix(2,0,0,2,0.0004,275)"
font-family="Ubuntu" font-size="11" font-weight="400" font-style="normal" 
>
</g>

<g fill="none" stroke="#000000" stroke-opacity="1" stroke-width="1" stroke-linecap="square" stroke-linejoin="round" transform="matrix(2,0,0,2,0.0004,275)"
font-family="Ubuntu" font-size="11" font-weight="400" font-style="normal" 
>
<rect x="187.489" y="-105.5" width="154.002" height="35"/>
</g>

<g fill="none" stroke="#000000" stroke-opacity="1" stroke-width="1" stroke-linecap="square" stroke-linejoin="bevel" transform="matrix(2,0,0,2,0.0004,275)"
font-family="Ubuntu" font-size="11" font-weight="400" font-style="normal" 
>
</g>

<g fill="none" stroke="#000000" stroke-opacity="1" stroke-width="1" stroke-linecap="square" stroke-linejoin="bevel" transform="matrix(2,0,0,2,420.496,85)"
font-family="Ubuntu" font-size="11" font-weight="400" font-style="normal" 
>
</g>

<g fill="none" stroke="#000000" stroke-opacity="1" stroke-width="1" stroke-linecap="square" stroke-linejoin="bevel" transform="matrix(2,0,0,2,420.496,85)"
font-family="sans" font-size="11" font-weight="100" font-style="normal" 
>
</g>

<g fill="#000000" fill-opacity="1" stroke="#000000" stroke-opacity="1" stroke-width="1" stroke-linecap="square" stroke-linejoin="round" transform="matrix(2,0,0,2,420.496,85)"
font-family="sans" font-size="11" font-weight="100" font-style="normal" 
>
<path vector-effect="none" fill-rule="nonzero" d="M2.96875,2.98438 L3.53125,2.98438 L0.734375,12.0156 L0.171875,12.0156 L2.96875,2.98438 M9.0625,5.28125 L9.0625,5.79688 C8.77083,5.61979 8.52604,5.5 8.32813,5.4375 C7.99479,5.33333 7.67708,5.28125 7.375,5.28125 C6.51042,5.28125 5.89063,5.5026 5.51563,5.94531 C5.14063,6.38802 4.95313,7.07292 4.95313,8 C4.95313,8.9375 5.14063,9.6276 5.51563,10.0703 C5.89063,10.513 6.51042,10.7344 7.375,10.7344 C7.66667,10.7344 7.94792,10.6927 8.21875,10.6094 C8.51042,10.5365 8.79167,10.4219 9.0625,10.2656 L9.0625,10.7656 C8.79167,10.901 8.51042,11 8.21875,11.0625 C7.91667,11.125 7.61979,11.1563 7.32813,11.1563 C6.45313,11.1563 5.75521,10.9167 5.23438,10.4375 C4.71354,9.95833 4.45313,9.14323 4.45313,7.99219 C4.45313,6.84115 4.71354,6.02604 5.23438,5.54688 C5.75521,5.07813 6.45313,4.84375 7.32813,4.84375 C7.61979,4.84375 7.92708,4.88542 8.25,4.96875 C8.57292,5.04167 8.84375,5.14583 9.0625,5.28125 M13.4063,7.60938 C12.6042,7.60938 12.0286,7.75 11.6797,8.03125 C11.3307,8.3125 11.1563,8.72396 11.1563,9.26563 C11.1563,9.79688 11.3021,10.1745 11.5938,10.3984 C11.8854,10.6224 12.2292,10.7344 12.625,10.7344 C13.375,10.7344 13.9167,10.4167 14.25,9.78125 C14.5833,9.13542 14.75,8.53125 14.75,7.96875 L14.75,7.60938 L13.4063,7.60938 M15.25,7.5625 L15.25,11 L14.75,11 L14.75,9.35938 C14.4792,10.1615 14.1146,10.6719 13.6563,10.8906 C13.3021,11.0677 12.9427,11.1563 12.5781,11.1563 C11.9844,11.1563 11.5156,10.9948 11.1719,10.6719 C10.8281,10.349 10.6563,9.8776 10.6563,9.25781 C10.6563,8.63802 10.8802,8.14063 11.3281,7.76563 C11.776,7.39063 12.5052,7.20313 13.5156,7.20313 L14.75,7.20313 L14.75,7.10938 C14.75,6.57813 14.5938,6.14063 14.2813,5.79688 C13.9896,5.45313 13.4948,5.28125 12.7969,5.28125 C12.4531,5.28125 12.1042,5.34375 11.75,5.46875 C11.5208,5.55208 11.2188,5.71875 10.8438,5.96875 L10.8438,5.4375 C11.1667,5.23958 11.4688,5.09896 11.75,5.01563 C12.1458,4.90104 12.526,4.84375 12.8906,4.84375 C13.6094,4.84375 14.1979,5.05729 14.6563,5.48438 C15.0521,5.84896 15.25,6.54167 15.25,7.5625 M22.0625,6.29688 C22.25,5.80729 22.5417,5.44271 22.9375,5.20313 C23.3229,4.96354 23.776,4.84375 24.2969,4.84375 C24.8177,4.84375 25.2344,5.02604 25.5469,5.39063 C25.8698,5.75521 26.0313,6.41667 26.0313,7.375 L26.0313,11 L25.5469,11 L25.5469,7.40625 C25.5469,6.57292 25.4323,6.01042 25.2031,5.71875 C24.974,5.42708 24.6667,5.28125 24.2813,5.28125 C23.7292,5.28125 23.2448,5.44792 22.8281,5.78125 C22.3594,6.15625 22.125,6.76042 22.125,7.59375 L22.125,11 L21.6406,11 L21.6406,7.40625 C21.6406,6.60417 21.5286,6.04948 21.3047,5.74219 C21.0807,5.4349 20.7708,5.28125 20.375,5.28125 C19.8229,5.28125 19.3385,5.45313 18.9219,5.79688 C18.4531,6.16146 18.2188,6.76042 18.2188,7.59375 L18.2188,11 L17.7344,11 L17.7344,4.98438 L18.2188,4.98438 L18.2188,6.10938 C18.3958,5.71354 18.6719,5.40104 19.0469,5.17188 C19.4115,4.95313 19.8646,4.84375 20.4063,4.84375 C20.7604,4.84375 21.099,4.95833 21.4219,5.1875 C21.6719,5.375 21.8854,5.74479 22.0625,6.29688 M33.125,7.75 L33.125,8.0625 L28.5625,8.0625 C28.5625,9.02083 28.75,9.69792 29.125,10.0938 C29.5417,10.5208 30.1563,10.7344 30.9688,10.7344 C31.1875,10.7344 31.474,10.6875 31.8281,10.5938 C32.1823,10.5 32.5365,10.3594 32.8906,10.1719 L32.8906,10.6875 C32.5365,10.8438 32.1745,10.9609 31.8047,11.0391 C31.4349,11.1172 31.1406,11.1563 30.9219,11.1563 C29.9948,11.1563 29.2969,10.9063 28.8281,10.4063 C28.3177,9.875 28.0625,9.09375 28.0625,8.0625 C28.0625,6.98958 28.2917,6.1875 28.75,5.65625 C29.2292,5.11458 29.8958,4.84375 30.75,4.84375 C31.5313,4.84375 32.125,5.10417 32.5313,5.625 C32.9271,6.16667 33.125,6.875 33.125,7.75 M32.625,7.64063 C32.625,6.79688 32.4323,6.18229 32.0469,5.79688 C31.7344,5.45313 31.3021,5.28125 30.75,5.28125 C30.1563,5.28125 29.6563,5.45833 29.25,5.8125 C28.875,6.14583 28.651,6.75521 28.5781,7.64063 L32.625,7.64063 M38.4688,5.40625 C38.3854,5.36458 38.276,5.33333 38.1406,5.3125 C38.0156,5.29167 37.8646,5.28125 37.6875,5.28125 C37.0729,5.28125 36.5677,5.50521 36.1719,5.95313 C35.849,6.31771 35.6875,6.94271 35.6875,7.82813 L35.6875,11 L35.2031,11 L35.2031,4.98438 L35.6875,4.98438 L35.6875,6.10938 C35.8542,5.78646 36.0833,5.51563 36.375,5.29688 C36.7708,4.99479 37.2396,4.84375 37.7813,4.84375 C37.9271,4.84375 38.0521,4.84896 38.1563,4.85938 C38.2604,4.85938 38.3646,4.86979 38.4688,4.89063 L38.4688,5.40625 M42.125,7.60938 C41.3229,7.60938 40.7474,7.75 40.3984,8.03125 C40.0495,8.3125 39.875,8.72396 39.875,9.26563 C39.875,9.79688 40.0208,10.1745 40.3125,10.3984 C40.6042,10.6224 40.9479,10.7344 41.3438,10.7344 C42.0938,10.7344 42.6354,10.4167 42.9688,9.78125 C43.3021,9.13542 43.4688,8.53125 43.4688,7.96875 L43.4688,7.60938 L42.125,7.60938 M43.9688,7.5625 L43.9688,11 L43.4688,11 L43.4688,9.35938 C43.1979,10.1615 42.8333,10.6719 42.375,10.8906 C42.0208,11.0677 41.6615,11.1563 41.2969,11.1563 C40.7031,11.1563 40.2344,10.9948 39.8906,10.6719 C39.5469,10.349 39.375,9.8776 39.375,9.25781 C39.375,8.63802 39.599,8.14063 40.0469,7.76563 C40.4948,7.39063 41.224,7.20313 42.2344,7.20313 L43.4688,7.20313 L43.4688,7.10938 C43.4688,6.57813 43.3125,6.14063 43,5.79688 C42.7083,5.45313 42.2135,5.28125 41.5156,5.28125 C41.1719,5.28125 40.8229,5.34375 40.4688,5.46875 C40.2396,5.55208 39.9375,5.71875 39.5625,5.96875 L39.5625,5.4375 C39.8854,5.23958 40.1875,5.09896 40.4688,5.01563 C40.8646,4.90104 41.2448,4.84375 41.6094,4.84375 C42.3281,4.84375 42.9167,5.05729 43.375,5.48438 C43.7708,5.84896 43.9688,6.54167 43.9688,7.5625 M48.1719,2.98438 L48.7344,2.98438 L45.9375,12.0156 L45.375,12.0156 L48.1719,2.98438 M50.1406,4.98438 L50.6406,4.98438 L50.6406,11 L50.1406,11 L50.1406,4.98438 M50.1406,2.64063 L50.6406,2.64063 L50.6406,3.3125 L50.1406,3.3125 L50.1406,2.64063 M57.5313,6.29688 C57.7188,5.80729 58.0104,5.44271 58.4063,5.20313 C58.7917,4.96354 59.2448,4.84375 59.7656,4.84375 C60.2865,4.84375 60.7031,5.02604 61.0156,5.39063 C61.3385,5.75521 61.5,6.41667 61.5,7.375 L61.5,11 L61.0156,11 L61.0156,7.40625 C61.0156,6.57292 60.901,6.01042 60.6719,5.71875 C60.4427,5.42708 60.1354,5.28125 59.75,5.28125 C59.1979,5.28125 58.7135,5.44792 58.2969,5.78125 C57.8281,6.15625 57.5938,6.76042 57.5938,7.59375 L57.5938,11 L57.1094,11 L57.1094,7.40625 C57.1094,6.60417 56.9974,6.04948 56.7734,5.74219 C56.5495,5.4349 56.2396,5.28125 55.8438,5.28125 C55.2917,5.28125 54.8073,5.45313 54.3906,5.79688 C53.9219,6.16146 53.6875,6.76042 53.6875,7.59375 L53.6875,11 L53.2031,11 L53.2031,4.98438 L53.6875,4.98438 L53.6875,6.10938 C53.8646,5.71354 54.1406,5.40104 54.5156,5.17188 C54.8802,4.95313 55.3333,4.84375 55.875,4.84375 C56.2292,4.84375 56.5677,4.95833 56.8906,5.1875 C57.1406,5.375 57.3542,5.74479 57.5313,6.29688 M66.3125,7.60938 C65.5104,7.60938 64.9349,7.75 64.5859,8.03125 C64.237,8.3125 64.0625,8.72396 64.0625,9.26563 C64.0625,9.79688 64.2083,10.1745 64.5,10.3984 C64.7917,10.6224 65.1354,10.7344 65.5313,10.7344 C66.2813,10.7344 66.8229,10.4167 67.1563,9.78125 C67.4896,9.13542 67.6563,8.53125 67.6563,7.96875 L67.6563,7.60938 L66.3125,7.60938 M68.1563,7.5625 L68.1563,11 L67.6563,11 L67.6563,9.35938 C67.3854,10.1615 67.0208,10.6719 66.5625,10.8906 C66.2083,11.0677 65.849,11.1563 65.4844,11.1563 C64.8906,11.1563 64.4219,10.9948 64.0781,10.6719 C63.7344,10.349 63.5625,9.8776 63.5625,9.25781 C63.5625,8.63802 63.7865,8.14063 64.2344,7.76563 C64.6823,7.39063 65.4115,7.20313 66.4219,7.20313 L67.6563,7.20313 L67.6563,7.10938 C67.6563,6.57813 67.5,6.14063 67.1875,5.79688 C66.8958,5.45313 66.401,5.28125 65.7031,5.28125 C65.3594,5.28125 65.0104,5.34375 64.6563,5.46875 C64.4271,5.55208 64.125,5.71875 63.75,5.96875 L63.75,5.4375 C64.0729,5.23958 64.375,5.09896 64.6563,5.01563 C65.0521,4.90104 65.4323,4.84375 65.7969,4.84375 C66.5156,4.84375 67.1042,5.05729 67.5625,5.48438 C67.9583,5.84896 68.1563,6.54167 68.1563,7.5625 M74.6406,7.92188 C74.6406,7.08854 74.4714,6.44271 74.1328,5.98438 C73.7943,5.52604 73.3177,5.29688 72.7031,5.29688 C72.099,5.29688 71.6276,5.52604 71.2891,5.98438 C70.9505,6.44271 70.7813,7.08854 70.7813,7.92188 C70.7813,8.75521 70.9505,9.40104 71.2891,9.85938 C71.6276,10.3177 72.099,10.5469 72.7031,10.5469 C73.3177,10.5469 73.7943,10.3177 74.1328,9.85938 C74.4714,9.40104 74.6406,8.75521 74.6406,7.92188 M75.125,10.25 C75.125,11.5 74.888,12.3177 74.4141,12.7031 C73.9401,13.0885 73.3385,13.2813 72.6094,13.2813 C72.2552,13.2813 71.9271,13.2604 71.625,13.2188 C71.3125,13.1563 71.0104,13.0729 70.7188,12.9688 L70.7188,12.4063 C71.0104,12.5625 71.2969,12.6797 71.5781,12.7578 C71.8594,12.8359 72.151,12.875 72.4531,12.875 C73.0469,12.875 73.5599,12.7474 73.9922,12.4922 C74.4245,12.237 74.6406,11.5521 74.6406,10.4375 L74.6406,9.48438 C74.4844,9.90104 74.2813,10.2292 74.0313,10.4688 C73.6354,10.8229 73.1927,11 72.7031,11 C71.9427,11 71.349,10.7318 70.9219,10.1953 C70.4948,9.65885 70.2813,8.90104 70.2813,7.92188 C70.2813,6.94271 70.4948,6.1849 70.9219,5.64844 C71.349,5.11198 71.9427,4.84375 72.7031,4.84375 C73.1927,4.84375 73.6094,4.99479 73.9531,5.29688 C74.224,5.53646 74.4531,5.85938 74.6406,6.26563 L74.6406,4.98438 L75.125,4.98438 L75.125,10.25 M81.9219,7.75 L81.9219,8.0625 L77.3594,8.0625 C77.3594,9.02083 77.5469,9.69792 77.9219,10.0938 C78.3385,10.5208 78.9531,10.7344 79.7656,10.7344 C79.9844,10.7344 80.2708,10.6875 80.625,10.5938 C80.9792,10.5 81.3333,10.3594 81.6875,10.1719 L81.6875,10.6875 C81.3333,10.8438 80.9714,10.9609 80.6016,11.0391 C80.2318,11.1172 79.9375,11.1563 79.7188,11.1563 C78.7917,11.1563 78.0938,10.9063 77.625,10.4063 C77.1146,9.875 76.8594,9.09375 76.8594,8.0625 C76.8594,6.98958 77.0885,6.1875 77.5469,5.65625 C78.026,5.11458 78.6927,4.84375 79.5469,4.84375 C80.3281,4.84375 80.9219,5.10417 81.3281,5.625 C81.724,6.16667 81.9219,6.875 81.9219,7.75 M81.4219,7.64063 C81.4219,6.79688 81.2292,6.18229 80.8438,5.79688 C80.5313,5.45313 80.099,5.28125 79.5469,5.28125 C78.9531,5.28125 78.4531,5.45833 78.0469,5.8125 C77.6719,6.14583 77.4479,6.75521 77.375,7.64063 L81.4219,7.64063 M88.3594,13.1719 L88.3594,13.5938 L82.6406,13.5938 L82.6406,13.1719 L88.3594,13.1719 M92.7656,5.40625 C92.6823,5.36458 92.5729,5.33333 92.4375,5.3125 C92.3125,5.29167 92.1615,5.28125 91.9844,5.28125 C91.3698,5.28125 90.8646,5.50521 90.4688,5.95313 C90.1458,6.31771 89.9844,6.94271 89.9844,7.82813 L89.9844,11 L89.5,11 L89.5,4.98438 L89.9844,4.98438 L89.9844,6.10938 C90.151,5.78646 90.3802,5.51563 90.6719,5.29688 C91.0677,4.99479 91.5365,4.84375 92.0781,4.84375 C92.224,4.84375 92.349,4.84896 92.4531,4.85938 C92.5573,4.85938 92.6615,4.86979 92.7656,4.89063 L92.7656,5.40625 M96.4219,7.60938 C95.6198,7.60938 95.0443,7.75 94.6953,8.03125 C94.3464,8.3125 94.1719,8.72396 94.1719,9.26563 C94.1719,9.79688 94.3177,10.1745 94.6094,10.3984 C94.901,10.6224 95.2448,10.7344 95.6406,10.7344 C96.3906,10.7344 96.9323,10.4167 97.2656,9.78125 C97.599,9.13542 97.7656,8.53125 97.7656,7.96875 L97.7656,7.60938 L96.4219,7.60938 M98.2656,7.5625 L98.2656,11 L97.7656,11 L97.7656,9.35938 C97.4948,10.1615 97.1302,10.6719 96.6719,10.8906 C96.3177,11.0677 95.9583,11.1563 95.5938,11.1563 C95,11.1563 94.5313,10.9948 94.1875,10.6719 C93.8438,10.349 93.6719,9.8776 93.6719,9.25781 C93.6719,8.63802 93.8958,8.14063 94.3438,7.76563 C94.7917,7.39063 95.5208,7.20313 96.5313,7.20313 L97.7656,7.20313 L97.7656,7.10938 C97.7656,6.57813 97.6094,6.14063 97.2969,5.79688 C97.0052,5.45313 96.5104,5.28125 95.8125,5.28125 C95.4688,5.28125 95.1198,5.34375 94.7656,5.46875 C94.5365,5.55208 94.2344,5.71875 93.8594,5.96875 L93.8594,5.4375 C94.1823,5.23958 94.4844,5.09896 94.7656,5.01563 C95.1615,4.90104 95.5417,4.84375 95.9063,4.84375 C96.625,4.84375 97.2135,5.05729 97.6719,5.48438 C98.0677,5.84896 98.2656,6.54167 98.2656,7.5625 M100.203,4.98438 L100.703,4.98438 L102.125,10.3438 L103.516,4.98438 L104.156,4.98438 L105.563,10.375 L106.969,4.98438 L107.484,4.98438 L105.906,11 L105.219,11 L103.828,5.71875 L102.453,11 L101.781,11 L100.203,4.98438"/>
</g>

<g fill="none" stroke="#000000" stroke-opacity="1" stroke-width="1" stroke-linecap="square" stroke-linejoin="bevel" transform="matrix(2,0,0,2,420.496,85)"
font-family="sans" font-size="11" font-weight="100" font-style="normal" 
>
</g>

<g fill="none" stroke="#000000" stroke-opacity="1" stroke-width="1" stroke-linecap="square" stroke-linejoin="bevel" transform="matrix(2,0,0,2,420.496,85)"
font-family="Ubuntu" font-size="11" font-weight="400" font-style="normal" 
>
</g>

<g fill="none" stroke="#000000" stroke-opacity="1" stroke-width="1" stroke-linecap="square" stroke-linejoin="bevel" transform="matrix(2,0,0,2,0.0004,275)"
font-family="Ubuntu" font-size="11" font-weight="400" font-style="normal" 
>
</g>

<g fill="none" stroke="#000000" stroke-opacity="1" stroke-width="1" stroke-linecap="square" stroke-linejoin="bevel" transform="matrix(2,0,0,2,0.0004,275)"
font-family="Ubuntu" font-size="11" font-weight="400" font-style="normal" 
>
</g>

<g fill="none" stroke="#000000" stroke-opacity="1" stroke-width="1" stroke-linecap="square" stroke-linejoin="bevel" transform="matrix(2,0,0,2,0.0004,275)"
font-family="Ubuntu" font-size="11" font-weight="400" font-style="normal" 
>
</g>

<g fill="none" stroke="#000000" stroke-opacity="1" stroke-width="1" stroke-linecap="square" stroke-linejoin="round" transform="matrix(2,0,0,2,0.0004,275)"
font-family="Ubuntu" font-size="11" font-weight="400" font-style="normal" 
>
<rect x="165.99" y="-51.5" width="197" height="35"/>
</g>

<g fill="none" stroke="#000000" stroke-opacity="1" stroke-width="1" stroke-linecap="square" stroke-linejoin="bevel" transform="matrix(2,0,0,2,0.0004,275)"
font-family="Ubuntu" font-size="11" font-weight="400" font-style="normal" 
>
</g>

<g fill="none" stroke="#000000" stroke-opacity="1" stroke-width="1" stroke-linecap="square" stroke-linejoin="bevel" transform="matrix(2,0,0,2,386.09,193)"
font-family="Ubuntu" font-size="11" font-weight="400" font-style="normal" 
>
</g>

<g fill="none" stroke="#000000" stroke-opacity="1" stroke-width="1" stroke-linecap="square" stroke-linejoin="bevel" transform="matrix(2,0,0,2,386.09,193)"
font-family="sans" font-size="11" font-weight="100" font-style="normal" 
>
</g>

<g fill="#000000" fill-opacity="1" stroke="#000000" stroke-opacity="1" stroke-width="1" stroke-linecap="square" stroke-linejoin="round" transform="matrix(2,0,0,2,386.09,193)"
font-family="sans" font-size="11" font-weight="100" font-style="normal" 
>
<path vector-effect="none" fill-rule="nonzero" d="M2.96875,2.98438 L3.53125,2.98438 L0.734375,12.0156 L0.171875,12.0156 L2.96875,2.98438 M9.0625,5.28125 L9.0625,5.79688 C8.77083,5.61979 8.52604,5.5 8.32813,5.4375 C7.99479,5.33333 7.67708,5.28125 7.375,5.28125 C6.51042,5.28125 5.89063,5.5026 5.51563,5.94531 C5.14063,6.38802 4.95313,7.07292 4.95313,8 C4.95313,8.9375 5.14063,9.6276 5.51563,10.0703 C5.89063,10.513 6.51042,10.7344 7.375,10.7344 C7.66667,10.7344 7.94792,10.6927 8.21875,10.6094 C8.51042,10.5365 8.79167,10.4219 9.0625,10.2656 L9.0625,10.7656 C8.79167,10.901 8.51042,11 8.21875,11.0625 C7.91667,11.125 7.61979,11.1563 7.32813,11.1563 C6.45313,11.1563 5.75521,10.9167 5.23438,10.4375 C4.71354,9.95833 4.45313,9.14323 4.45313,7.99219 C4.45313,6.84115 4.71354,6.02604 5.23438,5.54688 C5.75521,5.07813 6.45313,4.84375 7.32813,4.84375 C7.61979,4.84375 7.92708,4.88542 8.25,4.96875 C8.57292,5.04167 8.84375,5.14583 9.0625,5.28125 M13.4063,7.60938 C12.6042,7.60938 12.0286,7.75 11.6797,8.03125 C11.3307,8.3125 11.1563,8.72396 11.1563,9.26563 C11.1563,9.79688 11.3021,10.1745 11.5938,10.3984 C11.8854,10.6224 12.2292,10.7344 12.625,10.7344 C13.375,10.7344 13.9167,10.4167 14.25,9.78125 C14.5833,9.13542 14.75,8.53125 14.75,7.96875 L14.75,7.60938 L13.4063,7.60938 M15.25,7.5625 L15.25,11 L14.75,11 L14.75,9.35938 C14.4792,10.1615 14.1146,10.6719 13.6563,10.8906 C13.3021,11.0677 12.9427,11.1563 12.5781,11.1563 C11.9844,11.1563 11.5156,10.9948 11.1719,10.6719 C10.8281,10.349 10.6563,9.8776 10.6563,9.25781 C10.6563,8.63802 10.8802,8.14063 11.3281,7.76563 C11.776,7.39063 12.5052,7.20313 13.5156,7.20313 L14.75,7.20313 L14.75,7.10938 C14.75,6.57813 14.5938,6.14063 14.2813,5.79688 C13.9896,5.45313 13.4948,5.28125 12.7969,5.28125 C12.4531,5.28125 12.1042,5.34375 11.75,5.46875 C11.5208,5.55208 11.2188,5.71875 10.8438,5.96875 L10.8438,5.4375 C11.1667,5.23958 11.4688,5.09896 11.75,5.01563 C12.1458,4.90104 12.526,4.84375 12.8906,4.84375 C13.6094,4.84375 14.1979,5.05729 14.6563,5.48438 C15.0521,5.84896 15.25,6.54167 15.25,7.5625 M22.0625,6.29688 C22.25,5.80729 22.5417,5.44271 22.9375,5.20313 C23.3229,4.96354 23.776,4.84375 24.2969,4.84375 C24.8177,4.84375 25.2344,5.02604 25.5469,5.39063 C25.8698,5.75521 26.0313,6.41667 26.0313,7.375 L26.0313,11 L25.5469,11 L25.5469,7.40625 C25.5469,6.57292 25.4323,6.01042 25.2031,5.71875 C24.974,5.42708 24.6667,5.28125 24.2813,5.28125 C23.7292,5.28125 23.2448,5.44792 22.8281,5.78125 C22.3594,6.15625 22.125,6.76042 22.125,7.59375 L22.125,11 L21.6406,11 L21.6406,7.40625 C21.6406,6.60417 21.5286,6.04948 21.3047,5.74219 C21.0807,5.4349 20.7708,5.28125 20.375,5.28125 C19.8229,5.28125 19.3385,5.45313 18.9219,5.79688 C18.4531,6.16146 18.2188,6.76042 18.2188,7.59375 L18.2188,11 L17.7344,11 L17.7344,4.98438 L18.2188,4.98438 L18.2188,6.10938 C18.3958,5.71354 18.6719,5.40104 19.0469,5.17188 C19.4115,4.95313 19.8646,4.84375 20.4063,4.84375 C20.7604,4.84375 21.099,4.95833 21.4219,5.1875 C21.6719,5.375 21.8854,5.74479 22.0625,6.29688 M33.125,7.75 L33.125,8.0625 L28.5625,8.0625 C28.5625,9.02083 28.75,9.69792 29.125,10.0938 C29.5417,10.5208 30.1563,10.7344 30.9688,10.7344 C31.1875,10.7344 31.474,10.6875 31.8281,10.5938 C32.1823,10.5 32.5365,10.3594 32.8906,10.1719 L32.8906,10.6875 C32.5365,10.8438 32.1745,10.9609 31.8047,11.0391 C31.4349,11.1172 31.1406,11.1563 30.9219,11.1563 C29.9948,11.1563 29.2969,10.9063 28.8281,10.4063 C28.3177,9.875 28.0625,9.09375 28.0625,8.0625 C28.0625,6.98958 28.2917,6.1875 28.75,5.65625 C29.2292,5.11458 29.8958,4.84375 30.75,4.84375 C31.5313,4.84375 32.125,5.10417 32.5313,5.625 C32.9271,6.16667 33.125,6.875 33.125,7.75 M32.625,7.64063 C32.625,6.79688 32.4323,6.18229 32.0469,5.79688 C31.7344,5.45313 31.3021,5.28125 30.75,5.28125 C30.1563,5.28125 29.6563,5.45833 29.25,5.8125 C28.875,6.14583 28.651,6.75521 28.5781,7.64063 L32.625,7.64063 M38.4688,5.40625 C38.3854,5.36458 38.276,5.33333 38.1406,5.3125 C38.0156,5.29167 37.8646,5.28125 37.6875,5.28125 C37.0729,5.28125 36.5677,5.50521 36.1719,5.95313 C35.849,6.31771 35.6875,6.94271 35.6875,7.82813 L35.6875,11 L35.2031,11 L35.2031,4.98438 L35.6875,4.98438 L35.6875,6.10938 C35.8542,5.78646 36.0833,5.51563 36.375,5.29688 C36.7708,4.99479 37.2396,4.84375 37.7813,4.84375 C37.9271,4.84375 38.0521,4.84896 38.1563,4.85938 C38.2604,4.85938 38.3646,4.86979 38.4688,4.89063 L38.4688,5.40625 M42.125,7.60938 C41.3229,7.60938 40.7474,7.75 40.3984,8.03125 C40.0495,8.3125 39.875,8.72396 39.875,9.26563 C39.875,9.79688 40.0208,10.1745 40.3125,10.3984 C40.6042,10.6224 40.9479,10.7344 41.3438,10.7344 C42.0938,10.7344 42.6354,10.4167 42.9688,9.78125 C43.3021,9.13542 43.4688,8.53125 43.4688,7.96875 L43.4688,7.60938 L42.125,7.60938 M43.9688,7.5625 L43.9688,11 L43.4688,11 L43.4688,9.35938 C43.1979,10.1615 42.8333,10.6719 42.375,10.8906 C42.0208,11.0677 41.6615,11.1563 41.2969,11.1563 C40.7031,11.1563 40.2344,10.9948 39.8906,10.6719 C39.5469,10.349 39.375,9.8776 39.375,9.25781 C39.375,8.63802 39.599,8.14063 40.0469,7.76563 C40.4948,7.39063 41.224,7.20313 42.2344,7.20313 L43.4688,7.20313 L43.4688,7.10938 C43.4688,6.57813 43.3125,6.14063 43,5.79688 C42.7083,5.45313 42.2135,5.28125 41.5156,5.28125 C41.1719,5.28125 40.8229,5.34375 40.4688,5.46875 C40.2396,5.55208 39.9375,5.71875 39.5625,5.96875 L39.5625,5.4375 C39.8854,5.23958 40.1875,5.09896 40.4688,5.01563 C40.8646,4.90104 41.2448,4.84375 41.6094,4.84375 C42.3281,4.84375 42.9167,5.05729 43.375,5.48438 C43.7708,5.84896 43.9688,6.54167 43.9688,7.5625 M48.1719,2.98438 L48.7344,2.98438 L45.9375,12.0156 L45.375,12.0156 L48.1719,2.98438 M54.1563,6.35938 L54.1563,2.64063 L54.625,2.64063 L54.625,11 L54.1563,11 L54.1563,9.64063 C53.9271,10.1615 53.6771,10.5156 53.4063,10.7031 C53.0104,11.0052 52.6302,11.1563 52.2656,11.1563 C51.5573,11.1563 50.9661,10.8672 50.4922,10.2891 C50.0182,9.71094 49.7813,8.94792 49.7813,8 C49.7813,7.05208 50.0182,6.28906 50.4922,5.71094 C50.9661,5.13281 51.5573,4.84375 52.2656,4.84375 C52.6302,4.84375 53.0104,4.98958 53.4063,5.28125 C53.6771,5.47917 53.9271,5.83854 54.1563,6.35938 M50.9219,5.90625 C50.5052,6.32292 50.2969,7.02083 50.2969,8 C50.2969,8.97917 50.5052,9.67708 50.9219,10.0938 C51.3385,10.5104 51.776,10.7188 52.2344,10.7188 C52.6823,10.7188 53.1146,10.5104 53.5313,10.0938 C53.9375,9.67708 54.1406,8.97917 54.1406,8 C54.1406,7.02083 53.9375,6.32292 53.5313,5.90625 C53.1146,5.48958 52.6823,5.28125 52.2344,5.28125 C51.776,5.28125 51.3385,5.48958 50.9219,5.90625 M61.8125,7.75 L61.8125,8.0625 L57.25,8.0625 C57.25,9.02083 57.4375,9.69792 57.8125,10.0938 C58.2292,10.5208 58.8438,10.7344 59.6563,10.7344 C59.875,10.7344 60.1615,10.6875 60.5156,10.5938 C60.8698,10.5 61.224,10.3594 61.5781,10.1719 L61.5781,10.6875 C61.224,10.8438 60.862,10.9609 60.4922,11.0391 C60.1224,11.1172 59.8281,11.1563 59.6094,11.1563 C58.6823,11.1563 57.9844,10.9063 57.5156,10.4063 C57.0052,9.875 56.75,9.09375 56.75,8.0625 C56.75,6.98958 56.9792,6.1875 57.4375,5.65625 C57.9167,5.11458 58.5833,4.84375 59.4375,4.84375 C60.2188,4.84375 60.8125,5.10417 61.2188,5.625 C61.6146,6.16667 61.8125,6.875 61.8125,7.75 M61.3125,7.64063 C61.3125,6.79688 61.1198,6.18229 60.7344,5.79688 C60.4219,5.45313 59.9896,5.28125 59.4375,5.28125 C58.8438,5.28125 58.3438,5.45833 57.9375,5.8125 C57.5625,6.14583 57.3385,6.75521 57.2656,7.64063 L61.3125,7.64063 M64.4063,3.28125 L64.4063,4.98438 L66.4375,4.98438 L66.4375,5.40625 L64.4063,5.40625 L64.4063,9.01563 C64.4063,9.47396 64.4635,9.79688 64.5781,9.98438 C64.8281,10.3802 65.1875,10.5781 65.6563,10.5781 L66.4375,10.5781 L66.4375,11 L65.6719,11 C65.1823,11 64.7656,10.8568 64.4219,10.5703 C64.0781,10.2839 63.9063,9.76563 63.9063,9.01563 L63.9063,5.40625 L63.1875,5.40625 L63.1875,4.98438 L63.9063,4.98438 L63.9063,3.28125 L64.4063,3.28125 M72.8906,7.75 L72.8906,8.0625 L68.3281,8.0625 C68.3281,9.02083 68.5156,9.69792 68.8906,10.0938 C69.3073,10.5208 69.9219,10.7344 70.7344,10.7344 C70.9531,10.7344 71.2396,10.6875 71.5938,10.5938 C71.9479,10.5 72.3021,10.3594 72.6563,10.1719 L72.6563,10.6875 C72.3021,10.8438 71.9401,10.9609 71.5703,11.0391 C71.2005,11.1172 70.9063,11.1563 70.6875,11.1563 C69.7604,11.1563 69.0625,10.9063 68.5938,10.4063 C68.0833,9.875 67.8281,9.09375 67.8281,8.0625 C67.8281,6.98958 68.0573,6.1875 68.5156,5.65625 C68.9948,5.11458 69.6615,4.84375 70.5156,4.84375 C71.2969,4.84375 71.8906,5.10417 72.2969,5.625 C72.6927,6.16667 72.8906,6.875 72.8906,7.75 M72.3906,7.64063 C72.3906,6.79688 72.1979,6.18229 71.8125,5.79688 C71.5,5.45313 71.0677,5.28125 70.5156,5.28125 C69.9219,5.28125 69.4219,5.45833 69.0156,5.8125 C68.6406,6.14583 68.4167,6.75521 68.3438,7.64063 L72.3906,7.64063 M79.0781,5.28125 L79.0781,5.79688 C78.7865,5.61979 78.5417,5.5 78.3438,5.4375 C78.0104,5.33333 77.6927,5.28125 77.3906,5.28125 C76.526,5.28125 75.9063,5.5026 75.5313,5.94531 C75.1563,6.38802 74.9688,7.07292 74.9688,8 C74.9688,8.9375 75.1563,9.6276 75.5313,10.0703 C75.9063,10.513 76.526,10.7344 77.3906,10.7344 C77.6823,10.7344 77.9635,10.6927 78.2344,10.6094 C78.526,10.5365 78.8073,10.4219 79.0781,10.2656 L79.0781,10.7656 C78.8073,10.901 78.526,11 78.2344,11.0625 C77.9323,11.125 77.6354,11.1563 77.3438,11.1563 C76.4688,11.1563 75.7708,10.9167 75.25,10.4375 C74.7292,9.95833 74.4688,9.14323 74.4688,7.99219 C74.4688,6.84115 74.7292,6.02604 75.25,5.54688 C75.7708,5.07813 76.4688,4.84375 77.3438,4.84375 C77.6354,4.84375 77.9427,4.88542 78.2656,4.96875 C78.5885,5.04167 78.8594,5.14583 79.0781,5.28125 M81.5313,3.28125 L81.5313,4.98438 L83.5625,4.98438 L83.5625,5.40625 L81.5313,5.40625 L81.5313,9.01563 C81.5313,9.47396 81.5885,9.79688 81.7031,9.98438 C81.9531,10.3802 82.3125,10.5781 82.7813,10.5781 L83.5625,10.5781 L83.5625,11 L82.7969,11 C82.3073,11 81.8906,10.8568 81.5469,10.5703 C81.2031,10.2839 81.0313,9.76563 81.0313,9.01563 L81.0313,5.40625 L80.3125,5.40625 L80.3125,4.98438 L81.0313,4.98438 L81.0313,3.28125 L81.5313,3.28125 M90.0156,7.75 L90.0156,8.0625 L85.4531,8.0625 C85.4531,9.02083 85.6406,9.69792 86.0156,10.0938 C86.4323,10.5208 87.0469,10.7344 87.8594,10.7344 C88.0781,10.7344 88.3646,10.6875 88.7188,10.5938 C89.0729,10.5 89.4271,10.3594 89.7813,10.1719 L89.7813,10.6875 C89.4271,10.8438 89.0651,10.9609 88.6953,11.0391 C88.3255,11.1172 88.0313,11.1563 87.8125,11.1563 C86.8854,11.1563 86.1875,10.9063 85.7188,10.4063 C85.2083,9.875 84.9531,9.09375 84.9531,8.0625 C84.9531,6.98958 85.1823,6.1875 85.6406,5.65625 C86.1198,5.11458 86.7865,4.84375 87.6406,4.84375 C88.4219,4.84375 89.0156,5.10417 89.4219,5.625 C89.8177,6.16667 90.0156,6.875 90.0156,7.75 M89.5156,7.64063 C89.5156,6.79688 89.3229,6.18229 88.9375,5.79688 C88.625,5.45313 88.1927,5.28125 87.6406,5.28125 C87.0469,5.28125 86.5469,5.45833 86.1406,5.8125 C85.7656,6.14583 85.5417,6.75521 85.4688,7.64063 L89.5156,7.64063 M96.0938,6.35938 L96.0938,2.64063 L96.5625,2.64063 L96.5625,11 L96.0938,11 L96.0938,9.64063 C95.8646,10.1615 95.6146,10.5156 95.3438,10.7031 C94.9479,11.0052 94.5677,11.1563 94.2031,11.1563 C93.4948,11.1563 92.9036,10.8672 92.4297,10.2891 C91.9557,9.71094 91.7188,8.94792 91.7188,8 C91.7188,7.05208 91.9557,6.28906 92.4297,5.71094 C92.9036,5.13281 93.4948,4.84375 94.2031,4.84375 C94.5677,4.84375 94.9479,4.98958 95.3438,5.28125 C95.6146,5.47917 95.8646,5.83854 96.0938,6.35938 M92.8594,5.90625 C92.4427,6.32292 92.2344,7.02083 92.2344,8 C92.2344,8.97917 92.4427,9.67708 92.8594,10.0938 C93.276,10.5104 93.7135,10.7188 94.1719,10.7188 C94.6198,10.7188 95.0521,10.5104 95.4688,10.0938 C95.875,9.67708 96.0781,8.97917 96.0781,8 C96.0781,7.02083 95.875,6.32292 95.4688,5.90625 C95.0521,5.48958 94.6198,5.28125 94.1719,5.28125 C93.7135,5.28125 93.276,5.48958 92.8594,5.90625 M103.422,13.1719 L103.422,13.5938 L97.7031,13.5938 L97.7031,13.1719 L103.422,13.1719 M108.141,6.01563 C107.786,5.52604 107.302,5.28125 106.688,5.28125 C106.073,5.28125 105.589,5.52604 105.234,6.01563 C104.88,6.49479 104.703,7.15104 104.703,7.98438 C104.703,8.83854 104.88,9.51042 105.234,10 C105.589,10.4896 106.073,10.7344 106.688,10.7344 C107.302,10.7344 107.786,10.4896 108.141,10 C108.495,9.5 108.672,8.82813 108.672,7.98438 C108.672,7.16146 108.495,6.50521 108.141,6.01563 M106.688,4.84375 C107.448,4.84375 108.052,5.13021 108.5,5.70313 C108.948,6.27604 109.172,7.03646 109.172,7.98438 C109.172,8.97396 108.948,9.75521 108.5,10.3281 C108.052,10.901 107.448,11.1875 106.688,11.1875 C105.906,11.1875 105.292,10.901 104.844,10.3281 C104.406,9.75521 104.188,8.97396 104.188,7.98438 C104.188,7.02604 104.411,6.26302 104.859,5.69531 C105.307,5.1276 105.917,4.84375 106.688,4.84375 M115,10.0938 C115.417,9.67708 115.625,8.97917 115.625,8 C115.625,7.02083 115.417,6.32292 115,5.90625 C114.583,5.48958 114.146,5.28125 113.688,5.28125 C113.24,5.28125 112.807,5.48958 112.391,5.90625 C111.984,6.32292 111.781,7.02083 111.781,8 C111.781,8.97917 111.984,9.67708 112.391,10.0938 C112.807,10.5104 113.24,10.7188 113.688,10.7188 C114.146,10.7188 114.583,10.5104 115,10.0938 M111.766,6.35938 C111.995,5.83854 112.24,5.47917 112.5,5.28125 C112.906,4.98958 113.292,4.84375 113.656,4.84375 C114.365,4.84375 114.956,5.13281 115.43,5.71094 C115.904,6.28906 116.141,7.05208 116.141,8 C116.141,8.94792 115.904,9.71094 115.43,10.2891 C114.956,10.8672 114.365,11.1563 113.656,11.1563 C113.292,11.1563 112.906,11.0052 112.5,10.7031 C112.24,10.5156 111.995,10.1615 111.766,9.64063 L111.766,11 L111.281,11 L111.281,2.64063 L111.766,2.64063 L111.766,6.35938 M118.281,4.98438 L118.781,4.98438 L118.781,11.1094 C118.781,11.9219 118.656,12.4896 118.406,12.8125 C118.156,13.125 117.745,13.2813 117.172,13.2813 L116.797,13.2813 L116.797,12.875 L117.063,12.875 C117.469,12.875 117.776,12.7813 117.984,12.5938 C118.182,12.4167 118.281,11.9219 118.281,11.1094 L118.281,4.98438 M118.281,2.64063 L118.781,2.64063 L118.781,3.3125 L118.281,3.3125 L118.281,2.64063 M125.984,7.75 L125.984,8.0625 L121.422,8.0625 C121.422,9.02083 121.609,9.69792 121.984,10.0938 C122.401,10.5208 123.016,10.7344 123.828,10.7344 C124.047,10.7344 124.333,10.6875 124.688,10.5938 C125.042,10.5 125.396,10.3594 125.75,10.1719 L125.75,10.6875 C125.396,10.8438 125.034,10.9609 124.664,11.0391 C124.294,11.1172 124,11.1563 123.781,11.1563 C122.854,11.1563 122.156,10.9063 121.688,10.4063 C121.177,9.875 120.922,9.09375 120.922,8.0625 C120.922,6.98958 121.151,6.1875 121.609,5.65625 C122.089,5.11458 122.755,4.84375 123.609,4.84375 C124.391,4.84375 124.984,5.10417 125.391,5.625 C125.786,6.16667 125.984,6.875 125.984,7.75 M125.484,7.64063 C125.484,6.79688 125.292,6.18229 124.906,5.79688 C124.594,5.45313 124.161,5.28125 123.609,5.28125 C123.016,5.28125 122.516,5.45833 122.109,5.8125 C121.734,6.14583 121.51,6.75521 121.438,7.64063 L125.484,7.64063 M132.172,5.28125 L132.172,5.79688 C131.88,5.61979 131.635,5.5 131.438,5.4375 C131.104,5.33333 130.786,5.28125 130.484,5.28125 C129.62,5.28125 129,5.5026 128.625,5.94531 C128.25,6.38802 128.063,7.07292 128.063,8 C128.063,8.9375 128.25,9.6276 128.625,10.0703 C129,10.513 129.62,10.7344 130.484,10.7344 C130.776,10.7344 131.057,10.6927 131.328,10.6094 C131.62,10.5365 131.901,10.4219 132.172,10.2656 L132.172,10.7656 C131.901,10.901 131.62,11 131.328,11.0625 C131.026,11.125 130.729,11.1563 130.438,11.1563 C129.563,11.1563 128.865,10.9167 128.344,10.4375 C127.823,9.95833 127.563,9.14323 127.563,7.99219 C127.563,6.84115 127.823,6.02604 128.344,5.54688 C128.865,5.07813 129.563,4.84375 130.438,4.84375 C130.729,4.84375 131.036,4.88542 131.359,4.96875 C131.682,5.04167 131.953,5.14583 132.172,5.28125 M134.625,3.28125 L134.625,4.98438 L136.656,4.98438 L136.656,5.40625 L134.625,5.40625 L134.625,9.01563 C134.625,9.47396 134.682,9.79688 134.797,9.98438 C135.047,10.3802 135.406,10.5781 135.875,10.5781 L136.656,10.5781 L136.656,11 L135.891,11 C135.401,11 134.984,10.8568 134.641,10.5703 C134.297,10.2839 134.125,9.76563 134.125,9.01563 L134.125,5.40625 L133.406,5.40625 L133.406,4.98438 L134.125,4.98438 L134.125,3.28125 L134.625,3.28125 M141.828,5.15625 L141.828,5.70313 C141.474,5.50521 141.255,5.39583 141.172,5.375 C140.922,5.32292 140.609,5.29167 140.234,5.28125 C139.672,5.28125 139.229,5.39063 138.906,5.60938 C138.656,5.79688 138.531,6.11458 138.531,6.5625 C138.531,6.875 138.651,7.11458 138.891,7.28125 C139.13,7.46875 139.479,7.61458 139.938,7.71875 L140.281,7.78125 C140.854,7.90625 141.286,8.08333 141.578,8.3125 C141.922,8.58333 142.099,8.92708 142.109,9.34375 C142.109,9.90625 141.943,10.349 141.609,10.6719 C141.255,10.9948 140.677,11.1563 139.875,11.1563 C139.438,11.1563 139.104,11.125 138.875,11.0625 C138.594,10.9896 138.302,10.8958 138,10.7813 L138,10.1563 C138.438,10.4063 138.719,10.5521 138.844,10.5938 C139.198,10.6875 139.552,10.7344 139.906,10.7344 C140.479,10.7344 140.906,10.6146 141.188,10.375 C141.469,10.125 141.609,9.80729 141.609,9.42188 C141.609,9.08854 141.516,8.84896 141.328,8.70313 C141.057,8.48438 140.63,8.30729 140.047,8.17188 L139.703,8.09375 C139.193,7.96875 138.807,7.80208 138.547,7.59375 C138.214,7.32292 138.047,6.99479 138.047,6.60938 C138.047,5.98438 138.247,5.53385 138.648,5.25781 C139.049,4.98177 139.542,4.84375 140.125,4.84375 C140.625,4.84375 140.969,4.86979 141.156,4.92188 C141.385,4.98438 141.609,5.0625 141.828,5.15625 "/>
</g>

<g fill="none" stroke="#000000" stroke-opacity="1" stroke-width="1" stroke-linecap="square" stroke-linejoin="bevel" transform="matrix(2,0,0,2,386.09,193)"
font-family="sans" font-size="11" font-weight="100" font-style="normal" 
>
</g>

<g fill="none" stroke="#000000" stroke-opacity="1" stroke-width="1" stroke-linecap="square" stroke-linejoin="bevel" transform="matrix(2,0,0,2,386.09,193)"
font-family="Ubuntu" font-size="11" font-weight="400" font-style="normal" 
>
</g>

<g fill="none" stroke="#000000" stroke-opacity="1" stroke-width="1" stroke-linecap="square" stroke-linejoin="bevel" transform="matrix(2,0,0,2,0.0004,275)"
font-family="Ubuntu" font-size="11" font-weight="400" font-style="normal" 
>
</g>

<g fill="none" stroke="#000000" stroke-opacity="1" stroke-width="1" stroke-linecap="square" stroke-linejoin="bevel" transform="matrix(2,0,0,2,0.0004,275)"
font-family="Ubuntu" font-size="11" font-weight="400" font-style="normal" 
>
</g>

<g fill="none" stroke="#000000" stroke-opacity="1" stroke-width="1" stroke-linecap="square" stroke-linejoin="bevel" transform="matrix(2,0,0,2,0.0004,275)"
font-family="Ubuntu" font-size="11" font-weight="400" font-style="normal" 
>
</g>

<g fill="none" stroke="#000000" stroke-opacity="1" stroke-width="1" stroke-linecap="square" stroke-linejoin="round" transform="matrix(2,0,0,2,0.0004,275)"
font-family="Ubuntu" font-size="11" font-weight="400" font-style="normal" 
>
<ellipse cx="74.743" cy="-61" rx="74.2432" ry="17.5"/>
</g>

<g fill="none" stroke="#000000" stroke-opacity="1" stroke-width="1" stroke-linecap="square" stroke-linejoin="bevel" transform="matrix(2,0,0,2,0.0004,275)"
font-family="Ubuntu" font-size="11" font-weight="400" font-style="normal" 
>
</g>

<g fill="none" stroke="#000000" stroke-opacity="1" stroke-width="1" stroke-linecap="square" stroke-linejoin="bevel" transform="matrix(2,0,0,2,71.3614,139)"
font-family="Ubuntu" font-size="11" font-weight="400" font-style="normal" 
>
</g>

<g fill="none" stroke="#000000" stroke-opacity="1" stroke-width="1" stroke-linecap="square" stroke-linejoin="bevel" transform="matrix(2,0,0,2,71.3614,139)"
font-family="sans" font-size="11" font-weight="100" font-style="normal" 
>
</g>

<g fill="#000000" fill-opacity="1" stroke="#000000" stroke-opacity="1" stroke-width="1" stroke-linecap="square" stroke-linejoin="round" transform="matrix(2,0,0,2,71.3614,139)"
font-family="sans" font-size="11" font-weight="100" font-style="normal" 
>
<path vector-effect="none" fill-rule="nonzero" d="M2.96875,2.98438 L3.53125,2.98438 L0.734375,12.0156 L0.171875,12.0156 L2.96875,2.98438 M9.0625,5.28125 L9.0625,5.79688 C8.77083,5.61979 8.52604,5.5 8.32813,5.4375 C7.99479,5.33333 7.67708,5.28125 7.375,5.28125 C6.51042,5.28125 5.89063,5.5026 5.51563,5.94531 C5.14063,6.38802 4.95313,7.07292 4.95313,8 C4.95313,8.9375 5.14063,9.6276 5.51563,10.0703 C5.89063,10.513 6.51042,10.7344 7.375,10.7344 C7.66667,10.7344 7.94792,10.6927 8.21875,10.6094 C8.51042,10.5365 8.79167,10.4219 9.0625,10.2656 L9.0625,10.7656 C8.79167,10.901 8.51042,11 8.21875,11.0625 C7.91667,11.125 7.61979,11.1563 7.32813,11.1563 C6.45313,11.1563 5.75521,10.9167 5.23438,10.4375 C4.71354,9.95833 4.45313,9.14323 4.45313,7.99219 C4.45313,6.84115 4.71354,6.02604 5.23438,5.54688 C5.75521,5.07813 6.45313,4.84375 7.32813,4.84375 C7.61979,4.84375 7.92708,4.88542 8.25,4.96875 C8.57292,5.04167 8.84375,5.14583 9.0625,5.28125 M13.4063,7.60938 C12.6042,7.60938 12.0286,7.75 11.6797,8.03125 C11.3307,8.3125 11.1563,8.72396 11.1563,9.26563 C11.1563,9.79688 11.3021,10.1745 11.5938,10.3984 C11.8854,10.6224 12.2292,10.7344 12.625,10.7344 C13.375,10.7344 13.9167,10.4167 14.25,9.78125 C14.5833,9.13542 14.75,8.53125 14.75,7.96875 L14.75,7.60938 L13.4063,7.60938 M15.25,7.5625 L15.25,11 L14.75,11 L14.75,9.35938 C14.4792,10.1615 14.1146,10.6719 13.6563,10.8906 C13.3021,11.0677 12.9427,11.1563 12.5781,11.1563 C11.9844,11.1563 11.5156,10.9948 11.1719,10.6719 C10.8281,10.349 10.6563,9.8776 10.6563,9.25781 C10.6563,8.63802 10.8802,8.14063 11.3281,7.76563 C11.776,7.39063 12.5052,7.20313 13.5156,7.20313 L14.75,7.20313 L14.75,7.10938 C14.75,6.57813 14.5938,6.14063 14.2813,5.79688 C13.9896,5.45313 13.4948,5.28125 12.7969,5.28125 C12.4531,5.28125 12.1042,5.34375 11.75,5.46875 C11.5208,5.55208 11.2188,5.71875 10.8438,5.96875 L10.8438,5.4375 C11.1667,5.23958 11.4688,5.09896 11.75,5.01563 C12.1458,4.90104 12.526,4.84375 12.8906,4.84375 C13.6094,4.84375 14.1979,5.05729 14.6563,5.48438 C15.0521,5.84896 15.25,6.54167 15.25,7.5625 M22.0625,6.29688 C22.25,5.80729 22.5417,5.44271 22.9375,5.20313 C23.3229,4.96354 23.776,4.84375 24.2969,4.84375 C24.8177,4.84375 25.2344,5.02604 25.5469,5.39063 C25.8698,5.75521 26.0313,6.41667 26.0313,7.375 L26.0313,11 L25.5469,11 L25.5469,7.40625 C25.5469,6.57292 25.4323,6.01042 25.2031,5.71875 C24.974,5.42708 24.6667,5.28125 24.2813,5.28125 C23.7292,5.28125 23.2448,5.44792 22.8281,5.78125 C22.3594,6.15625 22.125,6.76042 22.125,7.59375 L22.125,11 L21.6406,11 L21.6406,7.40625 C21.6406,6.60417 21.5286,6.04948 21.3047,5.74219 C21.0807,5.4349 20.7708,5.28125 20.375,5.28125 C19.8229,5.28125 19.3385,5.45313 18.9219,5.79688 C18.4531,6.16146 18.2188,6.76042 18.2188,7.59375 L18.2188,11 L17.7344,11 L17.7344,4.98438 L18.2188,4.98438 L18.2188,6.10938 C18.3958,5.71354 18.6719,5.40104 19.0469,5.17188 C19.4115,4.95313 19.8646,4.84375 20.4063,4.84375 C20.7604,4.84375 21.099,4.95833 21.4219,5.1875 C21.6719,5.375 21.8854,5.74479 22.0625,6.29688 M33.125,7.75 L33.125,8.0625 L28.5625,8.0625 C28.5625,9.02083 28.75,9.69792 29.125,10.0938 C29.5417,10.5208 30.1563,10.7344 30.9688,10.7344 C31.1875,10.7344 31.474,10.6875 31.8281,10.5938 C32.1823,10.5 32.5365,10.3594 32.8906,10.1719 L32.8906,10.6875 C32.5365,10.8438 32.1745,10.9609 31.8047,11.0391 C31.4349,11.1172 31.1406,11.1563 30.9219,11.1563 C29.9948,11.1563 29.2969,10.9063 28.8281,10.4063 C28.3177,9.875 28.0625,9.09375 28.0625,8.0625 C28.0625,6.98958 28.2917,6.1875 28.75,5.65625 C29.2292,5.11458 29.8958,4.84375 30.75,4.84375 C31.5313,4.84375 32.125,5.10417 32.5313,5.625 C32.9271,6.16667 33.125,6.875 33.125,7.75 M32.625,7.64063 C32.625,6.79688 32.4323,6.18229 32.0469,5.79688 C31.7344,5.45313 31.3021,5.28125 30.75,5.28125 C30.1563,5.28125 29.6563,5.45833 29.25,5.8125 C28.875,6.14583 28.651,6.75521 28.5781,7.64063 L32.625,7.64063 M38.4688,5.40625 C38.3854,5.36458 38.276,5.33333 38.1406,5.3125 C38.0156,5.29167 37.8646,5.28125 37.6875,5.28125 C37.0729,5.28125 36.5677,5.50521 36.1719,5.95313 C35.849,6.31771 35.6875,6.94271 35.6875,7.82813 L35.6875,11 L35.2031,11 L35.2031,4.98438 L35.6875,4.98438 L35.6875,6.10938 C35.8542,5.78646 36.0833,5.51563 36.375,5.29688 C36.7708,4.99479 37.2396,4.84375 37.7813,4.84375 C37.9271,4.84375 38.0521,4.84896 38.1563,4.85938 C38.2604,4.85938 38.3646,4.86979 38.4688,4.89063 L38.4688,5.40625 M42.125,7.60938 C41.3229,7.60938 40.7474,7.75 40.3984,8.03125 C40.0495,8.3125 39.875,8.72396 39.875,9.26563 C39.875,9.79688 40.0208,10.1745 40.3125,10.3984 C40.6042,10.6224 40.9479,10.7344 41.3438,10.7344 C42.0938,10.7344 42.6354,10.4167 42.9688,9.78125 C43.3021,9.13542 43.4688,8.53125 43.4688,7.96875 L43.4688,7.60938 L42.125,7.60938 M43.9688,7.5625 L43.9688,11 L43.4688,11 L43.4688,9.35938 C43.1979,10.1615 42.8333,10.6719 42.375,10.8906 C42.0208,11.0677 41.6615,11.1563 41.2969,11.1563 C40.7031,11.1563 40.2344,10.9948 39.8906,10.6719 C39.5469,10.349 39.375,9.8776 39.375,9.25781 C39.375,8.63802 39.599,8.14063 40.0469,7.76563 C40.4948,7.39063 41.224,7.20313 42.2344,7.20313 L43.4688,7.20313 L43.4688,7.10938 C43.4688,6.57813 43.3125,6.14063 43,5.79688 C42.7083,5.45313 42.2135,5.28125 41.5156,5.28125 C41.1719,5.28125 40.8229,5.34375 40.4688,5.46875 C40.2396,5.55208 39.9375,5.71875 39.5625,5.96875 L39.5625,5.4375 C39.8854,5.23958 40.1875,5.09896 40.4688,5.01563 C40.8646,4.90104 41.2448,4.84375 41.6094,4.84375 C42.3281,4.84375 42.9167,5.05729 43.375,5.48438 C43.7708,5.84896 43.9688,6.54167 43.9688,7.5625 M50.8125,13.1719 L50.8125,13.5938 L45.0938,13.5938 L45.0938,13.1719 L50.8125,13.1719 M56.5,7.375 L56.5,11 L56,11 L56,7.40625 C56,6.625 55.875,6.07552 55.625,5.75781 C55.375,5.4401 55.0052,5.28125 54.5156,5.28125 C53.9427,5.28125 53.4583,5.45313 53.0625,5.79688 C52.6458,6.14063 52.4375,6.73958 52.4375,7.59375 L52.4375,11 L51.9531,11 L51.9531,4.98438 L52.4375,4.98438 L52.4375,6.10938 C52.6146,5.74479 52.849,5.46875 53.1406,5.28125 C53.5573,4.98958 54.0208,4.84375 54.5313,4.84375 C55.1354,4.84375 55.6146,5.04688 55.9688,5.45313 C56.3229,5.84896 56.5,6.48958 56.5,7.375 M62.5,6.01563 C62.1458,5.52604 61.6615,5.28125 61.0469,5.28125 C60.4323,5.28125 59.9479,5.52604 59.5938,6.01563 C59.2396,6.49479 59.0625,7.15104 59.0625,7.98438 C59.0625,8.83854 59.2396,9.51042 59.5938,10 C59.9479,10.4896 60.4323,10.7344 61.0469,10.7344 C61.6615,10.7344 62.1458,10.4896 62.5,10 C62.8542,9.5 63.0313,8.82813 63.0313,7.98438 C63.0313,7.16146 62.8542,6.50521 62.5,6.01563 M61.0469,4.84375 C61.8073,4.84375 62.4115,5.13021 62.8594,5.70313 C63.3073,6.27604 63.5313,7.03646 63.5313,7.98438 C63.5313,8.97396 63.3073,9.75521 62.8594,10.3281 C62.4115,10.901 61.8073,11.1875 61.0469,11.1875 C60.2656,11.1875 59.651,10.901 59.2031,10.3281 C58.7656,9.75521 58.5469,8.97396 58.5469,7.98438 C58.5469,7.02604 58.7708,6.26302 59.2188,5.69531 C59.6667,5.1276 60.276,4.84375 61.0469,4.84375 M69.6406,6.35938 L69.6406,2.64063 L70.1094,2.64063 L70.1094,11 L69.6406,11 L69.6406,9.64063 C69.4115,10.1615 69.1615,10.5156 68.8906,10.7031 C68.4948,11.0052 68.1146,11.1563 67.75,11.1563 C67.0417,11.1563 66.4505,10.8672 65.9766,10.2891 C65.5026,9.71094 65.2656,8.94792 65.2656,8 C65.2656,7.05208 65.5026,6.28906 65.9766,5.71094 C66.4505,5.13281 67.0417,4.84375 67.75,4.84375 C68.1146,4.84375 68.4948,4.98958 68.8906,5.28125 C69.1615,5.47917 69.4115,5.83854 69.6406,6.35938 M66.4063,5.90625 C65.9896,6.32292 65.7813,7.02083 65.7813,8 C65.7813,8.97917 65.9896,9.67708 66.4063,10.0938 C66.8229,10.5104 67.2604,10.7188 67.7188,10.7188 C68.1667,10.7188 68.599,10.5104 69.0156,10.0938 C69.4219,9.67708 69.625,8.97917 69.625,8 C69.625,7.02083 69.4219,6.32292 69.0156,5.90625 C68.599,5.48958 68.1667,5.28125 67.7188,5.28125 C67.2604,5.28125 66.8229,5.48958 66.4063,5.90625 M77.2969,7.75 L77.2969,8.0625 L72.7344,8.0625 C72.7344,9.02083 72.9219,9.69792 73.2969,10.0938 C73.7135,10.5208 74.3281,10.7344 75.1406,10.7344 C75.3594,10.7344 75.6458,10.6875 76,10.5938 C76.3542,10.5 76.7083,10.3594 77.0625,10.1719 L77.0625,10.6875 C76.7083,10.8438 76.3464,10.9609 75.9766,11.0391 C75.6068,11.1172 75.3125,11.1563 75.0938,11.1563 C74.1667,11.1563 73.4688,10.9063 73,10.4063 C72.4896,9.875 72.2344,9.09375 72.2344,8.0625 C72.2344,6.98958 72.4635,6.1875 72.9219,5.65625 C73.401,5.11458 74.0677,4.84375 74.9219,4.84375 C75.7031,4.84375 76.2969,5.10417 76.7031,5.625 C77.099,6.16667 77.2969,6.875 77.2969,7.75 M76.7969,7.64063 C76.7969,6.79688 76.6042,6.18229 76.2188,5.79688 C75.9063,5.45313 75.474,5.28125 74.9219,5.28125 C74.3281,5.28125 73.8281,5.45833 73.4219,5.8125 C73.0469,6.14583 72.8229,6.75521 72.75,7.64063 L76.7969,7.64063"/>
</g>

<g fill="none" stroke="#000000" stroke-opacity="1" stroke-width="1" stroke-linecap="square" stroke-linejoin="bevel" transform="matrix(2,0,0,2,71.3614,139)"
font-family="sans" font-size="11" font-weight="100" font-style="normal" 
>
</g>

<g fill="none" stroke="#000000" stroke-opacity="1" stroke-width="1" stroke-linecap="square" stroke-linejoin="bevel" transform="matrix(2,0,0,2,71.3614,139)"
font-family="Ubuntu" font-size="11" font-weight="400" font-style="normal" 
>
</g>

<g fill="none" stroke="#000000" stroke-opacity="1" stroke-width="1" stroke-linecap="square" stroke-linejoin="bevel" transform="matrix(2,0,0,2,0.0004,275)"
font-family="Ubuntu" font-size="11" font-weight="400" font-style="normal" 
>
</g>

<g fill="none" stroke="#000000" stroke-opacity="1" stroke-width="1" stroke-linecap="square" stroke-linejoin="bevel" transform="matrix(2,0,0,2,0.0004,275)"
font-family="Ubuntu" font-size="11" font-weight="400" font-style="normal" 
>
</g>

<g fill="none" stroke="#000000" stroke-opacity="1" stroke-width="1" stroke-linecap="square" stroke-linejoin="bevel" transform="matrix(2,0,0,2,0.0004,275)"
font-family="Ubuntu" font-size="11" font-weight="400" font-style="normal" 
>
</g>

<g fill="none" stroke="#000000" stroke-opacity="1" stroke-width="1" stroke-linecap="square" stroke-linejoin="round" transform="matrix(2,0,0,2,0.0004,275)"
font-family="Ubuntu" font-size="11" font-weight="400" font-style="normal" 
>
<path vector-effect="none" fill-rule="evenodd" d="M139.3,-70.141 C151.31,-71.867 164.05,-73.7 176.63,-75.508 "/>
</g>

<g fill="none" stroke="#000000" stroke-opacity="1" stroke-width="1" stroke-linecap="square" stroke-linejoin="bevel" transform="matrix(2,0,0,2,0.0004,275)"
font-family="Ubuntu" font-size="11" font-weight="400" font-style="normal" 
>
</g>

<g fill="none" stroke="#000000" stroke-opacity="1" stroke-width="1" stroke-linecap="square" stroke-linejoin="bevel" transform="matrix(2,0,0,2,0.0004,275)"
font-family="Ubuntu" font-size="11" font-weight="400" font-style="normal" 
>
</g>

<g fill="#000000" fill-opacity="1" stroke="#000000" stroke-opacity="1" stroke-width="1" stroke-linecap="square" stroke-linejoin="round" transform="matrix(2,0,0,2,0.0004,275)"
font-family="Ubuntu" font-size="11" font-weight="400" font-style="normal" 
>
<path vector-effect="none" fill-rule="evenodd" d="M176.63,-75.508 L177.135,-71.9975 L186.66,-76.951 L176.125,-79.0185 L176.63,-75.508"/>
</g>

<g fill="none" stroke="#000000" stroke-opacity="1" stroke-width="1" stroke-linecap="square" stroke-linejoin="bevel" transform="matrix(2,0,0,2,0.0004,275)"
font-family="Ubuntu" font-size="11" font-weight="400" font-style="normal" 
>
</g>

<g fill="none" stroke="#000000" stroke-opacity="1" stroke-width="1" stroke-linecap="square" stroke-linejoin="bevel" transform="matrix(2,0,0,2,0.0004,275)"
font-family="Ubuntu" font-size="11" font-weight="400" font-style="normal" 
>
</g>

<g fill="none" stroke="#000000" stroke-opacity="1" stroke-width="1" stroke-linecap="square" stroke-linejoin="bevel" transform="matrix(2,0,0,2,0.0004,275)"
font-family="Ubuntu" font-size="11" font-weight="400" font-style="normal" 
>
</g>

<g fill="none" stroke="#000000" stroke-opacity="1" stroke-width="1" stroke-linecap="square" stroke-linejoin="bevel" transform="matrix(2,0,0,2,0.0004,275)"
font-family="Ubuntu" font-size="11" font-weight="400" font-style="normal" 
>
</g>

<g fill="none" stroke="#000000" stroke-opacity="1" stroke-width="1" stroke-linecap="square" stroke-linejoin="round" transform="matrix(2,0,0,2,0.0004,275)"
font-family="Ubuntu" font-size="11" font-weight="400" font-style="normal" 
>
<path vector-effect="none" fill-rule="evenodd" d="M139.3,-51.859 C144.43,-51.123 149.68,-50.367 155,-49.602 "/>
</g>

<g fill="none" stroke="#000000" stroke-opacity="1" stroke-width="1" stroke-linecap="square" stroke-linejoin="bevel" transform="matrix(2,0,0,2,0.0004,275)"
font-family="Ubuntu" font-size="11" font-weight="400" font-style="normal" 
>
</g>

<g fill="none" stroke="#000000" stroke-opacity="1" stroke-width="1" stroke-linecap="square" stroke-linejoin="bevel" transform="matrix(2,0,0,2,0.0004,275)"
font-family="Ubuntu" font-size="11" font-weight="400" font-style="normal" 
>
</g>

<g fill="#000000" fill-opacity="1" stroke="#000000" stroke-opacity="1" stroke-width="1" stroke-linecap="square" stroke-linejoin="round" transform="matrix(2,0,0,2,0.0004,275)"
font-family="Ubuntu" font-size="11" font-weight="400" font-style="normal" 
>
<path vector-effect="none" fill-rule="evenodd" d="M155,-49.602 L154.482,-46.0005 L165.29,-48.121 L155.518,-53.2035 L155,-49.602"/>
</g>

<g fill="none" stroke="#000000" stroke-opacity="1" stroke-width="1" stroke-linecap="square" stroke-linejoin="bevel" transform="matrix(2,0,0,2,0.0004,275)"
font-family="Ubuntu" font-size="11" font-weight="400" font-style="normal" 
>
</g>

<g fill="none" stroke="#000000" stroke-opacity="1" stroke-width="1" stroke-linecap="square" stroke-linejoin="bevel" transform="matrix(1,0,0,1,0,0)"
font-family="Ubuntu" font-size="11" font-weight="400" font-style="normal" 
>
</g>
</g>
</svg>
