<?xml version="1.0" encoding="UTF-8" standalone="no"?>
<svg width="341.489mm" height="66.675mm"
 xmlns="http://www.w3.org/2000/svg" xmlns:xlink="http://www.w3.org/1999/xlink"  version="1.2" baseProfile="tiny">
<title>Qt SVG Document</title>
<desc>Generated with Qt</desc>
<defs>
</defs>
<g fill="none" stroke="black" stroke-width="1" fill-rule="evenodd" stroke-linecap="square" stroke-linejoin="bevel" >

<g fill="none" stroke="#000000" stroke-opacity="1" stroke-width="1" stroke-linecap="square" stroke-linejoin="bevel" transform="matrix(1,0,0,1,0,0)"
font-family="Ubuntu" font-size="11" font-weight="400" font-style="normal" 
>
</g>

<g fill="none" stroke="#000000" stroke-opacity="1" stroke-width="1" stroke-linecap="square" stroke-linejoin="bevel" transform="matrix(1,0,0,1,0,0)"
font-family="Ubuntu" font-size="11" font-weight="400" font-style="normal" 
>
</g>

<g fill="none" stroke="#000000" stroke-opacity="1" stroke-width="1" stroke-linecap="square" stroke-linejoin="bevel" transform="matrix(2,0,0,2,-0.0016,189)"
font-family="Ubuntu" font-size="11" font-weight="400" font-style="normal" 
>
</g>

<g fill="#ffffff" fill-opacity="1" stroke="none" transform="matrix(2,0,0,2,-0.0016,189)"
font-family="Ubuntu" font-size="11" font-weight="400" font-style="normal" 
>
<rect x="0.0008" y="-94.5" width="483.979" height="94.5"/>
</g>

<g fill="none" stroke="#000000" stroke-opacity="1" stroke-width="1" stroke-linecap="square" stroke-linejoin="bevel" transform="matrix(2,0,0,2,-0.0016,189)"
font-family="Ubuntu" font-size="11" font-weight="400" font-style="normal" 
>
</g>

<g fill="none" stroke="#000000" stroke-opacity="1" stroke-width="1" stroke-linecap="square" stroke-linejoin="bevel" transform="matrix(2,0,0,2,-0.0016,189)"
font-family="Ubuntu" font-size="11" font-weight="400" font-style="normal" 
>
</g>

<g fill="none" stroke="#000000" stroke-opacity="1" stroke-width="1" stroke-linecap="square" stroke-linejoin="bevel" transform="matrix(2,0,0,2,-0.0016,189)"
font-family="Ubuntu" font-size="11" font-weight="400" font-style="normal" 
>
</g>

<g fill="none" stroke="#000000" stroke-opacity="1" stroke-width="1" stroke-linecap="square" stroke-linejoin="bevel" transform="matrix(2,0,0,2,-0.0016,189)"
font-family="Ubuntu" font-size="11" font-weight="400" font-style="normal" 
>
</g>

<g fill="none" stroke="#000000" stroke-opacity="1" stroke-width="1" stroke-linecap="square" stroke-linejoin="round" transform="matrix(2,0,0,2,-0.0016,189)"
font-family="Ubuntu" font-size="11" font-weight="400" font-style="normal" 
>
<rect x="341.48" y="-94" width="142" height="75"/>
</g>

<g fill="none" stroke="#000000" stroke-opacity="1" stroke-width="1" stroke-linecap="square" stroke-linejoin="bevel" transform="matrix(2,0,0,2,-0.0016,189)"
font-family="Ubuntu" font-size="11" font-weight="400" font-style="normal" 
>
</g>

<g fill="none" stroke="#000000" stroke-opacity="1" stroke-width="1" stroke-linecap="square" stroke-linejoin="bevel" transform="matrix(2,0,0,2,788.287,10)"
font-family="Ubuntu" font-size="11" font-weight="400" font-style="normal" 
>
</g>

<g fill="none" stroke="#000000" stroke-opacity="1" stroke-width="1" stroke-linecap="square" stroke-linejoin="bevel" transform="matrix(2,0,0,2,788.287,10)"
font-family="sans" font-size="11" font-weight="100" font-style="normal" 
>
</g>

<g fill="#000000" fill-opacity="1" stroke="#000000" stroke-opacity="1" stroke-width="1" stroke-linecap="square" stroke-linejoin="round" transform="matrix(2,0,0,2,788.287,10)"
font-family="sans" font-size="11" font-weight="100" font-style="normal" 
>
<path vector-effect="none" fill-rule="nonzero" d="M2.96875,2.98438 L3.53125,2.98438 L0.734375,12.0156 L0.171875,12.0156 L2.96875,2.98438 M9.28125,6.29688 C9.46875,5.80729 9.76042,5.44271 10.1563,5.20313 C10.5417,4.96354 10.9948,4.84375 11.5156,4.84375 C12.0365,4.84375 12.4531,5.02604 12.7656,5.39063 C13.0885,5.75521 13.25,6.41667 13.25,7.375 L13.25,11 L12.7656,11 L12.7656,7.40625 C12.7656,6.57292 12.651,6.01042 12.4219,5.71875 C12.1927,5.42708 11.8854,5.28125 11.5,5.28125 C10.9479,5.28125 10.4635,5.44792 10.0469,5.78125 C9.57813,6.15625 9.34375,6.76042 9.34375,7.59375 L9.34375,11 L8.85938,11 L8.85938,7.40625 C8.85938,6.60417 8.7474,6.04948 8.52344,5.74219 C8.29948,5.4349 7.98958,5.28125 7.59375,5.28125 C7.04167,5.28125 6.55729,5.45313 6.14063,5.79688 C5.67188,6.16146 5.4375,6.76042 5.4375,7.59375 L5.4375,11 L4.95313,11 L4.95313,4.98438 L5.4375,4.98438 L5.4375,6.10938 C5.61458,5.71354 5.89063,5.40104 6.26563,5.17188 C6.63021,4.95313 7.08333,4.84375 7.625,4.84375 C7.97917,4.84375 8.31771,4.95833 8.64063,5.1875 C8.89063,5.375 9.10417,5.74479 9.28125,6.29688 M19.2344,6.01563 C18.8802,5.52604 18.3958,5.28125 17.7813,5.28125 C17.1667,5.28125 16.6823,5.52604 16.3281,6.01563 C15.974,6.49479 15.7969,7.15104 15.7969,7.98438 C15.7969,8.83854 15.974,9.51042 16.3281,10 C16.6823,10.4896 17.1667,10.7344 17.7813,10.7344 C18.3958,10.7344 18.8802,10.4896 19.2344,10 C19.5885,9.5 19.7656,8.82813 19.7656,7.98438 C19.7656,7.16146 19.5885,6.50521 19.2344,6.01563 M17.7813,4.84375 C18.5417,4.84375 19.1458,5.13021 19.5938,5.70313 C20.0417,6.27604 20.2656,7.03646 20.2656,7.98438 C20.2656,8.97396 20.0417,9.75521 19.5938,10.3281 C19.1458,10.901 18.5417,11.1875 17.7813,11.1875 C17,11.1875 16.3854,10.901 15.9375,10.3281 C15.5,9.75521 15.2813,8.97396 15.2813,7.98438 C15.2813,7.02604 15.5052,6.26302 15.9531,5.69531 C16.401,5.1276 17.0104,4.84375 17.7813,4.84375 M22.8906,3.28125 L22.8906,4.98438 L24.9219,4.98438 L24.9219,5.40625 L22.8906,5.40625 L22.8906,9.01563 C22.8906,9.47396 22.9479,9.79688 23.0625,9.98438 C23.3125,10.3802 23.6719,10.5781 24.1406,10.5781 L24.9219,10.5781 L24.9219,11 L24.1563,11 C23.6667,11 23.25,10.8568 22.9063,10.5703 C22.5625,10.2839 22.3906,9.76563 22.3906,9.01563 L22.3906,5.40625 L21.6719,5.40625 L21.6719,4.98438 L22.3906,4.98438 L22.3906,3.28125 L22.8906,3.28125 M30.2656,6.01563 C29.9115,5.52604 29.4271,5.28125 28.8125,5.28125 C28.1979,5.28125 27.7135,5.52604 27.3594,6.01563 C27.0052,6.49479 26.8281,7.15104 26.8281,7.98438 C26.8281,8.83854 27.0052,9.51042 27.3594,10 C27.7135,10.4896 28.1979,10.7344 28.8125,10.7344 C29.4271,10.7344 29.9115,10.4896 30.2656,10 C30.6198,9.5 30.7969,8.82813 30.7969,7.98438 C30.7969,7.16146 30.6198,6.50521 30.2656,6.01563 M28.8125,4.84375 C29.5729,4.84375 30.1771,5.13021 30.625,5.70313 C31.0729,6.27604 31.2969,7.03646 31.2969,7.98438 C31.2969,8.97396 31.0729,9.75521 30.625,10.3281 C30.1771,10.901 29.5729,11.1875 28.8125,11.1875 C28.0313,11.1875 27.4167,10.901 26.9688,10.3281 C26.5313,9.75521 26.3125,8.97396 26.3125,7.98438 C26.3125,7.02604 26.5365,6.26302 26.9844,5.69531 C27.4323,5.1276 28.0417,4.84375 28.8125,4.84375 M36.6719,5.40625 C36.5885,5.36458 36.4792,5.33333 36.3438,5.3125 C36.2188,5.29167 36.0677,5.28125 35.8906,5.28125 C35.276,5.28125 34.7708,5.50521 34.375,5.95313 C34.0521,6.31771 33.8906,6.94271 33.8906,7.82813 L33.8906,11 L33.4063,11 L33.4063,4.98438 L33.8906,4.98438 L33.8906,6.10938 C34.0573,5.78646 34.2865,5.51563 34.5781,5.29688 C34.974,4.99479 35.4427,4.84375 35.9844,4.84375 C36.1302,4.84375 36.2552,4.84896 36.3594,4.85938 C36.4635,4.85938 36.5677,4.86979 36.6719,4.89063 L36.6719,5.40625"/>
</g>

<g fill="none" stroke="#000000" stroke-opacity="1" stroke-width="1" stroke-linecap="square" stroke-linejoin="bevel" transform="matrix(2,0,0,2,788.287,10)"
font-family="sans" font-size="11" font-weight="100" font-style="normal" 
>
</g>

<g fill="none" stroke="#000000" stroke-opacity="1" stroke-width="1" stroke-linecap="square" stroke-linejoin="bevel" transform="matrix(2,0,0,2,788.287,10)"
font-family="Ubuntu" font-size="11" font-weight="400" font-style="normal" 
>
</g>

<g fill="none" stroke="#000000" stroke-opacity="1" stroke-width="1" stroke-linecap="square" stroke-linejoin="bevel" transform="matrix(2,0,0,2,-0.0016,189)"
font-family="Ubuntu" font-size="11" font-weight="400" font-style="normal" 
>
</g>

<g fill="none" stroke="#000000" stroke-opacity="1" stroke-width="1" stroke-linecap="square" stroke-linejoin="bevel" transform="matrix(2,0,0,2,-0.0016,189)"
font-family="Ubuntu" font-size="11" font-weight="400" font-style="normal" 
>
</g>

<g fill="none" stroke="#000000" stroke-opacity="1" stroke-width="1" stroke-linecap="square" stroke-linejoin="bevel" transform="matrix(2,0,0,2,-0.0016,189)"
font-family="Ubuntu" font-size="11" font-weight="400" font-style="normal" 
>
</g>

<g fill="none" stroke="#000000" stroke-opacity="1" stroke-width="1" stroke-linecap="square" stroke-linejoin="round" transform="matrix(2,0,0,2,-0.0016,189)"
font-family="Ubuntu" font-size="11" font-weight="400" font-style="normal" 
>
<rect x="349.98" y="-62.5" width="125" height="35"/>
</g>

<g fill="none" stroke="#000000" stroke-opacity="1" stroke-width="1" stroke-linecap="square" stroke-linejoin="bevel" transform="matrix(2,0,0,2,-0.0016,189)"
font-family="Ubuntu" font-size="11" font-weight="400" font-style="normal" 
>
</g>

<g fill="none" stroke="#000000" stroke-opacity="1" stroke-width="1" stroke-linecap="square" stroke-linejoin="bevel" transform="matrix(2,0,0,2,739.052,85)"
font-family="Ubuntu" font-size="11" font-weight="400" font-style="normal" 
>
</g>

<g fill="none" stroke="#000000" stroke-opacity="1" stroke-width="1" stroke-linecap="square" stroke-linejoin="bevel" transform="matrix(2,0,0,2,739.052,85)"
font-family="sans" font-size="11" font-weight="100" font-style="normal" 
>
</g>

<g fill="#000000" fill-opacity="1" stroke="#000000" stroke-opacity="1" stroke-width="1" stroke-linecap="square" stroke-linejoin="round" transform="matrix(2,0,0,2,739.052,85)"
font-family="sans" font-size="11" font-weight="100" font-style="normal" 
>
<path vector-effect="none" fill-rule="nonzero" d="M2.96875,2.98438 L3.53125,2.98438 L0.734375,12.0156 L0.171875,12.0156 L2.96875,2.98438 M9.28125,6.29688 C9.46875,5.80729 9.76042,5.44271 10.1563,5.20313 C10.5417,4.96354 10.9948,4.84375 11.5156,4.84375 C12.0365,4.84375 12.4531,5.02604 12.7656,5.39063 C13.0885,5.75521 13.25,6.41667 13.25,7.375 L13.25,11 L12.7656,11 L12.7656,7.40625 C12.7656,6.57292 12.651,6.01042 12.4219,5.71875 C12.1927,5.42708 11.8854,5.28125 11.5,5.28125 C10.9479,5.28125 10.4635,5.44792 10.0469,5.78125 C9.57813,6.15625 9.34375,6.76042 9.34375,7.59375 L9.34375,11 L8.85938,11 L8.85938,7.40625 C8.85938,6.60417 8.7474,6.04948 8.52344,5.74219 C8.29948,5.4349 7.98958,5.28125 7.59375,5.28125 C7.04167,5.28125 6.55729,5.45313 6.14063,5.79688 C5.67188,6.16146 5.4375,6.76042 5.4375,7.59375 L5.4375,11 L4.95313,11 L4.95313,4.98438 L5.4375,4.98438 L5.4375,6.10938 C5.61458,5.71354 5.89063,5.40104 6.26563,5.17188 C6.63021,4.95313 7.08333,4.84375 7.625,4.84375 C7.97917,4.84375 8.31771,4.95833 8.64063,5.1875 C8.89063,5.375 9.10417,5.74479 9.28125,6.29688 M19.2344,6.01563 C18.8802,5.52604 18.3958,5.28125 17.7813,5.28125 C17.1667,5.28125 16.6823,5.52604 16.3281,6.01563 C15.974,6.49479 15.7969,7.15104 15.7969,7.98438 C15.7969,8.83854 15.974,9.51042 16.3281,10 C16.6823,10.4896 17.1667,10.7344 17.7813,10.7344 C18.3958,10.7344 18.8802,10.4896 19.2344,10 C19.5885,9.5 19.7656,8.82813 19.7656,7.98438 C19.7656,7.16146 19.5885,6.50521 19.2344,6.01563 M17.7813,4.84375 C18.5417,4.84375 19.1458,5.13021 19.5938,5.70313 C20.0417,6.27604 20.2656,7.03646 20.2656,7.98438 C20.2656,8.97396 20.0417,9.75521 19.5938,10.3281 C19.1458,10.901 18.5417,11.1875 17.7813,11.1875 C17,11.1875 16.3854,10.901 15.9375,10.3281 C15.5,9.75521 15.2813,8.97396 15.2813,7.98438 C15.2813,7.02604 15.5052,6.26302 15.9531,5.69531 C16.401,5.1276 17.0104,4.84375 17.7813,4.84375 M22.8906,3.28125 L22.8906,4.98438 L24.9219,4.98438 L24.9219,5.40625 L22.8906,5.40625 L22.8906,9.01563 C22.8906,9.47396 22.9479,9.79688 23.0625,9.98438 C23.3125,10.3802 23.6719,10.5781 24.1406,10.5781 L24.9219,10.5781 L24.9219,11 L24.1563,11 C23.6667,11 23.25,10.8568 22.9063,10.5703 C22.5625,10.2839 22.3906,9.76563 22.3906,9.01563 L22.3906,5.40625 L21.6719,5.40625 L21.6719,4.98438 L22.3906,4.98438 L22.3906,3.28125 L22.8906,3.28125 M30.2656,6.01563 C29.9115,5.52604 29.4271,5.28125 28.8125,5.28125 C28.1979,5.28125 27.7135,5.52604 27.3594,6.01563 C27.0052,6.49479 26.8281,7.15104 26.8281,7.98438 C26.8281,8.83854 27.0052,9.51042 27.3594,10 C27.7135,10.4896 28.1979,10.7344 28.8125,10.7344 C29.4271,10.7344 29.9115,10.4896 30.2656,10 C30.6198,9.5 30.7969,8.82813 30.7969,7.98438 C30.7969,7.16146 30.6198,6.50521 30.2656,6.01563 M28.8125,4.84375 C29.5729,4.84375 30.1771,5.13021 30.625,5.70313 C31.0729,6.27604 31.2969,7.03646 31.2969,7.98438 C31.2969,8.97396 31.0729,9.75521 30.625,10.3281 C30.1771,10.901 29.5729,11.1875 28.8125,11.1875 C28.0313,11.1875 27.4167,10.901 26.9688,10.3281 C26.5313,9.75521 26.3125,8.97396 26.3125,7.98438 C26.3125,7.02604 26.5365,6.26302 26.9844,5.69531 C27.4323,5.1276 28.0417,4.84375 28.8125,4.84375 M36.6719,5.40625 C36.5885,5.36458 36.4792,5.33333 36.3438,5.3125 C36.2188,5.29167 36.0677,5.28125 35.8906,5.28125 C35.276,5.28125 34.7708,5.50521 34.375,5.95313 C34.0521,6.31771 33.8906,6.94271 33.8906,7.82813 L33.8906,11 L33.4063,11 L33.4063,4.98438 L33.8906,4.98438 L33.8906,6.10938 C34.0573,5.78646 34.2865,5.51563 34.5781,5.29688 C34.974,4.99479 35.4427,4.84375 35.9844,4.84375 C36.1302,4.84375 36.2552,4.84896 36.3594,4.85938 C36.4635,4.85938 36.5677,4.86979 36.6719,4.89063 L36.6719,5.40625 M39.6406,2.98438 L40.2031,2.98438 L37.4063,12.0156 L36.8438,12.0156 L39.6406,2.98438 M45.7344,5.28125 L45.7344,5.79688 C45.4427,5.61979 45.1979,5.5 45,5.4375 C44.6667,5.33333 44.349,5.28125 44.0469,5.28125 C43.1823,5.28125 42.5625,5.5026 42.1875,5.94531 C41.8125,6.38802 41.625,7.07292 41.625,8 C41.625,8.9375 41.8125,9.6276 42.1875,10.0703 C42.5625,10.513 43.1823,10.7344 44.0469,10.7344 C44.3385,10.7344 44.6198,10.6927 44.8906,10.6094 C45.1823,10.5365 45.4635,10.4219 45.7344,10.2656 L45.7344,10.7656 C45.4635,10.901 45.1823,11 44.8906,11.0625 C44.5885,11.125 44.2917,11.1563 44,11.1563 C43.125,11.1563 42.4271,10.9167 41.9063,10.4375 C41.3854,9.95833 41.125,9.14323 41.125,7.99219 C41.125,6.84115 41.3854,6.02604 41.9063,5.54688 C42.4271,5.07813 43.125,4.84375 44,4.84375 C44.2917,4.84375 44.599,4.88542 44.9219,4.96875 C45.2448,5.04167 45.5156,5.14583 45.7344,5.28125 M52,6.29688 C52.1875,5.80729 52.4792,5.44271 52.875,5.20313 C53.2604,4.96354 53.7135,4.84375 54.2344,4.84375 C54.7552,4.84375 55.1719,5.02604 55.4844,5.39063 C55.8073,5.75521 55.9688,6.41667 55.9688,7.375 L55.9688,11 L55.4844,11 L55.4844,7.40625 C55.4844,6.57292 55.3698,6.01042 55.1406,5.71875 C54.9115,5.42708 54.6042,5.28125 54.2188,5.28125 C53.6667,5.28125 53.1823,5.44792 52.7656,5.78125 C52.2969,6.15625 52.0625,6.76042 52.0625,7.59375 L52.0625,11 L51.5781,11 L51.5781,7.40625 C51.5781,6.60417 51.4661,6.04948 51.2422,5.74219 C51.0182,5.4349 50.7083,5.28125 50.3125,5.28125 C49.7604,5.28125 49.276,5.45313 48.8594,5.79688 C48.3906,6.16146 48.1563,6.76042 48.1563,7.59375 L48.1563,11 L47.6719,11 L47.6719,4.98438 L48.1563,4.98438 L48.1563,6.10938 C48.3333,5.71354 48.6094,5.40104 48.9844,5.17188 C49.349,4.95313 49.8021,4.84375 50.3438,4.84375 C50.6979,4.84375 51.0365,4.95833 51.3594,5.1875 C51.6094,5.375 51.8229,5.74479 52,6.29688 M62.375,6.35938 L62.375,2.64063 L62.8438,2.64063 L62.8438,11 L62.375,11 L62.375,9.64063 C62.1458,10.1615 61.8958,10.5156 61.625,10.7031 C61.2292,11.0052 60.849,11.1563 60.4844,11.1563 C59.776,11.1563 59.1849,10.8672 58.7109,10.2891 C58.237,9.71094 58,8.94792 58,8 C58,7.05208 58.237,6.28906 58.7109,5.71094 C59.1849,5.13281 59.776,4.84375 60.4844,4.84375 C60.849,4.84375 61.2292,4.98958 61.625,5.28125 C61.8958,5.47917 62.1458,5.83854 62.375,6.35938 M59.1406,5.90625 C58.724,6.32292 58.5156,7.02083 58.5156,8 C58.5156,8.97917 58.724,9.67708 59.1406,10.0938 C59.5573,10.5104 59.9948,10.7188 60.4531,10.7188 C60.901,10.7188 61.3333,10.5104 61.75,10.0938 C62.1563,9.67708 62.3594,8.97917 62.3594,8 C62.3594,7.02083 62.1563,6.32292 61.75,5.90625 C61.3333,5.48958 60.901,5.28125 60.4531,5.28125 C59.9948,5.28125 59.5573,5.48958 59.1406,5.90625 M69.7031,13.1719 L69.7031,13.5938 L63.9844,13.5938 L63.9844,13.1719 L69.7031,13.1719 M70.2969,4.98438 L70.8125,4.98438 L72.8438,10.4531 L74.8906,4.98438 L75.4063,4.98438 L73.1719,11 L72.5313,11 L70.2969,4.98438 M82.0313,7.75 L82.0313,8.0625 L77.4688,8.0625 C77.4688,9.02083 77.6563,9.69792 78.0313,10.0938 C78.4479,10.5208 79.0625,10.7344 79.875,10.7344 C80.0938,10.7344 80.3802,10.6875 80.7344,10.5938 C81.0885,10.5 81.4427,10.3594 81.7969,10.1719 L81.7969,10.6875 C81.4427,10.8438 81.0807,10.9609 80.7109,11.0391 C80.3411,11.1172 80.0469,11.1563 79.8281,11.1563 C78.901,11.1563 78.2031,10.9063 77.7344,10.4063 C77.224,9.875 76.9688,9.09375 76.9688,8.0625 C76.9688,6.98958 77.1979,6.1875 77.6563,5.65625 C78.1354,5.11458 78.8021,4.84375 79.6563,4.84375 C80.4375,4.84375 81.0313,5.10417 81.4375,5.625 C81.8333,6.16667 82.0313,6.875 82.0313,7.75 M81.5313,7.64063 C81.5313,6.79688 81.3385,6.18229 80.9531,5.79688 C80.6406,5.45313 80.2083,5.28125 79.6563,5.28125 C79.0625,5.28125 78.5625,5.45833 78.1563,5.8125 C77.7813,6.14583 77.5573,6.75521 77.4844,7.64063 L81.5313,7.64063 M84.1094,2.64063 L84.5938,2.64063 L84.5938,11 L84.1094,11 L84.1094,2.64063"/>
</g>

<g fill="none" stroke="#000000" stroke-opacity="1" stroke-width="1" stroke-linecap="square" stroke-linejoin="bevel" transform="matrix(2,0,0,2,739.052,85)"
font-family="sans" font-size="11" font-weight="100" font-style="normal" 
>
</g>

<g fill="none" stroke="#000000" stroke-opacity="1" stroke-width="1" stroke-linecap="square" stroke-linejoin="bevel" transform="matrix(2,0,0,2,739.052,85)"
font-family="Ubuntu" font-size="11" font-weight="400" font-style="normal" 
>
</g>

<g fill="none" stroke="#000000" stroke-opacity="1" stroke-width="1" stroke-linecap="square" stroke-linejoin="bevel" transform="matrix(2,0,0,2,-0.0016,189)"
font-family="Ubuntu" font-size="11" font-weight="400" font-style="normal" 
>
</g>

<g fill="none" stroke="#000000" stroke-opacity="1" stroke-width="1" stroke-linecap="square" stroke-linejoin="bevel" transform="matrix(2,0,0,2,-0.0016,189)"
font-family="Ubuntu" font-size="11" font-weight="400" font-style="normal" 
>
</g>

<g fill="none" stroke="#000000" stroke-opacity="1" stroke-width="1" stroke-linecap="square" stroke-linejoin="bevel" transform="matrix(2,0,0,2,-0.0016,189)"
font-family="Ubuntu" font-size="11" font-weight="400" font-style="normal" 
>
</g>

<g fill="none" stroke="#000000" stroke-opacity="1" stroke-width="1" stroke-linecap="square" stroke-linejoin="round" transform="matrix(2,0,0,2,-0.0016,189)"
font-family="Ubuntu" font-size="11" font-weight="400" font-style="normal" 
>
<rect x="349.98" y="-62.5" width="125" height="35"/>
</g>

<g fill="none" stroke="#000000" stroke-opacity="1" stroke-width="1" stroke-linecap="square" stroke-linejoin="bevel" transform="matrix(2,0,0,2,-0.0016,189)"
font-family="Ubuntu" font-size="11" font-weight="400" font-style="normal" 
>
</g>

<g fill="none" stroke="#000000" stroke-opacity="1" stroke-width="1" stroke-linecap="square" stroke-linejoin="bevel" transform="matrix(2,0,0,2,739.052,85)"
font-family="Ubuntu" font-size="11" font-weight="400" font-style="normal" 
>
</g>

<g fill="none" stroke="#000000" stroke-opacity="1" stroke-width="1" stroke-linecap="square" stroke-linejoin="bevel" transform="matrix(2,0,0,2,739.052,85)"
font-family="sans" font-size="11" font-weight="100" font-style="normal" 
>
</g>

<g fill="#000000" fill-opacity="1" stroke="#000000" stroke-opacity="1" stroke-width="1" stroke-linecap="square" stroke-linejoin="round" transform="matrix(2,0,0,2,739.052,85)"
font-family="sans" font-size="11" font-weight="100" font-style="normal" 
>
<path vector-effect="none" fill-rule="nonzero" d="M2.96875,2.98438 L3.53125,2.98438 L0.734375,12.0156 L0.171875,12.0156 L2.96875,2.98438 M9.28125,6.29688 C9.46875,5.80729 9.76042,5.44271 10.1563,5.20313 C10.5417,4.96354 10.9948,4.84375 11.5156,4.84375 C12.0365,4.84375 12.4531,5.02604 12.7656,5.39063 C13.0885,5.75521 13.25,6.41667 13.25,7.375 L13.25,11 L12.7656,11 L12.7656,7.40625 C12.7656,6.57292 12.651,6.01042 12.4219,5.71875 C12.1927,5.42708 11.8854,5.28125 11.5,5.28125 C10.9479,5.28125 10.4635,5.44792 10.0469,5.78125 C9.57813,6.15625 9.34375,6.76042 9.34375,7.59375 L9.34375,11 L8.85938,11 L8.85938,7.40625 C8.85938,6.60417 8.7474,6.04948 8.52344,5.74219 C8.29948,5.4349 7.98958,5.28125 7.59375,5.28125 C7.04167,5.28125 6.55729,5.45313 6.14063,5.79688 C5.67188,6.16146 5.4375,6.76042 5.4375,7.59375 L5.4375,11 L4.95313,11 L4.95313,4.98438 L5.4375,4.98438 L5.4375,6.10938 C5.61458,5.71354 5.89063,5.40104 6.26563,5.17188 C6.63021,4.95313 7.08333,4.84375 7.625,4.84375 C7.97917,4.84375 8.31771,4.95833 8.64063,5.1875 C8.89063,5.375 9.10417,5.74479 9.28125,6.29688 M19.2344,6.01563 C18.8802,5.52604 18.3958,5.28125 17.7813,5.28125 C17.1667,5.28125 16.6823,5.52604 16.3281,6.01563 C15.974,6.49479 15.7969,7.15104 15.7969,7.98438 C15.7969,8.83854 15.974,9.51042 16.3281,10 C16.6823,10.4896 17.1667,10.7344 17.7813,10.7344 C18.3958,10.7344 18.8802,10.4896 19.2344,10 C19.5885,9.5 19.7656,8.82813 19.7656,7.98438 C19.7656,7.16146 19.5885,6.50521 19.2344,6.01563 M17.7813,4.84375 C18.5417,4.84375 19.1458,5.13021 19.5938,5.70313 C20.0417,6.27604 20.2656,7.03646 20.2656,7.98438 C20.2656,8.97396 20.0417,9.75521 19.5938,10.3281 C19.1458,10.901 18.5417,11.1875 17.7813,11.1875 C17,11.1875 16.3854,10.901 15.9375,10.3281 C15.5,9.75521 15.2813,8.97396 15.2813,7.98438 C15.2813,7.02604 15.5052,6.26302 15.9531,5.69531 C16.401,5.1276 17.0104,4.84375 17.7813,4.84375 M22.8906,3.28125 L22.8906,4.98438 L24.9219,4.98438 L24.9219,5.40625 L22.8906,5.40625 L22.8906,9.01563 C22.8906,9.47396 22.9479,9.79688 23.0625,9.98438 C23.3125,10.3802 23.6719,10.5781 24.1406,10.5781 L24.9219,10.5781 L24.9219,11 L24.1563,11 C23.6667,11 23.25,10.8568 22.9063,10.5703 C22.5625,10.2839 22.3906,9.76563 22.3906,9.01563 L22.3906,5.40625 L21.6719,5.40625 L21.6719,4.98438 L22.3906,4.98438 L22.3906,3.28125 L22.8906,3.28125 M30.2656,6.01563 C29.9115,5.52604 29.4271,5.28125 28.8125,5.28125 C28.1979,5.28125 27.7135,5.52604 27.3594,6.01563 C27.0052,6.49479 26.8281,7.15104 26.8281,7.98438 C26.8281,8.83854 27.0052,9.51042 27.3594,10 C27.7135,10.4896 28.1979,10.7344 28.8125,10.7344 C29.4271,10.7344 29.9115,10.4896 30.2656,10 C30.6198,9.5 30.7969,8.82813 30.7969,7.98438 C30.7969,7.16146 30.6198,6.50521 30.2656,6.01563 M28.8125,4.84375 C29.5729,4.84375 30.1771,5.13021 30.625,5.70313 C31.0729,6.27604 31.2969,7.03646 31.2969,7.98438 C31.2969,8.97396 31.0729,9.75521 30.625,10.3281 C30.1771,10.901 29.5729,11.1875 28.8125,11.1875 C28.0313,11.1875 27.4167,10.901 26.9688,10.3281 C26.5313,9.75521 26.3125,8.97396 26.3125,7.98438 C26.3125,7.02604 26.5365,6.26302 26.9844,5.69531 C27.4323,5.1276 28.0417,4.84375 28.8125,4.84375 M36.6719,5.40625 C36.5885,5.36458 36.4792,5.33333 36.3438,5.3125 C36.2188,5.29167 36.0677,5.28125 35.8906,5.28125 C35.276,5.28125 34.7708,5.50521 34.375,5.95313 C34.0521,6.31771 33.8906,6.94271 33.8906,7.82813 L33.8906,11 L33.4063,11 L33.4063,4.98438 L33.8906,4.98438 L33.8906,6.10938 C34.0573,5.78646 34.2865,5.51563 34.5781,5.29688 C34.974,4.99479 35.4427,4.84375 35.9844,4.84375 C36.1302,4.84375 36.2552,4.84896 36.3594,4.85938 C36.4635,4.85938 36.5677,4.86979 36.6719,4.89063 L36.6719,5.40625 M39.6406,2.98438 L40.2031,2.98438 L37.4063,12.0156 L36.8438,12.0156 L39.6406,2.98438 M45.7344,5.28125 L45.7344,5.79688 C45.4427,5.61979 45.1979,5.5 45,5.4375 C44.6667,5.33333 44.349,5.28125 44.0469,5.28125 C43.1823,5.28125 42.5625,5.5026 42.1875,5.94531 C41.8125,6.38802 41.625,7.07292 41.625,8 C41.625,8.9375 41.8125,9.6276 42.1875,10.0703 C42.5625,10.513 43.1823,10.7344 44.0469,10.7344 C44.3385,10.7344 44.6198,10.6927 44.8906,10.6094 C45.1823,10.5365 45.4635,10.4219 45.7344,10.2656 L45.7344,10.7656 C45.4635,10.901 45.1823,11 44.8906,11.0625 C44.5885,11.125 44.2917,11.1563 44,11.1563 C43.125,11.1563 42.4271,10.9167 41.9063,10.4375 C41.3854,9.95833 41.125,9.14323 41.125,7.99219 C41.125,6.84115 41.3854,6.02604 41.9063,5.54688 C42.4271,5.07813 43.125,4.84375 44,4.84375 C44.2917,4.84375 44.599,4.88542 44.9219,4.96875 C45.2448,5.04167 45.5156,5.14583 45.7344,5.28125 M52,6.29688 C52.1875,5.80729 52.4792,5.44271 52.875,5.20313 C53.2604,4.96354 53.7135,4.84375 54.2344,4.84375 C54.7552,4.84375 55.1719,5.02604 55.4844,5.39063 C55.8073,5.75521 55.9688,6.41667 55.9688,7.375 L55.9688,11 L55.4844,11 L55.4844,7.40625 C55.4844,6.57292 55.3698,6.01042 55.1406,5.71875 C54.9115,5.42708 54.6042,5.28125 54.2188,5.28125 C53.6667,5.28125 53.1823,5.44792 52.7656,5.78125 C52.2969,6.15625 52.0625,6.76042 52.0625,7.59375 L52.0625,11 L51.5781,11 L51.5781,7.40625 C51.5781,6.60417 51.4661,6.04948 51.2422,5.74219 C51.0182,5.4349 50.7083,5.28125 50.3125,5.28125 C49.7604,5.28125 49.276,5.45313 48.8594,5.79688 C48.3906,6.16146 48.1563,6.76042 48.1563,7.59375 L48.1563,11 L47.6719,11 L47.6719,4.98438 L48.1563,4.98438 L48.1563,6.10938 C48.3333,5.71354 48.6094,5.40104 48.9844,5.17188 C49.349,4.95313 49.8021,4.84375 50.3438,4.84375 C50.6979,4.84375 51.0365,4.95833 51.3594,5.1875 C51.6094,5.375 51.8229,5.74479 52,6.29688 M62.375,6.35938 L62.375,2.64063 L62.8438,2.64063 L62.8438,11 L62.375,11 L62.375,9.64063 C62.1458,10.1615 61.8958,10.5156 61.625,10.7031 C61.2292,11.0052 60.849,11.1563 60.4844,11.1563 C59.776,11.1563 59.1849,10.8672 58.7109,10.2891 C58.237,9.71094 58,8.94792 58,8 C58,7.05208 58.237,6.28906 58.7109,5.71094 C59.1849,5.13281 59.776,4.84375 60.4844,4.84375 C60.849,4.84375 61.2292,4.98958 61.625,5.28125 C61.8958,5.47917 62.1458,5.83854 62.375,6.35938 M59.1406,5.90625 C58.724,6.32292 58.5156,7.02083 58.5156,8 C58.5156,8.97917 58.724,9.67708 59.1406,10.0938 C59.5573,10.5104 59.9948,10.7188 60.4531,10.7188 C60.901,10.7188 61.3333,10.5104 61.75,10.0938 C62.1563,9.67708 62.3594,8.97917 62.3594,8 C62.3594,7.02083 62.1563,6.32292 61.75,5.90625 C61.3333,5.48958 60.901,5.28125 60.4531,5.28125 C59.9948,5.28125 59.5573,5.48958 59.1406,5.90625 M69.7031,13.1719 L69.7031,13.5938 L63.9844,13.5938 L63.9844,13.1719 L69.7031,13.1719 M70.2969,4.98438 L70.8125,4.98438 L72.8438,10.4531 L74.8906,4.98438 L75.4063,4.98438 L73.1719,11 L72.5313,11 L70.2969,4.98438 M82.0313,7.75 L82.0313,8.0625 L77.4688,8.0625 C77.4688,9.02083 77.6563,9.69792 78.0313,10.0938 C78.4479,10.5208 79.0625,10.7344 79.875,10.7344 C80.0938,10.7344 80.3802,10.6875 80.7344,10.5938 C81.0885,10.5 81.4427,10.3594 81.7969,10.1719 L81.7969,10.6875 C81.4427,10.8438 81.0807,10.9609 80.7109,11.0391 C80.3411,11.1172 80.0469,11.1563 79.8281,11.1563 C78.901,11.1563 78.2031,10.9063 77.7344,10.4063 C77.224,9.875 76.9688,9.09375 76.9688,8.0625 C76.9688,6.98958 77.1979,6.1875 77.6563,5.65625 C78.1354,5.11458 78.8021,4.84375 79.6563,4.84375 C80.4375,4.84375 81.0313,5.10417 81.4375,5.625 C81.8333,6.16667 82.0313,6.875 82.0313,7.75 M81.5313,7.64063 C81.5313,6.79688 81.3385,6.18229 80.9531,5.79688 C80.6406,5.45313 80.2083,5.28125 79.6563,5.28125 C79.0625,5.28125 78.5625,5.45833 78.1563,5.8125 C77.7813,6.14583 77.5573,6.75521 77.4844,7.64063 L81.5313,7.64063 M84.1094,2.64063 L84.5938,2.64063 L84.5938,11 L84.1094,11 L84.1094,2.64063"/>
</g>

<g fill="none" stroke="#000000" stroke-opacity="1" stroke-width="1" stroke-linecap="square" stroke-linejoin="bevel" transform="matrix(2,0,0,2,739.052,85)"
font-family="sans" font-size="11" font-weight="100" font-style="normal" 
>
</g>

<g fill="none" stroke="#000000" stroke-opacity="1" stroke-width="1" stroke-linecap="square" stroke-linejoin="bevel" transform="matrix(2,0,0,2,739.052,85)"
font-family="Ubuntu" font-size="11" font-weight="400" font-style="normal" 
>
</g>

<g fill="none" stroke="#000000" stroke-opacity="1" stroke-width="1" stroke-linecap="square" stroke-linejoin="bevel" transform="matrix(2,0,0,2,-0.0016,189)"
font-family="Ubuntu" font-size="11" font-weight="400" font-style="normal" 
>
</g>

<g fill="none" stroke="#000000" stroke-opacity="1" stroke-width="1" stroke-linecap="square" stroke-linejoin="bevel" transform="matrix(2,0,0,2,-0.0016,189)"
font-family="Ubuntu" font-size="11" font-weight="400" font-style="normal" 
>
</g>

<g fill="none" stroke="#000000" stroke-opacity="1" stroke-width="1" stroke-linecap="square" stroke-linejoin="bevel" transform="matrix(2,0,0,2,-0.0016,189)"
font-family="Ubuntu" font-size="11" font-weight="400" font-style="normal" 
>
</g>

<g fill="none" stroke="#000000" stroke-opacity="1" stroke-width="1" stroke-linecap="square" stroke-linejoin="round" transform="matrix(2,0,0,2,-0.0016,189)"
font-family="Ubuntu" font-size="11" font-weight="400" font-style="normal" 
>
<rect x="10.0001" y="-89.5" width="58.9998" height="35"/>
</g>

<g fill="none" stroke="#000000" stroke-opacity="1" stroke-width="1" stroke-linecap="square" stroke-linejoin="bevel" transform="matrix(2,0,0,2,-0.0016,189)"
font-family="Ubuntu" font-size="11" font-weight="400" font-style="normal" 
>
</g>

<g fill="none" stroke="#000000" stroke-opacity="1" stroke-width="1" stroke-linecap="square" stroke-linejoin="bevel" transform="matrix(2,0,0,2,44.1859,31)"
font-family="Ubuntu" font-size="11" font-weight="400" font-style="normal" 
>
</g>

<g fill="none" stroke="#000000" stroke-opacity="1" stroke-width="1" stroke-linecap="square" stroke-linejoin="bevel" transform="matrix(2,0,0,2,44.1859,31)"
font-family="sans" font-size="11" font-weight="100" font-style="normal" 
>
</g>

<g fill="#000000" fill-opacity="1" stroke="#000000" stroke-opacity="1" stroke-width="1" stroke-linecap="square" stroke-linejoin="round" transform="matrix(2,0,0,2,44.1859,31)"
font-family="sans" font-size="11" font-weight="100" font-style="normal" 
>
<path vector-effect="none" fill-rule="nonzero" d="M2.96875,2.98438 L3.53125,2.98438 L0.734375,12.0156 L0.171875,12.0156 L2.96875,2.98438 M8.53125,6.01563 C8.17708,5.52604 7.69271,5.28125 7.07813,5.28125 C6.46354,5.28125 5.97917,5.52604 5.625,6.01563 C5.27083,6.49479 5.09375,7.15104 5.09375,7.98438 C5.09375,8.83854 5.27083,9.51042 5.625,10 C5.97917,10.4896 6.46354,10.7344 7.07813,10.7344 C7.69271,10.7344 8.17708,10.4896 8.53125,10 C8.88542,9.5 9.0625,8.82813 9.0625,7.98438 C9.0625,7.16146 8.88542,6.50521 8.53125,6.01563 M7.07813,4.84375 C7.83854,4.84375 8.44271,5.13021 8.89063,5.70313 C9.33854,6.27604 9.5625,7.03646 9.5625,7.98438 C9.5625,8.97396 9.33854,9.75521 8.89063,10.3281 C8.44271,10.901 7.83854,11.1875 7.07813,11.1875 C6.29688,11.1875 5.68229,10.901 5.23438,10.3281 C4.79688,9.75521 4.57813,8.97396 4.57813,7.98438 C4.57813,7.02604 4.80208,6.26302 5.25,5.69531 C5.69792,5.1276 6.30729,4.84375 7.07813,4.84375 M15.6719,6.35938 L15.6719,2.64063 L16.1406,2.64063 L16.1406,11 L15.6719,11 L15.6719,9.64063 C15.4427,10.1615 15.1927,10.5156 14.9219,10.7031 C14.526,11.0052 14.1458,11.1563 13.7813,11.1563 C13.0729,11.1563 12.4818,10.8672 12.0078,10.2891 C11.5339,9.71094 11.2969,8.94792 11.2969,8 C11.2969,7.05208 11.5339,6.28906 12.0078,5.71094 C12.4818,5.13281 13.0729,4.84375 13.7813,4.84375 C14.1458,4.84375 14.526,4.98958 14.9219,5.28125 C15.1927,5.47917 15.4427,5.83854 15.6719,6.35938 M12.4375,5.90625 C12.0208,6.32292 11.8125,7.02083 11.8125,8 C11.8125,8.97917 12.0208,9.67708 12.4375,10.0938 C12.8542,10.5104 13.2917,10.7188 13.75,10.7188 C14.1979,10.7188 14.6302,10.5104 15.0469,10.0938 C15.4531,9.67708 15.6563,8.97917 15.6563,8 C15.6563,7.02083 15.4531,6.32292 15.0469,5.90625 C14.6302,5.48958 14.1979,5.28125 13.75,5.28125 C13.2917,5.28125 12.8542,5.48958 12.4375,5.90625 M22.2188,6.01563 C21.8646,5.52604 21.3802,5.28125 20.7656,5.28125 C20.151,5.28125 19.6667,5.52604 19.3125,6.01563 C18.9583,6.49479 18.7813,7.15104 18.7813,7.98438 C18.7813,8.83854 18.9583,9.51042 19.3125,10 C19.6667,10.4896 20.151,10.7344 20.7656,10.7344 C21.3802,10.7344 21.8646,10.4896 22.2188,10 C22.5729,9.5 22.75,8.82813 22.75,7.98438 C22.75,7.16146 22.5729,6.50521 22.2188,6.01563 M20.7656,4.84375 C21.526,4.84375 22.1302,5.13021 22.5781,5.70313 C23.026,6.27604 23.25,7.03646 23.25,7.98438 C23.25,8.97396 23.026,9.75521 22.5781,10.3281 C22.1302,10.901 21.526,11.1875 20.7656,11.1875 C19.9844,11.1875 19.3698,10.901 18.9219,10.3281 C18.4844,9.75521 18.2656,8.97396 18.2656,7.98438 C18.2656,7.02604 18.4896,6.26302 18.9375,5.69531 C19.3854,5.1276 19.9948,4.84375 20.7656,4.84375 M29.6875,6.29688 C29.875,5.80729 30.1667,5.44271 30.5625,5.20313 C30.9479,4.96354 31.401,4.84375 31.9219,4.84375 C32.4427,4.84375 32.8594,5.02604 33.1719,5.39063 C33.4948,5.75521 33.6563,6.41667 33.6563,7.375 L33.6563,11 L33.1719,11 L33.1719,7.40625 C33.1719,6.57292 33.0573,6.01042 32.8281,5.71875 C32.599,5.42708 32.2917,5.28125 31.9063,5.28125 C31.3542,5.28125 30.8698,5.44792 30.4531,5.78125 C29.9844,6.15625 29.75,6.76042 29.75,7.59375 L29.75,11 L29.2656,11 L29.2656,7.40625 C29.2656,6.60417 29.1536,6.04948 28.9297,5.74219 C28.7057,5.4349 28.3958,5.28125 28,5.28125 C27.4479,5.28125 26.9635,5.45313 26.5469,5.79688 C26.0781,6.16146 25.8438,6.76042 25.8438,7.59375 L25.8438,11 L25.3594,11 L25.3594,4.98438 L25.8438,4.98438 L25.8438,6.10938 C26.0208,5.71354 26.2969,5.40104 26.6719,5.17188 C27.0365,4.95313 27.4896,4.84375 28.0313,4.84375 C28.3854,4.84375 28.724,4.95833 29.0469,5.1875 C29.2969,5.375 29.5104,5.74479 29.6875,6.29688 "/>
</g>

<g fill="none" stroke="#000000" stroke-opacity="1" stroke-width="1" stroke-linecap="square" stroke-linejoin="bevel" transform="matrix(2,0,0,2,44.1859,31)"
font-family="sans" font-size="11" font-weight="100" font-style="normal" 
>
</g>

<g fill="none" stroke="#000000" stroke-opacity="1" stroke-width="1" stroke-linecap="square" stroke-linejoin="bevel" transform="matrix(2,0,0,2,44.1859,31)"
font-family="Ubuntu" font-size="11" font-weight="400" font-style="normal" 
>
</g>

<g fill="none" stroke="#000000" stroke-opacity="1" stroke-width="1" stroke-linecap="square" stroke-linejoin="bevel" transform="matrix(2,0,0,2,-0.0016,189)"
font-family="Ubuntu" font-size="11" font-weight="400" font-style="normal" 
>
</g>

<g fill="none" stroke="#000000" stroke-opacity="1" stroke-width="1" stroke-linecap="square" stroke-linejoin="bevel" transform="matrix(2,0,0,2,-0.0016,189)"
font-family="Ubuntu" font-size="11" font-weight="400" font-style="normal" 
>
</g>

<g fill="none" stroke="#000000" stroke-opacity="1" stroke-width="1" stroke-linecap="square" stroke-linejoin="bevel" transform="matrix(2,0,0,2,-0.0016,189)"
font-family="Ubuntu" font-size="11" font-weight="400" font-style="normal" 
>
</g>

<g fill="none" stroke="#000000" stroke-opacity="1" stroke-width="1" stroke-linecap="square" stroke-linejoin="round" transform="matrix(2,0,0,2,-0.0016,189)"
font-family="Ubuntu" font-size="11" font-weight="400" font-style="normal" 
>
<ellipse cx="213.24" cy="-45" rx="119.74" ry="17.5"/>
</g>

<g fill="none" stroke="#000000" stroke-opacity="1" stroke-width="1" stroke-linecap="square" stroke-linejoin="bevel" transform="matrix(2,0,0,2,-0.0016,189)"
font-family="Ubuntu" font-size="11" font-weight="400" font-style="normal" 
>
</g>

<g fill="none" stroke="#000000" stroke-opacity="1" stroke-width="1" stroke-linecap="square" stroke-linejoin="bevel" transform="matrix(2,0,0,2,297.166,85)"
font-family="Ubuntu" font-size="11" font-weight="400" font-style="normal" 
>
</g>

<g fill="none" stroke="#000000" stroke-opacity="1" stroke-width="1" stroke-linecap="square" stroke-linejoin="bevel" transform="matrix(2,0,0,2,297.166,85)"
font-family="sans" font-size="11" font-weight="100" font-style="normal" 
>
</g>

<g fill="#000000" fill-opacity="1" stroke="#000000" stroke-opacity="1" stroke-width="1" stroke-linecap="square" stroke-linejoin="round" transform="matrix(2,0,0,2,297.166,85)"
font-family="sans" font-size="11" font-weight="100" font-style="normal" 
>
<path vector-effect="none" fill-rule="nonzero" d="M2.96875,2.98438 L3.53125,2.98438 L0.734375,12.0156 L0.171875,12.0156 L2.96875,2.98438 M9.0625,5.28125 L9.0625,5.79688 C8.77083,5.61979 8.52604,5.5 8.32813,5.4375 C7.99479,5.33333 7.67708,5.28125 7.375,5.28125 C6.51042,5.28125 5.89063,5.5026 5.51563,5.94531 C5.14063,6.38802 4.95313,7.07292 4.95313,8 C4.95313,8.9375 5.14063,9.6276 5.51563,10.0703 C5.89063,10.513 6.51042,10.7344 7.375,10.7344 C7.66667,10.7344 7.94792,10.6927 8.21875,10.6094 C8.51042,10.5365 8.79167,10.4219 9.0625,10.2656 L9.0625,10.7656 C8.79167,10.901 8.51042,11 8.21875,11.0625 C7.91667,11.125 7.61979,11.1563 7.32813,11.1563 C6.45313,11.1563 5.75521,10.9167 5.23438,10.4375 C4.71354,9.95833 4.45313,9.14323 4.45313,7.99219 C4.45313,6.84115 4.71354,6.02604 5.23438,5.54688 C5.75521,5.07813 6.45313,4.84375 7.32813,4.84375 C7.61979,4.84375 7.92708,4.88542 8.25,4.96875 C8.57292,5.04167 8.84375,5.14583 9.0625,5.28125 M14.5781,6.01563 C14.224,5.52604 13.7396,5.28125 13.125,5.28125 C12.5104,5.28125 12.026,5.52604 11.6719,6.01563 C11.3177,6.49479 11.1406,7.15104 11.1406,7.98438 C11.1406,8.83854 11.3177,9.51042 11.6719,10 C12.026,10.4896 12.5104,10.7344 13.125,10.7344 C13.7396,10.7344 14.224,10.4896 14.5781,10 C14.9323,9.5 15.1094,8.82813 15.1094,7.98438 C15.1094,7.16146 14.9323,6.50521 14.5781,6.01563 M13.125,4.84375 C13.8854,4.84375 14.4896,5.13021 14.9375,5.70313 C15.3854,6.27604 15.6094,7.03646 15.6094,7.98438 C15.6094,8.97396 15.3854,9.75521 14.9375,10.3281 C14.4896,10.901 13.8854,11.1875 13.125,11.1875 C12.3438,11.1875 11.7292,10.901 11.2813,10.3281 C10.8438,9.75521 10.625,8.97396 10.625,7.98438 C10.625,7.02604 10.849,6.26302 11.2969,5.69531 C11.7448,5.1276 12.3542,4.84375 13.125,4.84375 M22.2656,7.375 L22.2656,11 L21.7656,11 L21.7656,7.40625 C21.7656,6.625 21.6406,6.07552 21.3906,5.75781 C21.1406,5.4401 20.7708,5.28125 20.2813,5.28125 C19.7083,5.28125 19.224,5.45313 18.8281,5.79688 C18.4115,6.14063 18.2031,6.73958 18.2031,7.59375 L18.2031,11 L17.7188,11 L17.7188,4.98438 L18.2031,4.98438 L18.2031,6.10938 C18.3802,5.74479 18.6146,5.46875 18.9063,5.28125 C19.3229,4.98958 19.7865,4.84375 20.2969,4.84375 C20.901,4.84375 21.3802,5.04688 21.7344,5.45313 C22.0885,5.84896 22.2656,6.48958 22.2656,7.375 M25.2031,3.28125 L25.2031,4.98438 L27.2344,4.98438 L27.2344,5.40625 L25.2031,5.40625 L25.2031,9.01563 C25.2031,9.47396 25.2604,9.79688 25.375,9.98438 C25.625,10.3802 25.9844,10.5781 26.4531,10.5781 L27.2344,10.5781 L27.2344,11 L26.4688,11 C25.9792,11 25.5625,10.8568 25.2188,10.5703 C24.875,10.2839 24.7031,9.76563 24.7031,9.01563 L24.7031,5.40625 L23.9844,5.40625 L23.9844,4.98438 L24.7031,4.98438 L24.7031,3.28125 L25.2031,3.28125 M32.2656,5.40625 C32.1823,5.36458 32.0729,5.33333 31.9375,5.3125 C31.8125,5.29167 31.6615,5.28125 31.4844,5.28125 C30.8698,5.28125 30.3646,5.50521 29.9688,5.95313 C29.6458,6.31771 29.4844,6.94271 29.4844,7.82813 L29.4844,11 L29,11 L29,4.98438 L29.4844,4.98438 L29.4844,6.10938 C29.651,5.78646 29.8802,5.51563 30.1719,5.29688 C30.5677,4.99479 31.0365,4.84375 31.5781,4.84375 C31.724,4.84375 31.849,4.84896 31.9531,4.85938 C32.0573,4.85938 32.1615,4.86979 32.2656,4.89063 L32.2656,5.40625 M36.8438,6.01563 C36.4896,5.52604 36.0052,5.28125 35.3906,5.28125 C34.776,5.28125 34.2917,5.52604 33.9375,6.01563 C33.5833,6.49479 33.4063,7.15104 33.4063,7.98438 C33.4063,8.83854 33.5833,9.51042 33.9375,10 C34.2917,10.4896 34.776,10.7344 35.3906,10.7344 C36.0052,10.7344 36.4896,10.4896 36.8438,10 C37.1979,9.5 37.375,8.82813 37.375,7.98438 C37.375,7.16146 37.1979,6.50521 36.8438,6.01563 M35.3906,4.84375 C36.151,4.84375 36.7552,5.13021 37.2031,5.70313 C37.651,6.27604 37.875,7.03646 37.875,7.98438 C37.875,8.97396 37.651,9.75521 37.2031,10.3281 C36.7552,10.901 36.151,11.1875 35.3906,11.1875 C34.6094,11.1875 33.9948,10.901 33.5469,10.3281 C33.1094,9.75521 32.8906,8.97396 32.8906,7.98438 C32.8906,7.02604 33.1146,6.26302 33.5625,5.69531 C34.0104,5.1276 34.6198,4.84375 35.3906,4.84375 M39.9844,2.64063 L40.4688,2.64063 L40.4688,11 L39.9844,11 L39.9844,2.64063 M43.0313,2.64063 L43.5156,2.64063 L43.5156,11 L43.0313,11 L43.0313,2.64063 M50.7656,7.75 L50.7656,8.0625 L46.2031,8.0625 C46.2031,9.02083 46.3906,9.69792 46.7656,10.0938 C47.1823,10.5208 47.7969,10.7344 48.6094,10.7344 C48.8281,10.7344 49.1146,10.6875 49.4688,10.5938 C49.8229,10.5 50.1771,10.3594 50.5313,10.1719 L50.5313,10.6875 C50.1771,10.8438 49.8151,10.9609 49.4453,11.0391 C49.0755,11.1172 48.7813,11.1563 48.5625,11.1563 C47.6354,11.1563 46.9375,10.9063 46.4688,10.4063 C45.9583,9.875 45.7031,9.09375 45.7031,8.0625 C45.7031,6.98958 45.9323,6.1875 46.3906,5.65625 C46.8698,5.11458 47.5365,4.84375 48.3906,4.84375 C49.1719,4.84375 49.7656,5.10417 50.1719,5.625 C50.5677,6.16667 50.7656,6.875 50.7656,7.75 M50.2656,7.64063 C50.2656,6.79688 50.0729,6.18229 49.6875,5.79688 C49.375,5.45313 48.9427,5.28125 48.3906,5.28125 C47.7969,5.28125 47.2969,5.45833 46.8906,5.8125 C46.5156,6.14583 46.2917,6.75521 46.2188,7.64063 L50.2656,7.64063 M56.1094,5.40625 C56.026,5.36458 55.9167,5.33333 55.7813,5.3125 C55.6563,5.29167 55.5052,5.28125 55.3281,5.28125 C54.7135,5.28125 54.2083,5.50521 53.8125,5.95313 C53.4896,6.31771 53.3281,6.94271 53.3281,7.82813 L53.3281,11 L52.8438,11 L52.8438,4.98438 L53.3281,4.98438 L53.3281,6.10938 C53.4948,5.78646 53.724,5.51563 54.0156,5.29688 C54.4115,4.99479 54.8802,4.84375 55.4219,4.84375 C55.5677,4.84375 55.6927,4.84896 55.7969,4.85938 C55.901,4.85938 56.0052,4.86979 56.1094,4.89063 L56.1094,5.40625 M61.7188,13.1719 L61.7188,13.5938 L56,13.5938 L56,13.1719 L61.7188,13.1719 M66.2656,5.15625 L66.2656,5.70313 C65.9115,5.50521 65.6927,5.39583 65.6094,5.375 C65.3594,5.32292 65.0469,5.29167 64.6719,5.28125 C64.1094,5.28125 63.6667,5.39063 63.3438,5.60938 C63.0938,5.79688 62.9688,6.11458 62.9688,6.5625 C62.9688,6.875 63.0885,7.11458 63.3281,7.28125 C63.5677,7.46875 63.9167,7.61458 64.375,7.71875 L64.7188,7.78125 C65.2917,7.90625 65.724,8.08333 66.0156,8.3125 C66.3594,8.58333 66.5365,8.92708 66.5469,9.34375 C66.5469,9.90625 66.3802,10.349 66.0469,10.6719 C65.6927,10.9948 65.1146,11.1563 64.3125,11.1563 C63.875,11.1563 63.5417,11.125 63.3125,11.0625 C63.0313,10.9896 62.7396,10.8958 62.4375,10.7813 L62.4375,10.1563 C62.875,10.4063 63.1563,10.5521 63.2813,10.5938 C63.6354,10.6875 63.9896,10.7344 64.3438,10.7344 C64.9167,10.7344 65.3438,10.6146 65.625,10.375 C65.9063,10.125 66.0469,9.80729 66.0469,9.42188 C66.0469,9.08854 65.9531,8.84896 65.7656,8.70313 C65.4948,8.48438 65.0677,8.30729 64.4844,8.17188 L64.1406,8.09375 C63.6302,7.96875 63.2448,7.80208 62.9844,7.59375 C62.651,7.32292 62.4844,6.99479 62.4844,6.60938 C62.4844,5.98438 62.6849,5.53385 63.0859,5.25781 C63.487,4.98177 63.9792,4.84375 64.5625,4.84375 C65.0625,4.84375 65.4063,4.86979 65.5938,4.92188 C65.8229,4.98438 66.0469,5.0625 66.2656,5.15625 M73.2656,7.75 L73.2656,8.0625 L68.7031,8.0625 C68.7031,9.02083 68.8906,9.69792 69.2656,10.0938 C69.6823,10.5208 70.2969,10.7344 71.1094,10.7344 C71.3281,10.7344 71.6146,10.6875 71.9688,10.5938 C72.3229,10.5 72.6771,10.3594 73.0313,10.1719 L73.0313,10.6875 C72.6771,10.8438 72.3151,10.9609 71.9453,11.0391 C71.5755,11.1172 71.2813,11.1563 71.0625,11.1563 C70.1354,11.1563 69.4375,10.9063 68.9688,10.4063 C68.4583,9.875 68.2031,9.09375 68.2031,8.0625 C68.2031,6.98958 68.4323,6.1875 68.8906,5.65625 C69.3698,5.11458 70.0365,4.84375 70.8906,4.84375 C71.6719,4.84375 72.2656,5.10417 72.6719,5.625 C73.0677,6.16667 73.2656,6.875 73.2656,7.75 M72.7656,7.64063 C72.7656,6.79688 72.5729,6.18229 72.1875,5.79688 C71.875,5.45313 71.4427,5.28125 70.8906,5.28125 C70.2969,5.28125 69.7969,5.45833 69.3906,5.8125 C69.0156,6.14583 68.7917,6.75521 68.7188,7.64063 L72.7656,7.64063 M78.6094,5.40625 C78.526,5.36458 78.4167,5.33333 78.2813,5.3125 C78.1563,5.29167 78.0052,5.28125 77.8281,5.28125 C77.2135,5.28125 76.7083,5.50521 76.3125,5.95313 C75.9896,6.31771 75.8281,6.94271 75.8281,7.82813 L75.8281,11 L75.3438,11 L75.3438,4.98438 L75.8281,4.98438 L75.8281,6.10938 C75.9948,5.78646 76.224,5.51563 76.5156,5.29688 C76.9115,4.99479 77.3802,4.84375 77.9219,4.84375 C78.0677,4.84375 78.1927,4.84896 78.2969,4.85938 C78.401,4.85938 78.5052,4.86979 78.6094,4.89063 L78.6094,5.40625 M79.3125,4.98438 L79.8281,4.98438 L81.8594,10.4531 L83.9063,4.98438 L84.4219,4.98438 L82.1875,11 L81.5469,11 L79.3125,4.98438 M91.0469,7.75 L91.0469,8.0625 L86.4844,8.0625 C86.4844,9.02083 86.6719,9.69792 87.0469,10.0938 C87.4635,10.5208 88.0781,10.7344 88.8906,10.7344 C89.1094,10.7344 89.3958,10.6875 89.75,10.5938 C90.1042,10.5 90.4583,10.3594 90.8125,10.1719 L90.8125,10.6875 C90.4583,10.8438 90.0964,10.9609 89.7266,11.0391 C89.3568,11.1172 89.0625,11.1563 88.8438,11.1563 C87.9167,11.1563 87.2188,10.9063 86.75,10.4063 C86.2396,9.875 85.9844,9.09375 85.9844,8.0625 C85.9844,6.98958 86.2135,6.1875 86.6719,5.65625 C87.151,5.11458 87.8177,4.84375 88.6719,4.84375 C89.4531,4.84375 90.0469,5.10417 90.4531,5.625 C90.849,6.16667 91.0469,6.875 91.0469,7.75 M90.5469,7.64063 C90.5469,6.79688 90.3542,6.18229 89.9688,5.79688 C89.6563,5.45313 89.224,5.28125 88.6719,5.28125 C88.0781,5.28125 87.5781,5.45833 87.1719,5.8125 C86.7969,6.14583 86.5729,6.75521 86.5,7.64063 L90.5469,7.64063 M96.3906,5.40625 C96.3073,5.36458 96.1979,5.33333 96.0625,5.3125 C95.9375,5.29167 95.7865,5.28125 95.6094,5.28125 C94.9948,5.28125 94.4896,5.50521 94.0938,5.95313 C93.7708,6.31771 93.6094,6.94271 93.6094,7.82813 L93.6094,11 L93.125,11 L93.125,4.98438 L93.6094,4.98438 L93.6094,6.10938 C93.776,5.78646 94.0052,5.51563 94.2969,5.29688 C94.6927,4.99479 95.1615,4.84375 95.7031,4.84375 C95.849,4.84375 95.974,4.84896 96.0781,4.85938 C96.1823,4.85938 96.2865,4.86979 96.3906,4.89063 L96.3906,5.40625 M102,13.1719 L102,13.5938 L96.2813,13.5938 L96.2813,13.1719 L102,13.1719 M107.688,7.375 L107.688,11 L107.188,11 L107.188,7.40625 C107.188,6.625 107.063,6.07552 106.813,5.75781 C106.563,5.4401 106.193,5.28125 105.703,5.28125 C105.13,5.28125 104.646,5.45313 104.25,5.79688 C103.833,6.14063 103.625,6.73958 103.625,7.59375 L103.625,11 L103.141,11 L103.141,4.98438 L103.625,4.98438 L103.625,6.10938 C103.802,5.74479 104.036,5.46875 104.328,5.28125 C104.745,4.98958 105.208,4.84375 105.719,4.84375 C106.323,4.84375 106.802,5.04688 107.156,5.45313 C107.51,5.84896 107.688,6.48958 107.688,7.375 M113.688,6.01563 C113.333,5.52604 112.849,5.28125 112.234,5.28125 C111.62,5.28125 111.135,5.52604 110.781,6.01563 C110.427,6.49479 110.25,7.15104 110.25,7.98438 C110.25,8.83854 110.427,9.51042 110.781,10 C111.135,10.4896 111.62,10.7344 112.234,10.7344 C112.849,10.7344 113.333,10.4896 113.688,10 C114.042,9.5 114.219,8.82813 114.219,7.98438 C114.219,7.16146 114.042,6.50521 113.688,6.01563 M112.234,4.84375 C112.995,4.84375 113.599,5.13021 114.047,5.70313 C114.495,6.27604 114.719,7.03646 114.719,7.98438 C114.719,8.97396 114.495,9.75521 114.047,10.3281 C113.599,10.901 112.995,11.1875 112.234,11.1875 C111.453,11.1875 110.839,10.901 110.391,10.3281 C109.953,9.75521 109.734,8.97396 109.734,7.98438 C109.734,7.02604 109.958,6.26302 110.406,5.69531 C110.854,5.1276 111.464,4.84375 112.234,4.84375 M120.828,6.35938 L120.828,2.64063 L121.297,2.64063 L121.297,11 L120.828,11 L120.828,9.64063 C120.599,10.1615 120.349,10.5156 120.078,10.7031 C119.682,11.0052 119.302,11.1563 118.938,11.1563 C118.229,11.1563 117.638,10.8672 117.164,10.2891 C116.69,9.71094 116.453,8.94792 116.453,8 C116.453,7.05208 116.69,6.28906 117.164,5.71094 C117.638,5.13281 118.229,4.84375 118.938,4.84375 C119.302,4.84375 119.682,4.98958 120.078,5.28125 C120.349,5.47917 120.599,5.83854 120.828,6.35938 M117.594,5.90625 C117.177,6.32292 116.969,7.02083 116.969,8 C116.969,8.97917 117.177,9.67708 117.594,10.0938 C118.01,10.5104 118.448,10.7188 118.906,10.7188 C119.354,10.7188 119.786,10.5104 120.203,10.0938 C120.609,9.67708 120.813,8.97917 120.813,8 C120.813,7.02083 120.609,6.32292 120.203,5.90625 C119.786,5.48958 119.354,5.28125 118.906,5.28125 C118.448,5.28125 118.01,5.48958 117.594,5.90625 M128.484,7.75 L128.484,8.0625 L123.922,8.0625 C123.922,9.02083 124.109,9.69792 124.484,10.0938 C124.901,10.5208 125.516,10.7344 126.328,10.7344 C126.547,10.7344 126.833,10.6875 127.188,10.5938 C127.542,10.5 127.896,10.3594 128.25,10.1719 L128.25,10.6875 C127.896,10.8438 127.534,10.9609 127.164,11.0391 C126.794,11.1172 126.5,11.1563 126.281,11.1563 C125.354,11.1563 124.656,10.9063 124.188,10.4063 C123.677,9.875 123.422,9.09375 123.422,8.0625 C123.422,6.98958 123.651,6.1875 124.109,5.65625 C124.589,5.11458 125.255,4.84375 126.109,4.84375 C126.891,4.84375 127.484,5.10417 127.891,5.625 C128.286,6.16667 128.484,6.875 128.484,7.75 M127.984,7.64063 C127.984,6.79688 127.792,6.18229 127.406,5.79688 C127.094,5.45313 126.661,5.28125 126.109,5.28125 C125.516,5.28125 125.016,5.45833 124.609,5.8125 C124.234,6.14583 124.01,6.75521 123.938,7.64063 L127.984,7.64063"/>
</g>

<g fill="none" stroke="#000000" stroke-opacity="1" stroke-width="1" stroke-linecap="square" stroke-linejoin="bevel" transform="matrix(2,0,0,2,297.166,85)"
font-family="sans" font-size="11" font-weight="100" font-style="normal" 
>
</g>

<g fill="none" stroke="#000000" stroke-opacity="1" stroke-width="1" stroke-linecap="square" stroke-linejoin="bevel" transform="matrix(2,0,0,2,297.166,85)"
font-family="Ubuntu" font-size="11" font-weight="400" font-style="normal" 
>
</g>

<g fill="none" stroke="#000000" stroke-opacity="1" stroke-width="1" stroke-linecap="square" stroke-linejoin="bevel" transform="matrix(2,0,0,2,-0.0016,189)"
font-family="Ubuntu" font-size="11" font-weight="400" font-style="normal" 
>
</g>

<g fill="none" stroke="#000000" stroke-opacity="1" stroke-width="1" stroke-linecap="square" stroke-linejoin="bevel" transform="matrix(2,0,0,2,-0.0016,189)"
font-family="Ubuntu" font-size="11" font-weight="400" font-style="normal" 
>
</g>

<g fill="none" stroke="#000000" stroke-opacity="1" stroke-width="1" stroke-linecap="square" stroke-linejoin="bevel" transform="matrix(2,0,0,2,-0.0016,189)"
font-family="Ubuntu" font-size="11" font-weight="400" font-style="normal" 
>
</g>

<g fill="none" stroke="#000000" stroke-opacity="1" stroke-width="1" stroke-linecap="square" stroke-linejoin="round" transform="matrix(2,0,0,2,-0.0016,189)"
font-family="Ubuntu" font-size="11" font-weight="400" font-style="normal" 
>
<rect x="0.5008" y="-35.5" width="77.9984" height="35"/>
</g>

<g fill="none" stroke="#000000" stroke-opacity="1" stroke-width="1" stroke-linecap="square" stroke-linejoin="bevel" transform="matrix(2,0,0,2,-0.0016,189)"
font-family="Ubuntu" font-size="11" font-weight="400" font-style="normal" 
>
</g>

<g fill="none" stroke="#000000" stroke-opacity="1" stroke-width="1" stroke-linecap="square" stroke-linejoin="bevel" transform="matrix(2,0,0,2,29.764,139)"
font-family="Ubuntu" font-size="11" font-weight="400" font-style="normal" 
>
</g>

<g fill="none" stroke="#000000" stroke-opacity="1" stroke-width="1" stroke-linecap="square" stroke-linejoin="bevel" transform="matrix(2,0,0,2,29.764,139)"
font-family="sans" font-size="11" font-weight="100" font-style="normal" 
>
</g>

<g fill="#000000" fill-opacity="1" stroke="#000000" stroke-opacity="1" stroke-width="1" stroke-linecap="square" stroke-linejoin="round" transform="matrix(2,0,0,2,29.764,139)"
font-family="sans" font-size="11" font-weight="100" font-style="normal" 
>
<path vector-effect="none" fill-rule="nonzero" d="M2.96875,2.98438 L3.53125,2.98438 L0.734375,12.0156 L0.171875,12.0156 L2.96875,2.98438 M9.0625,5.28125 L9.0625,5.79688 C8.77083,5.61979 8.52604,5.5 8.32813,5.4375 C7.99479,5.33333 7.67708,5.28125 7.375,5.28125 C6.51042,5.28125 5.89063,5.5026 5.51563,5.94531 C5.14063,6.38802 4.95313,7.07292 4.95313,8 C4.95313,8.9375 5.14063,9.6276 5.51563,10.0703 C5.89063,10.513 6.51042,10.7344 7.375,10.7344 C7.66667,10.7344 7.94792,10.6927 8.21875,10.6094 C8.51042,10.5365 8.79167,10.4219 9.0625,10.2656 L9.0625,10.7656 C8.79167,10.901 8.51042,11 8.21875,11.0625 C7.91667,11.125 7.61979,11.1563 7.32813,11.1563 C6.45313,11.1563 5.75521,10.9167 5.23438,10.4375 C4.71354,9.95833 4.45313,9.14323 4.45313,7.99219 C4.45313,6.84115 4.71354,6.02604 5.23438,5.54688 C5.75521,5.07813 6.45313,4.84375 7.32813,4.84375 C7.61979,4.84375 7.92708,4.88542 8.25,4.96875 C8.57292,5.04167 8.84375,5.14583 9.0625,5.28125 M15.3281,6.29688 C15.5156,5.80729 15.8073,5.44271 16.2031,5.20313 C16.5885,4.96354 17.0417,4.84375 17.5625,4.84375 C18.0833,4.84375 18.5,5.02604 18.8125,5.39063 C19.1354,5.75521 19.2969,6.41667 19.2969,7.375 L19.2969,11 L18.8125,11 L18.8125,7.40625 C18.8125,6.57292 18.6979,6.01042 18.4688,5.71875 C18.2396,5.42708 17.9323,5.28125 17.5469,5.28125 C16.9948,5.28125 16.5104,5.44792 16.0938,5.78125 C15.625,6.15625 15.3906,6.76042 15.3906,7.59375 L15.3906,11 L14.9063,11 L14.9063,7.40625 C14.9063,6.60417 14.7943,6.04948 14.5703,5.74219 C14.3464,5.4349 14.0365,5.28125 13.6406,5.28125 C13.0885,5.28125 12.6042,5.45313 12.1875,5.79688 C11.7188,6.16146 11.4844,6.76042 11.4844,7.59375 L11.4844,11 L11,11 L11,4.98438 L11.4844,4.98438 L11.4844,6.10938 C11.6615,5.71354 11.9375,5.40104 12.3125,5.17188 C12.6771,4.95313 13.1302,4.84375 13.6719,4.84375 C14.026,4.84375 14.3646,4.95833 14.6875,5.1875 C14.9375,5.375 15.151,5.74479 15.3281,6.29688 M25.7031,6.35938 L25.7031,2.64063 L26.1719,2.64063 L26.1719,11 L25.7031,11 L25.7031,9.64063 C25.474,10.1615 25.224,10.5156 24.9531,10.7031 C24.5573,11.0052 24.1771,11.1563 23.8125,11.1563 C23.1042,11.1563 22.513,10.8672 22.0391,10.2891 C21.5651,9.71094 21.3281,8.94792 21.3281,8 C21.3281,7.05208 21.5651,6.28906 22.0391,5.71094 C22.513,5.13281 23.1042,4.84375 23.8125,4.84375 C24.1771,4.84375 24.5573,4.98958 24.9531,5.28125 C25.224,5.47917 25.474,5.83854 25.7031,6.35938 M22.4688,5.90625 C22.0521,6.32292 21.8438,7.02083 21.8438,8 C21.8438,8.97917 22.0521,9.67708 22.4688,10.0938 C22.8854,10.5104 23.3229,10.7188 23.7813,10.7188 C24.2292,10.7188 24.6615,10.5104 25.0781,10.0938 C25.4844,9.67708 25.6875,8.97917 25.6875,8 C25.6875,7.02083 25.4844,6.32292 25.0781,5.90625 C24.6615,5.48958 24.2292,5.28125 23.7813,5.28125 C23.3229,5.28125 22.8854,5.48958 22.4688,5.90625 M33.0313,13.1719 L33.0313,13.5938 L27.3125,13.5938 L27.3125,13.1719 L33.0313,13.1719 M33.625,4.98438 L34.1406,4.98438 L36.1719,10.4531 L38.2188,4.98438 L38.7344,4.98438 L36.5,11 L35.8594,11 L33.625,4.98438 M45.3594,7.75 L45.3594,8.0625 L40.7969,8.0625 C40.7969,9.02083 40.9844,9.69792 41.3594,10.0938 C41.776,10.5208 42.3906,10.7344 43.2031,10.7344 C43.4219,10.7344 43.7083,10.6875 44.0625,10.5938 C44.4167,10.5 44.7708,10.3594 45.125,10.1719 L45.125,10.6875 C44.7708,10.8438 44.4089,10.9609 44.0391,11.0391 C43.6693,11.1172 43.375,11.1563 43.1563,11.1563 C42.2292,11.1563 41.5313,10.9063 41.0625,10.4063 C40.5521,9.875 40.2969,9.09375 40.2969,8.0625 C40.2969,6.98958 40.526,6.1875 40.9844,5.65625 C41.4635,5.11458 42.1302,4.84375 42.9844,4.84375 C43.7656,4.84375 44.3594,5.10417 44.7656,5.625 C45.1615,6.16667 45.3594,6.875 45.3594,7.75 M44.8594,7.64063 C44.8594,6.79688 44.6667,6.18229 44.2813,5.79688 C43.9688,5.45313 43.5365,5.28125 42.9844,5.28125 C42.3906,5.28125 41.8906,5.45833 41.4844,5.8125 C41.1094,6.14583 40.8854,6.75521 40.8125,7.64063 L44.8594,7.64063 M47.4375,2.64063 L47.9219,2.64063 L47.9219,11 L47.4375,11 L47.4375,2.64063"/>
</g>

<g fill="none" stroke="#000000" stroke-opacity="1" stroke-width="1" stroke-linecap="square" stroke-linejoin="bevel" transform="matrix(2,0,0,2,29.764,139)"
font-family="sans" font-size="11" font-weight="100" font-style="normal" 
>
</g>

<g fill="none" stroke="#000000" stroke-opacity="1" stroke-width="1" stroke-linecap="square" stroke-linejoin="bevel" transform="matrix(2,0,0,2,29.764,139)"
font-family="Ubuntu" font-size="11" font-weight="400" font-style="normal" 
>
</g>

<g fill="none" stroke="#000000" stroke-opacity="1" stroke-width="1" stroke-linecap="square" stroke-linejoin="bevel" transform="matrix(2,0,0,2,-0.0016,189)"
font-family="Ubuntu" font-size="11" font-weight="400" font-style="normal" 
>
</g>

<g fill="none" stroke="#000000" stroke-opacity="1" stroke-width="1" stroke-linecap="square" stroke-linejoin="bevel" transform="matrix(2,0,0,2,-0.0016,189)"
font-family="Ubuntu" font-size="11" font-weight="400" font-style="normal" 
>
</g>

<g fill="none" stroke="#000000" stroke-opacity="1" stroke-width="1" stroke-linecap="square" stroke-linejoin="bevel" transform="matrix(2,0,0,2,-0.0016,189)"
font-family="Ubuntu" font-size="11" font-weight="400" font-style="normal" 
>
</g>

<g fill="none" stroke="#000000" stroke-opacity="1" stroke-width="1" stroke-linecap="square" stroke-linejoin="round" transform="matrix(2,0,0,2,-0.0016,189)"
font-family="Ubuntu" font-size="11" font-weight="400" font-style="normal" 
>
<path vector-effect="none" fill-rule="evenodd" d="M69.633,-67.42 C83.683,-65.211 101.4,-62.425 119.53,-59.576 "/>
</g>

<g fill="none" stroke="#000000" stroke-opacity="1" stroke-width="1" stroke-linecap="square" stroke-linejoin="bevel" transform="matrix(2,0,0,2,-0.0016,189)"
font-family="Ubuntu" font-size="11" font-weight="400" font-style="normal" 
>
</g>

<g fill="none" stroke="#000000" stroke-opacity="1" stroke-width="1" stroke-linecap="square" stroke-linejoin="bevel" transform="matrix(2,0,0,2,-0.0016,189)"
font-family="Ubuntu" font-size="11" font-weight="400" font-style="normal" 
>
</g>

<g fill="#000000" fill-opacity="1" stroke="#000000" stroke-opacity="1" stroke-width="1" stroke-linecap="square" stroke-linejoin="round" transform="matrix(2,0,0,2,-0.0016,189)"
font-family="Ubuntu" font-size="11" font-weight="400" font-style="normal" 
>
<path vector-effect="none" fill-rule="evenodd" d="M119.53,-59.576 L118.975,-56.0445 L129.62,-57.989 L120.085,-63.1075 L119.53,-59.576"/>
</g>

<g fill="none" stroke="#000000" stroke-opacity="1" stroke-width="1" stroke-linecap="square" stroke-linejoin="bevel" transform="matrix(2,0,0,2,-0.0016,189)"
font-family="Ubuntu" font-size="11" font-weight="400" font-style="normal" 
>
</g>

<g fill="none" stroke="#000000" stroke-opacity="1" stroke-width="1" stroke-linecap="square" stroke-linejoin="bevel" transform="matrix(2,0,0,2,-0.0016,189)"
font-family="Ubuntu" font-size="11" font-weight="400" font-style="normal" 
>
</g>

<g fill="none" stroke="#000000" stroke-opacity="1" stroke-width="1" stroke-linecap="square" stroke-linejoin="bevel" transform="matrix(2,0,0,2,-0.0016,189)"
font-family="Ubuntu" font-size="11" font-weight="400" font-style="normal" 
>
</g>

<g fill="none" stroke="#000000" stroke-opacity="1" stroke-width="1" stroke-linecap="square" stroke-linejoin="bevel" transform="matrix(2,0,0,2,-0.0016,189)"
font-family="Ubuntu" font-size="11" font-weight="400" font-style="normal" 
>
</g>

<g fill="none" stroke="#000000" stroke-opacity="1" stroke-width="1" stroke-linecap="square" stroke-linejoin="round" transform="matrix(2,0,0,2,-0.0016,189)"
font-family="Ubuntu" font-size="11" font-weight="400" font-style="normal" 
>
<path vector-effect="none" fill-rule="evenodd" d="M79.042,-24.059 C91.255,-25.979 105.33,-28.192 119.65,-30.443 "/>
</g>

<g fill="none" stroke="#000000" stroke-opacity="1" stroke-width="1" stroke-linecap="square" stroke-linejoin="bevel" transform="matrix(2,0,0,2,-0.0016,189)"
font-family="Ubuntu" font-size="11" font-weight="400" font-style="normal" 
>
</g>

<g fill="none" stroke="#000000" stroke-opacity="1" stroke-width="1" stroke-linecap="square" stroke-linejoin="bevel" transform="matrix(2,0,0,2,-0.0016,189)"
font-family="Ubuntu" font-size="11" font-weight="400" font-style="normal" 
>
</g>

<g fill="#000000" fill-opacity="1" stroke="#000000" stroke-opacity="1" stroke-width="1" stroke-linecap="square" stroke-linejoin="round" transform="matrix(2,0,0,2,-0.0016,189)"
font-family="Ubuntu" font-size="11" font-weight="400" font-style="normal" 
>
<path vector-effect="none" fill-rule="evenodd" d="M119.65,-30.443 L120.197,-26.9675 L129.58,-32.005 L119.103,-33.9185 L119.65,-30.443"/>
</g>

<g fill="none" stroke="#000000" stroke-opacity="1" stroke-width="1" stroke-linecap="square" stroke-linejoin="bevel" transform="matrix(2,0,0,2,-0.0016,189)"
font-family="Ubuntu" font-size="11" font-weight="400" font-style="normal" 
>
</g>

<g fill="none" stroke="#000000" stroke-opacity="1" stroke-width="1" stroke-linecap="square" stroke-linejoin="bevel" transform="matrix(2,0,0,2,-0.0016,189)"
font-family="Ubuntu" font-size="11" font-weight="400" font-style="normal" 
>
</g>

<g fill="none" stroke="#000000" stroke-opacity="1" stroke-width="1" stroke-linecap="square" stroke-linejoin="bevel" transform="matrix(2,0,0,2,-0.0016,189)"
font-family="Ubuntu" font-size="11" font-weight="400" font-style="normal" 
>
</g>

<g fill="none" stroke="#000000" stroke-opacity="1" stroke-width="1" stroke-linecap="square" stroke-linejoin="bevel" transform="matrix(2,0,0,2,-0.0016,189)"
font-family="Ubuntu" font-size="11" font-weight="400" font-style="normal" 
>
</g>

<g fill="none" stroke="#000000" stroke-opacity="1" stroke-width="1" stroke-linecap="square" stroke-linejoin="round" transform="matrix(2,0,0,2,-0.0016,189)"
font-family="Ubuntu" font-size="11" font-weight="400" font-style="normal" 
>
<path vector-effect="none" fill-rule="evenodd" d="M333.52,-45 C335.37,-45 337.2,-45 339.01,-45 "/>
</g>

<g fill="none" stroke="#000000" stroke-opacity="1" stroke-width="1" stroke-linecap="square" stroke-linejoin="bevel" transform="matrix(2,0,0,2,-0.0016,189)"
font-family="Ubuntu" font-size="11" font-weight="400" font-style="normal" 
>
</g>

<g fill="none" stroke="#000000" stroke-opacity="1" stroke-width="1" stroke-linecap="square" stroke-linejoin="bevel" transform="matrix(2,0,0,2,-0.0016,189)"
font-family="Ubuntu" font-size="11" font-weight="400" font-style="normal" 
>
</g>

<g fill="#000000" fill-opacity="1" stroke="#000000" stroke-opacity="1" stroke-width="1" stroke-linecap="square" stroke-linejoin="round" transform="matrix(2,0,0,2,-0.0016,189)"
font-family="Ubuntu" font-size="11" font-weight="400" font-style="normal" 
>
<path vector-effect="none" fill-rule="evenodd" d="M339.01,-45 L339.01,-41.409 L349.27,-45 L339.01,-48.591 L339.01,-45"/>
</g>

<g fill="none" stroke="#000000" stroke-opacity="1" stroke-width="1" stroke-linecap="square" stroke-linejoin="bevel" transform="matrix(2,0,0,2,-0.0016,189)"
font-family="Ubuntu" font-size="11" font-weight="400" font-style="normal" 
>
</g>

<g fill="none" stroke="#000000" stroke-opacity="1" stroke-width="1" stroke-linecap="square" stroke-linejoin="bevel" transform="matrix(1,0,0,1,0,0)"
font-family="Ubuntu" font-size="11" font-weight="400" font-style="normal" 
>
</g>
</g>
</svg>
