<?xml version="1.0" encoding="UTF-8" standalone="no"?>
<svg width="158.044mm" height="53.6222mm"
 xmlns="http://www.w3.org/2000/svg" xmlns:xlink="http://www.w3.org/1999/xlink"  version="1.2" baseProfile="tiny">
<title>Qt SVG Document</title>
<desc>Generated with Qt</desc>
<defs>
</defs>
<g fill="none" stroke="black" stroke-width="1" fill-rule="evenodd" stroke-linecap="square" stroke-linejoin="bevel" >

<g fill="none" stroke="#000000" stroke-opacity="1" stroke-width="1" stroke-linecap="square" stroke-linejoin="bevel" transform="matrix(1,0,0,1,0,0)"
font-family="Ubuntu" font-size="11" font-weight="400" font-style="normal" 
>
</g>

<g fill="none" stroke="#000000" stroke-opacity="1" stroke-width="1" stroke-linecap="square" stroke-linejoin="bevel" transform="matrix(1,0,0,1,0,0)"
font-family="Ubuntu" font-size="11" font-weight="400" font-style="normal" 
>
</g>

<g fill="none" stroke="#000000" stroke-opacity="1" stroke-width="1" stroke-linecap="square" stroke-linejoin="bevel" transform="matrix(1.99831,0,0,1.99831,-0.000399661,166.859)"
font-family="Ubuntu" font-size="11" font-weight="400" font-style="normal" 
>
</g>

<g fill="#ffffff" fill-opacity="1" stroke="none" transform="matrix(1.99831,0,0,1.99831,-0.000399661,166.859)"
font-family="Ubuntu" font-size="11" font-weight="400" font-style="normal" 
>
<rect x="0.0002" y="-83.5" width="224.19" height="76"/>
</g>

<g fill="none" stroke="#000000" stroke-opacity="1" stroke-width="1" stroke-linecap="square" stroke-linejoin="bevel" transform="matrix(1.99831,0,0,1.99831,-0.000399661,166.859)"
font-family="Ubuntu" font-size="11" font-weight="400" font-style="normal" 
>
</g>

<g fill="none" stroke="#000000" stroke-opacity="1" stroke-width="1" stroke-linecap="square" stroke-linejoin="bevel" transform="matrix(1.99831,0,0,1.99831,-0.000399661,166.859)"
font-family="Ubuntu" font-size="11" font-weight="400" font-style="normal" 
>
</g>

<g fill="none" stroke="#000000" stroke-opacity="1" stroke-width="1" stroke-linecap="square" stroke-linejoin="bevel" transform="matrix(1.99831,0,0,1.99831,-0.000399661,166.859)"
font-family="Ubuntu" font-size="11" font-weight="400" font-style="normal" 
>
</g>

<g fill="none" stroke="#000000" stroke-opacity="1" stroke-width="1" stroke-linecap="square" stroke-linejoin="bevel" transform="matrix(1.99831,0,0,1.99831,-0.000399661,166.859)"
font-family="Ubuntu" font-size="11" font-weight="400" font-style="normal" 
>
</g>

<g fill="none" stroke="#000000" stroke-opacity="1" stroke-width="1" stroke-linecap="square" stroke-linejoin="round" transform="matrix(1.99831,0,0,1.99831,-0.000399661,166.859)"
font-family="Ubuntu" font-size="11" font-weight="400" font-style="normal" 
>
<rect x="123.69" y="-83" width="100" height="75"/>
</g>

<g fill="none" stroke="#000000" stroke-opacity="1" stroke-width="1" stroke-linecap="square" stroke-linejoin="bevel" transform="matrix(1.99831,0,0,1.99831,-0.000399661,166.859)"
font-family="Ubuntu" font-size="11" font-weight="400" font-style="normal" 
>
</g>

<g fill="none" stroke="#000000" stroke-opacity="1" stroke-width="1" stroke-linecap="square" stroke-linejoin="bevel" transform="matrix(1.99831,0,0,1.99831,322.684,9.99153)"
font-family="Ubuntu" font-size="11" font-weight="400" font-style="normal" 
>
</g>

<g fill="none" stroke="#000000" stroke-opacity="1" stroke-width="1" stroke-linecap="square" stroke-linejoin="bevel" transform="matrix(1.99831,0,0,1.99831,322.684,9.99153)"
font-family="sans" font-size="11" font-weight="100" font-style="normal" 
>
</g>

<g fill="#000000" fill-opacity="1" stroke="#000000" stroke-opacity="1" stroke-width="1" stroke-linecap="square" stroke-linejoin="round" transform="matrix(1.99831,0,0,1.99831,322.684,9.99153)"
font-family="sans" font-size="11" font-weight="100" font-style="normal" 
>
<path vector-effect="none" fill-rule="nonzero" d="M2.96875,2.98438 L3.53125,2.98438 L0.734375,12.0156 L0.171875,12.0156 L2.96875,2.98438 M4.9375,4.98438 L5.4375,4.98438 L5.4375,11 L4.9375,11 L4.9375,4.98438 M4.9375,2.64063 L5.4375,2.64063 L5.4375,3.3125 L4.9375,3.3125 L4.9375,2.64063 M12.3281,6.29688 C12.5156,5.80729 12.8073,5.44271 13.2031,5.20313 C13.5885,4.96354 14.0417,4.84375 14.5625,4.84375 C15.0833,4.84375 15.5,5.02604 15.8125,5.39063 C16.1354,5.75521 16.2969,6.41667 16.2969,7.375 L16.2969,11 L15.8125,11 L15.8125,7.40625 C15.8125,6.57292 15.6979,6.01042 15.4688,5.71875 C15.2396,5.42708 14.9323,5.28125 14.5469,5.28125 C13.9948,5.28125 13.5104,5.44792 13.0938,5.78125 C12.625,6.15625 12.3906,6.76042 12.3906,7.59375 L12.3906,11 L11.9063,11 L11.9063,7.40625 C11.9063,6.60417 11.7943,6.04948 11.5703,5.74219 C11.3464,5.4349 11.0365,5.28125 10.6406,5.28125 C10.0885,5.28125 9.60417,5.45313 9.1875,5.79688 C8.71875,6.16146 8.48438,6.76042 8.48438,7.59375 L8.48438,11 L8,11 L8,4.98438 L8.48438,4.98438 L8.48438,6.10938 C8.66146,5.71354 8.9375,5.40104 9.3125,5.17188 C9.67708,4.95313 10.1302,4.84375 10.6719,4.84375 C11.026,4.84375 11.3646,4.95833 11.6875,5.1875 C11.9375,5.375 12.151,5.74479 12.3281,6.29688 M18.6406,8.60938 L18.6406,4.98438 L19.125,4.98438 L19.125,8.57813 C19.125,9.35938 19.25,9.90885 19.5,10.2266 C19.75,10.5443 20.1198,10.7031 20.6094,10.7031 C21.1823,10.7031 21.6719,10.5313 22.0781,10.1875 C22.4844,9.84375 22.6875,9.24479 22.6875,8.39063 L22.6875,4.98438 L23.1719,4.98438 L23.1719,11 L22.6875,11 L22.6875,9.875 C22.5104,10.2396 22.276,10.5156 21.9844,10.7031 C21.5677,10.9948 21.1042,11.1406 20.5938,11.1406 C20,11.1406 19.526,10.9375 19.1719,10.5313 C18.8177,10.1354 18.6406,9.49479 18.6406,8.60938 "/>
</g>

<g fill="none" stroke="#000000" stroke-opacity="1" stroke-width="1" stroke-linecap="square" stroke-linejoin="bevel" transform="matrix(1.99831,0,0,1.99831,322.684,9.99153)"
font-family="sans" font-size="11" font-weight="100" font-style="normal" 
>
</g>

<g fill="none" stroke="#000000" stroke-opacity="1" stroke-width="1" stroke-linecap="square" stroke-linejoin="bevel" transform="matrix(1.99831,0,0,1.99831,322.684,9.99153)"
font-family="Ubuntu" font-size="11" font-weight="400" font-style="normal" 
>
</g>

<g fill="none" stroke="#000000" stroke-opacity="1" stroke-width="1" stroke-linecap="square" stroke-linejoin="bevel" transform="matrix(1.99831,0,0,1.99831,-0.000399661,166.859)"
font-family="Ubuntu" font-size="11" font-weight="400" font-style="normal" 
>
</g>

<g fill="none" stroke="#000000" stroke-opacity="1" stroke-width="1" stroke-linecap="square" stroke-linejoin="bevel" transform="matrix(1.99831,0,0,1.99831,-0.000399661,166.859)"
font-family="Ubuntu" font-size="11" font-weight="400" font-style="normal" 
>
</g>

<g fill="none" stroke="#000000" stroke-opacity="1" stroke-width="1" stroke-linecap="square" stroke-linejoin="bevel" transform="matrix(1.99831,0,0,1.99831,-0.000399661,166.859)"
font-family="Ubuntu" font-size="11" font-weight="400" font-style="normal" 
>
</g>

<g fill="none" stroke="#000000" stroke-opacity="1" stroke-width="1" stroke-linecap="square" stroke-linejoin="round" transform="matrix(1.99831,0,0,1.99831,-0.000399661,166.859)"
font-family="Ubuntu" font-size="11" font-weight="400" font-style="normal" 
>
<rect x="132.189" y="-51.5" width="83.0024" height="35"/>
</g>

<g fill="none" stroke="#000000" stroke-opacity="1" stroke-width="1" stroke-linecap="square" stroke-linejoin="bevel" transform="matrix(1.99831,0,0,1.99831,-0.000399661,166.859)"
font-family="Ubuntu" font-size="11" font-weight="400" font-style="normal" 
>
</g>

<g fill="none" stroke="#000000" stroke-opacity="1" stroke-width="1" stroke-linecap="square" stroke-linejoin="bevel" transform="matrix(1.99831,0,0,1.99831,294.255,84.928)"
font-family="Ubuntu" font-size="11" font-weight="400" font-style="normal" 
>
</g>

<g fill="none" stroke="#000000" stroke-opacity="1" stroke-width="1" stroke-linecap="square" stroke-linejoin="bevel" transform="matrix(1.99831,0,0,1.99831,294.255,84.928)"
font-family="sans" font-size="11" font-weight="100" font-style="normal" 
>
</g>

<g fill="#000000" fill-opacity="1" stroke="#000000" stroke-opacity="1" stroke-width="1" stroke-linecap="square" stroke-linejoin="round" transform="matrix(1.99831,0,0,1.99831,294.255,84.928)"
font-family="sans" font-size="11" font-weight="100" font-style="normal" 
>
<path vector-effect="none" fill-rule="nonzero" d="M2.96875,2.98438 L3.53125,2.98438 L0.734375,12.0156 L0.171875,12.0156 L2.96875,2.98438 M4.9375,4.98438 L5.4375,4.98438 L5.4375,11 L4.9375,11 L4.9375,4.98438 M4.9375,2.64063 L5.4375,2.64063 L5.4375,3.3125 L4.9375,3.3125 L4.9375,2.64063 M12.3281,6.29688 C12.5156,5.80729 12.8073,5.44271 13.2031,5.20313 C13.5885,4.96354 14.0417,4.84375 14.5625,4.84375 C15.0833,4.84375 15.5,5.02604 15.8125,5.39063 C16.1354,5.75521 16.2969,6.41667 16.2969,7.375 L16.2969,11 L15.8125,11 L15.8125,7.40625 C15.8125,6.57292 15.6979,6.01042 15.4688,5.71875 C15.2396,5.42708 14.9323,5.28125 14.5469,5.28125 C13.9948,5.28125 13.5104,5.44792 13.0938,5.78125 C12.625,6.15625 12.3906,6.76042 12.3906,7.59375 L12.3906,11 L11.9063,11 L11.9063,7.40625 C11.9063,6.60417 11.7943,6.04948 11.5703,5.74219 C11.3464,5.4349 11.0365,5.28125 10.6406,5.28125 C10.0885,5.28125 9.60417,5.45313 9.1875,5.79688 C8.71875,6.16146 8.48438,6.76042 8.48438,7.59375 L8.48438,11 L8,11 L8,4.98438 L8.48438,4.98438 L8.48438,6.10938 C8.66146,5.71354 8.9375,5.40104 9.3125,5.17188 C9.67708,4.95313 10.1302,4.84375 10.6719,4.84375 C11.026,4.84375 11.3646,4.95833 11.6875,5.1875 C11.9375,5.375 12.151,5.74479 12.3281,6.29688 M18.6406,8.60938 L18.6406,4.98438 L19.125,4.98438 L19.125,8.57813 C19.125,9.35938 19.25,9.90885 19.5,10.2266 C19.75,10.5443 20.1198,10.7031 20.6094,10.7031 C21.1823,10.7031 21.6719,10.5313 22.0781,10.1875 C22.4844,9.84375 22.6875,9.24479 22.6875,8.39063 L22.6875,4.98438 L23.1719,4.98438 L23.1719,11 L22.6875,11 L22.6875,9.875 C22.5104,10.2396 22.276,10.5156 21.9844,10.7031 C21.5677,10.9948 21.1042,11.1406 20.5938,11.1406 C20,11.1406 19.526,10.9375 19.1719,10.5313 C18.8177,10.1354 18.6406,9.49479 18.6406,8.60938 M27.3906,2.98438 L27.9531,2.98438 L25.1563,12.0156 L24.5938,12.0156 L27.3906,2.98438 M33.375,6.35938 L33.375,2.64063 L33.8438,2.64063 L33.8438,11 L33.375,11 L33.375,9.64063 C33.1458,10.1615 32.8958,10.5156 32.625,10.7031 C32.2292,11.0052 31.849,11.1563 31.4844,11.1563 C30.776,11.1563 30.1849,10.8672 29.7109,10.2891 C29.237,9.71094 29,8.94792 29,8 C29,7.05208 29.237,6.28906 29.7109,5.71094 C30.1849,5.13281 30.776,4.84375 31.4844,4.84375 C31.849,4.84375 32.2292,4.98958 32.625,5.28125 C32.8958,5.47917 33.1458,5.83854 33.375,6.35938 M30.1406,5.90625 C29.724,6.32292 29.5156,7.02083 29.5156,8 C29.5156,8.97917 29.724,9.67708 30.1406,10.0938 C30.5573,10.5104 30.9948,10.7188 31.4531,10.7188 C31.901,10.7188 32.3333,10.5104 32.75,10.0938 C33.1563,9.67708 33.3594,8.97917 33.3594,8 C33.3594,7.02083 33.1563,6.32292 32.75,5.90625 C32.3333,5.48958 31.901,5.28125 31.4531,5.28125 C30.9948,5.28125 30.5573,5.48958 30.1406,5.90625 M38.75,7.60938 C37.9479,7.60938 37.3724,7.75 37.0234,8.03125 C36.6745,8.3125 36.5,8.72396 36.5,9.26563 C36.5,9.79688 36.6458,10.1745 36.9375,10.3984 C37.2292,10.6224 37.5729,10.7344 37.9688,10.7344 C38.7188,10.7344 39.2604,10.4167 39.5938,9.78125 C39.9271,9.13542 40.0938,8.53125 40.0938,7.96875 L40.0938,7.60938 L38.75,7.60938 M40.5938,7.5625 L40.5938,11 L40.0938,11 L40.0938,9.35938 C39.8229,10.1615 39.4583,10.6719 39,10.8906 C38.6458,11.0677 38.2865,11.1563 37.9219,11.1563 C37.3281,11.1563 36.8594,10.9948 36.5156,10.6719 C36.1719,10.349 36,9.8776 36,9.25781 C36,8.63802 36.224,8.14063 36.6719,7.76563 C37.1198,7.39063 37.849,7.20313 38.8594,7.20313 L40.0938,7.20313 L40.0938,7.10938 C40.0938,6.57813 39.9375,6.14063 39.625,5.79688 C39.3333,5.45313 38.8385,5.28125 38.1406,5.28125 C37.7969,5.28125 37.4479,5.34375 37.0938,5.46875 C36.8646,5.55208 36.5625,5.71875 36.1875,5.96875 L36.1875,5.4375 C36.5104,5.23958 36.8125,5.09896 37.0938,5.01563 C37.4896,4.90104 37.8698,4.84375 38.2344,4.84375 C38.9531,4.84375 39.5417,5.05729 40,5.48438 C40.3958,5.84896 40.5938,6.54167 40.5938,7.5625 M43.5938,3.28125 L43.5938,4.98438 L45.625,4.98438 L45.625,5.40625 L43.5938,5.40625 L43.5938,9.01563 C43.5938,9.47396 43.651,9.79688 43.7656,9.98438 C44.0156,10.3802 44.375,10.5781 44.8438,10.5781 L45.625,10.5781 L45.625,11 L44.8594,11 C44.3698,11 43.9531,10.8568 43.6094,10.5703 C43.2656,10.2839 43.0938,9.76563 43.0938,9.01563 L43.0938,5.40625 L42.375,5.40625 L42.375,4.98438 L43.0938,4.98438 L43.0938,3.28125 L43.5938,3.28125 M49.7969,7.60938 C48.9948,7.60938 48.4193,7.75 48.0703,8.03125 C47.7214,8.3125 47.5469,8.72396 47.5469,9.26563 C47.5469,9.79688 47.6927,10.1745 47.9844,10.3984 C48.276,10.6224 48.6198,10.7344 49.0156,10.7344 C49.7656,10.7344 50.3073,10.4167 50.6406,9.78125 C50.974,9.13542 51.1406,8.53125 51.1406,7.96875 L51.1406,7.60938 L49.7969,7.60938 M51.6406,7.5625 L51.6406,11 L51.1406,11 L51.1406,9.35938 C50.8698,10.1615 50.5052,10.6719 50.0469,10.8906 C49.6927,11.0677 49.3333,11.1563 48.9688,11.1563 C48.375,11.1563 47.9063,10.9948 47.5625,10.6719 C47.2188,10.349 47.0469,9.8776 47.0469,9.25781 C47.0469,8.63802 47.2708,8.14063 47.7188,7.76563 C48.1667,7.39063 48.8958,7.20313 49.9063,7.20313 L51.1406,7.20313 L51.1406,7.10938 C51.1406,6.57813 50.9844,6.14063 50.6719,5.79688 C50.3802,5.45313 49.8854,5.28125 49.1875,5.28125 C48.8438,5.28125 48.4948,5.34375 48.1406,5.46875 C47.9115,5.55208 47.6094,5.71875 47.2344,5.96875 L47.2344,5.4375 C47.5573,5.23958 47.8594,5.09896 48.1406,5.01563 C48.5365,4.90104 48.9167,4.84375 49.2813,4.84375 C50,4.84375 50.5885,5.05729 51.0469,5.48438 C51.4427,5.84896 51.6406,6.54167 51.6406,7.5625 "/>
</g>

<g fill="none" stroke="#000000" stroke-opacity="1" stroke-width="1" stroke-linecap="square" stroke-linejoin="bevel" transform="matrix(1.99831,0,0,1.99831,294.255,84.928)"
font-family="sans" font-size="11" font-weight="100" font-style="normal" 
>
</g>

<g fill="none" stroke="#000000" stroke-opacity="1" stroke-width="1" stroke-linecap="square" stroke-linejoin="bevel" transform="matrix(1.99831,0,0,1.99831,294.255,84.928)"
font-family="Ubuntu" font-size="11" font-weight="400" font-style="normal" 
>
</g>

<g fill="none" stroke="#000000" stroke-opacity="1" stroke-width="1" stroke-linecap="square" stroke-linejoin="bevel" transform="matrix(1.99831,0,0,1.99831,-0.000399661,166.859)"
font-family="Ubuntu" font-size="11" font-weight="400" font-style="normal" 
>
</g>

<g fill="none" stroke="#000000" stroke-opacity="1" stroke-width="1" stroke-linecap="square" stroke-linejoin="bevel" transform="matrix(1.99831,0,0,1.99831,-0.000399661,166.859)"
font-family="Ubuntu" font-size="11" font-weight="400" font-style="normal" 
>
</g>

<g fill="none" stroke="#000000" stroke-opacity="1" stroke-width="1" stroke-linecap="square" stroke-linejoin="bevel" transform="matrix(1.99831,0,0,1.99831,-0.000399661,166.859)"
font-family="Ubuntu" font-size="11" font-weight="400" font-style="normal" 
>
</g>

<g fill="none" stroke="#000000" stroke-opacity="1" stroke-width="1" stroke-linecap="square" stroke-linejoin="round" transform="matrix(1.99831,0,0,1.99831,-0.000399661,166.859)"
font-family="Ubuntu" font-size="11" font-weight="400" font-style="normal" 
>
<rect x="132.189" y="-51.5" width="83.0024" height="35"/>
</g>

<g fill="none" stroke="#000000" stroke-opacity="1" stroke-width="1" stroke-linecap="square" stroke-linejoin="bevel" transform="matrix(1.99831,0,0,1.99831,-0.000399661,166.859)"
font-family="Ubuntu" font-size="11" font-weight="400" font-style="normal" 
>
</g>

<g fill="none" stroke="#000000" stroke-opacity="1" stroke-width="1" stroke-linecap="square" stroke-linejoin="bevel" transform="matrix(1.99831,0,0,1.99831,294.255,84.928)"
font-family="Ubuntu" font-size="11" font-weight="400" font-style="normal" 
>
</g>

<g fill="none" stroke="#000000" stroke-opacity="1" stroke-width="1" stroke-linecap="square" stroke-linejoin="bevel" transform="matrix(1.99831,0,0,1.99831,294.255,84.928)"
font-family="sans" font-size="11" font-weight="100" font-style="normal" 
>
</g>

<g fill="#000000" fill-opacity="1" stroke="#000000" stroke-opacity="1" stroke-width="1" stroke-linecap="square" stroke-linejoin="round" transform="matrix(1.99831,0,0,1.99831,294.255,84.928)"
font-family="sans" font-size="11" font-weight="100" font-style="normal" 
>
<path vector-effect="none" fill-rule="nonzero" d="M2.96875,2.98438 L3.53125,2.98438 L0.734375,12.0156 L0.171875,12.0156 L2.96875,2.98438 M4.9375,4.98438 L5.4375,4.98438 L5.4375,11 L4.9375,11 L4.9375,4.98438 M4.9375,2.64063 L5.4375,2.64063 L5.4375,3.3125 L4.9375,3.3125 L4.9375,2.64063 M12.3281,6.29688 C12.5156,5.80729 12.8073,5.44271 13.2031,5.20313 C13.5885,4.96354 14.0417,4.84375 14.5625,4.84375 C15.0833,4.84375 15.5,5.02604 15.8125,5.39063 C16.1354,5.75521 16.2969,6.41667 16.2969,7.375 L16.2969,11 L15.8125,11 L15.8125,7.40625 C15.8125,6.57292 15.6979,6.01042 15.4688,5.71875 C15.2396,5.42708 14.9323,5.28125 14.5469,5.28125 C13.9948,5.28125 13.5104,5.44792 13.0938,5.78125 C12.625,6.15625 12.3906,6.76042 12.3906,7.59375 L12.3906,11 L11.9063,11 L11.9063,7.40625 C11.9063,6.60417 11.7943,6.04948 11.5703,5.74219 C11.3464,5.4349 11.0365,5.28125 10.6406,5.28125 C10.0885,5.28125 9.60417,5.45313 9.1875,5.79688 C8.71875,6.16146 8.48438,6.76042 8.48438,7.59375 L8.48438,11 L8,11 L8,4.98438 L8.48438,4.98438 L8.48438,6.10938 C8.66146,5.71354 8.9375,5.40104 9.3125,5.17188 C9.67708,4.95313 10.1302,4.84375 10.6719,4.84375 C11.026,4.84375 11.3646,4.95833 11.6875,5.1875 C11.9375,5.375 12.151,5.74479 12.3281,6.29688 M18.6406,8.60938 L18.6406,4.98438 L19.125,4.98438 L19.125,8.57813 C19.125,9.35938 19.25,9.90885 19.5,10.2266 C19.75,10.5443 20.1198,10.7031 20.6094,10.7031 C21.1823,10.7031 21.6719,10.5313 22.0781,10.1875 C22.4844,9.84375 22.6875,9.24479 22.6875,8.39063 L22.6875,4.98438 L23.1719,4.98438 L23.1719,11 L22.6875,11 L22.6875,9.875 C22.5104,10.2396 22.276,10.5156 21.9844,10.7031 C21.5677,10.9948 21.1042,11.1406 20.5938,11.1406 C20,11.1406 19.526,10.9375 19.1719,10.5313 C18.8177,10.1354 18.6406,9.49479 18.6406,8.60938 M27.3906,2.98438 L27.9531,2.98438 L25.1563,12.0156 L24.5938,12.0156 L27.3906,2.98438 M33.375,6.35938 L33.375,2.64063 L33.8438,2.64063 L33.8438,11 L33.375,11 L33.375,9.64063 C33.1458,10.1615 32.8958,10.5156 32.625,10.7031 C32.2292,11.0052 31.849,11.1563 31.4844,11.1563 C30.776,11.1563 30.1849,10.8672 29.7109,10.2891 C29.237,9.71094 29,8.94792 29,8 C29,7.05208 29.237,6.28906 29.7109,5.71094 C30.1849,5.13281 30.776,4.84375 31.4844,4.84375 C31.849,4.84375 32.2292,4.98958 32.625,5.28125 C32.8958,5.47917 33.1458,5.83854 33.375,6.35938 M30.1406,5.90625 C29.724,6.32292 29.5156,7.02083 29.5156,8 C29.5156,8.97917 29.724,9.67708 30.1406,10.0938 C30.5573,10.5104 30.9948,10.7188 31.4531,10.7188 C31.901,10.7188 32.3333,10.5104 32.75,10.0938 C33.1563,9.67708 33.3594,8.97917 33.3594,8 C33.3594,7.02083 33.1563,6.32292 32.75,5.90625 C32.3333,5.48958 31.901,5.28125 31.4531,5.28125 C30.9948,5.28125 30.5573,5.48958 30.1406,5.90625 M38.75,7.60938 C37.9479,7.60938 37.3724,7.75 37.0234,8.03125 C36.6745,8.3125 36.5,8.72396 36.5,9.26563 C36.5,9.79688 36.6458,10.1745 36.9375,10.3984 C37.2292,10.6224 37.5729,10.7344 37.9688,10.7344 C38.7188,10.7344 39.2604,10.4167 39.5938,9.78125 C39.9271,9.13542 40.0938,8.53125 40.0938,7.96875 L40.0938,7.60938 L38.75,7.60938 M40.5938,7.5625 L40.5938,11 L40.0938,11 L40.0938,9.35938 C39.8229,10.1615 39.4583,10.6719 39,10.8906 C38.6458,11.0677 38.2865,11.1563 37.9219,11.1563 C37.3281,11.1563 36.8594,10.9948 36.5156,10.6719 C36.1719,10.349 36,9.8776 36,9.25781 C36,8.63802 36.224,8.14063 36.6719,7.76563 C37.1198,7.39063 37.849,7.20313 38.8594,7.20313 L40.0938,7.20313 L40.0938,7.10938 C40.0938,6.57813 39.9375,6.14063 39.625,5.79688 C39.3333,5.45313 38.8385,5.28125 38.1406,5.28125 C37.7969,5.28125 37.4479,5.34375 37.0938,5.46875 C36.8646,5.55208 36.5625,5.71875 36.1875,5.96875 L36.1875,5.4375 C36.5104,5.23958 36.8125,5.09896 37.0938,5.01563 C37.4896,4.90104 37.8698,4.84375 38.2344,4.84375 C38.9531,4.84375 39.5417,5.05729 40,5.48438 C40.3958,5.84896 40.5938,6.54167 40.5938,7.5625 M43.5938,3.28125 L43.5938,4.98438 L45.625,4.98438 L45.625,5.40625 L43.5938,5.40625 L43.5938,9.01563 C43.5938,9.47396 43.651,9.79688 43.7656,9.98438 C44.0156,10.3802 44.375,10.5781 44.8438,10.5781 L45.625,10.5781 L45.625,11 L44.8594,11 C44.3698,11 43.9531,10.8568 43.6094,10.5703 C43.2656,10.2839 43.0938,9.76563 43.0938,9.01563 L43.0938,5.40625 L42.375,5.40625 L42.375,4.98438 L43.0938,4.98438 L43.0938,3.28125 L43.5938,3.28125 M49.7969,7.60938 C48.9948,7.60938 48.4193,7.75 48.0703,8.03125 C47.7214,8.3125 47.5469,8.72396 47.5469,9.26563 C47.5469,9.79688 47.6927,10.1745 47.9844,10.3984 C48.276,10.6224 48.6198,10.7344 49.0156,10.7344 C49.7656,10.7344 50.3073,10.4167 50.6406,9.78125 C50.974,9.13542 51.1406,8.53125 51.1406,7.96875 L51.1406,7.60938 L49.7969,7.60938 M51.6406,7.5625 L51.6406,11 L51.1406,11 L51.1406,9.35938 C50.8698,10.1615 50.5052,10.6719 50.0469,10.8906 C49.6927,11.0677 49.3333,11.1563 48.9688,11.1563 C48.375,11.1563 47.9063,10.9948 47.5625,10.6719 C47.2188,10.349 47.0469,9.8776 47.0469,9.25781 C47.0469,8.63802 47.2708,8.14063 47.7188,7.76563 C48.1667,7.39063 48.8958,7.20313 49.9063,7.20313 L51.1406,7.20313 L51.1406,7.10938 C51.1406,6.57813 50.9844,6.14063 50.6719,5.79688 C50.3802,5.45313 49.8854,5.28125 49.1875,5.28125 C48.8438,5.28125 48.4948,5.34375 48.1406,5.46875 C47.9115,5.55208 47.6094,5.71875 47.2344,5.96875 L47.2344,5.4375 C47.5573,5.23958 47.8594,5.09896 48.1406,5.01563 C48.5365,4.90104 48.9167,4.84375 49.2813,4.84375 C50,4.84375 50.5885,5.05729 51.0469,5.48438 C51.4427,5.84896 51.6406,6.54167 51.6406,7.5625 "/>
</g>

<g fill="none" stroke="#000000" stroke-opacity="1" stroke-width="1" stroke-linecap="square" stroke-linejoin="bevel" transform="matrix(1.99831,0,0,1.99831,294.255,84.928)"
font-family="sans" font-size="11" font-weight="100" font-style="normal" 
>
</g>

<g fill="none" stroke="#000000" stroke-opacity="1" stroke-width="1" stroke-linecap="square" stroke-linejoin="bevel" transform="matrix(1.99831,0,0,1.99831,294.255,84.928)"
font-family="Ubuntu" font-size="11" font-weight="400" font-style="normal" 
>
</g>

<g fill="none" stroke="#000000" stroke-opacity="1" stroke-width="1" stroke-linecap="square" stroke-linejoin="bevel" transform="matrix(1.99831,0,0,1.99831,-0.000399661,166.859)"
font-family="Ubuntu" font-size="11" font-weight="400" font-style="normal" 
>
</g>

<g fill="none" stroke="#000000" stroke-opacity="1" stroke-width="1" stroke-linecap="square" stroke-linejoin="bevel" transform="matrix(1.99831,0,0,1.99831,-0.000399661,166.859)"
font-family="Ubuntu" font-size="11" font-weight="400" font-style="normal" 
>
</g>

<g fill="none" stroke="#000000" stroke-opacity="1" stroke-width="1" stroke-linecap="square" stroke-linejoin="bevel" transform="matrix(1.99831,0,0,1.99831,-0.000399661,166.859)"
font-family="Ubuntu" font-size="11" font-weight="400" font-style="normal" 
>
</g>

<g fill="none" stroke="#000000" stroke-opacity="1" stroke-width="1" stroke-linecap="square" stroke-linejoin="round" transform="matrix(1.99831,0,0,1.99831,-0.000399661,166.859)"
font-family="Ubuntu" font-size="11" font-weight="400" font-style="normal" 
>
<ellipse cx="57.845" cy="-34" rx="57.3448" ry="17.5"/>
</g>

<g fill="none" stroke="#000000" stroke-opacity="1" stroke-width="1" stroke-linecap="square" stroke-linejoin="bevel" transform="matrix(1.99831,0,0,1.99831,-0.000399661,166.859)"
font-family="Ubuntu" font-size="11" font-weight="400" font-style="normal" 
>
</g>

<g fill="none" stroke="#000000" stroke-opacity="1" stroke-width="1" stroke-linecap="square" stroke-linejoin="bevel" transform="matrix(1.99831,0,0,1.99831,58.2965,84.928)"
font-family="Ubuntu" font-size="11" font-weight="400" font-style="normal" 
>
</g>

<g fill="none" stroke="#000000" stroke-opacity="1" stroke-width="1" stroke-linecap="square" stroke-linejoin="bevel" transform="matrix(1.99831,0,0,1.99831,58.2965,84.928)"
font-family="sans" font-size="11" font-weight="100" font-style="normal" 
>
</g>

<g fill="#000000" fill-opacity="1" stroke="#000000" stroke-opacity="1" stroke-width="1" stroke-linecap="square" stroke-linejoin="round" transform="matrix(1.99831,0,0,1.99831,58.2965,84.928)"
font-family="sans" font-size="11" font-weight="100" font-style="normal" 
>
<path vector-effect="none" fill-rule="nonzero" d="M2.96875,2.98438 L3.53125,2.98438 L0.734375,12.0156 L0.171875,12.0156 L2.96875,2.98438 M4.9375,4.98438 L5.4375,4.98438 L5.4375,11 L4.9375,11 L4.9375,4.98438 M4.9375,2.64063 L5.4375,2.64063 L5.4375,3.3125 L4.9375,3.3125 L4.9375,2.64063 M12.3281,6.29688 C12.5156,5.80729 12.8073,5.44271 13.2031,5.20313 C13.5885,4.96354 14.0417,4.84375 14.5625,4.84375 C15.0833,4.84375 15.5,5.02604 15.8125,5.39063 C16.1354,5.75521 16.2969,6.41667 16.2969,7.375 L16.2969,11 L15.8125,11 L15.8125,7.40625 C15.8125,6.57292 15.6979,6.01042 15.4688,5.71875 C15.2396,5.42708 14.9323,5.28125 14.5469,5.28125 C13.9948,5.28125 13.5104,5.44792 13.0938,5.78125 C12.625,6.15625 12.3906,6.76042 12.3906,7.59375 L12.3906,11 L11.9063,11 L11.9063,7.40625 C11.9063,6.60417 11.7943,6.04948 11.5703,5.74219 C11.3464,5.4349 11.0365,5.28125 10.6406,5.28125 C10.0885,5.28125 9.60417,5.45313 9.1875,5.79688 C8.71875,6.16146 8.48438,6.76042 8.48438,7.59375 L8.48438,11 L8,11 L8,4.98438 L8.48438,4.98438 L8.48438,6.10938 C8.66146,5.71354 8.9375,5.40104 9.3125,5.17188 C9.67708,4.95313 10.1302,4.84375 10.6719,4.84375 C11.026,4.84375 11.3646,4.95833 11.6875,5.1875 C11.9375,5.375 12.151,5.74479 12.3281,6.29688 M18.6406,8.60938 L18.6406,4.98438 L19.125,4.98438 L19.125,8.57813 C19.125,9.35938 19.25,9.90885 19.5,10.2266 C19.75,10.5443 20.1198,10.7031 20.6094,10.7031 C21.1823,10.7031 21.6719,10.5313 22.0781,10.1875 C22.4844,9.84375 22.6875,9.24479 22.6875,8.39063 L22.6875,4.98438 L23.1719,4.98438 L23.1719,11 L22.6875,11 L22.6875,9.875 C22.5104,10.2396 22.276,10.5156 21.9844,10.7031 C21.5677,10.9948 21.1042,11.1406 20.5938,11.1406 C20,11.1406 19.526,10.9375 19.1719,10.5313 C18.8177,10.1354 18.6406,9.49479 18.6406,8.60938 M30.0313,13.1719 L30.0313,13.5938 L24.3125,13.5938 L24.3125,13.1719 L30.0313,13.1719 M35.7188,7.375 L35.7188,11 L35.2188,11 L35.2188,7.40625 C35.2188,6.625 35.0938,6.07552 34.8438,5.75781 C34.5938,5.4401 34.224,5.28125 33.7344,5.28125 C33.1615,5.28125 32.6771,5.45313 32.2813,5.79688 C31.8646,6.14063 31.6563,6.73958 31.6563,7.59375 L31.6563,11 L31.1719,11 L31.1719,4.98438 L31.6563,4.98438 L31.6563,6.10938 C31.8333,5.74479 32.0677,5.46875 32.3594,5.28125 C32.776,4.98958 33.2396,4.84375 33.75,4.84375 C34.3542,4.84375 34.8333,5.04688 35.1875,5.45313 C35.5417,5.84896 35.7188,6.48958 35.7188,7.375 M41.7188,6.01563 C41.3646,5.52604 40.8802,5.28125 40.2656,5.28125 C39.651,5.28125 39.1667,5.52604 38.8125,6.01563 C38.4583,6.49479 38.2813,7.15104 38.2813,7.98438 C38.2813,8.83854 38.4583,9.51042 38.8125,10 C39.1667,10.4896 39.651,10.7344 40.2656,10.7344 C40.8802,10.7344 41.3646,10.4896 41.7188,10 C42.0729,9.5 42.25,8.82813 42.25,7.98438 C42.25,7.16146 42.0729,6.50521 41.7188,6.01563 M40.2656,4.84375 C41.026,4.84375 41.6302,5.13021 42.0781,5.70313 C42.526,6.27604 42.75,7.03646 42.75,7.98438 C42.75,8.97396 42.526,9.75521 42.0781,10.3281 C41.6302,10.901 41.026,11.1875 40.2656,11.1875 C39.4844,11.1875 38.8698,10.901 38.4219,10.3281 C37.9844,9.75521 37.7656,8.97396 37.7656,7.98438 C37.7656,7.02604 37.9896,6.26302 38.4375,5.69531 C38.8854,5.1276 39.4948,4.84375 40.2656,4.84375 M48.8594,6.35938 L48.8594,2.64063 L49.3281,2.64063 L49.3281,11 L48.8594,11 L48.8594,9.64063 C48.6302,10.1615 48.3802,10.5156 48.1094,10.7031 C47.7135,11.0052 47.3333,11.1563 46.9688,11.1563 C46.2604,11.1563 45.6693,10.8672 45.1953,10.2891 C44.7214,9.71094 44.4844,8.94792 44.4844,8 C44.4844,7.05208 44.7214,6.28906 45.1953,5.71094 C45.6693,5.13281 46.2604,4.84375 46.9688,4.84375 C47.3333,4.84375 47.7135,4.98958 48.1094,5.28125 C48.3802,5.47917 48.6302,5.83854 48.8594,6.35938 M45.625,5.90625 C45.2083,6.32292 45,7.02083 45,8 C45,8.97917 45.2083,9.67708 45.625,10.0938 C46.0417,10.5104 46.4792,10.7188 46.9375,10.7188 C47.3854,10.7188 47.8177,10.5104 48.2344,10.0938 C48.6406,9.67708 48.8438,8.97917 48.8438,8 C48.8438,7.02083 48.6406,6.32292 48.2344,5.90625 C47.8177,5.48958 47.3854,5.28125 46.9375,5.28125 C46.4792,5.28125 46.0417,5.48958 45.625,5.90625 M56.5156,7.75 L56.5156,8.0625 L51.9531,8.0625 C51.9531,9.02083 52.1406,9.69792 52.5156,10.0938 C52.9323,10.5208 53.5469,10.7344 54.3594,10.7344 C54.5781,10.7344 54.8646,10.6875 55.2188,10.5938 C55.5729,10.5 55.9271,10.3594 56.2813,10.1719 L56.2813,10.6875 C55.9271,10.8438 55.5651,10.9609 55.1953,11.0391 C54.8255,11.1172 54.5313,11.1563 54.3125,11.1563 C53.3854,11.1563 52.6875,10.9063 52.2188,10.4063 C51.7083,9.875 51.4531,9.09375 51.4531,8.0625 C51.4531,6.98958 51.6823,6.1875 52.1406,5.65625 C52.6198,5.11458 53.2865,4.84375 54.1406,4.84375 C54.9219,4.84375 55.5156,5.10417 55.9219,5.625 C56.3177,6.16667 56.5156,6.875 56.5156,7.75 M56.0156,7.64063 C56.0156,6.79688 55.8229,6.18229 55.4375,5.79688 C55.125,5.45313 54.6927,5.28125 54.1406,5.28125 C53.5469,5.28125 53.0469,5.45833 52.6406,5.8125 C52.2656,6.14583 52.0417,6.75521 51.9688,7.64063 L56.0156,7.64063"/>
</g>

<g fill="none" stroke="#000000" stroke-opacity="1" stroke-width="1" stroke-linecap="square" stroke-linejoin="bevel" transform="matrix(1.99831,0,0,1.99831,58.2965,84.928)"
font-family="sans" font-size="11" font-weight="100" font-style="normal" 
>
</g>

<g fill="none" stroke="#000000" stroke-opacity="1" stroke-width="1" stroke-linecap="square" stroke-linejoin="bevel" transform="matrix(1.99831,0,0,1.99831,58.2965,84.928)"
font-family="Ubuntu" font-size="11" font-weight="400" font-style="normal" 
>
</g>

<g fill="none" stroke="#000000" stroke-opacity="1" stroke-width="1" stroke-linecap="square" stroke-linejoin="bevel" transform="matrix(1.99831,0,0,1.99831,-0.000399661,166.859)"
font-family="Ubuntu" font-size="11" font-weight="400" font-style="normal" 
>
</g>

<g fill="none" stroke="#000000" stroke-opacity="1" stroke-width="1" stroke-linecap="square" stroke-linejoin="bevel" transform="matrix(1.99831,0,0,1.99831,-0.000399661,166.859)"
font-family="Ubuntu" font-size="11" font-weight="400" font-style="normal" 
>
</g>

<g fill="none" stroke="#000000" stroke-opacity="1" stroke-width="1" stroke-linecap="square" stroke-linejoin="bevel" transform="matrix(1.99831,0,0,1.99831,-0.000399661,166.859)"
font-family="Ubuntu" font-size="11" font-weight="400" font-style="normal" 
>
</g>

<g fill="none" stroke="#000000" stroke-opacity="1" stroke-width="1" stroke-linecap="square" stroke-linejoin="round" transform="matrix(1.99831,0,0,1.99831,-0.000399661,166.859)"
font-family="Ubuntu" font-size="11" font-weight="400" font-style="normal" 
>
<path vector-effect="none" fill-rule="evenodd" d="M115.77,-34 C117.6,-34 119.44,-34 121.26,-34 "/>
</g>

<g fill="none" stroke="#000000" stroke-opacity="1" stroke-width="1" stroke-linecap="square" stroke-linejoin="bevel" transform="matrix(1.99831,0,0,1.99831,-0.000399661,166.859)"
font-family="Ubuntu" font-size="11" font-weight="400" font-style="normal" 
>
</g>

<g fill="none" stroke="#000000" stroke-opacity="1" stroke-width="1" stroke-linecap="square" stroke-linejoin="bevel" transform="matrix(1.99831,0,0,1.99831,-0.000399661,166.859)"
font-family="Ubuntu" font-size="11" font-weight="400" font-style="normal" 
>
</g>

<g fill="#000000" fill-opacity="1" stroke="#000000" stroke-opacity="1" stroke-width="1" stroke-linecap="square" stroke-linejoin="round" transform="matrix(1.99831,0,0,1.99831,-0.000399661,166.859)"
font-family="Ubuntu" font-size="11" font-weight="400" font-style="normal" 
>
<path vector-effect="none" fill-rule="evenodd" d="M121.26,-34 L121.26,-30.3845 L131.59,-34 L121.26,-37.6155 L121.26,-34"/>
</g>

<g fill="none" stroke="#000000" stroke-opacity="1" stroke-width="1" stroke-linecap="square" stroke-linejoin="bevel" transform="matrix(1.99831,0,0,1.99831,-0.000399661,166.859)"
font-family="Ubuntu" font-size="11" font-weight="400" font-style="normal" 
>
</g>

<g fill="none" stroke="#000000" stroke-opacity="1" stroke-width="1" stroke-linecap="square" stroke-linejoin="bevel" transform="matrix(1,0,0,1,0,0)"
font-family="Ubuntu" font-size="11" font-weight="400" font-style="normal" 
>
</g>
</g>
</svg>
