<?xml version="1.0" encoding="UTF-8" standalone="no"?>
<svg width="275.872mm" height="53.6222mm"
 xmlns="http://www.w3.org/2000/svg" xmlns:xlink="http://www.w3.org/1999/xlink"  version="1.2" baseProfile="tiny">
<title>Qt SVG Document</title>
<desc>Generated with Qt</desc>
<defs>
</defs>
<g fill="none" stroke="black" stroke-width="1" fill-rule="evenodd" stroke-linecap="square" stroke-linejoin="bevel" >

<g fill="none" stroke="#000000" stroke-opacity="1" stroke-width="1" stroke-linecap="square" stroke-linejoin="bevel" transform="matrix(1,0,0,1,0,0)"
font-family="Ubuntu" font-size="11" font-weight="400" font-style="normal" 
>
</g>

<g fill="none" stroke="#000000" stroke-opacity="1" stroke-width="1" stroke-linecap="square" stroke-linejoin="bevel" transform="matrix(1,0,0,1,0,0)"
font-family="Ubuntu" font-size="11" font-weight="400" font-style="normal" 
>
</g>

<g fill="none" stroke="#000000" stroke-opacity="1" stroke-width="1" stroke-linecap="square" stroke-linejoin="bevel" transform="matrix(2,0,0,2,-15,167)"
font-family="Ubuntu" font-size="11" font-weight="400" font-style="normal" 
>
</g>

<g fill="#ffffff" fill-opacity="1" stroke="none" transform="matrix(2,0,0,2,-15,167)"
font-family="Ubuntu" font-size="11" font-weight="400" font-style="normal" 
>
<rect x="7.5" y="-83.5" width="390.89" height="76"/>
</g>

<g fill="none" stroke="#000000" stroke-opacity="1" stroke-width="1" stroke-linecap="square" stroke-linejoin="bevel" transform="matrix(2,0,0,2,-15,167)"
font-family="Ubuntu" font-size="11" font-weight="400" font-style="normal" 
>
</g>

<g fill="none" stroke="#000000" stroke-opacity="1" stroke-width="1" stroke-linecap="square" stroke-linejoin="bevel" transform="matrix(2,0,0,2,-15,167)"
font-family="Ubuntu" font-size="11" font-weight="400" font-style="normal" 
>
</g>

<g fill="none" stroke="#000000" stroke-opacity="1" stroke-width="1" stroke-linecap="square" stroke-linejoin="bevel" transform="matrix(2,0,0,2,-15,167)"
font-family="Ubuntu" font-size="11" font-weight="400" font-style="normal" 
>
</g>

<g fill="none" stroke="#000000" stroke-opacity="1" stroke-width="1" stroke-linecap="square" stroke-linejoin="bevel" transform="matrix(2,0,0,2,-15,167)"
font-family="Ubuntu" font-size="11" font-weight="400" font-style="normal" 
>
</g>

<g fill="none" stroke="#000000" stroke-opacity="1" stroke-width="1" stroke-linecap="square" stroke-linejoin="round" transform="matrix(2,0,0,2,-15,167)"
font-family="Ubuntu" font-size="11" font-weight="400" font-style="normal" 
>
<rect x="8" y="-83" width="142" height="75"/>
</g>

<g fill="none" stroke="#000000" stroke-opacity="1" stroke-width="1" stroke-linecap="square" stroke-linejoin="bevel" transform="matrix(2,0,0,2,-15,167)"
font-family="Ubuntu" font-size="11" font-weight="400" font-style="normal" 
>
</g>

<g fill="none" stroke="#000000" stroke-opacity="1" stroke-width="1" stroke-linecap="square" stroke-linejoin="bevel" transform="matrix(2,0,0,2,106.328,10)"
font-family="Ubuntu" font-size="11" font-weight="400" font-style="normal" 
>
</g>

<g fill="none" stroke="#000000" stroke-opacity="1" stroke-width="1" stroke-linecap="square" stroke-linejoin="bevel" transform="matrix(2,0,0,2,106.328,10)"
font-family="sans" font-size="11" font-weight="100" font-style="normal" 
>
</g>

<g fill="#000000" fill-opacity="1" stroke="#000000" stroke-opacity="1" stroke-width="1" stroke-linecap="square" stroke-linejoin="round" transform="matrix(2,0,0,2,106.328,10)"
font-family="sans" font-size="11" font-weight="100" font-style="normal" 
>
<path vector-effect="none" fill-rule="nonzero" d="M2.96875,2.98438 L3.53125,2.98438 L0.734375,12.0156 L0.171875,12.0156 L2.96875,2.98438 M9.28125,6.29688 C9.46875,5.80729 9.76042,5.44271 10.1563,5.20313 C10.5417,4.96354 10.9948,4.84375 11.5156,4.84375 C12.0365,4.84375 12.4531,5.02604 12.7656,5.39063 C13.0885,5.75521 13.25,6.41667 13.25,7.375 L13.25,11 L12.7656,11 L12.7656,7.40625 C12.7656,6.57292 12.651,6.01042 12.4219,5.71875 C12.1927,5.42708 11.8854,5.28125 11.5,5.28125 C10.9479,5.28125 10.4635,5.44792 10.0469,5.78125 C9.57813,6.15625 9.34375,6.76042 9.34375,7.59375 L9.34375,11 L8.85938,11 L8.85938,7.40625 C8.85938,6.60417 8.7474,6.04948 8.52344,5.74219 C8.29948,5.4349 7.98958,5.28125 7.59375,5.28125 C7.04167,5.28125 6.55729,5.45313 6.14063,5.79688 C5.67188,6.16146 5.4375,6.76042 5.4375,7.59375 L5.4375,11 L4.95313,11 L4.95313,4.98438 L5.4375,4.98438 L5.4375,6.10938 C5.61458,5.71354 5.89063,5.40104 6.26563,5.17188 C6.63021,4.95313 7.08333,4.84375 7.625,4.84375 C7.97917,4.84375 8.31771,4.95833 8.64063,5.1875 C8.89063,5.375 9.10417,5.74479 9.28125,6.29688 M19.2344,6.01563 C18.8802,5.52604 18.3958,5.28125 17.7813,5.28125 C17.1667,5.28125 16.6823,5.52604 16.3281,6.01563 C15.974,6.49479 15.7969,7.15104 15.7969,7.98438 C15.7969,8.83854 15.974,9.51042 16.3281,10 C16.6823,10.4896 17.1667,10.7344 17.7813,10.7344 C18.3958,10.7344 18.8802,10.4896 19.2344,10 C19.5885,9.5 19.7656,8.82813 19.7656,7.98438 C19.7656,7.16146 19.5885,6.50521 19.2344,6.01563 M17.7813,4.84375 C18.5417,4.84375 19.1458,5.13021 19.5938,5.70313 C20.0417,6.27604 20.2656,7.03646 20.2656,7.98438 C20.2656,8.97396 20.0417,9.75521 19.5938,10.3281 C19.1458,10.901 18.5417,11.1875 17.7813,11.1875 C17,11.1875 16.3854,10.901 15.9375,10.3281 C15.5,9.75521 15.2813,8.97396 15.2813,7.98438 C15.2813,7.02604 15.5052,6.26302 15.9531,5.69531 C16.401,5.1276 17.0104,4.84375 17.7813,4.84375 M22.8906,3.28125 L22.8906,4.98438 L24.9219,4.98438 L24.9219,5.40625 L22.8906,5.40625 L22.8906,9.01563 C22.8906,9.47396 22.9479,9.79688 23.0625,9.98438 C23.3125,10.3802 23.6719,10.5781 24.1406,10.5781 L24.9219,10.5781 L24.9219,11 L24.1563,11 C23.6667,11 23.25,10.8568 22.9063,10.5703 C22.5625,10.2839 22.3906,9.76563 22.3906,9.01563 L22.3906,5.40625 L21.6719,5.40625 L21.6719,4.98438 L22.3906,4.98438 L22.3906,3.28125 L22.8906,3.28125 M30.2656,6.01563 C29.9115,5.52604 29.4271,5.28125 28.8125,5.28125 C28.1979,5.28125 27.7135,5.52604 27.3594,6.01563 C27.0052,6.49479 26.8281,7.15104 26.8281,7.98438 C26.8281,8.83854 27.0052,9.51042 27.3594,10 C27.7135,10.4896 28.1979,10.7344 28.8125,10.7344 C29.4271,10.7344 29.9115,10.4896 30.2656,10 C30.6198,9.5 30.7969,8.82813 30.7969,7.98438 C30.7969,7.16146 30.6198,6.50521 30.2656,6.01563 M28.8125,4.84375 C29.5729,4.84375 30.1771,5.13021 30.625,5.70313 C31.0729,6.27604 31.2969,7.03646 31.2969,7.98438 C31.2969,8.97396 31.0729,9.75521 30.625,10.3281 C30.1771,10.901 29.5729,11.1875 28.8125,11.1875 C28.0313,11.1875 27.4167,10.901 26.9688,10.3281 C26.5313,9.75521 26.3125,8.97396 26.3125,7.98438 C26.3125,7.02604 26.5365,6.26302 26.9844,5.69531 C27.4323,5.1276 28.0417,4.84375 28.8125,4.84375 M36.6719,5.40625 C36.5885,5.36458 36.4792,5.33333 36.3438,5.3125 C36.2188,5.29167 36.0677,5.28125 35.8906,5.28125 C35.276,5.28125 34.7708,5.50521 34.375,5.95313 C34.0521,6.31771 33.8906,6.94271 33.8906,7.82813 L33.8906,11 L33.4063,11 L33.4063,4.98438 L33.8906,4.98438 L33.8906,6.10938 C34.0573,5.78646 34.2865,5.51563 34.5781,5.29688 C34.974,4.99479 35.4427,4.84375 35.9844,4.84375 C36.1302,4.84375 36.2552,4.84896 36.3594,4.85938 C36.4635,4.85938 36.5677,4.86979 36.6719,4.89063 L36.6719,5.40625"/>
</g>

<g fill="none" stroke="#000000" stroke-opacity="1" stroke-width="1" stroke-linecap="square" stroke-linejoin="bevel" transform="matrix(2,0,0,2,106.328,10)"
font-family="sans" font-size="11" font-weight="100" font-style="normal" 
>
</g>

<g fill="none" stroke="#000000" stroke-opacity="1" stroke-width="1" stroke-linecap="square" stroke-linejoin="bevel" transform="matrix(2,0,0,2,106.328,10)"
font-family="Ubuntu" font-size="11" font-weight="400" font-style="normal" 
>
</g>

<g fill="none" stroke="#000000" stroke-opacity="1" stroke-width="1" stroke-linecap="square" stroke-linejoin="bevel" transform="matrix(2,0,0,2,-15,167)"
font-family="Ubuntu" font-size="11" font-weight="400" font-style="normal" 
>
</g>

<g fill="none" stroke="#000000" stroke-opacity="1" stroke-width="1" stroke-linecap="square" stroke-linejoin="bevel" transform="matrix(2,0,0,2,-15,167)"
font-family="Ubuntu" font-size="11" font-weight="400" font-style="normal" 
>
</g>

<g fill="none" stroke="#000000" stroke-opacity="1" stroke-width="1" stroke-linecap="square" stroke-linejoin="bevel" transform="matrix(2,0,0,2,-15,167)"
font-family="Ubuntu" font-size="11" font-weight="400" font-style="normal" 
>
</g>

<g fill="none" stroke="#000000" stroke-opacity="1" stroke-width="1" stroke-linecap="square" stroke-linejoin="round" transform="matrix(2,0,0,2,-15,167)"
font-family="Ubuntu" font-size="11" font-weight="400" font-style="normal" 
>
<rect x="16.5" y="-51.5" width="125" height="35"/>
</g>

<g fill="none" stroke="#000000" stroke-opacity="1" stroke-width="1" stroke-linecap="square" stroke-linejoin="bevel" transform="matrix(2,0,0,2,-15,167)"
font-family="Ubuntu" font-size="11" font-weight="400" font-style="normal" 
>
</g>

<g fill="none" stroke="#000000" stroke-opacity="1" stroke-width="1" stroke-linecap="square" stroke-linejoin="bevel" transform="matrix(2,0,0,2,57.0938,85)"
font-family="Ubuntu" font-size="11" font-weight="400" font-style="normal" 
>
</g>

<g fill="none" stroke="#000000" stroke-opacity="1" stroke-width="1" stroke-linecap="square" stroke-linejoin="bevel" transform="matrix(2,0,0,2,57.0938,85)"
font-family="sans" font-size="11" font-weight="100" font-style="normal" 
>
</g>

<g fill="#000000" fill-opacity="1" stroke="#000000" stroke-opacity="1" stroke-width="1" stroke-linecap="square" stroke-linejoin="round" transform="matrix(2,0,0,2,57.0938,85)"
font-family="sans" font-size="11" font-weight="100" font-style="normal" 
>
<path vector-effect="none" fill-rule="nonzero" d="M2.96875,2.98438 L3.53125,2.98438 L0.734375,12.0156 L0.171875,12.0156 L2.96875,2.98438 M9.28125,6.29688 C9.46875,5.80729 9.76042,5.44271 10.1563,5.20313 C10.5417,4.96354 10.9948,4.84375 11.5156,4.84375 C12.0365,4.84375 12.4531,5.02604 12.7656,5.39063 C13.0885,5.75521 13.25,6.41667 13.25,7.375 L13.25,11 L12.7656,11 L12.7656,7.40625 C12.7656,6.57292 12.651,6.01042 12.4219,5.71875 C12.1927,5.42708 11.8854,5.28125 11.5,5.28125 C10.9479,5.28125 10.4635,5.44792 10.0469,5.78125 C9.57813,6.15625 9.34375,6.76042 9.34375,7.59375 L9.34375,11 L8.85938,11 L8.85938,7.40625 C8.85938,6.60417 8.7474,6.04948 8.52344,5.74219 C8.29948,5.4349 7.98958,5.28125 7.59375,5.28125 C7.04167,5.28125 6.55729,5.45313 6.14063,5.79688 C5.67188,6.16146 5.4375,6.76042 5.4375,7.59375 L5.4375,11 L4.95313,11 L4.95313,4.98438 L5.4375,4.98438 L5.4375,6.10938 C5.61458,5.71354 5.89063,5.40104 6.26563,5.17188 C6.63021,4.95313 7.08333,4.84375 7.625,4.84375 C7.97917,4.84375 8.31771,4.95833 8.64063,5.1875 C8.89063,5.375 9.10417,5.74479 9.28125,6.29688 M19.2344,6.01563 C18.8802,5.52604 18.3958,5.28125 17.7813,5.28125 C17.1667,5.28125 16.6823,5.52604 16.3281,6.01563 C15.974,6.49479 15.7969,7.15104 15.7969,7.98438 C15.7969,8.83854 15.974,9.51042 16.3281,10 C16.6823,10.4896 17.1667,10.7344 17.7813,10.7344 C18.3958,10.7344 18.8802,10.4896 19.2344,10 C19.5885,9.5 19.7656,8.82813 19.7656,7.98438 C19.7656,7.16146 19.5885,6.50521 19.2344,6.01563 M17.7813,4.84375 C18.5417,4.84375 19.1458,5.13021 19.5938,5.70313 C20.0417,6.27604 20.2656,7.03646 20.2656,7.98438 C20.2656,8.97396 20.0417,9.75521 19.5938,10.3281 C19.1458,10.901 18.5417,11.1875 17.7813,11.1875 C17,11.1875 16.3854,10.901 15.9375,10.3281 C15.5,9.75521 15.2813,8.97396 15.2813,7.98438 C15.2813,7.02604 15.5052,6.26302 15.9531,5.69531 C16.401,5.1276 17.0104,4.84375 17.7813,4.84375 M22.8906,3.28125 L22.8906,4.98438 L24.9219,4.98438 L24.9219,5.40625 L22.8906,5.40625 L22.8906,9.01563 C22.8906,9.47396 22.9479,9.79688 23.0625,9.98438 C23.3125,10.3802 23.6719,10.5781 24.1406,10.5781 L24.9219,10.5781 L24.9219,11 L24.1563,11 C23.6667,11 23.25,10.8568 22.9063,10.5703 C22.5625,10.2839 22.3906,9.76563 22.3906,9.01563 L22.3906,5.40625 L21.6719,5.40625 L21.6719,4.98438 L22.3906,4.98438 L22.3906,3.28125 L22.8906,3.28125 M30.2656,6.01563 C29.9115,5.52604 29.4271,5.28125 28.8125,5.28125 C28.1979,5.28125 27.7135,5.52604 27.3594,6.01563 C27.0052,6.49479 26.8281,7.15104 26.8281,7.98438 C26.8281,8.83854 27.0052,9.51042 27.3594,10 C27.7135,10.4896 28.1979,10.7344 28.8125,10.7344 C29.4271,10.7344 29.9115,10.4896 30.2656,10 C30.6198,9.5 30.7969,8.82813 30.7969,7.98438 C30.7969,7.16146 30.6198,6.50521 30.2656,6.01563 M28.8125,4.84375 C29.5729,4.84375 30.1771,5.13021 30.625,5.70313 C31.0729,6.27604 31.2969,7.03646 31.2969,7.98438 C31.2969,8.97396 31.0729,9.75521 30.625,10.3281 C30.1771,10.901 29.5729,11.1875 28.8125,11.1875 C28.0313,11.1875 27.4167,10.901 26.9688,10.3281 C26.5313,9.75521 26.3125,8.97396 26.3125,7.98438 C26.3125,7.02604 26.5365,6.26302 26.9844,5.69531 C27.4323,5.1276 28.0417,4.84375 28.8125,4.84375 M36.6719,5.40625 C36.5885,5.36458 36.4792,5.33333 36.3438,5.3125 C36.2188,5.29167 36.0677,5.28125 35.8906,5.28125 C35.276,5.28125 34.7708,5.50521 34.375,5.95313 C34.0521,6.31771 33.8906,6.94271 33.8906,7.82813 L33.8906,11 L33.4063,11 L33.4063,4.98438 L33.8906,4.98438 L33.8906,6.10938 C34.0573,5.78646 34.2865,5.51563 34.5781,5.29688 C34.974,4.99479 35.4427,4.84375 35.9844,4.84375 C36.1302,4.84375 36.2552,4.84896 36.3594,4.85938 C36.4635,4.85938 36.5677,4.86979 36.6719,4.89063 L36.6719,5.40625 M39.6406,2.98438 L40.2031,2.98438 L37.4063,12.0156 L36.8438,12.0156 L39.6406,2.98438 M45.7344,5.28125 L45.7344,5.79688 C45.4427,5.61979 45.1979,5.5 45,5.4375 C44.6667,5.33333 44.349,5.28125 44.0469,5.28125 C43.1823,5.28125 42.5625,5.5026 42.1875,5.94531 C41.8125,6.38802 41.625,7.07292 41.625,8 C41.625,8.9375 41.8125,9.6276 42.1875,10.0703 C42.5625,10.513 43.1823,10.7344 44.0469,10.7344 C44.3385,10.7344 44.6198,10.6927 44.8906,10.6094 C45.1823,10.5365 45.4635,10.4219 45.7344,10.2656 L45.7344,10.7656 C45.4635,10.901 45.1823,11 44.8906,11.0625 C44.5885,11.125 44.2917,11.1563 44,11.1563 C43.125,11.1563 42.4271,10.9167 41.9063,10.4375 C41.3854,9.95833 41.125,9.14323 41.125,7.99219 C41.125,6.84115 41.3854,6.02604 41.9063,5.54688 C42.4271,5.07813 43.125,4.84375 44,4.84375 C44.2917,4.84375 44.599,4.88542 44.9219,4.96875 C45.2448,5.04167 45.5156,5.14583 45.7344,5.28125 M52,6.29688 C52.1875,5.80729 52.4792,5.44271 52.875,5.20313 C53.2604,4.96354 53.7135,4.84375 54.2344,4.84375 C54.7552,4.84375 55.1719,5.02604 55.4844,5.39063 C55.8073,5.75521 55.9688,6.41667 55.9688,7.375 L55.9688,11 L55.4844,11 L55.4844,7.40625 C55.4844,6.57292 55.3698,6.01042 55.1406,5.71875 C54.9115,5.42708 54.6042,5.28125 54.2188,5.28125 C53.6667,5.28125 53.1823,5.44792 52.7656,5.78125 C52.2969,6.15625 52.0625,6.76042 52.0625,7.59375 L52.0625,11 L51.5781,11 L51.5781,7.40625 C51.5781,6.60417 51.4661,6.04948 51.2422,5.74219 C51.0182,5.4349 50.7083,5.28125 50.3125,5.28125 C49.7604,5.28125 49.276,5.45313 48.8594,5.79688 C48.3906,6.16146 48.1563,6.76042 48.1563,7.59375 L48.1563,11 L47.6719,11 L47.6719,4.98438 L48.1563,4.98438 L48.1563,6.10938 C48.3333,5.71354 48.6094,5.40104 48.9844,5.17188 C49.349,4.95313 49.8021,4.84375 50.3438,4.84375 C50.6979,4.84375 51.0365,4.95833 51.3594,5.1875 C51.6094,5.375 51.8229,5.74479 52,6.29688 M62.375,6.35938 L62.375,2.64063 L62.8438,2.64063 L62.8438,11 L62.375,11 L62.375,9.64063 C62.1458,10.1615 61.8958,10.5156 61.625,10.7031 C61.2292,11.0052 60.849,11.1563 60.4844,11.1563 C59.776,11.1563 59.1849,10.8672 58.7109,10.2891 C58.237,9.71094 58,8.94792 58,8 C58,7.05208 58.237,6.28906 58.7109,5.71094 C59.1849,5.13281 59.776,4.84375 60.4844,4.84375 C60.849,4.84375 61.2292,4.98958 61.625,5.28125 C61.8958,5.47917 62.1458,5.83854 62.375,6.35938 M59.1406,5.90625 C58.724,6.32292 58.5156,7.02083 58.5156,8 C58.5156,8.97917 58.724,9.67708 59.1406,10.0938 C59.5573,10.5104 59.9948,10.7188 60.4531,10.7188 C60.901,10.7188 61.3333,10.5104 61.75,10.0938 C62.1563,9.67708 62.3594,8.97917 62.3594,8 C62.3594,7.02083 62.1563,6.32292 61.75,5.90625 C61.3333,5.48958 60.901,5.28125 60.4531,5.28125 C59.9948,5.28125 59.5573,5.48958 59.1406,5.90625 M69.7031,13.1719 L69.7031,13.5938 L63.9844,13.5938 L63.9844,13.1719 L69.7031,13.1719 M70.2969,4.98438 L70.8125,4.98438 L72.8438,10.4531 L74.8906,4.98438 L75.4063,4.98438 L73.1719,11 L72.5313,11 L70.2969,4.98438 M82.0313,7.75 L82.0313,8.0625 L77.4688,8.0625 C77.4688,9.02083 77.6563,9.69792 78.0313,10.0938 C78.4479,10.5208 79.0625,10.7344 79.875,10.7344 C80.0938,10.7344 80.3802,10.6875 80.7344,10.5938 C81.0885,10.5 81.4427,10.3594 81.7969,10.1719 L81.7969,10.6875 C81.4427,10.8438 81.0807,10.9609 80.7109,11.0391 C80.3411,11.1172 80.0469,11.1563 79.8281,11.1563 C78.901,11.1563 78.2031,10.9063 77.7344,10.4063 C77.224,9.875 76.9688,9.09375 76.9688,8.0625 C76.9688,6.98958 77.1979,6.1875 77.6563,5.65625 C78.1354,5.11458 78.8021,4.84375 79.6563,4.84375 C80.4375,4.84375 81.0313,5.10417 81.4375,5.625 C81.8333,6.16667 82.0313,6.875 82.0313,7.75 M81.5313,7.64063 C81.5313,6.79688 81.3385,6.18229 80.9531,5.79688 C80.6406,5.45313 80.2083,5.28125 79.6563,5.28125 C79.0625,5.28125 78.5625,5.45833 78.1563,5.8125 C77.7813,6.14583 77.5573,6.75521 77.4844,7.64063 L81.5313,7.64063 M84.1094,2.64063 L84.5938,2.64063 L84.5938,11 L84.1094,11 L84.1094,2.64063"/>
</g>

<g fill="none" stroke="#000000" stroke-opacity="1" stroke-width="1" stroke-linecap="square" stroke-linejoin="bevel" transform="matrix(2,0,0,2,57.0938,85)"
font-family="sans" font-size="11" font-weight="100" font-style="normal" 
>
</g>

<g fill="none" stroke="#000000" stroke-opacity="1" stroke-width="1" stroke-linecap="square" stroke-linejoin="bevel" transform="matrix(2,0,0,2,57.0938,85)"
font-family="Ubuntu" font-size="11" font-weight="400" font-style="normal" 
>
</g>

<g fill="none" stroke="#000000" stroke-opacity="1" stroke-width="1" stroke-linecap="square" stroke-linejoin="bevel" transform="matrix(2,0,0,2,-15,167)"
font-family="Ubuntu" font-size="11" font-weight="400" font-style="normal" 
>
</g>

<g fill="none" stroke="#000000" stroke-opacity="1" stroke-width="1" stroke-linecap="square" stroke-linejoin="bevel" transform="matrix(2,0,0,2,-15,167)"
font-family="Ubuntu" font-size="11" font-weight="400" font-style="normal" 
>
</g>

<g fill="none" stroke="#000000" stroke-opacity="1" stroke-width="1" stroke-linecap="square" stroke-linejoin="bevel" transform="matrix(2,0,0,2,-15,167)"
font-family="Ubuntu" font-size="11" font-weight="400" font-style="normal" 
>
</g>

<g fill="none" stroke="#000000" stroke-opacity="1" stroke-width="1" stroke-linecap="square" stroke-linejoin="round" transform="matrix(2,0,0,2,-15,167)"
font-family="Ubuntu" font-size="11" font-weight="400" font-style="normal" 
>
<rect x="16.5" y="-51.5" width="125" height="35"/>
</g>

<g fill="none" stroke="#000000" stroke-opacity="1" stroke-width="1" stroke-linecap="square" stroke-linejoin="bevel" transform="matrix(2,0,0,2,-15,167)"
font-family="Ubuntu" font-size="11" font-weight="400" font-style="normal" 
>
</g>

<g fill="none" stroke="#000000" stroke-opacity="1" stroke-width="1" stroke-linecap="square" stroke-linejoin="bevel" transform="matrix(2,0,0,2,57.0938,85)"
font-family="Ubuntu" font-size="11" font-weight="400" font-style="normal" 
>
</g>

<g fill="none" stroke="#000000" stroke-opacity="1" stroke-width="1" stroke-linecap="square" stroke-linejoin="bevel" transform="matrix(2,0,0,2,57.0938,85)"
font-family="sans" font-size="11" font-weight="100" font-style="normal" 
>
</g>

<g fill="#000000" fill-opacity="1" stroke="#000000" stroke-opacity="1" stroke-width="1" stroke-linecap="square" stroke-linejoin="round" transform="matrix(2,0,0,2,57.0938,85)"
font-family="sans" font-size="11" font-weight="100" font-style="normal" 
>
<path vector-effect="none" fill-rule="nonzero" d="M2.96875,2.98438 L3.53125,2.98438 L0.734375,12.0156 L0.171875,12.0156 L2.96875,2.98438 M9.28125,6.29688 C9.46875,5.80729 9.76042,5.44271 10.1563,5.20313 C10.5417,4.96354 10.9948,4.84375 11.5156,4.84375 C12.0365,4.84375 12.4531,5.02604 12.7656,5.39063 C13.0885,5.75521 13.25,6.41667 13.25,7.375 L13.25,11 L12.7656,11 L12.7656,7.40625 C12.7656,6.57292 12.651,6.01042 12.4219,5.71875 C12.1927,5.42708 11.8854,5.28125 11.5,5.28125 C10.9479,5.28125 10.4635,5.44792 10.0469,5.78125 C9.57813,6.15625 9.34375,6.76042 9.34375,7.59375 L9.34375,11 L8.85938,11 L8.85938,7.40625 C8.85938,6.60417 8.7474,6.04948 8.52344,5.74219 C8.29948,5.4349 7.98958,5.28125 7.59375,5.28125 C7.04167,5.28125 6.55729,5.45313 6.14063,5.79688 C5.67188,6.16146 5.4375,6.76042 5.4375,7.59375 L5.4375,11 L4.95313,11 L4.95313,4.98438 L5.4375,4.98438 L5.4375,6.10938 C5.61458,5.71354 5.89063,5.40104 6.26563,5.17188 C6.63021,4.95313 7.08333,4.84375 7.625,4.84375 C7.97917,4.84375 8.31771,4.95833 8.64063,5.1875 C8.89063,5.375 9.10417,5.74479 9.28125,6.29688 M19.2344,6.01563 C18.8802,5.52604 18.3958,5.28125 17.7813,5.28125 C17.1667,5.28125 16.6823,5.52604 16.3281,6.01563 C15.974,6.49479 15.7969,7.15104 15.7969,7.98438 C15.7969,8.83854 15.974,9.51042 16.3281,10 C16.6823,10.4896 17.1667,10.7344 17.7813,10.7344 C18.3958,10.7344 18.8802,10.4896 19.2344,10 C19.5885,9.5 19.7656,8.82813 19.7656,7.98438 C19.7656,7.16146 19.5885,6.50521 19.2344,6.01563 M17.7813,4.84375 C18.5417,4.84375 19.1458,5.13021 19.5938,5.70313 C20.0417,6.27604 20.2656,7.03646 20.2656,7.98438 C20.2656,8.97396 20.0417,9.75521 19.5938,10.3281 C19.1458,10.901 18.5417,11.1875 17.7813,11.1875 C17,11.1875 16.3854,10.901 15.9375,10.3281 C15.5,9.75521 15.2813,8.97396 15.2813,7.98438 C15.2813,7.02604 15.5052,6.26302 15.9531,5.69531 C16.401,5.1276 17.0104,4.84375 17.7813,4.84375 M22.8906,3.28125 L22.8906,4.98438 L24.9219,4.98438 L24.9219,5.40625 L22.8906,5.40625 L22.8906,9.01563 C22.8906,9.47396 22.9479,9.79688 23.0625,9.98438 C23.3125,10.3802 23.6719,10.5781 24.1406,10.5781 L24.9219,10.5781 L24.9219,11 L24.1563,11 C23.6667,11 23.25,10.8568 22.9063,10.5703 C22.5625,10.2839 22.3906,9.76563 22.3906,9.01563 L22.3906,5.40625 L21.6719,5.40625 L21.6719,4.98438 L22.3906,4.98438 L22.3906,3.28125 L22.8906,3.28125 M30.2656,6.01563 C29.9115,5.52604 29.4271,5.28125 28.8125,5.28125 C28.1979,5.28125 27.7135,5.52604 27.3594,6.01563 C27.0052,6.49479 26.8281,7.15104 26.8281,7.98438 C26.8281,8.83854 27.0052,9.51042 27.3594,10 C27.7135,10.4896 28.1979,10.7344 28.8125,10.7344 C29.4271,10.7344 29.9115,10.4896 30.2656,10 C30.6198,9.5 30.7969,8.82813 30.7969,7.98438 C30.7969,7.16146 30.6198,6.50521 30.2656,6.01563 M28.8125,4.84375 C29.5729,4.84375 30.1771,5.13021 30.625,5.70313 C31.0729,6.27604 31.2969,7.03646 31.2969,7.98438 C31.2969,8.97396 31.0729,9.75521 30.625,10.3281 C30.1771,10.901 29.5729,11.1875 28.8125,11.1875 C28.0313,11.1875 27.4167,10.901 26.9688,10.3281 C26.5313,9.75521 26.3125,8.97396 26.3125,7.98438 C26.3125,7.02604 26.5365,6.26302 26.9844,5.69531 C27.4323,5.1276 28.0417,4.84375 28.8125,4.84375 M36.6719,5.40625 C36.5885,5.36458 36.4792,5.33333 36.3438,5.3125 C36.2188,5.29167 36.0677,5.28125 35.8906,5.28125 C35.276,5.28125 34.7708,5.50521 34.375,5.95313 C34.0521,6.31771 33.8906,6.94271 33.8906,7.82813 L33.8906,11 L33.4063,11 L33.4063,4.98438 L33.8906,4.98438 L33.8906,6.10938 C34.0573,5.78646 34.2865,5.51563 34.5781,5.29688 C34.974,4.99479 35.4427,4.84375 35.9844,4.84375 C36.1302,4.84375 36.2552,4.84896 36.3594,4.85938 C36.4635,4.85938 36.5677,4.86979 36.6719,4.89063 L36.6719,5.40625 M39.6406,2.98438 L40.2031,2.98438 L37.4063,12.0156 L36.8438,12.0156 L39.6406,2.98438 M45.7344,5.28125 L45.7344,5.79688 C45.4427,5.61979 45.1979,5.5 45,5.4375 C44.6667,5.33333 44.349,5.28125 44.0469,5.28125 C43.1823,5.28125 42.5625,5.5026 42.1875,5.94531 C41.8125,6.38802 41.625,7.07292 41.625,8 C41.625,8.9375 41.8125,9.6276 42.1875,10.0703 C42.5625,10.513 43.1823,10.7344 44.0469,10.7344 C44.3385,10.7344 44.6198,10.6927 44.8906,10.6094 C45.1823,10.5365 45.4635,10.4219 45.7344,10.2656 L45.7344,10.7656 C45.4635,10.901 45.1823,11 44.8906,11.0625 C44.5885,11.125 44.2917,11.1563 44,11.1563 C43.125,11.1563 42.4271,10.9167 41.9063,10.4375 C41.3854,9.95833 41.125,9.14323 41.125,7.99219 C41.125,6.84115 41.3854,6.02604 41.9063,5.54688 C42.4271,5.07813 43.125,4.84375 44,4.84375 C44.2917,4.84375 44.599,4.88542 44.9219,4.96875 C45.2448,5.04167 45.5156,5.14583 45.7344,5.28125 M52,6.29688 C52.1875,5.80729 52.4792,5.44271 52.875,5.20313 C53.2604,4.96354 53.7135,4.84375 54.2344,4.84375 C54.7552,4.84375 55.1719,5.02604 55.4844,5.39063 C55.8073,5.75521 55.9688,6.41667 55.9688,7.375 L55.9688,11 L55.4844,11 L55.4844,7.40625 C55.4844,6.57292 55.3698,6.01042 55.1406,5.71875 C54.9115,5.42708 54.6042,5.28125 54.2188,5.28125 C53.6667,5.28125 53.1823,5.44792 52.7656,5.78125 C52.2969,6.15625 52.0625,6.76042 52.0625,7.59375 L52.0625,11 L51.5781,11 L51.5781,7.40625 C51.5781,6.60417 51.4661,6.04948 51.2422,5.74219 C51.0182,5.4349 50.7083,5.28125 50.3125,5.28125 C49.7604,5.28125 49.276,5.45313 48.8594,5.79688 C48.3906,6.16146 48.1563,6.76042 48.1563,7.59375 L48.1563,11 L47.6719,11 L47.6719,4.98438 L48.1563,4.98438 L48.1563,6.10938 C48.3333,5.71354 48.6094,5.40104 48.9844,5.17188 C49.349,4.95313 49.8021,4.84375 50.3438,4.84375 C50.6979,4.84375 51.0365,4.95833 51.3594,5.1875 C51.6094,5.375 51.8229,5.74479 52,6.29688 M62.375,6.35938 L62.375,2.64063 L62.8438,2.64063 L62.8438,11 L62.375,11 L62.375,9.64063 C62.1458,10.1615 61.8958,10.5156 61.625,10.7031 C61.2292,11.0052 60.849,11.1563 60.4844,11.1563 C59.776,11.1563 59.1849,10.8672 58.7109,10.2891 C58.237,9.71094 58,8.94792 58,8 C58,7.05208 58.237,6.28906 58.7109,5.71094 C59.1849,5.13281 59.776,4.84375 60.4844,4.84375 C60.849,4.84375 61.2292,4.98958 61.625,5.28125 C61.8958,5.47917 62.1458,5.83854 62.375,6.35938 M59.1406,5.90625 C58.724,6.32292 58.5156,7.02083 58.5156,8 C58.5156,8.97917 58.724,9.67708 59.1406,10.0938 C59.5573,10.5104 59.9948,10.7188 60.4531,10.7188 C60.901,10.7188 61.3333,10.5104 61.75,10.0938 C62.1563,9.67708 62.3594,8.97917 62.3594,8 C62.3594,7.02083 62.1563,6.32292 61.75,5.90625 C61.3333,5.48958 60.901,5.28125 60.4531,5.28125 C59.9948,5.28125 59.5573,5.48958 59.1406,5.90625 M69.7031,13.1719 L69.7031,13.5938 L63.9844,13.5938 L63.9844,13.1719 L69.7031,13.1719 M70.2969,4.98438 L70.8125,4.98438 L72.8438,10.4531 L74.8906,4.98438 L75.4063,4.98438 L73.1719,11 L72.5313,11 L70.2969,4.98438 M82.0313,7.75 L82.0313,8.0625 L77.4688,8.0625 C77.4688,9.02083 77.6563,9.69792 78.0313,10.0938 C78.4479,10.5208 79.0625,10.7344 79.875,10.7344 C80.0938,10.7344 80.3802,10.6875 80.7344,10.5938 C81.0885,10.5 81.4427,10.3594 81.7969,10.1719 L81.7969,10.6875 C81.4427,10.8438 81.0807,10.9609 80.7109,11.0391 C80.3411,11.1172 80.0469,11.1563 79.8281,11.1563 C78.901,11.1563 78.2031,10.9063 77.7344,10.4063 C77.224,9.875 76.9688,9.09375 76.9688,8.0625 C76.9688,6.98958 77.1979,6.1875 77.6563,5.65625 C78.1354,5.11458 78.8021,4.84375 79.6563,4.84375 C80.4375,4.84375 81.0313,5.10417 81.4375,5.625 C81.8333,6.16667 82.0313,6.875 82.0313,7.75 M81.5313,7.64063 C81.5313,6.79688 81.3385,6.18229 80.9531,5.79688 C80.6406,5.45313 80.2083,5.28125 79.6563,5.28125 C79.0625,5.28125 78.5625,5.45833 78.1563,5.8125 C77.7813,6.14583 77.5573,6.75521 77.4844,7.64063 L81.5313,7.64063 M84.1094,2.64063 L84.5938,2.64063 L84.5938,11 L84.1094,11 L84.1094,2.64063"/>
</g>

<g fill="none" stroke="#000000" stroke-opacity="1" stroke-width="1" stroke-linecap="square" stroke-linejoin="bevel" transform="matrix(2,0,0,2,57.0938,85)"
font-family="sans" font-size="11" font-weight="100" font-style="normal" 
>
</g>

<g fill="none" stroke="#000000" stroke-opacity="1" stroke-width="1" stroke-linecap="square" stroke-linejoin="bevel" transform="matrix(2,0,0,2,57.0938,85)"
font-family="Ubuntu" font-size="11" font-weight="400" font-style="normal" 
>
</g>

<g fill="none" stroke="#000000" stroke-opacity="1" stroke-width="1" stroke-linecap="square" stroke-linejoin="bevel" transform="matrix(2,0,0,2,-15,167)"
font-family="Ubuntu" font-size="11" font-weight="400" font-style="normal" 
>
</g>

<g fill="none" stroke="#000000" stroke-opacity="1" stroke-width="1" stroke-linecap="square" stroke-linejoin="bevel" transform="matrix(2,0,0,2,-15,167)"
font-family="Ubuntu" font-size="11" font-weight="400" font-style="normal" 
>
</g>

<g fill="none" stroke="#000000" stroke-opacity="1" stroke-width="1" stroke-linecap="square" stroke-linejoin="bevel" transform="matrix(2,0,0,2,-15,167)"
font-family="Ubuntu" font-size="11" font-weight="400" font-style="normal" 
>
</g>

<g fill="none" stroke="#000000" stroke-opacity="1" stroke-width="1" stroke-linecap="square" stroke-linejoin="round" transform="matrix(2,0,0,2,-15,167)"
font-family="Ubuntu" font-size="11" font-weight="400" font-style="normal" 
>
<ellipse cx="241.19" cy="-34" rx="82.6924" ry="17.5"/>
</g>

<g fill="none" stroke="#000000" stroke-opacity="1" stroke-width="1" stroke-linecap="square" stroke-linejoin="bevel" transform="matrix(2,0,0,2,-15,167)"
font-family="Ubuntu" font-size="11" font-weight="400" font-style="normal" 
>
</g>

<g fill="none" stroke="#000000" stroke-opacity="1" stroke-width="1" stroke-linecap="square" stroke-linejoin="bevel" transform="matrix(2,0,0,2,379.958,85)"
font-family="Ubuntu" font-size="11" font-weight="400" font-style="normal" 
>
</g>

<g fill="none" stroke="#000000" stroke-opacity="1" stroke-width="1" stroke-linecap="square" stroke-linejoin="bevel" transform="matrix(2,0,0,2,379.958,85)"
font-family="sans" font-size="11" font-weight="100" font-style="normal" 
>
</g>

<g fill="#000000" fill-opacity="1" stroke="#000000" stroke-opacity="1" stroke-width="1" stroke-linecap="square" stroke-linejoin="round" transform="matrix(2,0,0,2,379.958,85)"
font-family="sans" font-size="11" font-weight="100" font-style="normal" 
>
<path vector-effect="none" fill-rule="nonzero" d="M2.96875,2.98438 L3.53125,2.98438 L0.734375,12.0156 L0.171875,12.0156 L2.96875,2.98438 M4.95313,2.64063 L5.4375,2.64063 L5.4375,11 L4.95313,11 L4.95313,2.64063 M12.6875,7.75 L12.6875,8.0625 L8.125,8.0625 C8.125,9.02083 8.3125,9.69792 8.6875,10.0938 C9.10417,10.5208 9.71875,10.7344 10.5313,10.7344 C10.75,10.7344 11.0365,10.6875 11.3906,10.5938 C11.7448,10.5 12.099,10.3594 12.4531,10.1719 L12.4531,10.6875 C12.099,10.8438 11.737,10.9609 11.3672,11.0391 C10.9974,11.1172 10.7031,11.1563 10.4844,11.1563 C9.55729,11.1563 8.85938,10.9063 8.39063,10.4063 C7.88021,9.875 7.625,9.09375 7.625,8.0625 C7.625,6.98958 7.85417,6.1875 8.3125,5.65625 C8.79167,5.11458 9.45833,4.84375 10.3125,4.84375 C11.0938,4.84375 11.6875,5.10417 12.0938,5.625 C12.4896,6.16667 12.6875,6.875 12.6875,7.75 M12.1875,7.64063 C12.1875,6.79688 11.9948,6.18229 11.6094,5.79688 C11.2969,5.45313 10.8646,5.28125 10.3125,5.28125 C9.71875,5.28125 9.21875,5.45833 8.8125,5.8125 C8.4375,6.14583 8.21354,6.75521 8.14063,7.64063 L12.1875,7.64063 M18.3438,6.01563 C17.9896,5.52604 17.5052,5.28125 16.8906,5.28125 C16.276,5.28125 15.7917,5.52604 15.4375,6.01563 C15.0833,6.49479 14.9063,7.15104 14.9063,7.98438 C14.9063,8.83854 15.0833,9.51042 15.4375,10 C15.7917,10.4896 16.276,10.7344 16.8906,10.7344 C17.5052,10.7344 17.9896,10.4896 18.3438,10 C18.6979,9.5 18.875,8.82813 18.875,7.98438 C18.875,7.16146 18.6979,6.50521 18.3438,6.01563 M16.8906,4.84375 C17.651,4.84375 18.2552,5.13021 18.7031,5.70313 C19.151,6.27604 19.375,7.03646 19.375,7.98438 C19.375,8.97396 19.151,9.75521 18.7031,10.3281 C18.2552,10.901 17.651,11.1875 16.8906,11.1875 C16.1094,11.1875 15.4948,10.901 15.0469,10.3281 C14.6094,9.75521 14.3906,8.97396 14.3906,7.98438 C14.3906,7.02604 14.6146,6.26302 15.0625,5.69531 C15.5104,5.1276 16.1198,4.84375 16.8906,4.84375 M25.8438,13.1719 L25.8438,13.5938 L20.125,13.5938 L20.125,13.1719 L25.8438,13.1719 M30.25,5.40625 C30.1667,5.36458 30.0573,5.33333 29.9219,5.3125 C29.7969,5.29167 29.6458,5.28125 29.4688,5.28125 C28.8542,5.28125 28.349,5.50521 27.9531,5.95313 C27.6302,6.31771 27.4688,6.94271 27.4688,7.82813 L27.4688,11 L26.9844,11 L26.9844,4.98438 L27.4688,4.98438 L27.4688,6.10938 C27.6354,5.78646 27.8646,5.51563 28.1563,5.29688 C28.5521,4.99479 29.0208,4.84375 29.5625,4.84375 C29.7083,4.84375 29.8333,4.84896 29.9375,4.85938 C30.0417,4.85938 30.1458,4.86979 30.25,4.89063 L30.25,5.40625 M34.8281,6.01563 C34.474,5.52604 33.9896,5.28125 33.375,5.28125 C32.7604,5.28125 32.276,5.52604 31.9219,6.01563 C31.5677,6.49479 31.3906,7.15104 31.3906,7.98438 C31.3906,8.83854 31.5677,9.51042 31.9219,10 C32.276,10.4896 32.7604,10.7344 33.375,10.7344 C33.9896,10.7344 34.474,10.4896 34.8281,10 C35.1823,9.5 35.3594,8.82813 35.3594,7.98438 C35.3594,7.16146 35.1823,6.50521 34.8281,6.01563 M33.375,4.84375 C34.1354,4.84375 34.7396,5.13021 35.1875,5.70313 C35.6354,6.27604 35.8594,7.03646 35.8594,7.98438 C35.8594,8.97396 35.6354,9.75521 35.1875,10.3281 C34.7396,10.901 34.1354,11.1875 33.375,11.1875 C32.5938,11.1875 31.9792,10.901 31.5313,10.3281 C31.0938,9.75521 30.875,8.97396 30.875,7.98438 C30.875,7.02604 31.099,6.26302 31.5469,5.69531 C31.9948,5.1276 32.6042,4.84375 33.375,4.84375 M37.4219,4.98438 L37.9375,4.98438 L39.9688,10.4531 L42.0156,4.98438 L42.5313,4.98438 L40.2969,11 L39.6563,11 L37.4219,4.98438 M49.1563,7.75 L49.1563,8.0625 L44.5938,8.0625 C44.5938,9.02083 44.7813,9.69792 45.1563,10.0938 C45.5729,10.5208 46.1875,10.7344 47,10.7344 C47.2188,10.7344 47.5052,10.6875 47.8594,10.5938 C48.2135,10.5 48.5677,10.3594 48.9219,10.1719 L48.9219,10.6875 C48.5677,10.8438 48.2057,10.9609 47.8359,11.0391 C47.4661,11.1172 47.1719,11.1563 46.9531,11.1563 C46.026,11.1563 45.3281,10.9063 44.8594,10.4063 C44.349,9.875 44.0938,9.09375 44.0938,8.0625 C44.0938,6.98958 44.3229,6.1875 44.7813,5.65625 C45.2604,5.11458 45.9271,4.84375 46.7813,4.84375 C47.5625,4.84375 48.1563,5.10417 48.5625,5.625 C48.9583,6.16667 49.1563,6.875 49.1563,7.75 M48.6563,7.64063 C48.6563,6.79688 48.4635,6.18229 48.0781,5.79688 C47.7656,5.45313 47.3333,5.28125 46.7813,5.28125 C46.1875,5.28125 45.6875,5.45833 45.2813,5.8125 C44.9063,6.14583 44.6823,6.75521 44.6094,7.64063 L48.6563,7.64063 M54.5,5.40625 C54.4167,5.36458 54.3073,5.33333 54.1719,5.3125 C54.0469,5.29167 53.8958,5.28125 53.7188,5.28125 C53.1042,5.28125 52.599,5.50521 52.2031,5.95313 C51.8802,6.31771 51.7188,6.94271 51.7188,7.82813 L51.7188,11 L51.2344,11 L51.2344,4.98438 L51.7188,4.98438 L51.7188,6.10938 C51.8854,5.78646 52.1146,5.51563 52.4063,5.29688 C52.8021,4.99479 53.2708,4.84375 53.8125,4.84375 C53.9583,4.84375 54.0833,4.84896 54.1875,4.85938 C54.2917,4.85938 54.3958,4.86979 54.5,4.89063 L54.5,5.40625 M60.1094,13.1719 L60.1094,13.5938 L54.3906,13.5938 L54.3906,13.1719 L60.1094,13.1719 M65.7969,7.375 L65.7969,11 L65.2969,11 L65.2969,7.40625 C65.2969,6.625 65.1719,6.07552 64.9219,5.75781 C64.6719,5.4401 64.3021,5.28125 63.8125,5.28125 C63.2396,5.28125 62.7552,5.45313 62.3594,5.79688 C61.9427,6.14063 61.7344,6.73958 61.7344,7.59375 L61.7344,11 L61.25,11 L61.25,4.98438 L61.7344,4.98438 L61.7344,6.10938 C61.9115,5.74479 62.1458,5.46875 62.4375,5.28125 C62.8542,4.98958 63.3177,4.84375 63.8281,4.84375 C64.4323,4.84375 64.9115,5.04688 65.2656,5.45313 C65.6198,5.84896 65.7969,6.48958 65.7969,7.375 M71.7969,6.01563 C71.4427,5.52604 70.9583,5.28125 70.3438,5.28125 C69.7292,5.28125 69.2448,5.52604 68.8906,6.01563 C68.5365,6.49479 68.3594,7.15104 68.3594,7.98438 C68.3594,8.83854 68.5365,9.51042 68.8906,10 C69.2448,10.4896 69.7292,10.7344 70.3438,10.7344 C70.9583,10.7344 71.4427,10.4896 71.7969,10 C72.151,9.5 72.3281,8.82813 72.3281,7.98438 C72.3281,7.16146 72.151,6.50521 71.7969,6.01563 M70.3438,4.84375 C71.1042,4.84375 71.7083,5.13021 72.1563,5.70313 C72.6042,6.27604 72.8281,7.03646 72.8281,7.98438 C72.8281,8.97396 72.6042,9.75521 72.1563,10.3281 C71.7083,10.901 71.1042,11.1875 70.3438,11.1875 C69.5625,11.1875 68.9479,10.901 68.5,10.3281 C68.0625,9.75521 67.8438,8.97396 67.8438,7.98438 C67.8438,7.02604 68.0677,6.26302 68.5156,5.69531 C68.9635,5.1276 69.5729,4.84375 70.3438,4.84375 M78.9375,6.35938 L78.9375,2.64063 L79.4063,2.64063 L79.4063,11 L78.9375,11 L78.9375,9.64063 C78.7083,10.1615 78.4583,10.5156 78.1875,10.7031 C77.7917,11.0052 77.4115,11.1563 77.0469,11.1563 C76.3385,11.1563 75.7474,10.8672 75.2734,10.2891 C74.7995,9.71094 74.5625,8.94792 74.5625,8 C74.5625,7.05208 74.7995,6.28906 75.2734,5.71094 C75.7474,5.13281 76.3385,4.84375 77.0469,4.84375 C77.4115,4.84375 77.7917,4.98958 78.1875,5.28125 C78.4583,5.47917 78.7083,5.83854 78.9375,6.35938 M75.7031,5.90625 C75.2865,6.32292 75.0781,7.02083 75.0781,8 C75.0781,8.97917 75.2865,9.67708 75.7031,10.0938 C76.1198,10.5104 76.5573,10.7188 77.0156,10.7188 C77.4635,10.7188 77.8958,10.5104 78.3125,10.0938 C78.7188,9.67708 78.9219,8.97917 78.9219,8 C78.9219,7.02083 78.7188,6.32292 78.3125,5.90625 C77.8958,5.48958 77.4635,5.28125 77.0156,5.28125 C76.5573,5.28125 76.1198,5.48958 75.7031,5.90625 M86.5938,7.75 L86.5938,8.0625 L82.0313,8.0625 C82.0313,9.02083 82.2188,9.69792 82.5938,10.0938 C83.0104,10.5208 83.625,10.7344 84.4375,10.7344 C84.6563,10.7344 84.9427,10.6875 85.2969,10.5938 C85.651,10.5 86.0052,10.3594 86.3594,10.1719 L86.3594,10.6875 C86.0052,10.8438 85.6432,10.9609 85.2734,11.0391 C84.9036,11.1172 84.6094,11.1563 84.3906,11.1563 C83.4635,11.1563 82.7656,10.9063 82.2969,10.4063 C81.7865,9.875 81.5313,9.09375 81.5313,8.0625 C81.5313,6.98958 81.7604,6.1875 82.2188,5.65625 C82.6979,5.11458 83.3646,4.84375 84.2188,4.84375 C85,4.84375 85.5938,5.10417 86,5.625 C86.3958,6.16667 86.5938,6.875 86.5938,7.75 M86.0938,7.64063 C86.0938,6.79688 85.901,6.18229 85.5156,5.79688 C85.2031,5.45313 84.7708,5.28125 84.2188,5.28125 C83.625,5.28125 83.125,5.45833 82.7188,5.8125 C82.3438,6.14583 82.1198,6.75521 82.0469,7.64063 L86.0938,7.64063"/>
</g>

<g fill="none" stroke="#000000" stroke-opacity="1" stroke-width="1" stroke-linecap="square" stroke-linejoin="bevel" transform="matrix(2,0,0,2,379.958,85)"
font-family="sans" font-size="11" font-weight="100" font-style="normal" 
>
</g>

<g fill="none" stroke="#000000" stroke-opacity="1" stroke-width="1" stroke-linecap="square" stroke-linejoin="bevel" transform="matrix(2,0,0,2,379.958,85)"
font-family="Ubuntu" font-size="11" font-weight="400" font-style="normal" 
>
</g>

<g fill="none" stroke="#000000" stroke-opacity="1" stroke-width="1" stroke-linecap="square" stroke-linejoin="bevel" transform="matrix(2,0,0,2,-15,167)"
font-family="Ubuntu" font-size="11" font-weight="400" font-style="normal" 
>
</g>

<g fill="none" stroke="#000000" stroke-opacity="1" stroke-width="1" stroke-linecap="square" stroke-linejoin="bevel" transform="matrix(2,0,0,2,-15,167)"
font-family="Ubuntu" font-size="11" font-weight="400" font-style="normal" 
>
</g>

<g fill="none" stroke="#000000" stroke-opacity="1" stroke-width="1" stroke-linecap="square" stroke-linejoin="bevel" transform="matrix(2,0,0,2,-15,167)"
font-family="Ubuntu" font-size="11" font-weight="400" font-style="normal" 
>
</g>

<g fill="none" stroke="#000000" stroke-opacity="1" stroke-width="1" stroke-linecap="square" stroke-linejoin="round" transform="matrix(2,0,0,2,-15,167)"
font-family="Ubuntu" font-size="11" font-weight="400" font-style="normal" 
>
<rect x="338.89" y="-51.5" width="58.9998" height="35"/>
</g>

<g fill="none" stroke="#000000" stroke-opacity="1" stroke-width="1" stroke-linecap="square" stroke-linejoin="bevel" transform="matrix(2,0,0,2,-15,167)"
font-family="Ubuntu" font-size="11" font-weight="400" font-style="normal" 
>
</g>

<g fill="none" stroke="#000000" stroke-opacity="1" stroke-width="1" stroke-linecap="square" stroke-linejoin="bevel" transform="matrix(2,0,0,2,686.967,85)"
font-family="Ubuntu" font-size="11" font-weight="400" font-style="normal" 
>
</g>

<g fill="none" stroke="#000000" stroke-opacity="1" stroke-width="1" stroke-linecap="square" stroke-linejoin="bevel" transform="matrix(2,0,0,2,686.967,85)"
font-family="sans" font-size="11" font-weight="100" font-style="normal" 
>
</g>

<g fill="#000000" fill-opacity="1" stroke="#000000" stroke-opacity="1" stroke-width="1" stroke-linecap="square" stroke-linejoin="round" transform="matrix(2,0,0,2,686.967,85)"
font-family="sans" font-size="11" font-weight="100" font-style="normal" 
>
<path vector-effect="none" fill-rule="nonzero" d="M2.96875,2.98438 L3.53125,2.98438 L0.734375,12.0156 L0.171875,12.0156 L2.96875,2.98438 M8.53125,6.01563 C8.17708,5.52604 7.69271,5.28125 7.07813,5.28125 C6.46354,5.28125 5.97917,5.52604 5.625,6.01563 C5.27083,6.49479 5.09375,7.15104 5.09375,7.98438 C5.09375,8.83854 5.27083,9.51042 5.625,10 C5.97917,10.4896 6.46354,10.7344 7.07813,10.7344 C7.69271,10.7344 8.17708,10.4896 8.53125,10 C8.88542,9.5 9.0625,8.82813 9.0625,7.98438 C9.0625,7.16146 8.88542,6.50521 8.53125,6.01563 M7.07813,4.84375 C7.83854,4.84375 8.44271,5.13021 8.89063,5.70313 C9.33854,6.27604 9.5625,7.03646 9.5625,7.98438 C9.5625,8.97396 9.33854,9.75521 8.89063,10.3281 C8.44271,10.901 7.83854,11.1875 7.07813,11.1875 C6.29688,11.1875 5.68229,10.901 5.23438,10.3281 C4.79688,9.75521 4.57813,8.97396 4.57813,7.98438 C4.57813,7.02604 4.80208,6.26302 5.25,5.69531 C5.69792,5.1276 6.30729,4.84375 7.07813,4.84375 M15.6719,6.35938 L15.6719,2.64063 L16.1406,2.64063 L16.1406,11 L15.6719,11 L15.6719,9.64063 C15.4427,10.1615 15.1927,10.5156 14.9219,10.7031 C14.526,11.0052 14.1458,11.1563 13.7813,11.1563 C13.0729,11.1563 12.4818,10.8672 12.0078,10.2891 C11.5339,9.71094 11.2969,8.94792 11.2969,8 C11.2969,7.05208 11.5339,6.28906 12.0078,5.71094 C12.4818,5.13281 13.0729,4.84375 13.7813,4.84375 C14.1458,4.84375 14.526,4.98958 14.9219,5.28125 C15.1927,5.47917 15.4427,5.83854 15.6719,6.35938 M12.4375,5.90625 C12.0208,6.32292 11.8125,7.02083 11.8125,8 C11.8125,8.97917 12.0208,9.67708 12.4375,10.0938 C12.8542,10.5104 13.2917,10.7188 13.75,10.7188 C14.1979,10.7188 14.6302,10.5104 15.0469,10.0938 C15.4531,9.67708 15.6563,8.97917 15.6563,8 C15.6563,7.02083 15.4531,6.32292 15.0469,5.90625 C14.6302,5.48958 14.1979,5.28125 13.75,5.28125 C13.2917,5.28125 12.8542,5.48958 12.4375,5.90625 M22.2188,6.01563 C21.8646,5.52604 21.3802,5.28125 20.7656,5.28125 C20.151,5.28125 19.6667,5.52604 19.3125,6.01563 C18.9583,6.49479 18.7813,7.15104 18.7813,7.98438 C18.7813,8.83854 18.9583,9.51042 19.3125,10 C19.6667,10.4896 20.151,10.7344 20.7656,10.7344 C21.3802,10.7344 21.8646,10.4896 22.2188,10 C22.5729,9.5 22.75,8.82813 22.75,7.98438 C22.75,7.16146 22.5729,6.50521 22.2188,6.01563 M20.7656,4.84375 C21.526,4.84375 22.1302,5.13021 22.5781,5.70313 C23.026,6.27604 23.25,7.03646 23.25,7.98438 C23.25,8.97396 23.026,9.75521 22.5781,10.3281 C22.1302,10.901 21.526,11.1875 20.7656,11.1875 C19.9844,11.1875 19.3698,10.901 18.9219,10.3281 C18.4844,9.75521 18.2656,8.97396 18.2656,7.98438 C18.2656,7.02604 18.4896,6.26302 18.9375,5.69531 C19.3854,5.1276 19.9948,4.84375 20.7656,4.84375 M29.6875,6.29688 C29.875,5.80729 30.1667,5.44271 30.5625,5.20313 C30.9479,4.96354 31.401,4.84375 31.9219,4.84375 C32.4427,4.84375 32.8594,5.02604 33.1719,5.39063 C33.4948,5.75521 33.6563,6.41667 33.6563,7.375 L33.6563,11 L33.1719,11 L33.1719,7.40625 C33.1719,6.57292 33.0573,6.01042 32.8281,5.71875 C32.599,5.42708 32.2917,5.28125 31.9063,5.28125 C31.3542,5.28125 30.8698,5.44792 30.4531,5.78125 C29.9844,6.15625 29.75,6.76042 29.75,7.59375 L29.75,11 L29.2656,11 L29.2656,7.40625 C29.2656,6.60417 29.1536,6.04948 28.9297,5.74219 C28.7057,5.4349 28.3958,5.28125 28,5.28125 C27.4479,5.28125 26.9635,5.45313 26.5469,5.79688 C26.0781,6.16146 25.8438,6.76042 25.8438,7.59375 L25.8438,11 L25.3594,11 L25.3594,4.98438 L25.8438,4.98438 L25.8438,6.10938 C26.0208,5.71354 26.2969,5.40104 26.6719,5.17188 C27.0365,4.95313 27.4896,4.84375 28.0313,4.84375 C28.3854,4.84375 28.724,4.95833 29.0469,5.1875 C29.2969,5.375 29.5104,5.74479 29.6875,6.29688 "/>
</g>

<g fill="none" stroke="#000000" stroke-opacity="1" stroke-width="1" stroke-linecap="square" stroke-linejoin="bevel" transform="matrix(2,0,0,2,686.967,85)"
font-family="sans" font-size="11" font-weight="100" font-style="normal" 
>
</g>

<g fill="none" stroke="#000000" stroke-opacity="1" stroke-width="1" stroke-linecap="square" stroke-linejoin="bevel" transform="matrix(2,0,0,2,686.967,85)"
font-family="Ubuntu" font-size="11" font-weight="400" font-style="normal" 
>
</g>

<g fill="none" stroke="#000000" stroke-opacity="1" stroke-width="1" stroke-linecap="square" stroke-linejoin="bevel" transform="matrix(2,0,0,2,-15,167)"
font-family="Ubuntu" font-size="11" font-weight="400" font-style="normal" 
>
</g>

<g fill="none" stroke="#000000" stroke-opacity="1" stroke-width="1" stroke-linecap="square" stroke-linejoin="bevel" transform="matrix(2,0,0,2,-15,167)"
font-family="Ubuntu" font-size="11" font-weight="400" font-style="normal" 
>
</g>

<g fill="none" stroke="#000000" stroke-opacity="1" stroke-width="1" stroke-linecap="square" stroke-linejoin="bevel" transform="matrix(2,0,0,2,-15,167)"
font-family="Ubuntu" font-size="11" font-weight="400" font-style="normal" 
>
</g>

<g fill="none" stroke="#000000" stroke-opacity="1" stroke-width="1" stroke-linecap="square" stroke-linejoin="round" transform="matrix(2,0,0,2,-15,167)"
font-family="Ubuntu" font-size="11" font-weight="400" font-style="normal" 
>
<path vector-effect="none" fill-rule="evenodd" d="M142.39,-34 C144.14,-34 145.91,-34 147.68,-34 "/>
</g>

<g fill="none" stroke="#000000" stroke-opacity="1" stroke-width="1" stroke-linecap="square" stroke-linejoin="bevel" transform="matrix(2,0,0,2,-15,167)"
font-family="Ubuntu" font-size="11" font-weight="400" font-style="normal" 
>
</g>

<g fill="none" stroke="#000000" stroke-opacity="1" stroke-width="1" stroke-linecap="square" stroke-linejoin="bevel" transform="matrix(2,0,0,2,-15,167)"
font-family="Ubuntu" font-size="11" font-weight="400" font-style="normal" 
>
</g>

<g fill="#000000" fill-opacity="1" stroke="#000000" stroke-opacity="1" stroke-width="1" stroke-linecap="square" stroke-linejoin="round" transform="matrix(2,0,0,2,-15,167)"
font-family="Ubuntu" font-size="11" font-weight="400" font-style="normal" 
>
<path vector-effect="none" fill-rule="evenodd" d="M147.68,-34 L147.68,-30.4265 L157.89,-34 L147.68,-37.5735 L147.68,-34"/>
</g>

<g fill="none" stroke="#000000" stroke-opacity="1" stroke-width="1" stroke-linecap="square" stroke-linejoin="bevel" transform="matrix(2,0,0,2,-15,167)"
font-family="Ubuntu" font-size="11" font-weight="400" font-style="normal" 
>
</g>

<g fill="none" stroke="#000000" stroke-opacity="1" stroke-width="1" stroke-linecap="square" stroke-linejoin="bevel" transform="matrix(2,0,0,2,-15,167)"
font-family="Ubuntu" font-size="11" font-weight="400" font-style="normal" 
>
</g>

<g fill="none" stroke="#000000" stroke-opacity="1" stroke-width="1" stroke-linecap="square" stroke-linejoin="bevel" transform="matrix(2,0,0,2,-15,167)"
font-family="Ubuntu" font-size="11" font-weight="400" font-style="normal" 
>
</g>

<g fill="none" stroke="#000000" stroke-opacity="1" stroke-width="1" stroke-linecap="square" stroke-linejoin="bevel" transform="matrix(2,0,0,2,-15,167)"
font-family="Ubuntu" font-size="11" font-weight="400" font-style="normal" 
>
</g>

<g fill="none" stroke="#000000" stroke-opacity="1" stroke-width="1" stroke-linecap="square" stroke-linejoin="round" transform="matrix(2,0,0,2,-15,167)"
font-family="Ubuntu" font-size="11" font-weight="400" font-style="normal" 
>
<path vector-effect="none" fill-rule="evenodd" d="M324.65,-34 C325.84,-34 327.02,-34 328.19,-34 "/>
</g>

<g fill="none" stroke="#000000" stroke-opacity="1" stroke-width="1" stroke-linecap="square" stroke-linejoin="bevel" transform="matrix(2,0,0,2,-15,167)"
font-family="Ubuntu" font-size="11" font-weight="400" font-style="normal" 
>
</g>

<g fill="none" stroke="#000000" stroke-opacity="1" stroke-width="1" stroke-linecap="square" stroke-linejoin="bevel" transform="matrix(2,0,0,2,-15,167)"
font-family="Ubuntu" font-size="11" font-weight="400" font-style="normal" 
>
</g>

<g fill="#000000" fill-opacity="1" stroke="#000000" stroke-opacity="1" stroke-width="1" stroke-linecap="square" stroke-linejoin="round" transform="matrix(2,0,0,2,-15,167)"
font-family="Ubuntu" font-size="11" font-weight="400" font-style="normal" 
>
<path vector-effect="none" fill-rule="evenodd" d="M328.19,-34 L328.19,-30.465 L338.29,-34 L328.19,-37.535 L328.19,-34"/>
</g>

<g fill="none" stroke="#000000" stroke-opacity="1" stroke-width="1" stroke-linecap="square" stroke-linejoin="bevel" transform="matrix(2,0,0,2,-15,167)"
font-family="Ubuntu" font-size="11" font-weight="400" font-style="normal" 
>
</g>

<g fill="none" stroke="#000000" stroke-opacity="1" stroke-width="1" stroke-linecap="square" stroke-linejoin="bevel" transform="matrix(1,0,0,1,0,0)"
font-family="Ubuntu" font-size="11" font-weight="400" font-style="normal" 
>
</g>
</g>
</svg>
