<?xml version="1.0" encoding="UTF-8" standalone="no"?>
<svg width="135.114mm" height="25.4mm"
 xmlns="http://www.w3.org/2000/svg" xmlns:xlink="http://www.w3.org/1999/xlink"  version="1.2" baseProfile="tiny">
<title>Qt SVG Document</title>
<desc>Generated with Qt</desc>
<defs>
</defs>
<g fill="none" stroke="black" stroke-width="1" fill-rule="evenodd" stroke-linecap="square" stroke-linejoin="bevel" >

<g fill="none" stroke="#000000" stroke-opacity="1" stroke-width="1" stroke-linecap="square" stroke-linejoin="bevel" transform="matrix(1,0,0,1,0,0)"
font-family="Ubuntu" font-size="11" font-weight="400" font-style="normal" 
>
</g>

<g fill="none" stroke="#000000" stroke-opacity="1" stroke-width="1" stroke-linecap="square" stroke-linejoin="bevel" transform="matrix(1,0,0,1,0,0)"
font-family="Ubuntu" font-size="11" font-weight="400" font-style="normal" 
>
</g>

<g fill="none" stroke="#000000" stroke-opacity="1" stroke-width="1" stroke-linecap="square" stroke-linejoin="bevel" transform="matrix(2,0,0,2,-0.0028,72)"
font-family="Ubuntu" font-size="11" font-weight="400" font-style="normal" 
>
</g>

<g fill="#ffffff" fill-opacity="1" stroke="none" transform="matrix(2,0,0,2,-0.0028,72)"
font-family="Ubuntu" font-size="11" font-weight="400" font-style="normal" 
>
<rect x="0.0014" y="-36" width="191.489" height="36"/>
</g>

<g fill="none" stroke="#000000" stroke-opacity="1" stroke-width="1" stroke-linecap="square" stroke-linejoin="bevel" transform="matrix(2,0,0,2,-0.0028,72)"
font-family="Ubuntu" font-size="11" font-weight="400" font-style="normal" 
>
</g>

<g fill="none" stroke="#000000" stroke-opacity="1" stroke-width="1" stroke-linecap="square" stroke-linejoin="bevel" transform="matrix(2,0,0,2,-0.0028,72)"
font-family="Ubuntu" font-size="11" font-weight="400" font-style="normal" 
>
</g>

<g fill="none" stroke="#000000" stroke-opacity="1" stroke-width="1" stroke-linecap="square" stroke-linejoin="bevel" transform="matrix(2,0,0,2,-0.0028,72)"
font-family="Ubuntu" font-size="11" font-weight="400" font-style="normal" 
>
</g>

<g fill="none" stroke="#000000" stroke-opacity="1" stroke-width="1" stroke-linecap="square" stroke-linejoin="bevel" transform="matrix(2,0,0,2,-0.0028,72)"
font-family="Ubuntu" font-size="11" font-weight="400" font-style="normal" 
>
</g>

<g fill="none" stroke="#000000" stroke-opacity="1" stroke-width="1" stroke-linecap="square" stroke-linejoin="round" transform="matrix(2,0,0,2,-0.0028,72)"
font-family="Ubuntu" font-size="11" font-weight="400" font-style="normal" 
>
<rect x="137.99" y="-35.5" width="53" height="35"/>
</g>

<g fill="none" stroke="#000000" stroke-opacity="1" stroke-width="1" stroke-linecap="square" stroke-linejoin="bevel" transform="matrix(2,0,0,2,-0.0028,72)"
font-family="Ubuntu" font-size="11" font-weight="400" font-style="normal" 
>
</g>

<g fill="none" stroke="#000000" stroke-opacity="1" stroke-width="1" stroke-linecap="square" stroke-linejoin="bevel" transform="matrix(2,0,0,2,299.805,22)"
font-family="Ubuntu" font-size="11" font-weight="400" font-style="normal" 
>
</g>

<g fill="none" stroke="#000000" stroke-opacity="1" stroke-width="1" stroke-linecap="square" stroke-linejoin="bevel" transform="matrix(2,0,0,2,299.805,22)"
font-family="sans" font-size="11" font-weight="100" font-style="normal" 
>
</g>

<g fill="#000000" fill-opacity="1" stroke="#000000" stroke-opacity="1" stroke-width="1" stroke-linecap="square" stroke-linejoin="round" transform="matrix(2,0,0,2,299.805,22)"
font-family="sans" font-size="11" font-weight="100" font-style="normal" 
>
<path vector-effect="none" fill-rule="nonzero" d="M2.96875,2.98438 L3.53125,2.98438 L0.734375,12.0156 L0.171875,12.0156 L2.96875,2.98438 M8.35938,5.15625 L8.35938,5.70313 C8.00521,5.50521 7.78646,5.39583 7.70313,5.375 C7.45313,5.32292 7.14063,5.29167 6.76563,5.28125 C6.20313,5.28125 5.76042,5.39063 5.4375,5.60938 C5.1875,5.79688 5.0625,6.11458 5.0625,6.5625 C5.0625,6.875 5.18229,7.11458 5.42188,7.28125 C5.66146,7.46875 6.01042,7.61458 6.46875,7.71875 L6.8125,7.78125 C7.38542,7.90625 7.81771,8.08333 8.10938,8.3125 C8.45313,8.58333 8.63021,8.92708 8.64063,9.34375 C8.64063,9.90625 8.47396,10.349 8.14063,10.6719 C7.78646,10.9948 7.20833,11.1563 6.40625,11.1563 C5.96875,11.1563 5.63542,11.125 5.40625,11.0625 C5.125,10.9896 4.83333,10.8958 4.53125,10.7813 L4.53125,10.1563 C4.96875,10.4063 5.25,10.5521 5.375,10.5938 C5.72917,10.6875 6.08333,10.7344 6.4375,10.7344 C7.01042,10.7344 7.4375,10.6146 7.71875,10.375 C8,10.125 8.14063,9.80729 8.14063,9.42188 C8.14063,9.08854 8.04688,8.84896 7.85938,8.70313 C7.58854,8.48438 7.16146,8.30729 6.57813,8.17188 L6.23438,8.09375 C5.72396,7.96875 5.33854,7.80208 5.07813,7.59375 C4.74479,7.32292 4.57813,6.99479 4.57813,6.60938 C4.57813,5.98438 4.77865,5.53385 5.17969,5.25781 C5.58073,4.98177 6.07292,4.84375 6.65625,4.84375 C7.15625,4.84375 7.5,4.86979 7.6875,4.92188 C7.91667,4.98438 8.14063,5.0625 8.35938,5.15625 M14.7813,5.28125 L14.7813,5.79688 C14.4896,5.61979 14.2448,5.5 14.0469,5.4375 C13.7135,5.33333 13.3958,5.28125 13.0938,5.28125 C12.2292,5.28125 11.6094,5.5026 11.2344,5.94531 C10.8594,6.38802 10.6719,7.07292 10.6719,8 C10.6719,8.9375 10.8594,9.6276 11.2344,10.0703 C11.6094,10.513 12.2292,10.7344 13.0938,10.7344 C13.3854,10.7344 13.6667,10.6927 13.9375,10.6094 C14.2292,10.5365 14.5104,10.4219 14.7813,10.2656 L14.7813,10.7656 C14.5104,10.901 14.2292,11 13.9375,11.0625 C13.6354,11.125 13.3385,11.1563 13.0469,11.1563 C12.1719,11.1563 11.474,10.9167 10.9531,10.4375 C10.4323,9.95833 10.1719,9.14323 10.1719,7.99219 C10.1719,6.84115 10.4323,6.02604 10.9531,5.54688 C11.474,5.07813 12.1719,4.84375 13.0469,4.84375 C13.3385,4.84375 13.6458,4.88542 13.9688,4.96875 C14.2917,5.04167 14.5625,5.14583 14.7813,5.28125 M19.125,7.60938 C18.3229,7.60938 17.7474,7.75 17.3984,8.03125 C17.0495,8.3125 16.875,8.72396 16.875,9.26563 C16.875,9.79688 17.0208,10.1745 17.3125,10.3984 C17.6042,10.6224 17.9479,10.7344 18.3438,10.7344 C19.0938,10.7344 19.6354,10.4167 19.9688,9.78125 C20.3021,9.13542 20.4688,8.53125 20.4688,7.96875 L20.4688,7.60938 L19.125,7.60938 M20.9688,7.5625 L20.9688,11 L20.4688,11 L20.4688,9.35938 C20.1979,10.1615 19.8333,10.6719 19.375,10.8906 C19.0208,11.0677 18.6615,11.1563 18.2969,11.1563 C17.7031,11.1563 17.2344,10.9948 16.8906,10.6719 C16.5469,10.349 16.375,9.8776 16.375,9.25781 C16.375,8.63802 16.599,8.14063 17.0469,7.76563 C17.4948,7.39063 18.224,7.20313 19.2344,7.20313 L20.4688,7.20313 L20.4688,7.10938 C20.4688,6.57813 20.3125,6.14063 20,5.79688 C19.7083,5.45313 19.2135,5.28125 18.5156,5.28125 C18.1719,5.28125 17.8229,5.34375 17.4688,5.46875 C17.2396,5.55208 16.9375,5.71875 16.5625,5.96875 L16.5625,5.4375 C16.8854,5.23958 17.1875,5.09896 17.4688,5.01563 C17.8646,4.90104 18.2448,4.84375 18.6094,4.84375 C19.3281,4.84375 19.9167,5.05729 20.375,5.48438 C20.7708,5.84896 20.9688,6.54167 20.9688,7.5625 M28,7.375 L28,11 L27.5,11 L27.5,7.40625 C27.5,6.625 27.375,6.07552 27.125,5.75781 C26.875,5.4401 26.5052,5.28125 26.0156,5.28125 C25.4427,5.28125 24.9583,5.45313 24.5625,5.79688 C24.1458,6.14063 23.9375,6.73958 23.9375,7.59375 L23.9375,11 L23.4531,11 L23.4531,4.98438 L23.9375,4.98438 L23.9375,6.10938 C24.1146,5.74479 24.349,5.46875 24.6406,5.28125 C25.0573,4.98958 25.5208,4.84375 26.0313,4.84375 C26.6354,4.84375 27.1146,5.04688 27.4688,5.45313 C27.8229,5.84896 28,6.48958 28,7.375 "/>
</g>

<g fill="none" stroke="#000000" stroke-opacity="1" stroke-width="1" stroke-linecap="square" stroke-linejoin="bevel" transform="matrix(2,0,0,2,299.805,22)"
font-family="sans" font-size="11" font-weight="100" font-style="normal" 
>
</g>

<g fill="none" stroke="#000000" stroke-opacity="1" stroke-width="1" stroke-linecap="square" stroke-linejoin="bevel" transform="matrix(2,0,0,2,299.805,22)"
font-family="Ubuntu" font-size="11" font-weight="400" font-style="normal" 
>
</g>

<g fill="none" stroke="#000000" stroke-opacity="1" stroke-width="1" stroke-linecap="square" stroke-linejoin="bevel" transform="matrix(2,0,0,2,-0.0028,72)"
font-family="Ubuntu" font-size="11" font-weight="400" font-style="normal" 
>
</g>

<g fill="none" stroke="#000000" stroke-opacity="1" stroke-width="1" stroke-linecap="square" stroke-linejoin="bevel" transform="matrix(2,0,0,2,-0.0028,72)"
font-family="Ubuntu" font-size="11" font-weight="400" font-style="normal" 
>
</g>

<g fill="none" stroke="#000000" stroke-opacity="1" stroke-width="1" stroke-linecap="square" stroke-linejoin="bevel" transform="matrix(2,0,0,2,-0.0028,72)"
font-family="Ubuntu" font-size="11" font-weight="400" font-style="normal" 
>
</g>

<g fill="none" stroke="#000000" stroke-opacity="1" stroke-width="1" stroke-linecap="square" stroke-linejoin="round" transform="matrix(2,0,0,2,-0.0028,72)"
font-family="Ubuntu" font-size="11" font-weight="400" font-style="normal" 
>
<ellipse cx="61.745" cy="-18" rx="61.2436" ry="17.5"/>
</g>

<g fill="none" stroke="#000000" stroke-opacity="1" stroke-width="1" stroke-linecap="square" stroke-linejoin="bevel" transform="matrix(2,0,0,2,-0.0028,72)"
font-family="Ubuntu" font-size="11" font-weight="400" font-style="normal" 
>
</g>

<g fill="none" stroke="#000000" stroke-opacity="1" stroke-width="1" stroke-linecap="square" stroke-linejoin="bevel" transform="matrix(2,0,0,2,62.5497,22)"
font-family="Ubuntu" font-size="11" font-weight="400" font-style="normal" 
>
</g>

<g fill="none" stroke="#000000" stroke-opacity="1" stroke-width="1" stroke-linecap="square" stroke-linejoin="bevel" transform="matrix(2,0,0,2,62.5497,22)"
font-family="sans" font-size="11" font-weight="100" font-style="normal" 
>
</g>

<g fill="#000000" fill-opacity="1" stroke="#000000" stroke-opacity="1" stroke-width="1" stroke-linecap="square" stroke-linejoin="round" transform="matrix(2,0,0,2,62.5497,22)"
font-family="sans" font-size="11" font-weight="100" font-style="normal" 
>
<path vector-effect="none" fill-rule="nonzero" d="M2.96875,2.98438 L3.53125,2.98438 L0.734375,12.0156 L0.171875,12.0156 L2.96875,2.98438 M4.95313,2.64063 L5.4375,2.64063 L5.4375,11 L4.95313,11 L4.95313,2.64063 M7.98438,4.98438 L8.48438,4.98438 L8.48438,11 L7.98438,11 L7.98438,4.98438 M7.98438,2.64063 L8.48438,2.64063 L8.48438,3.3125 L7.98438,3.3125 L7.98438,2.64063 M15.0469,6.35938 L15.0469,2.64063 L15.5156,2.64063 L15.5156,11 L15.0469,11 L15.0469,9.64063 C14.8177,10.1615 14.5677,10.5156 14.2969,10.7031 C13.901,11.0052 13.5208,11.1563 13.1563,11.1563 C12.4479,11.1563 11.8568,10.8672 11.3828,10.2891 C10.9089,9.71094 10.6719,8.94792 10.6719,8 C10.6719,7.05208 10.9089,6.28906 11.3828,5.71094 C11.8568,5.13281 12.4479,4.84375 13.1563,4.84375 C13.5208,4.84375 13.901,4.98958 14.2969,5.28125 C14.5677,5.47917 14.8177,5.83854 15.0469,6.35938 M11.8125,5.90625 C11.3958,6.32292 11.1875,7.02083 11.1875,8 C11.1875,8.97917 11.3958,9.67708 11.8125,10.0938 C12.2292,10.5104 12.6667,10.7188 13.125,10.7188 C13.5729,10.7188 14.0052,10.5104 14.4219,10.0938 C14.8281,9.67708 15.0313,8.97917 15.0313,8 C15.0313,7.02083 14.8281,6.32292 14.4219,5.90625 C14.0052,5.48958 13.5729,5.28125 13.125,5.28125 C12.6667,5.28125 12.2292,5.48958 11.8125,5.90625 M20.4219,7.60938 C19.6198,7.60938 19.0443,7.75 18.6953,8.03125 C18.3464,8.3125 18.1719,8.72396 18.1719,9.26563 C18.1719,9.79688 18.3177,10.1745 18.6094,10.3984 C18.901,10.6224 19.2448,10.7344 19.6406,10.7344 C20.3906,10.7344 20.9323,10.4167 21.2656,9.78125 C21.599,9.13542 21.7656,8.53125 21.7656,7.96875 L21.7656,7.60938 L20.4219,7.60938 M22.2656,7.5625 L22.2656,11 L21.7656,11 L21.7656,9.35938 C21.4948,10.1615 21.1302,10.6719 20.6719,10.8906 C20.3177,11.0677 19.9583,11.1563 19.5938,11.1563 C19,11.1563 18.5313,10.9948 18.1875,10.6719 C17.8438,10.349 17.6719,9.8776 17.6719,9.25781 C17.6719,8.63802 17.8958,8.14063 18.3438,7.76563 C18.7917,7.39063 19.5208,7.20313 20.5313,7.20313 L21.7656,7.20313 L21.7656,7.10938 C21.7656,6.57813 21.6094,6.14063 21.2969,5.79688 C21.0052,5.45313 20.5104,5.28125 19.8125,5.28125 C19.4688,5.28125 19.1198,5.34375 18.7656,5.46875 C18.5365,5.55208 18.2344,5.71875 17.8594,5.96875 L17.8594,5.4375 C18.1823,5.23958 18.4844,5.09896 18.7656,5.01563 C19.1615,4.90104 19.5417,4.84375 19.9063,4.84375 C20.625,4.84375 21.2135,5.05729 21.6719,5.48438 C22.0677,5.84896 22.2656,6.54167 22.2656,7.5625 M28.0156,5.40625 C27.9323,5.36458 27.8229,5.33333 27.6875,5.3125 C27.5625,5.29167 27.4115,5.28125 27.2344,5.28125 C26.6198,5.28125 26.1146,5.50521 25.7188,5.95313 C25.3958,6.31771 25.2344,6.94271 25.2344,7.82813 L25.2344,11 L24.75,11 L24.75,4.98438 L25.2344,4.98438 L25.2344,6.10938 C25.401,5.78646 25.6302,5.51563 25.9219,5.29688 C26.3177,4.99479 26.7865,4.84375 27.3281,4.84375 C27.474,4.84375 27.599,4.84896 27.7031,4.85938 C27.8073,4.85938 27.9115,4.86979 28.0156,4.89063 L28.0156,5.40625 M33.625,13.1719 L33.625,13.5938 L27.9063,13.5938 L27.9063,13.1719 L33.625,13.1719 M39.3125,7.375 L39.3125,11 L38.8125,11 L38.8125,7.40625 C38.8125,6.625 38.6875,6.07552 38.4375,5.75781 C38.1875,5.4401 37.8177,5.28125 37.3281,5.28125 C36.7552,5.28125 36.2708,5.45313 35.875,5.79688 C35.4583,6.14063 35.25,6.73958 35.25,7.59375 L35.25,11 L34.7656,11 L34.7656,4.98438 L35.25,4.98438 L35.25,6.10938 C35.4271,5.74479 35.6615,5.46875 35.9531,5.28125 C36.3698,4.98958 36.8333,4.84375 37.3438,4.84375 C37.9479,4.84375 38.4271,5.04688 38.7813,5.45313 C39.1354,5.84896 39.3125,6.48958 39.3125,7.375 M45.3125,6.01563 C44.9583,5.52604 44.474,5.28125 43.8594,5.28125 C43.2448,5.28125 42.7604,5.52604 42.4063,6.01563 C42.0521,6.49479 41.875,7.15104 41.875,7.98438 C41.875,8.83854 42.0521,9.51042 42.4063,10 C42.7604,10.4896 43.2448,10.7344 43.8594,10.7344 C44.474,10.7344 44.9583,10.4896 45.3125,10 C45.6667,9.5 45.8438,8.82813 45.8438,7.98438 C45.8438,7.16146 45.6667,6.50521 45.3125,6.01563 M43.8594,4.84375 C44.6198,4.84375 45.224,5.13021 45.6719,5.70313 C46.1198,6.27604 46.3438,7.03646 46.3438,7.98438 C46.3438,8.97396 46.1198,9.75521 45.6719,10.3281 C45.224,10.901 44.6198,11.1875 43.8594,11.1875 C43.0781,11.1875 42.4635,10.901 42.0156,10.3281 C41.5781,9.75521 41.3594,8.97396 41.3594,7.98438 C41.3594,7.02604 41.5833,6.26302 42.0313,5.69531 C42.4792,5.1276 43.0885,4.84375 43.8594,4.84375 M52.4531,6.35938 L52.4531,2.64063 L52.9219,2.64063 L52.9219,11 L52.4531,11 L52.4531,9.64063 C52.224,10.1615 51.974,10.5156 51.7031,10.7031 C51.3073,11.0052 50.9271,11.1563 50.5625,11.1563 C49.8542,11.1563 49.263,10.8672 48.7891,10.2891 C48.3151,9.71094 48.0781,8.94792 48.0781,8 C48.0781,7.05208 48.3151,6.28906 48.7891,5.71094 C49.263,5.13281 49.8542,4.84375 50.5625,4.84375 C50.9271,4.84375 51.3073,4.98958 51.7031,5.28125 C51.974,5.47917 52.224,5.83854 52.4531,6.35938 M49.2188,5.90625 C48.8021,6.32292 48.5938,7.02083 48.5938,8 C48.5938,8.97917 48.8021,9.67708 49.2188,10.0938 C49.6354,10.5104 50.0729,10.7188 50.5313,10.7188 C50.9792,10.7188 51.4115,10.5104 51.8281,10.0938 C52.2344,9.67708 52.4375,8.97917 52.4375,8 C52.4375,7.02083 52.2344,6.32292 51.8281,5.90625 C51.4115,5.48958 50.9792,5.28125 50.5313,5.28125 C50.0729,5.28125 49.6354,5.48958 49.2188,5.90625 M60.1094,7.75 L60.1094,8.0625 L55.5469,8.0625 C55.5469,9.02083 55.7344,9.69792 56.1094,10.0938 C56.526,10.5208 57.1406,10.7344 57.9531,10.7344 C58.1719,10.7344 58.4583,10.6875 58.8125,10.5938 C59.1667,10.5 59.5208,10.3594 59.875,10.1719 L59.875,10.6875 C59.5208,10.8438 59.1589,10.9609 58.7891,11.0391 C58.4193,11.1172 58.125,11.1563 57.9063,11.1563 C56.9792,11.1563 56.2813,10.9063 55.8125,10.4063 C55.3021,9.875 55.0469,9.09375 55.0469,8.0625 C55.0469,6.98958 55.276,6.1875 55.7344,5.65625 C56.2135,5.11458 56.8802,4.84375 57.7344,4.84375 C58.5156,4.84375 59.1094,5.10417 59.5156,5.625 C59.9115,6.16667 60.1094,6.875 60.1094,7.75 M59.6094,7.64063 C59.6094,6.79688 59.4167,6.18229 59.0313,5.79688 C58.7188,5.45313 58.2865,5.28125 57.7344,5.28125 C57.1406,5.28125 56.6406,5.45833 56.2344,5.8125 C55.8594,6.14583 55.6354,6.75521 55.5625,7.64063 L59.6094,7.64063"/>
</g>

<g fill="none" stroke="#000000" stroke-opacity="1" stroke-width="1" stroke-linecap="square" stroke-linejoin="bevel" transform="matrix(2,0,0,2,62.5497,22)"
font-family="sans" font-size="11" font-weight="100" font-style="normal" 
>
</g>

<g fill="none" stroke="#000000" stroke-opacity="1" stroke-width="1" stroke-linecap="square" stroke-linejoin="bevel" transform="matrix(2,0,0,2,62.5497,22)"
font-family="Ubuntu" font-size="11" font-weight="400" font-style="normal" 
>
</g>

<g fill="none" stroke="#000000" stroke-opacity="1" stroke-width="1" stroke-linecap="square" stroke-linejoin="bevel" transform="matrix(2,0,0,2,-0.0028,72)"
font-family="Ubuntu" font-size="11" font-weight="400" font-style="normal" 
>
</g>

<g fill="none" stroke="#000000" stroke-opacity="1" stroke-width="1" stroke-linecap="square" stroke-linejoin="bevel" transform="matrix(2,0,0,2,-0.0028,72)"
font-family="Ubuntu" font-size="11" font-weight="400" font-style="normal" 
>
</g>

<g fill="none" stroke="#000000" stroke-opacity="1" stroke-width="1" stroke-linecap="square" stroke-linejoin="bevel" transform="matrix(2,0,0,2,-0.0028,72)"
font-family="Ubuntu" font-size="11" font-weight="400" font-style="normal" 
>
</g>

<g fill="none" stroke="#000000" stroke-opacity="1" stroke-width="1" stroke-linecap="square" stroke-linejoin="round" transform="matrix(2,0,0,2,-0.0028,72)"
font-family="Ubuntu" font-size="11" font-weight="400" font-style="normal" 
>
<path vector-effect="none" fill-rule="evenodd" d="M123.67,-18 C124.69,-18 125.7,-18 126.7,-18 "/>
</g>

<g fill="none" stroke="#000000" stroke-opacity="1" stroke-width="1" stroke-linecap="square" stroke-linejoin="bevel" transform="matrix(2,0,0,2,-0.0028,72)"
font-family="Ubuntu" font-size="11" font-weight="400" font-style="normal" 
>
</g>

<g fill="none" stroke="#000000" stroke-opacity="1" stroke-width="1" stroke-linecap="square" stroke-linejoin="bevel" transform="matrix(2,0,0,2,-0.0028,72)"
font-family="Ubuntu" font-size="11" font-weight="400" font-style="normal" 
>
</g>

<g fill="#000000" fill-opacity="1" stroke="#000000" stroke-opacity="1" stroke-width="1" stroke-linecap="square" stroke-linejoin="round" transform="matrix(2,0,0,2,-0.0028,72)"
font-family="Ubuntu" font-size="11" font-weight="400" font-style="normal" 
>
<path vector-effect="none" fill-rule="evenodd" d="M126.7,-18 L126.7,-14.3775 L137.05,-18 L126.7,-21.6225 L126.7,-18"/>
</g>

<g fill="none" stroke="#000000" stroke-opacity="1" stroke-width="1" stroke-linecap="square" stroke-linejoin="bevel" transform="matrix(2,0,0,2,-0.0028,72)"
font-family="Ubuntu" font-size="11" font-weight="400" font-style="normal" 
>
</g>

<g fill="none" stroke="#000000" stroke-opacity="1" stroke-width="1" stroke-linecap="square" stroke-linejoin="bevel" transform="matrix(1,0,0,1,0,0)"
font-family="Ubuntu" font-size="11" font-weight="400" font-style="normal" 
>
</g>
</g>
</svg>
