<?xml version="1.0" encoding="UTF-8" standalone="no"?>
<svg width="152.4mm" height="63.5mm"
 xmlns="http://www.w3.org/2000/svg" xmlns:xlink="http://www.w3.org/1999/xlink"  version="1.2" baseProfile="tiny">
<title>Qt SVG Document</title>
<desc>Generated with Qt</desc>
<defs>
</defs>
<g fill="none" stroke="black" stroke-width="1" fill-rule="evenodd" stroke-linecap="square" stroke-linejoin="bevel" >

<g fill="none" stroke="#000000" stroke-opacity="1" stroke-width="1" stroke-linecap="square" stroke-linejoin="bevel" transform="matrix(1,0,0,1,0,0)"
font-family="Ubuntu" font-size="11" font-weight="400" font-style="normal" 
>
</g>

<g fill="none" stroke="#000000" stroke-opacity="1" stroke-width="1" stroke-linecap="square" stroke-linejoin="bevel" transform="matrix(1,0,0,1,0,0)"
font-family="Ubuntu" font-size="11" font-weight="400" font-style="normal" 
>
</g>

<g fill="none" stroke="#000000" stroke-opacity="1" stroke-width="1" stroke-linecap="square" stroke-linejoin="bevel" transform="matrix(1.99829,0,0,1.99829,0,179.846)"
font-family="Ubuntu" font-size="11" font-weight="400" font-style="normal" 
>
</g>

<g fill="#ffffff" fill-opacity="1" stroke="none" transform="matrix(1.99829,0,0,1.99829,0,179.846)"
font-family="Ubuntu" font-size="11" font-weight="400" font-style="normal" 
>
<rect x="0" y="-90" width="216.185" height="90"/>
</g>

<g fill="none" stroke="#000000" stroke-opacity="1" stroke-width="1" stroke-linecap="square" stroke-linejoin="bevel" transform="matrix(1.99829,0,0,1.99829,0,179.846)"
font-family="Ubuntu" font-size="11" font-weight="400" font-style="normal" 
>
</g>

<g fill="none" stroke="#000000" stroke-opacity="1" stroke-width="1" stroke-linecap="square" stroke-linejoin="bevel" transform="matrix(1.99829,0,0,1.99829,0,179.846)"
font-family="Ubuntu" font-size="11" font-weight="400" font-style="normal" 
>
</g>

<g fill="none" stroke="#000000" stroke-opacity="1" stroke-width="1" stroke-linecap="square" stroke-linejoin="bevel" transform="matrix(1.99829,0,0,1.99829,0,179.846)"
font-family="Ubuntu" font-size="11" font-weight="400" font-style="normal" 
>
</g>

<g fill="none" stroke="#000000" stroke-opacity="1" stroke-width="1" stroke-linecap="square" stroke-linejoin="bevel" transform="matrix(1.99829,0,0,1.99829,0,179.846)"
font-family="Ubuntu" font-size="11" font-weight="400" font-style="normal" 
>
</g>

<g fill="none" stroke="#000000" stroke-opacity="1" stroke-width="1" stroke-linecap="square" stroke-linejoin="round" transform="matrix(1.99829,0,0,1.99829,0,179.846)"
font-family="Ubuntu" font-size="11" font-weight="400" font-style="normal" 
>
<rect x="0.5" y="-89.5" width="53" height="35"/>
</g>

<g fill="none" stroke="#000000" stroke-opacity="1" stroke-width="1" stroke-linecap="square" stroke-linejoin="bevel" transform="matrix(1.99829,0,0,1.99829,0,179.846)"
font-family="Ubuntu" font-size="11" font-weight="400" font-style="normal" 
>
</g>

<g fill="none" stroke="#000000" stroke-opacity="1" stroke-width="1" stroke-linecap="square" stroke-linejoin="bevel" transform="matrix(1.99829,0,0,1.99829,25.8684,21.9812)"
font-family="Ubuntu" font-size="11" font-weight="400" font-style="normal" 
>
</g>

<g fill="none" stroke="#000000" stroke-opacity="1" stroke-width="1" stroke-linecap="square" stroke-linejoin="bevel" transform="matrix(1.99829,0,0,1.99829,25.8684,21.9812)"
font-family="sans" font-size="11" font-weight="100" font-style="normal" 
>
</g>

<g fill="#000000" fill-opacity="1" stroke="#000000" stroke-opacity="1" stroke-width="1" stroke-linecap="square" stroke-linejoin="round" transform="matrix(1.99829,0,0,1.99829,25.8684,21.9812)"
font-family="sans" font-size="11" font-weight="100" font-style="normal" 
>
<path vector-effect="none" fill-rule="nonzero" d="M2.96875,2.98438 L3.53125,2.98438 L0.734375,12.0156 L0.171875,12.0156 L2.96875,2.98438 M9.28125,6.29688 C9.46875,5.80729 9.76042,5.44271 10.1563,5.20313 C10.5417,4.96354 10.9948,4.84375 11.5156,4.84375 C12.0365,4.84375 12.4531,5.02604 12.7656,5.39063 C13.0885,5.75521 13.25,6.41667 13.25,7.375 L13.25,11 L12.7656,11 L12.7656,7.40625 C12.7656,6.57292 12.651,6.01042 12.4219,5.71875 C12.1927,5.42708 11.8854,5.28125 11.5,5.28125 C10.9479,5.28125 10.4635,5.44792 10.0469,5.78125 C9.57813,6.15625 9.34375,6.76042 9.34375,7.59375 L9.34375,11 L8.85938,11 L8.85938,7.40625 C8.85938,6.60417 8.7474,6.04948 8.52344,5.74219 C8.29948,5.4349 7.98958,5.28125 7.59375,5.28125 C7.04167,5.28125 6.55729,5.45313 6.14063,5.79688 C5.67188,6.16146 5.4375,6.76042 5.4375,7.59375 L5.4375,11 L4.95313,11 L4.95313,4.98438 L5.4375,4.98438 L5.4375,6.10938 C5.61458,5.71354 5.89063,5.40104 6.26563,5.17188 C6.63021,4.95313 7.08333,4.84375 7.625,4.84375 C7.97917,4.84375 8.31771,4.95833 8.64063,5.1875 C8.89063,5.375 9.10417,5.74479 9.28125,6.29688 M18.0625,7.60938 C17.2604,7.60938 16.6849,7.75 16.3359,8.03125 C15.987,8.3125 15.8125,8.72396 15.8125,9.26563 C15.8125,9.79688 15.9583,10.1745 16.25,10.3984 C16.5417,10.6224 16.8854,10.7344 17.2813,10.7344 C18.0313,10.7344 18.5729,10.4167 18.9063,9.78125 C19.2396,9.13542 19.4063,8.53125 19.4063,7.96875 L19.4063,7.60938 L18.0625,7.60938 M19.9063,7.5625 L19.9063,11 L19.4063,11 L19.4063,9.35938 C19.1354,10.1615 18.7708,10.6719 18.3125,10.8906 C17.9583,11.0677 17.599,11.1563 17.2344,11.1563 C16.6406,11.1563 16.1719,10.9948 15.8281,10.6719 C15.4844,10.349 15.3125,9.8776 15.3125,9.25781 C15.3125,8.63802 15.5365,8.14063 15.9844,7.76563 C16.4323,7.39063 17.1615,7.20313 18.1719,7.20313 L19.4063,7.20313 L19.4063,7.10938 C19.4063,6.57813 19.25,6.14063 18.9375,5.79688 C18.6458,5.45313 18.151,5.28125 17.4531,5.28125 C17.1094,5.28125 16.7604,5.34375 16.4063,5.46875 C16.1771,5.55208 15.875,5.71875 15.5,5.96875 L15.5,5.4375 C15.8229,5.23958 16.125,5.09896 16.4063,5.01563 C16.8021,4.90104 17.1823,4.84375 17.5469,4.84375 C18.2656,4.84375 18.8542,5.05729 19.3125,5.48438 C19.7083,5.84896 19.9063,6.54167 19.9063,7.5625 M22.875,9.64063 L22.875,13.2813 L22.3906,13.2813 L22.3906,4.98438 L22.875,4.98438 L22.875,6.35938 C23.1042,5.83854 23.349,5.47917 23.6094,5.28125 C24.0156,4.98958 24.401,4.84375 24.7656,4.84375 C25.474,4.84375 26.0651,5.13281 26.5391,5.71094 C27.013,6.28906 27.25,7.05208 27.25,8 C27.25,8.94792 27.013,9.71094 26.5391,10.2891 C26.0651,10.8672 25.474,11.1563 24.7656,11.1563 C24.401,11.1563 24.0156,11.0052 23.6094,10.7031 C23.349,10.5156 23.1042,10.1615 22.875,9.64063 M26.1094,10.0938 C26.526,9.67708 26.7344,8.97917 26.7344,8 C26.7344,7.02083 26.526,6.32292 26.1094,5.90625 C25.6927,5.48958 25.2552,5.28125 24.7969,5.28125 C24.349,5.28125 23.9167,5.48958 23.5,5.90625 C23.0938,6.32292 22.8906,7.02083 22.8906,8 C22.8906,8.97917 23.0938,9.67708 23.5,10.0938 C23.9167,10.5104 24.349,10.7188 24.7969,10.7188 C25.2552,10.7188 25.6927,10.5104 26.1094,10.0938 "/>
</g>

<g fill="none" stroke="#000000" stroke-opacity="1" stroke-width="1" stroke-linecap="square" stroke-linejoin="bevel" transform="matrix(1.99829,0,0,1.99829,25.8684,21.9812)"
font-family="sans" font-size="11" font-weight="100" font-style="normal" 
>
</g>

<g fill="none" stroke="#000000" stroke-opacity="1" stroke-width="1" stroke-linecap="square" stroke-linejoin="bevel" transform="matrix(1.99829,0,0,1.99829,25.8684,21.9812)"
font-family="Ubuntu" font-size="11" font-weight="400" font-style="normal" 
>
</g>

<g fill="none" stroke="#000000" stroke-opacity="1" stroke-width="1" stroke-linecap="square" stroke-linejoin="bevel" transform="matrix(1.99829,0,0,1.99829,0,179.846)"
font-family="Ubuntu" font-size="11" font-weight="400" font-style="normal" 
>
</g>

<g fill="none" stroke="#000000" stroke-opacity="1" stroke-width="1" stroke-linecap="square" stroke-linejoin="bevel" transform="matrix(1.99829,0,0,1.99829,0,179.846)"
font-family="Ubuntu" font-size="11" font-weight="400" font-style="normal" 
>
</g>

<g fill="none" stroke="#000000" stroke-opacity="1" stroke-width="1" stroke-linecap="square" stroke-linejoin="bevel" transform="matrix(1.99829,0,0,1.99829,0,179.846)"
font-family="Ubuntu" font-size="11" font-weight="400" font-style="normal" 
>
</g>

<g fill="none" stroke="#000000" stroke-opacity="1" stroke-width="1" stroke-linecap="square" stroke-linejoin="round" transform="matrix(1.99829,0,0,1.99829,0,179.846)"
font-family="Ubuntu" font-size="11" font-weight="400" font-style="normal" 
>
<ellipse cx="142.09" cy="-72" rx="73.5952" ry="17.5"/>
</g>

<g fill="none" stroke="#000000" stroke-opacity="1" stroke-width="1" stroke-linecap="square" stroke-linejoin="bevel" transform="matrix(1.99829,0,0,1.99829,0,179.846)"
font-family="Ubuntu" font-size="11" font-weight="400" font-style="normal" 
>
</g>

<g fill="none" stroke="#000000" stroke-opacity="1" stroke-width="1" stroke-linecap="square" stroke-linejoin="bevel" transform="matrix(1.99829,0,0,1.99829,207.955,21.9812)"
font-family="Ubuntu" font-size="11" font-weight="400" font-style="normal" 
>
</g>

<g fill="none" stroke="#000000" stroke-opacity="1" stroke-width="1" stroke-linecap="square" stroke-linejoin="bevel" transform="matrix(1.99829,0,0,1.99829,207.955,21.9812)"
font-family="sans" font-size="11" font-weight="100" font-style="normal" 
>
</g>

<g fill="#000000" fill-opacity="1" stroke="#000000" stroke-opacity="1" stroke-width="1" stroke-linecap="square" stroke-linejoin="round" transform="matrix(1.99829,0,0,1.99829,207.955,21.9812)"
font-family="sans" font-size="11" font-weight="100" font-style="normal" 
>
<path vector-effect="none" fill-rule="nonzero" d="M2.96875,2.98438 L3.53125,2.98438 L0.734375,12.0156 L0.171875,12.0156 L2.96875,2.98438 M8.35938,5.15625 L8.35938,5.70313 C8.00521,5.50521 7.78646,5.39583 7.70313,5.375 C7.45313,5.32292 7.14063,5.29167 6.76563,5.28125 C6.20313,5.28125 5.76042,5.39063 5.4375,5.60938 C5.1875,5.79688 5.0625,6.11458 5.0625,6.5625 C5.0625,6.875 5.18229,7.11458 5.42188,7.28125 C5.66146,7.46875 6.01042,7.61458 6.46875,7.71875 L6.8125,7.78125 C7.38542,7.90625 7.81771,8.08333 8.10938,8.3125 C8.45313,8.58333 8.63021,8.92708 8.64063,9.34375 C8.64063,9.90625 8.47396,10.349 8.14063,10.6719 C7.78646,10.9948 7.20833,11.1563 6.40625,11.1563 C5.96875,11.1563 5.63542,11.125 5.40625,11.0625 C5.125,10.9896 4.83333,10.8958 4.53125,10.7813 L4.53125,10.1563 C4.96875,10.4063 5.25,10.5521 5.375,10.5938 C5.72917,10.6875 6.08333,10.7344 6.4375,10.7344 C7.01042,10.7344 7.4375,10.6146 7.71875,10.375 C8,10.125 8.14063,9.80729 8.14063,9.42188 C8.14063,9.08854 8.04688,8.84896 7.85938,8.70313 C7.58854,8.48438 7.16146,8.30729 6.57813,8.17188 L6.23438,8.09375 C5.72396,7.96875 5.33854,7.80208 5.07813,7.59375 C4.74479,7.32292 4.57813,6.99479 4.57813,6.60938 C4.57813,5.98438 4.77865,5.53385 5.17969,5.25781 C5.58073,4.98177 6.07292,4.84375 6.65625,4.84375 C7.15625,4.84375 7.5,4.86979 7.6875,4.92188 C7.91667,4.98438 8.14063,5.0625 8.35938,5.15625 M10.6719,2.64063 L11.1563,2.64063 L11.1563,11 L10.6719,11 L10.6719,2.64063 M16.125,7.60938 C15.3229,7.60938 14.7474,7.75 14.3984,8.03125 C14.0495,8.3125 13.875,8.72396 13.875,9.26563 C13.875,9.79688 14.0208,10.1745 14.3125,10.3984 C14.6042,10.6224 14.9479,10.7344 15.3438,10.7344 C16.0938,10.7344 16.6354,10.4167 16.9688,9.78125 C17.3021,9.13542 17.4688,8.53125 17.4688,7.96875 L17.4688,7.60938 L16.125,7.60938 M17.9688,7.5625 L17.9688,11 L17.4688,11 L17.4688,9.35938 C17.1979,10.1615 16.8333,10.6719 16.375,10.8906 C16.0208,11.0677 15.6615,11.1563 15.2969,11.1563 C14.7031,11.1563 14.2344,10.9948 13.8906,10.6719 C13.5469,10.349 13.375,9.8776 13.375,9.25781 C13.375,8.63802 13.599,8.14063 14.0469,7.76563 C14.4948,7.39063 15.224,7.20313 16.2344,7.20313 L17.4688,7.20313 L17.4688,7.10938 C17.4688,6.57813 17.3125,6.14063 17,5.79688 C16.7083,5.45313 16.2135,5.28125 15.5156,5.28125 C15.1719,5.28125 14.8229,5.34375 14.4688,5.46875 C14.2396,5.55208 13.9375,5.71875 13.5625,5.96875 L13.5625,5.4375 C13.8854,5.23958 14.1875,5.09896 14.4688,5.01563 C14.8646,4.90104 15.2448,4.84375 15.6094,4.84375 C16.3281,4.84375 16.9167,5.05729 17.375,5.48438 C17.7708,5.84896 17.9688,6.54167 17.9688,7.5625 M24.7813,6.29688 C24.9688,5.80729 25.2604,5.44271 25.6563,5.20313 C26.0417,4.96354 26.4948,4.84375 27.0156,4.84375 C27.5365,4.84375 27.9531,5.02604 28.2656,5.39063 C28.5885,5.75521 28.75,6.41667 28.75,7.375 L28.75,11 L28.2656,11 L28.2656,7.40625 C28.2656,6.57292 28.151,6.01042 27.9219,5.71875 C27.6927,5.42708 27.3854,5.28125 27,5.28125 C26.4479,5.28125 25.9635,5.44792 25.5469,5.78125 C25.0781,6.15625 24.8438,6.76042 24.8438,7.59375 L24.8438,11 L24.3594,11 L24.3594,7.40625 C24.3594,6.60417 24.2474,6.04948 24.0234,5.74219 C23.7995,5.4349 23.4896,5.28125 23.0938,5.28125 C22.5417,5.28125 22.0573,5.45313 21.6406,5.79688 C21.1719,6.16146 20.9375,6.76042 20.9375,7.59375 L20.9375,11 L20.4531,11 L20.4531,4.98438 L20.9375,4.98438 L20.9375,6.10938 C21.1146,5.71354 21.3906,5.40104 21.7656,5.17188 C22.1302,4.95313 22.5833,4.84375 23.125,4.84375 C23.4792,4.84375 23.8177,4.95833 24.1406,5.1875 C24.3906,5.375 24.6042,5.74479 24.7813,6.29688 M35.5156,13.1719 L35.5156,13.5938 L29.7969,13.5938 L29.7969,13.1719 L35.5156,13.1719 M37.1719,3.28125 L37.1719,4.98438 L39.2031,4.98438 L39.2031,5.40625 L37.1719,5.40625 L37.1719,9.01563 C37.1719,9.47396 37.2292,9.79688 37.3438,9.98438 C37.5938,10.3802 37.9531,10.5781 38.4219,10.5781 L39.2031,10.5781 L39.2031,11 L38.4375,11 C37.9479,11 37.5313,10.8568 37.1875,10.5703 C36.8438,10.2839 36.6719,9.76563 36.6719,9.01563 L36.6719,5.40625 L35.9531,5.40625 L35.9531,4.98438 L36.6719,4.98438 L36.6719,3.28125 L37.1719,3.28125 M44.5469,6.01563 C44.1927,5.52604 43.7083,5.28125 43.0938,5.28125 C42.4792,5.28125 41.9948,5.52604 41.6406,6.01563 C41.2865,6.49479 41.1094,7.15104 41.1094,7.98438 C41.1094,8.83854 41.2865,9.51042 41.6406,10 C41.9948,10.4896 42.4792,10.7344 43.0938,10.7344 C43.7083,10.7344 44.1927,10.4896 44.5469,10 C44.901,9.5 45.0781,8.82813 45.0781,7.98438 C45.0781,7.16146 44.901,6.50521 44.5469,6.01563 M43.0938,4.84375 C43.8542,4.84375 44.4583,5.13021 44.9063,5.70313 C45.3542,6.27604 45.5781,7.03646 45.5781,7.98438 C45.5781,8.97396 45.3542,9.75521 44.9063,10.3281 C44.4583,10.901 43.8542,11.1875 43.0938,11.1875 C42.3125,11.1875 41.6979,10.901 41.25,10.3281 C40.8125,9.75521 40.5938,8.97396 40.5938,7.98438 C40.5938,7.02604 40.8177,6.26302 41.2656,5.69531 C41.7135,5.1276 42.3229,4.84375 43.0938,4.84375 M51.2656,6.01563 C50.9115,5.52604 50.4271,5.28125 49.8125,5.28125 C49.1979,5.28125 48.7135,5.52604 48.3594,6.01563 C48.0052,6.49479 47.8281,7.15104 47.8281,7.98438 C47.8281,8.83854 48.0052,9.51042 48.3594,10 C48.7135,10.4896 49.1979,10.7344 49.8125,10.7344 C50.4271,10.7344 50.9115,10.4896 51.2656,10 C51.6198,9.5 51.7969,8.82813 51.7969,7.98438 C51.7969,7.16146 51.6198,6.50521 51.2656,6.01563 M49.8125,4.84375 C50.5729,4.84375 51.1771,5.13021 51.625,5.70313 C52.0729,6.27604 52.2969,7.03646 52.2969,7.98438 C52.2969,8.97396 52.0729,9.75521 51.625,10.3281 C51.1771,10.901 50.5729,11.1875 49.8125,11.1875 C49.0313,11.1875 48.4167,10.901 47.9688,10.3281 C47.5313,9.75521 47.3125,8.97396 47.3125,7.98438 C47.3125,7.02604 47.5365,6.26302 47.9844,5.69531 C48.4323,5.1276 49.0417,4.84375 49.8125,4.84375 M54.4063,2.64063 L54.8906,2.64063 L54.8906,11 L54.4063,11 L54.4063,2.64063 M61.1719,10.0938 C61.5885,9.67708 61.7969,8.97917 61.7969,8 C61.7969,7.02083 61.5885,6.32292 61.1719,5.90625 C60.7552,5.48958 60.3177,5.28125 59.8594,5.28125 C59.4115,5.28125 58.9792,5.48958 58.5625,5.90625 C58.1563,6.32292 57.9531,7.02083 57.9531,8 C57.9531,8.97917 58.1563,9.67708 58.5625,10.0938 C58.9792,10.5104 59.4115,10.7188 59.8594,10.7188 C60.3177,10.7188 60.7552,10.5104 61.1719,10.0938 M57.9375,6.35938 C58.1667,5.83854 58.4115,5.47917 58.6719,5.28125 C59.0781,4.98958 59.4635,4.84375 59.8281,4.84375 C60.5365,4.84375 61.1276,5.13281 61.6016,5.71094 C62.0755,6.28906 62.3125,7.05208 62.3125,8 C62.3125,8.94792 62.0755,9.71094 61.6016,10.2891 C61.1276,10.8672 60.5365,11.1563 59.8281,11.1563 C59.4635,11.1563 59.0781,11.0052 58.6719,10.7031 C58.4115,10.5156 58.1667,10.1615 57.9375,9.64063 L57.9375,11 L57.4531,11 L57.4531,2.64063 L57.9375,2.64063 L57.9375,6.35938 M68,6.01563 C67.6458,5.52604 67.1615,5.28125 66.5469,5.28125 C65.9323,5.28125 65.4479,5.52604 65.0938,6.01563 C64.7396,6.49479 64.5625,7.15104 64.5625,7.98438 C64.5625,8.83854 64.7396,9.51042 65.0938,10 C65.4479,10.4896 65.9323,10.7344 66.5469,10.7344 C67.1615,10.7344 67.6458,10.4896 68,10 C68.3542,9.5 68.5313,8.82813 68.5313,7.98438 C68.5313,7.16146 68.3542,6.50521 68,6.01563 M66.5469,4.84375 C67.3073,4.84375 67.9115,5.13021 68.3594,5.70313 C68.8073,6.27604 69.0313,7.03646 69.0313,7.98438 C69.0313,8.97396 68.8073,9.75521 68.3594,10.3281 C67.9115,10.901 67.3073,11.1875 66.5469,11.1875 C65.7656,11.1875 65.151,10.901 64.7031,10.3281 C64.2656,9.75521 64.0469,8.97396 64.0469,7.98438 C64.0469,7.02604 64.2708,6.26302 64.7188,5.69531 C65.1667,5.1276 65.776,4.84375 66.5469,4.84375 M75.2813,4.98438 L73.1094,7.875 L75.4375,11 L74.8594,11 L72.8125,8.26563 L70.75,11 L70.1563,11 L72.5156,7.85938 L70.375,4.98438 L70.9531,4.98438 L72.8125,7.48438 L74.6875,4.98438 L75.2813,4.98438"/>
</g>

<g fill="none" stroke="#000000" stroke-opacity="1" stroke-width="1" stroke-linecap="square" stroke-linejoin="bevel" transform="matrix(1.99829,0,0,1.99829,207.955,21.9812)"
font-family="sans" font-size="11" font-weight="100" font-style="normal" 
>
</g>

<g fill="none" stroke="#000000" stroke-opacity="1" stroke-width="1" stroke-linecap="square" stroke-linejoin="bevel" transform="matrix(1.99829,0,0,1.99829,207.955,21.9812)"
font-family="Ubuntu" font-size="11" font-weight="400" font-style="normal" 
>
</g>

<g fill="none" stroke="#000000" stroke-opacity="1" stroke-width="1" stroke-linecap="square" stroke-linejoin="bevel" transform="matrix(1.99829,0,0,1.99829,0,179.846)"
font-family="Ubuntu" font-size="11" font-weight="400" font-style="normal" 
>
</g>

<g fill="none" stroke="#000000" stroke-opacity="1" stroke-width="1" stroke-linecap="square" stroke-linejoin="bevel" transform="matrix(1.99829,0,0,1.99829,0,179.846)"
font-family="Ubuntu" font-size="11" font-weight="400" font-style="normal" 
>
</g>

<g fill="none" stroke="#000000" stroke-opacity="1" stroke-width="1" stroke-linecap="square" stroke-linejoin="bevel" transform="matrix(1.99829,0,0,1.99829,0,179.846)"
font-family="Ubuntu" font-size="11" font-weight="400" font-style="normal" 
>
</g>

<g fill="none" stroke="#000000" stroke-opacity="1" stroke-width="1" stroke-linecap="square" stroke-linejoin="round" transform="matrix(1.99829,0,0,1.99829,0,179.846)"
font-family="Ubuntu" font-size="11" font-weight="400" font-style="normal" 
>
<rect x="0.5" y="-35.5" width="53" height="35"/>
</g>

<g fill="none" stroke="#000000" stroke-opacity="1" stroke-width="1" stroke-linecap="square" stroke-linejoin="bevel" transform="matrix(1.99829,0,0,1.99829,0,179.846)"
font-family="Ubuntu" font-size="11" font-weight="400" font-style="normal" 
>
</g>

<g fill="none" stroke="#000000" stroke-opacity="1" stroke-width="1" stroke-linecap="square" stroke-linejoin="bevel" transform="matrix(1.99829,0,0,1.99829,24.8069,129.889)"
font-family="Ubuntu" font-size="11" font-weight="400" font-style="normal" 
>
</g>

<g fill="none" stroke="#000000" stroke-opacity="1" stroke-width="1" stroke-linecap="square" stroke-linejoin="bevel" transform="matrix(1.99829,0,0,1.99829,24.8069,129.889)"
font-family="sans" font-size="11" font-weight="100" font-style="normal" 
>
</g>

<g fill="#000000" fill-opacity="1" stroke="#000000" stroke-opacity="1" stroke-width="1" stroke-linecap="square" stroke-linejoin="round" transform="matrix(1.99829,0,0,1.99829,24.8069,129.889)"
font-family="sans" font-size="11" font-weight="100" font-style="normal" 
>
<path vector-effect="none" fill-rule="nonzero" d="M2.96875,2.98438 L3.53125,2.98438 L0.734375,12.0156 L0.171875,12.0156 L2.96875,2.98438 M8.35938,5.15625 L8.35938,5.70313 C8.00521,5.50521 7.78646,5.39583 7.70313,5.375 C7.45313,5.32292 7.14063,5.29167 6.76563,5.28125 C6.20313,5.28125 5.76042,5.39063 5.4375,5.60938 C5.1875,5.79688 5.0625,6.11458 5.0625,6.5625 C5.0625,6.875 5.18229,7.11458 5.42188,7.28125 C5.66146,7.46875 6.01042,7.61458 6.46875,7.71875 L6.8125,7.78125 C7.38542,7.90625 7.81771,8.08333 8.10938,8.3125 C8.45313,8.58333 8.63021,8.92708 8.64063,9.34375 C8.64063,9.90625 8.47396,10.349 8.14063,10.6719 C7.78646,10.9948 7.20833,11.1563 6.40625,11.1563 C5.96875,11.1563 5.63542,11.125 5.40625,11.0625 C5.125,10.9896 4.83333,10.8958 4.53125,10.7813 L4.53125,10.1563 C4.96875,10.4063 5.25,10.5521 5.375,10.5938 C5.72917,10.6875 6.08333,10.7344 6.4375,10.7344 C7.01042,10.7344 7.4375,10.6146 7.71875,10.375 C8,10.125 8.14063,9.80729 8.14063,9.42188 C8.14063,9.08854 8.04688,8.84896 7.85938,8.70313 C7.58854,8.48438 7.16146,8.30729 6.57813,8.17188 L6.23438,8.09375 C5.72396,7.96875 5.33854,7.80208 5.07813,7.59375 C4.74479,7.32292 4.57813,6.99479 4.57813,6.60938 C4.57813,5.98438 4.77865,5.53385 5.17969,5.25781 C5.58073,4.98177 6.07292,4.84375 6.65625,4.84375 C7.15625,4.84375 7.5,4.86979 7.6875,4.92188 C7.91667,4.98438 8.14063,5.0625 8.35938,5.15625 M14.7813,5.28125 L14.7813,5.79688 C14.4896,5.61979 14.2448,5.5 14.0469,5.4375 C13.7135,5.33333 13.3958,5.28125 13.0938,5.28125 C12.2292,5.28125 11.6094,5.5026 11.2344,5.94531 C10.8594,6.38802 10.6719,7.07292 10.6719,8 C10.6719,8.9375 10.8594,9.6276 11.2344,10.0703 C11.6094,10.513 12.2292,10.7344 13.0938,10.7344 C13.3854,10.7344 13.6667,10.6927 13.9375,10.6094 C14.2292,10.5365 14.5104,10.4219 14.7813,10.2656 L14.7813,10.7656 C14.5104,10.901 14.2292,11 13.9375,11.0625 C13.6354,11.125 13.3385,11.1563 13.0469,11.1563 C12.1719,11.1563 11.474,10.9167 10.9531,10.4375 C10.4323,9.95833 10.1719,9.14323 10.1719,7.99219 C10.1719,6.84115 10.4323,6.02604 10.9531,5.54688 C11.474,5.07813 12.1719,4.84375 13.0469,4.84375 C13.3385,4.84375 13.6458,4.88542 13.9688,4.96875 C14.2917,5.04167 14.5625,5.14583 14.7813,5.28125 M19.125,7.60938 C18.3229,7.60938 17.7474,7.75 17.3984,8.03125 C17.0495,8.3125 16.875,8.72396 16.875,9.26563 C16.875,9.79688 17.0208,10.1745 17.3125,10.3984 C17.6042,10.6224 17.9479,10.7344 18.3438,10.7344 C19.0938,10.7344 19.6354,10.4167 19.9688,9.78125 C20.3021,9.13542 20.4688,8.53125 20.4688,7.96875 L20.4688,7.60938 L19.125,7.60938 M20.9688,7.5625 L20.9688,11 L20.4688,11 L20.4688,9.35938 C20.1979,10.1615 19.8333,10.6719 19.375,10.8906 C19.0208,11.0677 18.6615,11.1563 18.2969,11.1563 C17.7031,11.1563 17.2344,10.9948 16.8906,10.6719 C16.5469,10.349 16.375,9.8776 16.375,9.25781 C16.375,8.63802 16.599,8.14063 17.0469,7.76563 C17.4948,7.39063 18.224,7.20313 19.2344,7.20313 L20.4688,7.20313 L20.4688,7.10938 C20.4688,6.57813 20.3125,6.14063 20,5.79688 C19.7083,5.45313 19.2135,5.28125 18.5156,5.28125 C18.1719,5.28125 17.8229,5.34375 17.4688,5.46875 C17.2396,5.55208 16.9375,5.71875 16.5625,5.96875 L16.5625,5.4375 C16.8854,5.23958 17.1875,5.09896 17.4688,5.01563 C17.8646,4.90104 18.2448,4.84375 18.6094,4.84375 C19.3281,4.84375 19.9167,5.05729 20.375,5.48438 C20.7708,5.84896 20.9688,6.54167 20.9688,7.5625 M28,7.375 L28,11 L27.5,11 L27.5,7.40625 C27.5,6.625 27.375,6.07552 27.125,5.75781 C26.875,5.4401 26.5052,5.28125 26.0156,5.28125 C25.4427,5.28125 24.9583,5.45313 24.5625,5.79688 C24.1458,6.14063 23.9375,6.73958 23.9375,7.59375 L23.9375,11 L23.4531,11 L23.4531,4.98438 L23.9375,4.98438 L23.9375,6.10938 C24.1146,5.74479 24.349,5.46875 24.6406,5.28125 C25.0573,4.98958 25.5208,4.84375 26.0313,4.84375 C26.6354,4.84375 27.1146,5.04688 27.4688,5.45313 C27.8229,5.84896 28,6.48958 28,7.375 "/>
</g>

<g fill="none" stroke="#000000" stroke-opacity="1" stroke-width="1" stroke-linecap="square" stroke-linejoin="bevel" transform="matrix(1.99829,0,0,1.99829,24.8069,129.889)"
font-family="sans" font-size="11" font-weight="100" font-style="normal" 
>
</g>

<g fill="none" stroke="#000000" stroke-opacity="1" stroke-width="1" stroke-linecap="square" stroke-linejoin="bevel" transform="matrix(1.99829,0,0,1.99829,24.8069,129.889)"
font-family="Ubuntu" font-size="11" font-weight="400" font-style="normal" 
>
</g>

<g fill="none" stroke="#000000" stroke-opacity="1" stroke-width="1" stroke-linecap="square" stroke-linejoin="bevel" transform="matrix(1.99829,0,0,1.99829,0,179.846)"
font-family="Ubuntu" font-size="11" font-weight="400" font-style="normal" 
>
</g>

<g fill="none" stroke="#000000" stroke-opacity="1" stroke-width="1" stroke-linecap="square" stroke-linejoin="bevel" transform="matrix(1.99829,0,0,1.99829,0,179.846)"
font-family="Ubuntu" font-size="11" font-weight="400" font-style="normal" 
>
</g>

<g fill="none" stroke="#000000" stroke-opacity="1" stroke-width="1" stroke-linecap="square" stroke-linejoin="bevel" transform="matrix(1.99829,0,0,1.99829,0,179.846)"
font-family="Ubuntu" font-size="11" font-weight="400" font-style="normal" 
>
</g>

<g fill="none" stroke="#000000" stroke-opacity="1" stroke-width="1" stroke-linecap="square" stroke-linejoin="round" transform="matrix(1.99829,0,0,1.99829,0,179.846)"
font-family="Ubuntu" font-size="11" font-weight="400" font-style="normal" 
>
<path vector-effect="none" fill-rule="evenodd" d="M54.23,-66.199 C56.922,-66.012 59.744,-65.853 62.657,-65.721 "/>
</g>

<g fill="none" stroke="#000000" stroke-opacity="1" stroke-width="1" stroke-linecap="square" stroke-linejoin="bevel" transform="matrix(1.99829,0,0,1.99829,0,179.846)"
font-family="Ubuntu" font-size="11" font-weight="400" font-style="normal" 
>
</g>

<g fill="none" stroke="#000000" stroke-opacity="1" stroke-width="1" stroke-linecap="square" stroke-linejoin="bevel" transform="matrix(1.99829,0,0,1.99829,0,179.846)"
font-family="Ubuntu" font-size="11" font-weight="400" font-style="normal" 
>
</g>

<g fill="#000000" fill-opacity="1" stroke="#000000" stroke-opacity="1" stroke-width="1" stroke-linecap="square" stroke-linejoin="round" transform="matrix(1.99829,0,0,1.99829,0,179.846)"
font-family="Ubuntu" font-size="11" font-weight="400" font-style="normal" 
>
<path vector-effect="none" fill-rule="evenodd" d="M62.657,-65.721 L62.5376,-62.15 L72.86,-65.38 L62.7764,-69.2921 L62.657,-65.721"/>
</g>

<g fill="none" stroke="#000000" stroke-opacity="1" stroke-width="1" stroke-linecap="square" stroke-linejoin="bevel" transform="matrix(1.99829,0,0,1.99829,0,179.846)"
font-family="Ubuntu" font-size="11" font-weight="400" font-style="normal" 
>
</g>

<g fill="none" stroke="#000000" stroke-opacity="1" stroke-width="1" stroke-linecap="square" stroke-linejoin="bevel" transform="matrix(1.99829,0,0,1.99829,0,179.846)"
font-family="Ubuntu" font-size="11" font-weight="400" font-style="normal" 
>
</g>

<g fill="none" stroke="#000000" stroke-opacity="1" stroke-width="1" stroke-linecap="square" stroke-linejoin="bevel" transform="matrix(1.99829,0,0,1.99829,0,179.846)"
font-family="Ubuntu" font-size="11" font-weight="400" font-style="normal" 
>
</g>

<g fill="none" stroke="#000000" stroke-opacity="1" stroke-width="1" stroke-linecap="square" stroke-linejoin="bevel" transform="matrix(1.99829,0,0,1.99829,0,179.846)"
font-family="Ubuntu" font-size="11" font-weight="400" font-style="normal" 
>
</g>

<g fill="none" stroke="#000000" stroke-opacity="1" stroke-width="1" stroke-linecap="square" stroke-linejoin="round" transform="matrix(1.99829,0,0,1.99829,0,179.846)"
font-family="Ubuntu" font-size="11" font-weight="400" font-style="normal" 
>
<path vector-effect="none" fill-rule="evenodd" d="M54.23,-30.524 C67.415,-36.82 83.722,-44.606 98.633,-51.726 "/>
</g>

<g fill="none" stroke="#000000" stroke-opacity="1" stroke-width="1" stroke-linecap="square" stroke-linejoin="bevel" transform="matrix(1.99829,0,0,1.99829,0,179.846)"
font-family="Ubuntu" font-size="11" font-weight="400" font-style="normal" 
>
</g>

<g fill="none" stroke="#000000" stroke-opacity="1" stroke-width="1" stroke-linecap="square" stroke-linejoin="bevel" transform="matrix(1.99829,0,0,1.99829,0,179.846)"
font-family="Ubuntu" font-size="11" font-weight="400" font-style="normal" 
>
</g>

<g fill="#000000" fill-opacity="1" stroke="#000000" stroke-opacity="1" stroke-width="1" stroke-linecap="square" stroke-linejoin="round" transform="matrix(1.99829,0,0,1.99829,0,179.846)"
font-family="Ubuntu" font-size="11" font-weight="400" font-style="normal" 
>
<path vector-effect="none" fill-rule="evenodd" d="M98.633,-51.726 L100.148,-48.5525 L107.7,-56.054 L97.1182,-54.8995 L98.633,-51.726"/>
</g>

<g fill="none" stroke="#000000" stroke-opacity="1" stroke-width="1" stroke-linecap="square" stroke-linejoin="bevel" transform="matrix(1.99829,0,0,1.99829,0,179.846)"
font-family="Ubuntu" font-size="11" font-weight="400" font-style="normal" 
>
</g>

<g fill="none" stroke="#000000" stroke-opacity="1" stroke-width="1" stroke-linecap="square" stroke-linejoin="bevel" transform="matrix(1.99829,0,0,1.99829,0,179.846)"
font-family="Ubuntu" font-size="11" font-weight="400" font-style="normal" 
>
</g>

<g fill="none" stroke="#000000" stroke-opacity="1" stroke-width="1" stroke-linecap="square" stroke-linejoin="bevel" transform="matrix(1.99829,0,0,1.99829,0,179.846)"
font-family="Ubuntu" font-size="11" font-weight="400" font-style="normal" 
>
</g>

<g fill="none" stroke="#000000" stroke-opacity="1" stroke-width="1" stroke-linecap="square" stroke-linejoin="bevel" transform="matrix(1.99829,0,0,1.99829,0,179.846)"
font-family="Ubuntu" font-size="11" font-weight="400" font-style="normal" 
>
</g>

<g fill="none" stroke="#000000" stroke-opacity="1" stroke-width="1" stroke-linecap="square" stroke-linejoin="round" transform="matrix(1.99829,0,0,1.99829,0,179.846)"
font-family="Ubuntu" font-size="11" font-weight="400" font-style="normal" 
>
<path vector-effect="none" fill-rule="evenodd" d="M72.86,-78.62 C69.993,-78.556 67.168,-78.467 64.416,-78.354 "/>
</g>

<g fill="none" stroke="#000000" stroke-opacity="1" stroke-width="1" stroke-linecap="square" stroke-linejoin="bevel" transform="matrix(1.99829,0,0,1.99829,0,179.846)"
font-family="Ubuntu" font-size="11" font-weight="400" font-style="normal" 
>
</g>

<g fill="none" stroke="#000000" stroke-opacity="1" stroke-width="1" stroke-linecap="square" stroke-linejoin="bevel" transform="matrix(1.99829,0,0,1.99829,0,179.846)"
font-family="Ubuntu" font-size="11" font-weight="400" font-style="normal" 
>
</g>

<g fill="#000000" fill-opacity="1" stroke="#000000" stroke-opacity="1" stroke-width="1" stroke-linecap="square" stroke-linejoin="round" transform="matrix(1.99829,0,0,1.99829,0,179.846)"
font-family="Ubuntu" font-size="11" font-weight="400" font-style="normal" 
>
<path vector-effect="none" fill-rule="evenodd" d="M64.416,-78.354 L64.2224,-81.9191 L54.23,-77.801 L64.6095,-74.7889 L64.416,-78.354"/>
</g>

<g fill="none" stroke="#000000" stroke-opacity="1" stroke-width="1" stroke-linecap="square" stroke-linejoin="bevel" transform="matrix(1.99829,0,0,1.99829,0,179.846)"
font-family="Ubuntu" font-size="11" font-weight="400" font-style="normal" 
>
</g>

<g fill="none" stroke="#000000" stroke-opacity="1" stroke-width="1" stroke-linecap="square" stroke-linejoin="bevel" transform="matrix(1,0,0,1,0,0)"
font-family="Ubuntu" font-size="11" font-weight="400" font-style="normal" 
>
</g>
</g>
</svg>
